<svg xmlns="http://www.w3.org/2000/svg" width="1000" height="780" viewBox="0 0 1000 780"><rect x="0" y="0" width="1000" height="780" fill="#f5f7fa" /><g id="clusters"><g id="cluster-3"><path d="M171.4749 365.6168 L170.4689 307.9879 L175.5498 293.2741 L170.0219 282.3750 L169.2395 237.5525 L174.3818 226.3605 L168.7924 211.9396 L167.7492 152.1763 L225.3782 151.1704 L240.0920 156.2512 L250.9910 150.7233 L295.8135 149.9409 L307.0056 155.0832 L321.4264 149.4939 L381.1897 148.4507 L382.1957 206.0796 L377.1149 220.7934 L382.6427 231.6925 L383.4251 276.5150 L378.2828 287.7070 L383.8722 302.1278 L384.9154 361.8912 L327.2864 362.8971 L312.5726 357.8163 L301.6736 363.3442 L256.8511 364.1266 L245.6590 358.9843 L231.2382 364.5736 L171.4749 365.6168 Z" fill="#722e13" fill-opacity="0.9" stroke="#c9db06" stroke-width="2.2000" /><path d="M182.5894 354.1074 L181.6901 302.5869 L186.2324 289.4327 L181.2904 279.6889 L180.5910 239.6175 L185.1882 229.6117 L180.1913 216.7195 L179.2587 163.2908 L230.7791 162.3915 L243.9333 166.9338 L253.6771 161.9919 L293.7486 161.2924 L303.7543 165.8896 L316.6466 160.8927 L370.0752 159.9601 L370.9745 211.4806 L366.4322 224.6348 L371.3742 234.3786 L372.0736 274.4500 L367.4764 284.4558 L372.4733 297.3480 L373.4059 350.7767 L321.8855 351.6759 L308.7313 347.1337 L298.9875 352.0756 L258.9160 352.7751 L248.9103 348.1779 L236.0180 353.1748 L182.5894 354.1074 Z" fill="none" stroke="#f5f7fa" stroke-width="1.4000" opacity="0.88" /><path d="M171.8484 330.1941 L180.3058 282.2302 L186.8925 270.8446 L184.0646 260.9129 L190.6425 223.6076 L196.7125 215.1532 L194.4013 202.2903 L203.1719 152.5499 L251.1359 161.0072 L262.5214 167.5940 L272.4532 164.7660 L309.7585 171.3440 L318.2129 177.4139 L331.0758 175.1028 L380.8162 183.8734 L372.3588 231.8373 L365.7721 243.2229 L368.6000 253.1546 L362.0221 290.4599 L355.9522 298.9143 L358.2633 311.7772 L349.4927 361.5176 L301.5287 353.0603 L290.1432 346.4735 L280.2114 349.3015 L242.9061 342.7235 L234.4517 336.6536 L221.5888 338.9647 L171.8484 330.1941 Z" fill="#9c4d19" fill-opacity="0.9" stroke="#dbef06" stroke-width="2.2000" /><path d="M184.9549 321.0169 L192.3513 279.0696 L198.1119 269.1122 L195.6386 260.4263 L201.3914 227.8006 L206.7000 220.4067 L204.6787 209.1573 L212.3491 165.6563 L254.2965 173.0528 L264.2538 178.8133 L272.9398 176.3401 L305.5655 182.0929 L312.9594 187.4014 L324.2088 185.3802 L367.7097 193.0506 L360.3133 234.9979 L354.5528 244.9553 L357.0260 253.6412 L351.2732 286.2669 L345.9647 293.6608 L347.9859 304.9102 L340.3155 348.4112 L298.3681 341.0147 L288.4108 335.2542 L279.7248 337.7274 L247.0991 331.9746 L239.7052 326.6661 L228.4558 328.6873 L184.9549 321.0169 Z" fill="none" stroke="#f5f7fa" stroke-width="1.4000" opacity="0.88" /><path d="M181.1826 299.3971 L195.4349 262.2686 L202.4886 254.1686 L201.7693 245.7670 L212.8544 216.8893 L219.0371 211.0583 L219.1888 200.3877 L233.9689 161.8841 L271.0975 176.1364 L279.1974 183.1901 L287.5990 182.4707 L316.4768 193.5559 L322.3078 199.7386 L332.9783 199.8902 L371.4820 214.6704 L357.2297 251.7989 L350.1760 259.8989 L350.8953 268.3005 L339.8102 297.1782 L333.6275 303.0092 L333.4758 313.6798 L318.6957 352.1834 L281.5671 337.9311 L273.4672 330.8774 L265.0656 331.5967 L236.1879 320.5116 L230.3568 314.3289 L219.6863 314.1773 L181.1826 299.3971 Z" fill="#c57620" fill-opacity="0.9" stroke="#dbef06" stroke-width="2.2000" /><path d="M195.7994 292.8893 L207.8623 261.4644 L213.8324 254.6087 L213.2235 247.4978 L222.6058 223.0562 L227.8387 218.1209 L227.9671 209.0896 L240.4767 176.5008 L271.9016 188.5637 L278.7573 194.5338 L285.8683 193.9250 L310.3098 203.3072 L315.2451 208.5402 L324.2765 208.6685 L356.8652 221.1782 L344.8024 252.6031 L338.8322 259.4588 L339.4411 266.5697 L330.0588 291.0113 L324.8259 295.9465 L324.6975 304.9779 L312.1879 337.5667 L280.7630 325.5038 L273.9073 319.5337 L266.7964 320.1425 L242.3548 310.7603 L237.4195 305.5273 L228.3882 305.3990 L195.7994 292.8893 Z" fill="none" stroke="#f5f7fa" stroke-width="1.4000" opacity="0.88" /><path d="M197.6448 275.2002 L213.9855 249.0496 L220.5525 243.9282 L221.2480 237.4272 L233.9574 217.0878 L239.5259 213.5645 L241.2200 205.4654 L258.1659 178.3463 L284.3164 194.6869 L289.4379 201.2540 L295.9389 201.9495 L316.2782 214.6589 L319.8016 220.2273 L327.9007 221.9214 L355.0198 238.8673 L338.6791 265.0179 L332.1121 270.1393 L331.4166 276.6403 L318.7072 296.9797 L313.1387 300.5030 L311.4446 308.6021 L294.4987 335.7212 L268.3482 319.3806 L263.2267 312.8135 L256.7257 312.1180 L236.3864 299.4086 L232.8630 293.8402 L224.7639 292.1461 L197.6448 275.2002 Z" fill="#dfa137" fill-opacity="0.9" stroke="#dbef06" stroke-width="2.2000" /><path d="M213.2347 271.6010 L226.3379 250.6315 L231.6039 246.5247 L232.1616 241.3117 L242.3529 225.0021 L246.8181 222.1768 L248.1766 215.6823 L261.7651 193.9362 L282.7346 207.0394 L286.8414 212.3053 L292.0544 212.8630 L308.3640 223.0544 L311.1893 227.5196 L317.6837 228.8780 L339.4299 242.4665 L326.3267 263.4360 L321.0607 267.5428 L320.5030 272.7558 L310.3117 289.0654 L305.8465 291.8907 L304.4880 298.3852 L290.8995 320.1313 L269.9300 307.0281 L265.8233 301.7622 L260.6103 301.2045 L244.3007 291.0131 L241.4753 286.5479 L234.9809 285.1895 L213.2347 271.6010 Z" fill="none" stroke="#f5f7fa" stroke-width="1.4000" opacity="0.88" /><path d="M219.0069 259.0356 L233.9443 243.0172 L239.2171 240.3364 L240.5831 235.8980 L252.2010 223.4393 L256.5611 221.7373 L258.8399 216.3200 L274.3305 199.7084 L290.3488 214.6457 L293.0296 219.9186 L297.4681 221.2845 L309.9268 232.9025 L311.6287 237.2625 L317.0461 239.5413 L333.6577 255.0319 L318.7203 271.0503 L313.4475 273.7311 L312.0815 278.1695 L300.4636 290.6282 L296.1036 292.3302 L293.8247 297.7475 L278.3342 314.3591 L262.3158 299.4218 L259.6350 294.1489 L255.1965 292.7829 L242.7378 281.1650 L241.0359 276.8050 L235.6185 274.5262 L219.0069 259.0356 Z" fill="#e5c461" fill-opacity="0.9" stroke="#dbef06" stroke-width="2.2000" /><path d="M234.9972 258.4772 L245.7679 246.9270 L249.5700 244.9939 L250.5549 241.7936 L258.9322 232.8101 L262.0760 231.5829 L263.7192 227.6766 L274.8889 215.6986 L286.4391 226.4694 L288.3721 230.2714 L291.5725 231.2564 L300.5560 239.6336 L301.7832 242.7775 L305.6894 244.4206 L317.6674 255.5903 L306.8967 267.1405 L303.0946 269.0736 L302.1097 272.2739 L293.7324 281.2574 L290.5886 282.4846 L288.9454 286.3909 L277.7758 298.3689 L266.2255 287.5981 L264.2925 283.7961 L261.0921 282.8111 L252.1086 274.4339 L250.8814 271.2900 L246.9752 269.6469 L234.9972 258.4772 Z" fill="none" stroke="#f5f7fa" stroke-width="1.4000" opacity="0.88" /></g><g id="cluster-1"><path d="M427.9712 591.3041 L390.0839 555.9735 L385.4052 539.8072 L373.2450 540.2711 L343.7771 512.7918 L344.6973 499.7090 L326.9383 497.0893 L287.6477 460.4502 L322.9782 422.5629 L338.3845 417.5423 L338.6807 405.7241 L366.1600 376.2561 L377.9431 374.8560 L381.8624 359.4173 L418.5015 320.1267 L456.3889 355.4572 L461.0141 371.7423 L473.2277 371.1597 L502.6956 398.6390 L506.7211 408.9515 L519.5345 414.3415 L558.8250 450.9805 L523.4945 488.8679 L511.0229 495.2087 L507.7921 505.7067 L480.3128 535.1746 L470.0003 539.2001 L464.6103 552.0135 L427.9712 591.3041 Z" fill="#411372" fill-opacity="0.9" stroke="#db069e" stroke-width="2.2000" /><path d="M427.4128 575.3138 L393.9936 544.1499 L388.4174 533.1118 L379.1406 530.2992 L353.1479 506.0606 L352.0589 495.5854 L338.2949 492.2100 L303.6379 459.8919 L334.8019 426.4726 L349.6228 422.5982 L348.6525 411.6196 L372.8911 385.6269 L382.1972 382.4507 L386.7417 370.7739 L419.0599 336.1170 L452.4791 367.2809 L458.0720 378.2819 L467.3321 381.1315 L493.3248 405.3701 L496.8756 414.4665 L508.1778 419.2208 L542.8348 451.5389 L511.6709 484.9581 L500.6701 490.5512 L497.8202 499.8111 L473.5816 525.8039 L464.4853 529.3546 L459.7310 540.6568 L427.4128 575.3138 Z" fill="none" stroke="#f5f7fa" stroke-width="1.4000" opacity="0.88" /><path d="M415.2393 570.0784 L386.5205 537.0412 L384.3133 522.5329 L373.7566 522.3580 L351.4197 496.6624 L352.1749 486.2536 L338.6558 481.9792 L308.8734 447.7183 L341.9106 418.9995 L352.9516 414.7726 L356.5938 406.2356 L382.2894 383.8988 L391.3113 381.4267 L396.9726 371.1349 L431.2334 341.3524 L459.9522 374.3896 L464.1793 385.4304 L472.7161 389.0728 L495.0530 414.7684 L497.5250 423.7903 L507.8169 429.4516 L537.5994 463.7124 L504.5622 492.4312 L493.5213 496.6583 L489.8790 505.1952 L464.1833 527.5320 L455.1615 530.0040 L449.5001 540.2959 L415.2393 570.0784 Z" fill="#68199c" fill-opacity="0.9" stroke="#ef06ad" stroke-width="2.2000" /><path d="M416.3554 554.1174 L391.6447 525.6910 L388.6493 515.0896 L380.6622 513.0570 L361.4428 490.9476 L359.3158 483.1849 L350.4603 478.3137 L324.8344 448.8345 L353.2608 424.1238 L362.7607 420.4866 L365.8947 413.1412 L388.0041 393.9218 L395.7669 391.7948 L400.6381 382.9393 L430.1173 357.3134 L454.8280 385.7398 L458.4651 395.2397 L465.8105 398.3737 L485.0299 420.4832 L487.1570 428.2459 L496.0125 433.1171 L521.6383 462.5963 L493.2120 487.3070 L483.7121 490.9441 L480.5780 498.2895 L458.4686 517.5090 L450.7059 519.6360 L445.8346 528.4915 L416.3554 554.1174 Z" fill="none" stroke="#f5f7fa" stroke-width="1.4000" opacity="0.88" /><path d="M406.9806 547.9064 L386.4781 518.6258 L383.9877 509.2988 L377.3659 505.6122 L361.4194 482.8383 L360.1820 475.3007 L352.3072 469.8247 L331.0453 439.4596 L360.3260 418.9571 L369.6530 416.4667 L373.3396 409.8449 L396.1134 393.8985 L403.6510 392.6610 L409.1270 384.7862 L439.4921 363.5244 L459.9946 392.8050 L462.4850 402.1320 L469.1069 405.8186 L485.0533 428.5924 L486.2907 436.1301 L494.1655 441.6061 L515.4274 471.9712 L486.1468 492.4737 L476.8198 494.9641 L473.1331 501.5859 L450.3593 517.5323 L442.8217 518.7698 L437.3457 526.6445 L406.9806 547.9064 Z" fill="#9720c5" fill-opacity="0.9" stroke="#ef06ad" stroke-width="2.2000" /><path d="M409.7590 532.1495 L392.7607 507.8734 L390.6959 500.1405 L385.2059 497.0840 L371.9850 478.2026 L370.9590 471.9533 L364.4301 467.4132 L346.8023 442.2380 L371.0784 425.2397 L378.8112 423.1749 L381.8678 417.6849 L400.7492 404.4640 L406.9985 403.4380 L411.5385 396.9092 L436.7138 379.2813 L453.7121 403.5574 L455.7768 411.2902 L461.2669 414.3468 L474.4878 433.2282 L475.5137 439.4775 L482.0426 444.0176 L499.6705 469.1928 L475.3944 486.1911 L467.6615 488.2558 L464.6050 493.7459 L445.7236 506.9668 L439.4743 507.9928 L434.9342 514.5216 L409.7590 532.1495 Z" fill="none" stroke="#f5f7fa" stroke-width="1.4000" opacity="0.88" /><path d="M403.2295 525.4878 L389.7928 501.2474 L388.6283 493.8533 L383.8209 490.4738 L373.3702 471.6202 L373.0269 465.7075 L367.3983 460.8467 L353.4640 435.7085 L377.7044 422.2718 L385.0984 421.1074 L388.4779 416.3000 L407.3316 405.8492 L413.2442 405.5059 L418.1051 399.8773 L443.2433 385.9430 L456.6799 410.1834 L457.8444 417.5774 L462.6518 420.9569 L473.1026 439.8106 L473.4459 445.7232 L479.0744 450.5841 L493.0087 475.7223 L468.7683 489.1590 L461.3743 490.3234 L457.9948 495.1308 L439.1412 505.5816 L433.2285 505.9249 L428.3677 511.5534 L403.2295 525.4878 Z" fill="#c337df" fill-opacity="0.9" stroke="#ef06ad" stroke-width="2.2000" /><path d="M407.6397 510.1076 L397.1649 491.2106 L396.2571 485.4464 L392.5094 482.8119 L384.3624 468.1142 L384.0947 463.5049 L379.7069 459.7156 L368.8442 440.1187 L387.7412 429.6439 L393.5053 428.7361 L396.1398 424.9884 L410.8375 416.8414 L415.4468 416.5738 L419.2362 412.1859 L438.8331 401.3232 L449.3079 420.2202 L450.2156 425.9843 L453.9633 428.6189 L462.1104 443.3165 L462.3780 447.9258 L466.7658 451.7152 L477.6285 471.3121 L458.7315 481.7869 L452.9674 482.6946 L450.3329 486.4423 L435.6352 494.5894 L431.0259 494.8570 L427.2365 499.2448 L407.6397 510.1076 Z" fill="none" stroke="#f5f7fa" stroke-width="1.4000" opacity="0.88" /><path d="M403.9235 503.5164 L396.2317 485.3957 L395.9581 480.0862 L392.8131 477.3420 L386.8306 463.2481 L387.0270 459.0460 L383.4120 455.1944 L375.4353 436.4025 L393.5561 428.7107 L398.8656 428.4371 L401.6097 425.2921 L415.7037 419.3096 L419.9058 419.5061 L423.7573 415.8910 L442.5492 407.9143 L450.2411 426.0351 L450.5146 431.3446 L453.6596 434.0888 L459.6422 448.1827 L459.4457 452.3848 L463.0607 456.2364 L471.0374 475.0283 L452.9167 482.7201 L447.6072 482.9937 L444.8630 486.1387 L430.7691 492.1212 L426.5669 491.9247 L422.7154 495.5398 L403.9235 503.5164 Z" fill="#df61e5" fill-opacity="0.9" stroke="#ef06ad" stroke-width="2.2000" /><path d="M409.9172 488.6815 L404.6125 476.1845 L404.4238 472.5228 L402.2549 470.6302 L398.1290 460.9103 L398.2645 458.0123 L395.7714 455.3561 L390.2702 442.3962 L402.7673 437.0915 L406.4290 436.9029 L408.3215 434.7339 L418.0414 430.6080 L420.9394 430.7435 L423.5957 428.2504 L436.5555 422.7493 L441.8602 435.2463 L442.0489 438.9080 L444.2178 440.8005 L448.3437 450.5204 L448.2082 453.4185 L450.7013 456.0747 L456.2025 469.0346 L443.7055 474.3392 L440.0437 474.5279 L438.1512 476.6969 L428.4313 480.8227 L425.5333 480.6872 L422.8771 483.1804 L409.9172 488.6815 Z" fill="none" stroke="#f5f7fa" stroke-width="1.4000" opacity="0.88" /><path d="M408.9053 482.6683 L405.4974 471.5216 L405.6649 468.3781 L403.9828 466.5675 L401.3322 457.8979 L401.7079 455.4356 L399.8176 452.9438 L396.2835 441.3843 L407.4301 437.9764 L410.5736 438.1439 L412.3842 436.4618 L421.0539 433.8112 L423.5162 434.1870 L426.0080 432.2966 L437.5675 428.7625 L440.9754 439.9092 L440.8079 443.0527 L442.4900 444.8633 L445.1406 453.5329 L444.7648 455.9952 L446.6552 458.4870 L450.1893 470.0465 L439.0426 473.4544 L435.8991 473.2869 L434.0885 474.9690 L425.4189 477.6196 L422.9565 477.2438 L420.4648 479.1342 L408.9053 482.6683 Z" fill="#ec8be6" fill-opacity="0.9" stroke="#ef06ad" stroke-width="2.2000" /><path d="M416.4168 468.5411 L414.7951 463.2369 L414.8748 461.7410 L414.0744 460.8795 L412.8131 456.7539 L412.9919 455.5822 L412.0924 454.3965 L410.4106 448.8958 L415.7149 447.2742 L417.2107 447.3539 L418.0723 446.5534 L422.1978 445.2921 L423.3695 445.4709 L424.5552 444.5714 L430.0559 442.8896 L431.6776 448.1939 L431.5979 449.6897 L432.3983 450.5513 L433.6596 454.6768 L433.4808 455.8485 L434.3804 457.0343 L436.0621 462.5350 L430.7579 464.1566 L429.2620 464.0769 L428.4004 464.8774 L424.2749 466.1387 L423.1032 465.9598 L421.9175 466.8594 L416.4168 468.5411 Z" fill="none" stroke="#f5f7fa" stroke-width="1.4000" opacity="0.88" /></g><g id="cluster-0"><path d="M481.4546 483.4963 L450.3400 442.2059 L447.8183 426.5720 L436.5113 423.8546 L412.3111 391.7398 L413.8811 379.6004 L398.4824 373.3885 L366.2154 330.5688 L407.5059 299.4542 L421.6968 295.9511 L425.8572 285.6255 L457.9720 261.4253 L469.7212 261.8784 L476.3233 247.5966 L519.1430 215.3296 L550.2576 256.6201 L552.7327 272.3225 L564.0863 274.9714 L588.2865 307.0862 L586.6612 319.2449 L602.1152 325.4375 L634.3821 368.2572 L593.0917 399.3717 L576.7429 401.4072 L574.7404 413.2004 L542.6256 437.4007 L530.7904 436.7013 L524.2743 451.2294 L481.4546 483.4963 Z" fill="#725213" fill-opacity="0.9" stroke="#77db06" stroke-width="2.2000" /><path d="M483.6814 467.6520 L456.2435 431.2408 L454.0198 417.4543 L444.0489 415.0580 L422.7084 386.7382 L424.0929 376.0332 L410.5138 370.5554 L382.0597 332.7956 L418.4710 305.3577 L430.9850 302.2685 L434.6538 293.1631 L462.9736 271.8226 L473.3345 272.2221 L479.1564 259.6280 L516.9162 231.1739 L544.3541 267.5852 L546.5367 281.4321 L556.5486 283.7679 L577.8892 312.0878 L576.4560 322.8098 L590.0838 328.2706 L618.5379 366.0304 L582.1266 393.4682 L567.7097 395.2632 L565.9438 405.6628 L537.6240 427.0034 L527.1872 426.3867 L521.4412 439.1980 L483.6814 467.6520 Z" fill="none" stroke="#f5f7fa" stroke-width="1.4000" opacity="0.88" /><path d="M470.6863 459.9283 L448.8425 422.0938 L449.0128 407.9512 L439.1342 405.2785 L422.1446 375.8516 L423.7697 366.0365 L412.4362 359.0363 L389.7834 319.8005 L427.6180 297.9567 L440.9582 297.4240 L444.4333 288.2484 L473.8602 271.2588 L483.9090 273.9598 L490.6755 261.5504 L529.9113 238.8976 L551.7551 276.7322 L550.5664 292.0371 L561.4634 293.5475 L578.4530 322.9743 L575.2664 333.1286 L588.1613 339.7897 L610.8141 379.0255 L572.9796 400.8692 L557.6302 399.6417 L556.1643 410.5776 L526.7374 427.5672 L517.4282 428.2709 L509.9221 437.2755 L470.6863 459.9283 Z" fill="#9c7f19" fill-opacity="0.9" stroke="#82ef06" stroke-width="2.2000" /><path d="M474.8274 444.4735 L456.0383 411.9299 L455.3558 400.7113 L447.6876 397.4661 L433.0739 372.1544 L435.4794 363.4930 L424.7232 357.6905 L405.2383 323.9416 L437.7819 305.1525 L448.1235 303.7016 L452.2457 296.8018 L477.5574 282.1881 L485.5719 281.6155 L492.0212 273.8374 L525.7702 254.3525 L544.5592 286.8961 L544.7636 298.6605 L552.9099 301.3599 L567.5237 326.6716 L563.9876 335.5786 L575.8744 341.1354 L595.3593 374.8844 L562.8157 393.6734 L551.2257 394.0306 L548.3519 402.0241 L523.0402 416.6379 L515.0328 417.2432 L508.5763 424.9886 L474.8274 444.4735 Z" fill="none" stroke="#f5f7fa" stroke-width="1.4000" opacity="0.88" /><path d="M465.3005 436.0367 L451.3616 403.1988 L452.5603 392.0632 L445.1666 388.6042 L434.3252 363.0635 L438.6399 355.0844 L428.1302 348.4689 L413.6750 314.4147 L446.5130 300.4758 L456.3035 300.1689 L461.1076 294.2808 L486.6482 283.4394 L494.4464 285.7867 L501.2429 277.2444 L535.2971 262.7892 L549.2359 295.6272 L548.8314 306.0533 L555.4310 310.2218 L566.2724 335.7624 L565.9163 343.3774 L572.4674 350.3571 L586.9226 384.4113 L554.0846 398.3501 L544.4629 398.8459 L539.4900 404.5452 L513.9493 415.3865 L506.3343 415.0305 L499.3547 421.5816 L465.3005 436.0367 Z" fill="#c5b520" fill-opacity="0.9" stroke="#82ef06" stroke-width="2.2000" /><path d="M471.2942 421.2018 L459.7425 393.9876 L459.6478 385.7312 L454.6084 381.8924 L445.6237 360.7258 L447.5295 354.2668 L440.4896 348.6306 L428.5100 320.4084 L455.7242 308.8567 L464.8491 309.7341 L467.8194 303.7226 L488.9860 294.7379 L495.3880 296.0234 L501.0812 289.6038 L529.3034 277.6242 L540.8551 304.8384 L541.2660 312.8123 L545.9892 316.9336 L554.9739 338.1002 L554.6789 344.4111 L560.1080 350.1954 L572.0876 378.4175 L544.8734 389.9693 L536.8994 390.3802 L532.7782 395.1034 L511.6116 404.0881 L505.3007 403.7930 L499.5164 409.2222 L471.2942 421.2018 Z" fill="none" stroke="#f5f7fa" stroke-width="1.4000" opacity="0.88" /><path d="M465.1794 412.7701 L457.5552 386.1814 L459.3294 377.8642 L454.1667 374.3642 L448.2368 353.6842 L450.1605 347.8858 L444.8483 341.8670 L436.9417 314.2936 L463.5304 306.6694 L470.9819 307.1970 L475.3475 303.2809 L496.0276 297.3510 L501.8543 298.3445 L507.8448 293.9625 L535.4182 286.0559 L543.0424 312.6446 L542.5147 320.0961 L546.4309 324.4617 L552.3608 345.1418 L551.3672 350.9685 L555.7493 356.9590 L563.6559 384.5324 L537.0672 392.1566 L529.6156 391.6289 L525.2500 395.5451 L504.5700 401.4750 L498.7433 400.4814 L492.7528 404.8635 L465.1794 412.7701 Z" fill="#dcdf37" fill-opacity="0.9" stroke="#82ef06" stroke-width="2.2000" /><path d="M472.9363 398.7761 L466.9962 378.0602 L467.4870 372.1991 L464.3561 368.8532 L459.7359 352.7408 L460.5100 348.2010 L457.0958 343.5337 L450.9356 322.0505 L471.6515 316.1103 L477.4573 316.5214 L480.8586 313.4703 L496.9710 308.8501 L501.5107 309.6242 L506.1781 306.2100 L527.6612 300.0498 L533.6014 320.7657 L533.1903 326.5715 L536.2415 329.9728 L540.8617 346.0852 L540.0876 350.6249 L543.5018 355.2923 L549.6620 376.7754 L528.9460 382.7156 L523.1403 382.3045 L519.7390 385.3557 L503.6266 389.9759 L499.0868 389.2018 L494.4195 392.6159 L472.9363 398.7761 Z" fill="none" stroke="#f5f7fa" stroke-width="1.4000" opacity="0.88" /><path d="M470.0558 391.0389 L466.9824 371.6343 L467.9994 366.4267 L465.6165 363.0100 L463.2261 347.9176 L464.4309 343.8958 L461.8601 339.2933 L458.6729 319.1700 L478.0775 316.0966 L483.2851 317.1136 L486.7018 314.7307 L501.7942 312.3403 L505.8160 313.5451 L510.4185 310.9743 L530.5418 307.7871 L533.6151 327.1917 L532.5981 332.3993 L534.9811 335.8160 L537.3715 350.9084 L536.1667 354.9302 L538.7374 359.5327 L541.9247 379.6559 L522.5201 382.7293 L517.3125 381.7123 L513.8958 384.0953 L498.8034 386.4857 L494.7816 385.2809 L490.1791 387.8516 L470.0558 391.0389 Z" fill="#d4e561" fill-opacity="0.9" stroke="#82ef06" stroke-width="2.2000" /><path d="M479.4604 378.0946 L477.3427 364.7242 L478.0435 361.1360 L476.4015 358.7818 L474.7545 348.3826 L475.5846 345.6115 L473.8133 342.4402 L471.6172 328.5746 L484.9876 326.4569 L488.5758 327.1577 L490.9300 325.5157 L501.3292 323.8687 L504.1003 324.6988 L507.2716 322.9275 L521.1372 320.7314 L523.2549 334.1018 L522.5541 337.6900 L524.1960 340.0442 L525.8431 350.4434 L525.0130 353.2145 L526.7843 356.3858 L528.9804 370.2514 L515.6100 372.3690 L512.0218 371.6683 L509.6676 373.3102 L499.2684 374.9573 L496.4973 374.1271 L493.3260 375.8985 L479.4604 378.0946 Z" fill="none" stroke="#f5f7fa" stroke-width="1.4000" opacity="0.88" /><path d="M479.5215 371.6938 L479.1156 360.0682 L480.0890 357.0811 L478.9351 354.9012 L478.6194 345.8590 L479.6176 343.5824 L478.4389 340.6920 L478.0179 328.6357 L489.6436 328.2298 L492.6307 329.2032 L494.8106 328.0493 L503.8528 327.7336 L506.1294 328.7318 L509.0198 327.5531 L521.0760 327.1321 L521.4820 338.7578 L520.5086 341.7449 L521.6624 343.9248 L521.9782 352.9670 L520.9799 355.2436 L522.1586 358.1340 L522.5797 370.1902 L510.9540 370.5962 L507.9669 369.6228 L505.7870 370.7766 L496.7448 371.0924 L494.4682 370.0941 L491.5778 371.2728 L479.5215 371.6938 Z" fill="#d4ec8b" fill-opacity="0.9" stroke="#82ef06" stroke-width="2.2000" /><path d="M490.4335 359.9922 L490.2408 354.4722 L490.7030 353.0539 L490.1551 352.0188 L490.0052 347.7255 L490.4791 346.6445 L489.9195 345.2722 L489.7196 339.5477 L495.2396 339.3550 L496.6579 339.8172 L497.6929 339.2693 L501.9863 339.1194 L503.0672 339.5933 L504.4396 339.0337 L510.1641 338.8338 L510.3568 344.3538 L509.8946 345.7721 L510.4425 346.8071 L510.5924 351.1005 L510.1184 352.1814 L510.6781 353.5538 L510.8780 359.2783 L505.3580 359.4710 L503.9397 359.0088 L502.9047 359.5567 L498.6113 359.7066 L497.5303 359.2326 L496.1580 359.7923 L490.4335 359.9922 Z" fill="none" stroke="#f5f7fa" stroke-width="1.4000" opacity="0.88" /></g><g id="cluster-4"><path d="M420.2326 375.5572 L393.5668 332.8829 L390.7529 319.5872 L381.7153 313.9166 L360.9752 280.7255 L359.7909 270.0377 L349.1237 261.7591 L321.4703 217.5044 L364.1445 190.8385 L377.4402 188.0246 L383.1109 178.9870 L416.3019 158.2469 L426.9897 157.0626 L435.2683 146.3955 L479.5231 118.7420 L506.1889 161.4163 L509.0028 174.7119 L518.0404 180.3826 L538.7805 213.5737 L539.9648 224.2615 L550.6320 232.5400 L578.2854 276.7948 L535.6112 303.4606 L522.3155 306.2745 L516.6448 315.3121 L483.4537 336.0522 L472.7659 337.2365 L464.4874 347.9037 L420.2326 375.5572 Z" fill="#133272" fill-opacity="0.9" stroke="#6906db" stroke-width="2.2000" /><path d="M423.8318 359.9672 L400.4035 322.4740 L397.9312 310.7926 L389.9909 305.8104 L371.7688 276.6490 L370.7283 267.2588 L361.3562 259.9854 L337.0602 221.1036 L374.5534 197.6752 L386.2348 195.2030 L391.2170 187.2626 L420.3784 169.0406 L429.7686 168.0000 L437.0420 158.6280 L475.9238 134.3319 L499.3522 171.8251 L501.8245 183.5066 L509.7648 188.4888 L527.9868 217.6501 L529.0274 227.0403 L538.3994 234.3138 L562.6955 273.1956 L525.2023 296.6239 L513.5209 299.0962 L508.5387 307.0365 L479.3773 325.2586 L469.9871 326.2991 L462.7137 335.6712 L423.8318 359.9672 Z" fill="none" stroke="#f5f7fa" stroke-width="1.4000" opacity="0.88" /><path d="M408.1622 350.3994 L391.5480 311.2587 L390.9570 299.7902 L384.1639 293.8629 L371.2417 263.4201 L371.6661 254.3436 L363.8576 246.0243 L346.6280 205.4339 L385.7687 188.8197 L397.2372 188.2288 L403.1645 181.4356 L433.6073 168.5134 L442.6839 168.9378 L451.0031 161.1293 L491.5935 143.8998 L508.2077 183.0404 L508.7987 194.5089 L515.5918 200.4363 L528.5140 230.8790 L528.0896 239.9556 L535.8981 248.2749 L553.1277 288.8652 L513.9870 305.4794 L502.5185 306.0704 L496.5911 312.8635 L466.1484 325.7857 L457.0718 325.3614 L448.7525 333.1698 L408.1622 350.3994 Z" fill="#19369c" fill-opacity="0.9" stroke="#7306ef" stroke-width="2.2000" /><path d="M414.1559 335.5645 L399.9288 302.0475 L399.4228 292.2268 L393.6057 287.1511 L382.5401 261.0824 L382.9035 253.3099 L376.2170 246.1860 L361.4630 211.4276 L394.9799 197.2006 L404.8006 196.6945 L409.8763 190.8774 L435.9450 179.8119 L443.7175 180.1753 L450.8415 173.4887 L485.5998 158.7347 L499.8269 192.2516 L500.3329 202.0723 L506.1500 207.1481 L517.2155 233.2168 L516.8521 240.9892 L523.5387 248.1132 L538.2927 282.8715 L504.7758 297.0986 L494.9551 297.6046 L489.8794 303.4218 L463.8106 314.4873 L456.0382 314.1239 L448.9142 320.8104 L414.1559 335.5645 Z" fill="none" stroke="#f5f7fa" stroke-width="1.4000" opacity="0.88" /><path d="M403.0445 325.0933 L394.6447 291.4035 L395.6330 282.0785 L390.9114 276.4303 L384.3782 250.2271 L385.8799 242.9609 L380.6450 235.2538 L371.9341 200.3162 L405.6239 191.9164 L414.9489 192.9048 L420.5971 188.1832 L446.8003 181.6500 L454.0665 183.1517 L461.7736 177.9167 L496.7112 169.2058 L505.1110 202.8956 L504.1226 212.2206 L508.8442 217.8689 L515.3774 244.0721 L513.8758 251.3382 L519.1107 259.0453 L527.8216 293.9829 L494.1318 302.3827 L484.8068 301.3944 L479.1585 306.1160 L452.9553 312.6492 L445.6892 311.1475 L437.9821 316.3824 L403.0445 325.0933 Z" fill="#2031c5" fill-opacity="0.9" stroke="#7306ef" stroke-width="2.2000" /><path d="M411.2851 311.3787 L404.3633 283.6168 L405.1777 275.9326 L401.2869 271.2782 L395.9033 249.6856 L397.1407 243.6979 L392.8269 237.3470 L385.6487 208.5568 L413.4106 201.6350 L421.0948 202.4495 L425.7493 198.5587 L447.3418 193.1750 L453.3295 194.4125 L459.6805 190.0987 L488.4706 182.9205 L495.3924 210.6824 L494.5779 218.3666 L498.4688 223.0210 L503.8524 244.6136 L502.6149 250.6012 L506.9288 256.9522 L514.1069 285.7423 L486.3450 292.6641 L478.6608 291.8497 L474.0064 295.7405 L452.4138 301.1241 L446.4262 299.8867 L440.0752 304.2005 L411.2851 311.3787 Z" fill="none" stroke="#f5f7fa" stroke-width="1.4000" opacity="0.88" /><path d="M404.5580 301.1596 L402.2117 274.3406 L404.0996 267.3192 L401.1688 262.4210 L399.3439 241.5617 L401.3753 236.1793 L398.3011 229.6421 L395.8678 201.8298 L422.6869 199.4834 L429.7082 201.3714 L434.6064 198.4406 L455.4657 196.6156 L460.8481 198.6470 L467.3853 195.5728 L495.1976 193.1395 L497.5440 219.9586 L495.6560 226.9799 L498.5868 231.8782 L500.4118 252.7374 L498.3804 258.1199 L501.4546 264.6570 L503.8879 292.4694 L477.0688 294.8157 L470.0475 292.9278 L465.1492 295.8586 L444.2900 297.6835 L438.9076 295.6522 L432.3704 298.7263 L404.5580 301.1596 Z" fill="#3a37df" fill-opacity="0.9" stroke="#7306ef" stroke-width="2.2000" /><path d="M414.8426 288.9029 L413.0287 268.1700 L414.4883 262.7420 L412.2226 258.9554 L410.8118 242.8298 L412.3821 238.6688 L410.0056 233.6152 L408.1245 212.1144 L428.8574 210.3005 L434.2854 211.7600 L438.0720 209.4943 L454.1976 208.0835 L458.3586 209.6539 L463.4123 207.2773 L484.9130 205.3963 L486.7269 226.1292 L485.2674 231.5571 L487.5331 235.3438 L488.9439 251.4694 L487.3735 255.6303 L489.7501 260.6840 L491.6312 282.1848 L470.8983 283.9987 L465.4703 282.5391 L461.6836 284.8048 L445.5580 286.2157 L441.3971 284.6453 L436.3434 287.0218 L414.8426 288.9029 Z" fill="none" stroke="#f5f7fa" stroke-width="1.4000" opacity="0.88" /><path d="M412.0832 280.0040 L413.4171 260.9287 L415.5217 256.2128 L414.0099 252.4508 L415.0474 237.6145 L417.0705 234.0643 L415.6402 229.1367 L417.0235 209.3549 L436.0987 210.6888 L440.8146 212.7934 L444.5766 211.2816 L459.4129 212.3191 L462.9631 214.3422 L467.8908 212.9119 L487.6725 214.2952 L486.3386 233.3704 L484.2340 238.0864 L485.7458 241.8483 L484.7083 256.6846 L482.6852 260.2349 L484.1155 265.1625 L482.7322 284.9442 L463.6570 283.6103 L458.9410 281.5057 L455.1791 283.0175 L440.3428 281.9801 L436.7926 279.9569 L431.8649 281.3872 L412.0832 280.0040 Z" fill="#7361e5" fill-opacity="0.9" stroke="#7306ef" stroke-width="2.2000" /><path d="M424.1586 269.5070 L425.0663 256.5263 L426.4985 253.3171 L425.4697 250.7571 L426.1757 240.6610 L427.5524 238.2450 L426.5791 234.8918 L427.5204 221.4303 L440.5011 222.3380 L443.7103 223.7702 L446.2703 222.7414 L456.3664 223.4474 L458.7824 224.8241 L462.1356 223.8508 L475.5971 224.7921 L474.6894 237.7729 L473.2572 240.9821 L474.2860 243.5421 L473.5800 253.6382 L472.2033 256.0541 L473.1766 259.4074 L472.2353 272.8689 L459.2546 271.9612 L456.0453 270.5290 L453.4854 271.5577 L443.3892 270.8518 L440.9733 269.4750 L437.6200 270.4483 L424.1586 269.5070 Z" fill="none" stroke="#f5f7fa" stroke-width="1.4000" opacity="0.88" /><path d="M424.7318 262.8626 L427.2787 251.8306 L428.9464 249.2676 L428.4107 246.9275 L430.3916 238.3471 L431.9036 236.4583 L431.5236 233.4441 L434.1648 222.0035 L445.1968 224.5505 L447.7598 226.2181 L450.0999 225.6824 L458.6803 227.6634 L460.5691 229.1754 L463.5834 228.7953 L475.0239 231.4366 L472.4770 242.4685 L470.8093 245.0315 L471.3450 247.3716 L469.3641 255.9520 L467.8521 257.8409 L468.2321 260.8551 L465.5908 272.2956 L454.5589 269.7487 L451.9959 268.0811 L449.6558 268.6167 L441.0754 266.6358 L439.1866 265.1238 L436.1723 265.5038 L424.7318 262.8626 Z" fill="#a38bec" fill-opacity="0.9" stroke="#7306ef" stroke-width="2.2000" /><path d="M438.3006 254.3839 L439.4732 249.3047 L440.2410 248.1247 L439.9943 247.0474 L440.9064 243.0969 L441.6025 242.2273 L441.4275 240.8395 L442.6436 235.5723 L447.7227 236.7449 L448.9027 237.5127 L449.9801 237.2661 L453.9305 238.1781 L454.8001 238.8742 L456.1879 238.6993 L461.4551 239.9153 L460.2825 244.9944 L459.5147 246.1744 L459.7614 247.2518 L458.8493 251.2022 L458.1532 252.0719 L458.3282 253.4596 L457.1121 258.7269 L452.0330 257.5542 L450.8530 256.7865 L449.7756 257.0331 L445.8252 256.1211 L444.9556 255.4249 L443.5678 255.5999 L438.3006 254.3839 Z" fill="none" stroke="#f5f7fa" stroke-width="1.4000" opacity="0.88" /></g><g id="cluster-2"><path d="M364.1181 517.6347 L320.1746 507.4895 L309.9654 500.8468 L300.6442 502.9806 L266.4659 495.0899 L258.9421 489.0672 L246.9355 490.5809 L201.3645 480.0600 L211.5097 436.1166 L218.1524 425.9073 L216.0186 416.5861 L223.9093 382.4079 L229.9320 374.8841 L228.4182 362.8775 L238.9391 317.3065 L282.8826 327.4516 L293.0919 334.0943 L302.4130 331.9606 L336.5913 339.8512 L344.1151 345.8740 L356.1217 344.3602 L401.6927 354.8811 L391.5476 398.8246 L384.9049 409.0338 L387.0386 418.3550 L379.1479 452.5332 L373.1252 460.0571 L374.6390 472.0637 L364.1181 517.6347 Z" fill="#137241" fill-opacity="0.9" stroke="#069edb" stroke-width="2.2000" /><path d="M355.6394 504.0659 L317.6487 495.2951 L308.8225 489.5522 L300.7640 491.3969 L271.2157 484.5752 L264.7111 479.3683 L254.3310 480.6770 L214.9333 471.5813 L223.7041 433.5907 L229.4470 424.7644 L227.6023 416.7060 L234.4240 387.1577 L239.6309 380.6531 L238.3222 370.2729 L247.4178 330.8752 L285.4085 339.6461 L294.2347 345.3889 L302.2932 343.5442 L331.8415 350.3660 L338.3461 355.5728 L348.7262 354.2641 L388.1239 363.3598 L379.3531 401.3504 L373.6103 410.1767 L375.4550 418.2352 L368.6332 447.7835 L363.4263 454.2881 L364.7351 464.6682 L355.6394 504.0659 Z" fill="none" stroke="#f5f7fa" stroke-width="1.4000" opacity="0.88" /><path d="M337.2952 510.6457 L302.4809 495.1454 L295.0836 487.9894 L287.0079 488.2564 L259.9302 476.2006 L254.6604 469.9918 L244.4572 469.3115 L208.3535 453.2371 L223.8538 418.4229 L231.0098 411.0256 L230.7428 402.9499 L242.7986 375.8721 L249.0074 370.6024 L249.6876 360.3991 L265.7620 324.2954 L300.5763 339.7957 L307.9736 346.9518 L316.0493 346.6848 L343.1271 358.7406 L348.3968 364.9493 L358.6001 365.6296 L394.7037 381.7040 L379.2034 416.5182 L372.0474 423.9155 L372.3144 431.9912 L360.2586 459.0690 L354.0498 464.3388 L353.3696 474.5420 L337.2952 510.6457 Z" fill="#199c68" fill-opacity="0.9" stroke="#06adef" stroke-width="2.2000" /><path d="M331.5613 495.7084 L302.3283 482.6930 L296.1169 476.6842 L289.3358 476.9084 L266.5990 466.7853 L262.1740 461.5719 L253.6065 461.0007 L223.2908 447.5033 L236.3061 418.2702 L242.3150 412.0588 L242.0908 405.2777 L252.2138 382.5409 L257.4273 378.1160 L257.9985 369.5485 L271.4959 339.2327 L300.7290 352.2481 L306.9404 358.2569 L313.7214 358.0327 L336.4582 368.1558 L340.8832 373.3692 L349.4507 373.9404 L379.7665 387.4379 L366.7511 416.6709 L360.7423 422.8823 L360.9664 429.6634 L350.8434 452.4002 L345.6299 456.8251 L345.0587 465.3927 L331.5613 495.7084 Z" fill="none" stroke="#f5f7fa" stroke-width="1.4000" opacity="0.88" /><path d="M315.6804 497.7293 L290.1896 479.8804 L285.3751 472.9918 L278.8603 471.9476 L259.0341 458.0651 L255.7774 452.2673 L247.7048 450.1323 L221.2699 431.6223 L239.1188 406.1315 L246.0074 401.3171 L247.0516 394.8022 L260.9341 374.9760 L266.7319 371.7194 L268.8669 363.6468 L287.3768 337.2119 L312.8677 355.0607 L317.6821 361.9493 L324.1969 362.9936 L344.0231 376.8760 L347.2798 382.6738 L355.3524 384.8088 L381.7873 403.3188 L363.9384 428.8096 L357.0499 433.6241 L356.0056 440.1389 L342.1232 459.9651 L336.3253 463.2217 L334.1903 471.2943 L315.6804 497.7293 Z" fill="#20c597" fill-opacity="0.9" stroke="#06adef" stroke-width="2.2000" /><path d="M312.9020 481.9723 L292.4157 467.6277 L288.5465 462.0915 L283.3107 461.2523 L267.3769 450.0953 L264.7596 445.4358 L258.2719 443.7199 L237.0268 428.8440 L251.3715 408.3577 L256.9077 404.4884 L257.7469 399.2526 L268.9039 383.3189 L273.5634 380.7016 L275.2793 374.2138 L290.1552 352.9688 L310.6415 367.3134 L314.5107 372.8496 L319.7465 373.6888 L335.6803 384.8458 L338.2976 389.5054 L344.7853 391.2212 L366.0304 406.0972 L351.6857 426.5835 L346.1496 430.4527 L345.3103 435.6885 L334.1534 451.6223 L329.4938 454.2396 L327.7780 460.7273 L312.9020 481.9723 Z" fill="none" stroke="#f5f7fa" stroke-width="1.4000" opacity="0.88" /><path d="M300.4258 480.6505 L283.6650 463.2942 L281.0198 457.3389 L276.2157 455.5802 L263.1795 442.0809 L261.5586 437.1862 L255.7303 434.3669 L238.3487 416.3678 L255.7050 399.6069 L261.6603 396.9617 L263.4189 392.1577 L276.9183 379.1215 L281.8129 377.5005 L284.6322 371.6722 L302.6314 354.2906 L319.3922 371.6470 L322.0375 377.6023 L326.8415 379.3609 L339.8777 392.8603 L341.4986 397.7549 L347.3270 400.5742 L364.7086 418.5734 L347.3522 435.3342 L341.3969 437.9794 L339.6383 442.7835 L326.1389 455.8197 L321.2443 457.4406 L318.4250 463.2689 L300.4258 480.6505 Z" fill="#37dfc3" fill-opacity="0.9" stroke="#06adef" stroke-width="2.2000" /><path d="M300.7050 464.6529 L288.1882 451.6913 L286.2127 447.2440 L282.6251 445.9306 L272.8897 435.8494 L271.6792 432.1941 L267.3267 430.0887 L254.3462 416.6470 L267.3078 404.1301 L271.7552 402.1547 L273.0685 398.5671 L283.1498 388.8317 L286.8051 387.6212 L288.9105 383.2686 L302.3522 370.2882 L314.8691 383.2498 L316.8445 387.6972 L320.4321 389.0105 L330.1675 399.0918 L331.3780 402.7470 L335.7305 404.8525 L348.7110 418.2941 L335.7494 430.8110 L331.3020 432.7864 L329.9887 436.3741 L319.9074 446.1094 L316.2521 447.3199 L314.1467 451.6725 L300.7050 464.6529 Z" fill="none" stroke="#f5f7fa" stroke-width="1.4000" opacity="0.88" /><path d="M292.1970 461.3721 L282.8632 446.9992 L281.8259 442.4884 L278.7148 440.6112 L271.4551 429.4322 L270.9883 425.7999 L267.3067 423.0443 L257.6271 408.1390 L272.0000 398.8051 L276.5107 397.7679 L278.3880 394.6567 L289.5669 387.3970 L293.1993 386.9302 L295.9549 383.2486 L310.8602 373.5690 L320.1941 387.9420 L321.2313 392.4527 L324.3425 394.3299 L331.6021 405.5089 L332.0690 409.1413 L335.7505 411.8969 L345.4301 426.8021 L331.0572 436.1360 L326.5465 437.1732 L324.6692 440.2844 L313.4903 447.5441 L309.8579 448.0109 L307.1023 451.6925 L292.1970 461.3721 Z" fill="#61e5df" fill-opacity="0.9" stroke="#06adef" stroke-width="2.2000" /><path d="M295.5236 445.7217 L289.5172 436.4726 L288.8497 433.5699 L286.8476 432.3618 L282.1759 425.1680 L281.8755 422.8306 L279.5064 421.0573 L273.2774 411.4656 L282.5266 405.4591 L285.4293 404.7917 L286.6373 402.7896 L293.8311 398.1179 L296.1686 397.8175 L297.9419 395.4483 L307.5336 389.2194 L313.5400 398.4686 L314.2075 401.3713 L316.2096 402.5793 L320.8813 409.7731 L321.1817 412.1106 L323.5508 413.8838 L329.7798 423.4755 L320.5306 429.4820 L317.6279 430.1495 L316.4199 432.1515 L309.2261 436.8232 L306.8886 437.1236 L305.1154 439.4928 L295.5236 445.7217 Z" fill="none" stroke="#f5f7fa" stroke-width="1.4000" opacity="0.88" /><path d="M291.1449 441.9330 L287.3436 432.5246 L287.2504 429.7856 L285.6542 428.3430 L282.6976 421.0253 L282.8367 418.8614 L281.0082 416.8438 L277.0661 407.0869 L286.4746 403.2856 L289.2135 403.1924 L290.6561 401.5961 L297.9738 398.6396 L300.1378 398.7787 L302.1554 396.9502 L311.9123 393.0081 L315.7136 402.4166 L315.8068 405.1555 L317.4030 406.5981 L320.3596 413.9158 L320.2205 416.0798 L322.0490 418.0973 L325.9911 427.8543 L316.5826 431.6555 L313.8437 431.7488 L312.4011 433.3450 L305.0834 436.3015 L302.9194 436.1625 L300.9018 437.9910 L291.1449 441.9330 Z" fill="#8be6ec" fill-opacity="0.9" stroke="#06adef" stroke-width="2.2000" /><path d="M297.3966 427.2049 L295.8840 423.4610 L295.8469 422.3711 L295.2117 421.7971 L294.0352 418.8851 L294.0905 418.0240 L293.3629 417.2211 L291.7942 413.3386 L295.5381 411.8259 L296.6281 411.7888 L297.2021 411.1536 L300.1141 409.9771 L300.9752 410.0325 L301.7780 409.3048 L305.6606 407.7362 L307.1733 411.4801 L307.2104 412.5700 L307.8455 413.1441 L309.0220 416.0560 L308.9667 416.9171 L309.6943 417.7200 L311.2630 421.6026 L307.5191 423.1152 L306.4292 423.1523 L305.8551 423.7875 L302.9432 424.9640 L302.0820 424.9087 L301.2792 425.6363 L297.3966 427.2049 Z" fill="none" stroke="#f5f7fa" stroke-width="1.4000" opacity="0.88" /></g></g><g id="capsule-core"><defs><radialGradient id="capsule-grad" cx="35%" cy="28%" r="75%"><stop offset="0%" stop-color="#ffffff" stop-opacity="0.98" /><stop offset="55%" stop-color="#bfd3e6" stop-opacity="0.95" /><stop offset="100%" stop-color="#6b7f96" stop-opacity="0.98" /></radialGradient></defs><circle cx="390.2548" cy="345.3565" r="60.0000" fill="url(#capsule-grad)" stroke="#334155" stroke-width="2.0000" /><circle cx="390.2548" cy="345.3565" r="46.0000" fill="none" stroke="#0f172a" stroke-width="1.4000" stroke-dasharray="5 5" opacity="0.7" /><ellipse cx="372.2548" cy="325.3565" rx="16.0000" ry="10.0000" fill="#ffffff" fill-opacity="0.52" /><text x="390.2548" y="343.3565" text-anchor="middle" font-family="monospace" font-size="16.0000" fill="#0f172a">evidence</text><text x="390.2548" y="363.3565" text-anchor="middle" font-family="monospace" font-size="14.0000" fill="#0f172a">capsule</text></g><g id="title" font-family="monospace" fill="#0f172a"><text x="26.0000" y="34.0000" font-size="22.0000">Crystal Artifact v0</text><text x="26.0000" y="58.0000" font-size="13.0000">mutation_count: 5</text><text x="26.0000" y="78.0000" font-size="13.0000">crystal_hash: sha256:74350a81c792a943aa75e577b3ea721aa98af01f488780f7c7f77b0149d36f6f</text></g><g id="callouts"><path d="M209.6389 206.1827 L220.8195 101.0000 L232.0000 101.0000" fill="none" stroke="#0f172a" stroke-width="1.6000" opacity="0.45" /><rect x="16.0000" y="84.0000" width="216.0000" height="34.0000" rx="12.0000" fill="#ffffff" stroke="#cbd5e1" stroke-width="1.4000" /><text x="28.0000" y="106.0000" font-family="monospace" font-size="13.5000" fill="#0f172a">4. portfolio_created</text><path d="M246.9126 454.5445 L239.4563 159.0000 L232.0000 159.0000" fill="none" stroke="#0f172a" stroke-width="1.6000" opacity="0.45" /><rect x="16.0000" y="142.0000" width="216.0000" height="34.0000" rx="12.0000" fill="#ffffff" stroke="#cbd5e1" stroke-width="1.4000" /><text x="28.0000" y="164.0000" font-family="monospace" font-size="13.5000" fill="#0f172a">3. chronicle_entry_created</text><path d="M488.7259 188.1322 L628.3630 101.0000 L768.0000 101.0000" fill="none" stroke="#0f172a" stroke-width="1.6000" opacity="0.45" /><rect x="768.0000" y="84.0000" width="216.0000" height="34.0000" rx="12.0000" fill="#ffffff" stroke="#cbd5e1" stroke-width="1.4000" /><text x="780.0000" y="106.0000" font-family="monospace" font-size="13.5000" fill="#0f172a">5. portfolio_verified</text><path d="M578.8106 347.7914 L673.4053 159.0000 L768.0000 159.0000" fill="none" stroke="#0f172a" stroke-width="1.6000" opacity="0.45" /><rect x="768.0000" y="142.0000" width="216.0000" height="34.0000" rx="12.0000" fill="#ffffff" stroke="#cbd5e1" stroke-width="1.4000" /><text x="780.0000" y="164.0000" font-family="monospace" font-size="13.5000" fill="#0f172a">1. evidence_imported</text><path d="M448.5494 522.5146 L608.2747 217.0000 L768.0000 217.0000" fill="none" stroke="#0f172a" stroke-width="1.6000" opacity="0.45" /><rect x="768.0000" y="200.0000" width="216.0000" height="34.0000" rx="12.0000" fill="#ffffff" stroke="#cbd5e1" stroke-width="1.4000" /><text x="780.0000" y="222.0000" font-family="monospace" font-size="13.5000" fill="#0f172a">2. receipt_verified</text></g><g id="qr-panel"><rect x="720.0000" y="420.0000" width="240.0000" height="240.0000" rx="20.0000" fill="#ffffff" stroke="#cbd5e1" stroke-width="2.0000" /><svg id="qr" x="738.0000" y="438.0000" width="204.0000" height="204.0000" viewBox="0 0 101 101"><path fill="#ffffff" d="M0 0h101v101H0z"/><path stroke="#111111" d="M4 4.5h7m2 0h2m2 0h4m2 0h1m2 0h3m4 0h3m1 0h1m1 0h2m3 0h2m1 0h3m1 0h3m3 0h1m2 0h1m1 0h1m3 0h2m4 0h3m3 0h1m1 0h1m4 0h1m1 0h1m2 0h7M4 5.5h1m5 0h1m3 0h2m1 0h1m2 0h1m1 0h1m1 0h1m1 0h1m2 0h4m1 0h6m1 0h3m1 0h2m1 0h1m5 0h1m3 0h5m1 0h2m1 0h1m2 0h2m1 0h3m1 0h1m1 0h4m2 0h1m1 0h2m1 0h1m5 0h1M4 6.5h1m1 0h3m1 0h1m1 0h3m1 0h1m1 0h4m4 0h2m8 0h3m4 0h5m1 0h2m1 0h2m2 0h1m1 0h1m1 0h1m1 0h2m2 0h1m1 0h1m1 0h3m1 0h1m1 0h3m4 0h3m2 0h1m1 0h1m1 0h3m1 0h1M4 7.5h1m1 0h3m1 0h1m1 0h1m3 0h2m2 0h1m1 0h1m2 0h1m2 0h3m2 0h2m1 0h3m12 0h2m4 0h1m1 0h1m1 0h1m1 0h2m1 0h2m1 0h2m2 0h4m2 0h2m3 0h1m2 0h1m2 0h1m1 0h3m1 0h1M4 8.5h1m1 0h3m1 0h1m1 0h1m1 0h3m2 0h2m1 0h1m1 0h2m2 0h1m3 0h6m1 0h1m4 0h1m1 0h2m4 0h1m5 0h7m6 0h1m1 0h2m1 0h2m4 0h1m3 0h2m2 0h1m1 0h3m1 0h1M4 9.5h1m5 0h1m1 0h1m1 0h1m4 0h1m1 0h4m2 0h1m2 0h1m1 0h1m3 0h1m2 0h1m2 0h2m1 0h1m1 0h2m4 0h3m1 0h1m2 0h1m3 0h2m1 0h3m3 0h4m2 0h1m1 0h1m2 0h2m1 0h1m2 0h1m5 0h1M4 10.5h7m1 0h1m1 0h1m1 0h1m1 0h1m1 0h1m1 0h1m1 0h1m1 0h1m1 0h1m1 0h1m1 0h1m1 0h1m1 0h1m1 0h1m1 0h1m1 0h1m1 0h1m1 0h1m1 0h1m1 0h1m1 0h1m1 0h1m1 0h1m1 0h1m1 0h1m1 0h1m1 0h1m1 0h1m1 0h1m1 0h1m1 0h1m1 0h1m1 0h1m1 0h1m1 0h1m1 0h1m1 0h1m1 0h1m1 0h1m1 0h7M12 11.5h1m1 0h1m2 0h2m2 0h1m1 0h1m4 0h1m2 0h2m3 0h4m1 0h1m3 0h1m1 0h1m2 0h1m1 0h1m2 0h4m1 0h1m3 0h3m3 0h1m1 0h1m4 0h2m1 0h4m1 0h1m1 0h2M4 12.5h1m1 0h5m2 0h1m1 0h2m1 0h1m3 0h1m1 0h1m2 0h1m3 0h8m3 0h2m3 0h1m1 0h1m2 0h3m5 0h5m2 0h1m2 0h1m2 0h3m2 0h4m3 0h2m3 0h5M7 13.5h1m5 0h6m2 0h2m1 0h5m1 0h2m2 0h2m2 0h2m1 0h1m3 0h1m3 0h4m1 0h1m1 0h1m1 0h2m7 0h2m1 0h5m3 0h1m4 0h3m7 0h1M8 14.5h1m1 0h2m7 0h1m1 0h1m1 0h2m2 0h3m1 0h2m3 0h1m5 0h2m2 0h3m3 0h1m4 0h1m2 0h4m1 0h1m1 0h5m1 0h1m1 0h1m2 0h4m7 0h1m1 0h2m2 0h2M4 15.5h1m1 0h3m2 0h2m1 0h2m2 0h1m2 0h1m2 0h3m1 0h2m2 0h1m1 0h2m1 0h1m1 0h3m2 0h1m1 0h1m2 0h2m3 0h1m1 0h1m1 0h1m2 0h1m3 0h2m2 0h1m2 0h2m3 0h1m2 0h1m1 0h1m3 0h2m2 0h2m2 0h2M4 16.5h1m3 0h1m1 0h1m2 0h3m3 0h1m1 0h2m1 0h1m1 0h1m1 0h1m1 0h1m3 0h3m2 0h3m1 0h1m1 0h5m1 0h2m2 0h1m1 0h8m2 0h1m1 0h1m3 0h4m2 0h2m1 0h1m1 0h2m2 0h2m1 0h1m1 0h4M4 17.5h1m1 0h3m5 0h1m6 0h2m1 0h1m3 0h5m2 0h1m2 0h3m2 0h2m1 0h1m4 0h2m1 0h1m2 0h2m3 0h1m1 0h2m4 0h1m1 0h2m2 0h2m2 0h1m4 0h2m1 0h1m3 0h1m3 0h1M7 18.5h6m1 0h2m1 0h1m2 0h2m1 0h2m1 0h3m2 0h2m3 0h3m1 0h3m2 0h1m2 0h2m1 0h3m1 0h1m5 0h1m1 0h2m1 0h2m1 0h5m1 0h2m4 0h1m1 0h1m2 0h2m1 0h1m2 0h1m1 0h1M4 19.5h2m2 0h2m1 0h2m3 0h1m1 0h1m1 0h3m1 0h1m1 0h1m2 0h1m4 0h2m1 0h1m1 0h1m1 0h3m1 0h2m4 0h1m1 0h2m3 0h2m1 0h3m1 0h4m1 0h1m1 0h2m1 0h1m1 0h1m2 0h1m1 0h1m2 0h4m1 0h2m1 0h1M6 20.5h3m1 0h1m1 0h6m1 0h1m1 0h1m2 0h1m1 0h3m1 0h3m1 0h1m1 0h2m2 0h2m1 0h2m1 0h3m1 0h1m1 0h1m1 0h2m1 0h1m2 0h2m2 0h1m1 0h1m2 0h2m1 0h1m6 0h3m1 0h1m4 0h1m4 0h3M4 21.5h1m4 0h1m1 0h1m4 0h1m1 0h1m2 0h4m1 0h1m2 0h2m1 0h2m3 0h1m2 0h1m2 0h2m1 0h2m2 0h1m1 0h2m4 0h1m1 0h1m1 0h1m2 0h1m2 0h1m1 0h1m2 0h1m2 0h2m1 0h1m2 0h1m2 0h1m4 0h1m4 0h2M4 22.5h1m2 0h2m1 0h3m2 0h3m1 0h2m1 0h2m2 0h2m1 0h1m1 0h2m1 0h1m1 0h3m5 0h2m1 0h2m2 0h2m2 0h1m1 0h1m6 0h1m1 0h1m1 0h2m1 0h1m2 0h3m1 0h2m1 0h3m5 0h1m1 0h4M4 23.5h2m1 0h1m1 0h1m2 0h1m2 0h1m1 0h1m1 0h6m4 0h4m8 0h3m1 0h2m2 0h1m3 0h2m1 0h3m2 0h2m2 0h2m5 0h2m1 0h1m1 0h1m2 0h2m3 0h6m3 0h1m1 0h1M5 24.5h1m3 0h9m1 0h4m2 0h2m2 0h2m2 0h6m2 0h1m4 0h1m1 0h1m1 0h4m1 0h1m1 0h1m1 0h1m2 0h7m7 0h1m1 0h2m3 0h2m3 0h5m1 0h1M5 25.5h1m5 0h2m3 0h1m1 0h2m2 0h1m1 0h1m1 0h1m4 0h1m1 0h1m2 0h5m1 0h2m2 0h2m3 0h2m2 0h5m1 0h2m2 0h1m4 0h1m2 0h1m2 0h2m1 0h1m2 0h1m1 0h2m2 0h1m2 0h1m1 0h1m2 0h1M5 26.5h2m1 0h5m1 0h1m5 0h2m2 0h3m1 0h1m1 0h2m1 0h1m2 0h5m3 0h1m2 0h4m2 0h1m1 0h1m4 0h1m1 0h1m1 0h1m2 0h5m3 0h2m3 0h1m1 0h3m1 0h1m2 0h2m1 0h1m1 0h2M4 27.5h2m3 0h1m2 0h1m1 0h1m2 0h2m2 0h1m1 0h2m1 0h1m1 0h4m4 0h1m5 0h2m2 0h2m1 0h1m3 0h2m2 0h2m2 0h2m1 0h1m1 0h4m2 0h1m1 0h5m2 0h2m3 0h3m2 0h1m4 0h1M6 28.5h1m3 0h1m10 0h2m4 0h2m5 0h4m1 0h3m1 0h1m1 0h1m1 0h1m3 0h2m4 0h2m1 0h1m5 0h3m1 0h1m1 0h2m5 0h2m1 0h4m3 0h2m3 0h1M6 29.5h2m1 0h1m2 0h1m2 0h3m1 0h1m2 0h2m6 0h1m1 0h4m1 0h1m2 0h1m1 0h1m1 0h3m2 0h1m1 0h1m6 0h2m1 0h2m4 0h2m4 0h1m1 0h3m2 0h1m3 0h3m1 0h2m1 0h1m4 0h1M7 30.5h5m1 0h1m1 0h3m1 0h1m3 0h1m1 0h4m1 0h2m1 0h2m4 0h1m3 0h2m3 0h1m2 0h3m1 0h4m4 0h1m4 0h2m1 0h1m2 0h1m4 0h1m3 0h1m2 0h2m2 0h1m2 0h3M6 31.5h1m1 0h1m5 0h2m1 0h2m2 0h1m1 0h7m1 0h1m2 0h2m2 0h6m1 0h4m2 0h1m2 0h1m2 0h1m3 0h1m2 0h2m1 0h4m2 0h1m1 0h1m2 0h5m2 0h1m1 0h1m3 0h1m4 0h1M4 32.5h2m1 0h6m2 0h1m1 0h1m3 0h1m2 0h1m1 0h2m1 0h2m1 0h5m2 0h3m3 0h2m3 0h1m1 0h1m5 0h7m3 0h1m3 0h1m3 0h2m2 0h2m1 0h3m2 0h8M4 33.5h1m1 0h1m1 0h1m3 0h1m1 0h3m1 0h4m4 0h1m2 0h2m1 0h1m3 0h1m1 0h1m1 0h4m2 0h2m1 0h1m1 0h1m2 0h1m2 0h4m3 0h2m1 0h2m1 0h1m2 0h4m2 0h1m2 0h1m1 0h2m2 0h1m3 0h2m1 0h2M6 34.5h1m1 0h1m1 0h1m1 0h1m4 0h1m1 0h3m3 0h1m3 0h4m1 0h1m1 0h1m1 0h1m4 0h3m4 0h1m1 0h2m1 0h2m1 0h1m1 0h1m1 0h1m1 0h1m1 0h1m4 0h2m1 0h1m3 0h1m1 0h1m1 0h3m2 0h2m1 0h1m1 0h1M7 35.5h2m3 0h4m2 0h3m5 0h3m1 0h3m3 0h2m1 0h1m2 0h1m5 0h2m2 0h1m1 0h1m5 0h1m3 0h2m1 0h1m1 0h3m1 0h1m1 0h2m2 0h3m2 0h3m1 0h1m3 0h1m1 0h3M4 36.5h3m1 0h5m2 0h4m1 0h1m3 0h1m1 0h4m2 0h5m2 0h1m4 0h1m1 0h2m1 0h3m2 0h2m1 0h8m7 0h1m6 0h1m2 0h4m2 0h5m1 0h2M4 37.5h1m1 0h1m2 0h1m1 0h1m3 0h1m1 0h1m1 0h1m4 0h1m2 0h1m2 0h1m2 0h3m1 0h1m4 0h1m2 0h2m1 0h2m3 0h1m1 0h1m2 0h1m1 0h1m3 0h1m1 0h2m2 0h1m1 0h2m2 0h1m1 0h1m1 0h2m2 0h4m1 0h2m2 0h4M4 38.5h1m1 0h1m2 0h2m2 0h2m1 0h1m1 0h1m4 0h6m4 0h2m1 0h3m1 0h2m2 0h4m2 0h2m1 0h1m1 0h1m2 0h1m2 0h2m3 0h1m3 0h1m1 0h1m2 0h4m3 0h2m7 0h6M6 39.5h3m2 0h4m1 0h1m1 0h1m5 0h1m3 0h2m2 0h4m2 0h1m1 0h4m1 0h1m1 0h2m2 0h1m2 0h2m3 0h1m4 0h1m2 0h1m1 0h3m1 0h4m2 0h1m1 0h2m1 0h1m1 0h3m2 0h1m1 0h2M4 40.5h4m2 0h2m12 0h5m2 0h2m2 0h5m1 0h1m1 0h1m3 0h1m1 0h2m1 0h1m2 0h1m2 0h4m1 0h2m3 0h1m4 0h1m2 0h1m3 0h2m1 0h3m2 0h2m2 0h1M8 41.5h1m4 0h2m1 0h3m2 0h3m2 0h2m3 0h1m1 0h3m2 0h1m2 0h1m5 0h2m2 0h2m4 0h1m2 0h2m1 0h1m2 0h9m1 0h1m1 0h3m1 0h1m1 0h1m4 0h3m3 0h2M5 42.5h1m3 0h11m1 0h1m2 0h1m1 0h4m1 0h1m4 0h2m1 0h1m1 0h1m1 0h2m1 0h1m2 0h2m1 0h5m1 0h1m1 0h1m1 0h2m1 0h1m4 0h1m3 0h5m1 0h1m1 0h4m1 0h1m3 0h4M11 43.5h1m1 0h2m5 0h1m2 0h1m2 0h1m5 0h1m1 0h1m2 0h1m1 0h1m2 0h2m1 0h1m1 0h3m1 0h5m1 0h1m2 0h1m1 0h3m1 0h6m1 0h1m1 0h1m2 0h2m1 0h3m2 0h1m1 0h1m2 0h1m1 0h3M4 44.5h1m4 0h3m3 0h2m2 0h1m3 0h6m1 0h1m1 0h1m4 0h1m2 0h1m2 0h2m1 0h1m2 0h2m1 0h1m1 0h6m1 0h2m4 0h2m1 0h1m1 0h1m3 0h1m2 0h2m3 0h6m1 0h3m1 0h1M4 45.5h1m1 0h3m3 0h1m3 0h1m1 0h2m2 0h2m1 0h2m3 0h1m7 0h1m3 0h1m2 0h1m1 0h1m1 0h1m1 0h4m2 0h2m3 0h1m1 0h1m1 0h6m1 0h3m2 0h3m1 0h1m1 0h1m1 0h1m2 0h2m2 0h2M4 46.5h4m2 0h1m1 0h1m2 0h1m2 0h1m1 0h1m1 0h1m2 0h1m3 0h1m1 0h1m1 0h1m3 0h2m1 0h1m2 0h2m1 0h1m3 0h2m3 0h2m2 0h1m1 0h2m1 0h1m3 0h1m2 0h1m4 0h3m1 0h1m3 0h3m3 0h1m1 0h3m1 0h1M4 47.5h6m1 0h3m1 0h1m1 0h2m1 0h1m2 0h1m2 0h1m2 0h2m2 0h2m1 0h1m1 0h1m1 0h2m1 0h3m2 0h2m1 0h2m1 0h2m1 0h1m2 0h1m2 0h1m2 0h7m1 0h1m1 0h1m2 0h1m2 0h2m2 0h3m1 0h2m1 0h3M4 48.5h1m1 0h2m1 0h3m1 0h6m2 0h2m2 0h1m1 0h1m2 0h3m1 0h1m1 0h2m2 0h1m1 0h1m3 0h2m1 0h2m1 0h1m2 0h1m3 0h1m3 0h2m1 0h2m4 0h2m1 0h1m1 0h2m5 0h3m1 0h2m5 0h2M4 49.5h3m2 0h1m1 0h1m1 0h1m2 0h1m1 0h1m2 0h1m2 0h3m1 0h2m1 0h1m1 0h3m2 0h1m4 0h2m1 0h1m1 0h2m6 0h1m1 0h1m1 0h3m1 0h1m1 0h1m1 0h1m2 0h2m3 0h1m2 0h2m1 0h1m4 0h4m2 0h3M5 50.5h2m1 0h8m2 0h3m1 0h1m1 0h1m1 0h1m2 0h2m8 0h1m1 0h2m3 0h1m3 0h2m1 0h4m1 0h1m2 0h1m1 0h1m1 0h1m2 0h1m2 0h3m2 0h3m3 0h4m1 0h1m4 0h1m2 0h1M4 51.5h1m3 0h2m1 0h2m1 0h1m3 0h1m1 0h1m3 0h3m4 0h3m4 0h1m1 0h3m1 0h1m2 0h1m1 0h1m2 0h2m1 0h1m5 0h1m3 0h2m2 0h3m2 0h1m2 0h1m1 0h1m2 0h1m1 0h1m1 0h4m1 0h1m2 0h2M4 52.5h1m1 0h1m2 0h5m2 0h1m5 0h2m3 0h2m2 0h5m1 0h1m4 0h2m1 0h2m2 0h1m4 0h1m1 0h6m1 0h2m2 0h1m1 0h1m4 0h3m2 0h2m4 0h3m3 0h2m2 0h2M4 53.5h1m3 0h2m1 0h1m1 0h1m3 0h1m4 0h3m1 0h2m1 0h1m2 0h3m1 0h2m1 0h4m3 0h2m1 0h1m1 0h2m4 0h2m2 0h1m2 0h1m5 0h4m2 0h1m2 0h1m2 0h5m1 0h1m1 0h2m1 0h1M5 54.5h2m2 0h2m2 0h3m1 0h1m3 0h4m1 0h3m2 0h1m2 0h3m1 0h2m3 0h1m2 0h1m2 0h2m2 0h6m1 0h1m3 0h2m1 0h1m2 0h1m1 0h2m1 0h4m1 0h7m5 0h4M5 55.5h1m1 0h1m1 0h1m1 0h3m1 0h2m1 0h1m4 0h1m1 0h1m1 0h1m4 0h3m3 0h3m3 0h1m3 0h1m1 0h3m2 0h4m3 0h2m2 0h1m1 0h1m1 0h3m3 0h1m2 0h3m1 0h2m2 0h5m1 0h2M6 56.5h3m1 0h4m2 0h3m1 0h1m2 0h1m2 0h4m1 0h1m1 0h1m1 0h1m1 0h2m1 0h2m1 0h1m2 0h2m1 0h1m2 0h1m1 0h1m4 0h2m1 0h2m1 0h1m1 0h1m1 0h2m2 0h2m4 0h2m3 0h2m1 0h1m3 0h1m1 0h1m2 0h1M5 57.5h1m2 0h1m3 0h2m2 0h1m1 0h1m3 0h5m1 0h1m3 0h7m2 0h1m1 0h3m3 0h5m1 0h2m1 0h1m4 0h2m1 0h3m1 0h2m4 0h1m1 0h3m1 0h2m3 0h2m6 0h1M6 58.5h8m4 0h1m1 0h3m2 0h1m1 0h1m2 0h2m3 0h3m4 0h1m3 0h1m2 0h1m1 0h1m1 0h3m1 0h1m3 0h2m2 0h3m1 0h2m1 0h6m2 0h1m4 0h3m1 0h1m2 0h4M7 59.5h1m1 0h1m2 0h2m2 0h1m1 0h1m1 0h1m3 0h4m2 0h6m4 0h2m2 0h2m1 0h1m1 0h5m1 0h2m1 0h1m1 0h2m2 0h1m1 0h1m1 0h2m1 0h2m1 0h1m3 0h1m4 0h2m1 0h4m1 0h1m2 0h1M4 60.5h1m2 0h9m2 0h1m1 0h4m3 0h2m3 0h6m1 0h2m1 0h2m1 0h5m2 0h1m1 0h1m2 0h9m1 0h1m1 0h1m3 0h1m3 0h1m1 0h1m1 0h1m2 0h1m1 0h1m1 0h6m1 0h2M4 61.5h1m3 0h1m3 0h2m2 0h1m1 0h2m1 0h1m1 0h1m3 0h1m1 0h2m1 0h1m3 0h1m1 0h4m1 0h1m2 0h3m1 0h1m1 0h2m4 0h1m1 0h1m3 0h1m2 0h1m1 0h3m1 0h2m3 0h1m5 0h2m1 0h2m3 0h1m1 0h2M6 62.5h1m1 0h1m1 0h1m1 0h2m4 0h1m1 0h6m3 0h1m2 0h1m1 0h1m1 0h2m1 0h1m2 0h1m3 0h1m1 0h2m1 0h1m2 0h2m1 0h2m1 0h1m1 0h1m1 0h2m7 0h1m1 0h5m1 0h2m2 0h1m2 0h1m1 0h1m1 0h1m2 0h1M4 63.5h2m2 0h1m3 0h12m1 0h2m3 0h3m3 0h1m1 0h3m3 0h1m4 0h5m1 0h4m1 0h1m3 0h1m1 0h1m2 0h4m3 0h2m2 0h1m2 0h2m3 0h1m3 0h1m1 0h2M6 64.5h8m1 0h1m1 0h3m3 0h1m1 0h2m2 0h1m1 0h7m1 0h1m2 0h2m2 0h2m4 0h3m2 0h2m1 0h5m2 0h1m2 0h1m2 0h2m4 0h1m2 0h1m2 0h8m3 0h1M6 65.5h1m2 0h1m2 0h6m1 0h4m5 0h1m1 0h5m1 0h1m3 0h1m2 0h1m2 0h1m9 0h1m1 0h2m2 0h1m1 0h1m1 0h1m3 0h4m1 0h6m3 0h2m1 0h2m1 0h4M6 66.5h1m1 0h1m1 0h2m2 0h1m3 0h1m1 0h1m3 0h1m1 0h4m1 0h1m4 0h1m1 0h2m2 0h1m2 0h1m1 0h3m3 0h2m1 0h2m1 0h1m1 0h3m1 0h1m2 0h2m1 0h1m1 0h4m2 0h3m3 0h1m2 0h1m2 0h1m2 0h1M7 67.5h2m3 0h3m3 0h1m1 0h2m2 0h1m2 0h3m1 0h1m1 0h1m1 0h1m1 0h1m1 0h3m1 0h1m2 0h1m2 0h2m5 0h3m5 0h3m3 0h1m1 0h1m3 0h3m1 0h6m3 0h4m2 0h1M4 68.5h2m3 0h2m2 0h2m1 0h3m1 0h1m2 0h1m1 0h2m1 0h2m7 0h1m1 0h2m3 0h4m4 0h4m1 0h1m1 0h1m2 0h1m4 0h1m2 0h1m1 0h3m3 0h3m1 0h1m3 0h1m2 0h1m1 0h4m1 0h1M4 69.5h1m3 0h2m2 0h1m1 0h1m2 0h1m5 0h2m1 0h2m1 0h1m5 0h1m1 0h2m2 0h1m1 0h2m1 0h1m9 0h3m2 0h1m6 0h1m7 0h4m2 0h5m2 0h3M7 70.5h1m2 0h1m1 0h1m2 0h4m4 0h3m9 0h3m1 0h1m2 0h1m1 0h3m1 0h1m2 0h1m3 0h1m4 0h2m1 0h3m1 0h3m1 0h1m1 0h1m1 0h1m2 0h4m2 0h1m4 0h1m1 0h1m2 0h1M6 71.5h4m3 0h1m3 0h3m3 0h1m1 0h1m2 0h2m3 0h2m5 0h1m3 0h1m2 0h1m2 0h2m1 0h5m1 0h1m5 0h2m3 0h1m1 0h3m1 0h5m1 0h1m2 0h2m2 0h2m1 0h3M7 72.5h1m1 0h4m1 0h1m1 0h6m2 0h3m3 0h1m4 0h1m3 0h2m1 0h2m1 0h2m1 0h2m2 0h1m5 0h1m1 0h3m4 0h4m2 0h1m1 0h1m3 0h1m1 0h2m4 0h2m2 0h2m1 0h3M4 73.5h2m2 0h2m2 0h1m5 0h3m2 0h4m2 0h1m2 0h1m8 0h1m1 0h1m2 0h2m1 0h7m1 0h3m5 0h1m1 0h1m2 0h4m2 0h2m1 0h2m3 0h3m1 0h3m4 0h2M4 74.5h2m1 0h1m2 0h1m2 0h1m1 0h2m1 0h1m2 0h2m1 0h1m1 0h1m1 0h1m1 0h4m1 0h1m1 0h1m1 0h1m2 0h1m2 0h1m1 0h3m2 0h2m1 0h1m1 0h3m1 0h3m2 0h7m2 0h1m4 0h5m1 0h2m3 0h4M5 75.5h2m4 0h3m4 0h1m1 0h3m1 0h1m1 0h1m1 0h2m1 0h2m1 0h2m1 0h1m3 0h3m6 0h1m2 0h3m4 0h1m1 0h1m1 0h2m1 0h1m5 0h1m1 0h3m3 0h1m2 0h3m3 0h1m3 0h2M4 76.5h1m1 0h6m2 0h1m1 0h3m2 0h1m3 0h2m1 0h4m4 0h1m1 0h3m2 0h4m1 0h2m1 0h2m3 0h1m1 0h1m3 0h3m2 0h4m7 0h2m1 0h2m4 0h3m2 0h1m1 0h2M4 77.5h5m3 0h3m5 0h2m2 0h1m1 0h2m1 0h5m2 0h1m4 0h1m1 0h1m1 0h3m1 0h3m1 0h4m1 0h1m1 0h1m6 0h1m4 0h5m5 0h5m1 0h1m1 0h1m2 0h1m2 0h1M6 78.5h1m3 0h1m4 0h2m2 0h1m2 0h4m1 0h1m1 0h4m1 0h7m2 0h2m2 0h2m3 0h1m3 0h2m1 0h1m1 0h1m1 0h2m1 0h2m1 0h1m1 0h2m5 0h2m1 0h3m2 0h2m5 0h3M5 79.5h2m4 0h1m1 0h2m1 0h4m2 0h1m1 0h6m1 0h3m2 0h2m3 0h3m1 0h1m3 0h1m4 0h5m5 0h2m2 0h1m1 0h1m4 0h3m2 0h2m6 0h2m3 0h4M4 80.5h4m1 0h2m1 0h1m2 0h2m1 0h1m5 0h1m5 0h1m3 0h2m2 0h4m1 0h1m3 0h1m1 0h4m4 0h3m1 0h2m1 0h1m2 0h3m6 0h1m2 0h3m1 0h1m1 0h1m1 0h3m1 0h2m1 0h1M4 81.5h1m4 0h1m1 0h1m1 0h3m1 0h3m1 0h4m1 0h3m4 0h1m4 0h1m2 0h1m1 0h1m1 0h3m1 0h1m2 0h1m1 0h1m3 0h6m1 0h3m3 0h1m1 0h1m2 0h3m1 0h1m1 0h1m2 0h2m2 0h3m1 0h1m2 0h1M4 82.5h4m2 0h1m1 0h1m1 0h1m1 0h1m12 0h1m1 0h1m2 0h1m1 0h3m1 0h1m3 0h2m1 0h2m1 0h3m2 0h1m1 0h1m3 0h4m2 0h1m1 0h1m1 0h2m7 0h1m2 0h1m2 0h1m1 0h2m1 0h4M6 83.5h1m1 0h1m6 0h1m2 0h2m2 0h1m4 0h1m3 0h5m1 0h7m2 0h2m2 0h2m2 0h1m3 0h1m5 0h1m2 0h1m2 0h1m1 0h2m1 0h1m1 0h2m2 0h2m3 0h1m1 0h1m1 0h2m1 0h2M4 84.5h1m2 0h2m1 0h2m1 0h4m5 0h1m1 0h1m1 0h1m1 0h1m2 0h2m1 0h1m2 0h2m1 0h2m1 0h2m2 0h1m1 0h2m1 0h1m3 0h1m1 0h1m2 0h3m1 0h1m2 0h2m3 0h1m5 0h2m5 0h3m3 0h1m1 0h3M4 85.5h1m2 0h1m1 0h1m1 0h6m3 0h2m2 0h4m3 0h1m4 0h1m2 0h5m2 0h2m2 0h2m1 0h3m2 0h3m1 0h1m1 0h1m1 0h3m1 0h1m1 0h3m2 0h1m1 0h1m1 0h1m1 0h4m2 0h3m3 0h2M8 86.5h1m1 0h1m1 0h1m3 0h2m1 0h2m3 0h1m1 0h1m3 0h1m1 0h1m4 0h2m1 0h1m2 0h3m2 0h2m1 0h3m1 0h2m1 0h2m1 0h1m3 0h2m2 0h4m1 0h1m4 0h2m2 0h1m2 0h1m1 0h1m5 0h1M4 87.5h2m1 0h3m1 0h1m1 0h2m6 0h2m4 0h4m2 0h1m3 0h2m2 0h2m2 0h2m1 0h3m3 0h1m4 0h2m1 0h8m2 0h1m2 0h1m1 0h2m2 0h1m2 0h2m2 0h3m2 0h2m1 0h1M5 88.5h2m3 0h2m1 0h2m2 0h1m3 0h1m1 0h1m1 0h1m1 0h15m1 0h2m1 0h2m3 0h3m1 0h1m2 0h7m1 0h3m3 0h2m3 0h1m4 0h2m3 0h9M12 89.5h1m4 0h2m2 0h2m1 0h1m3 0h1m1 0h3m3 0h1m2 0h1m2 0h1m3 0h4m1 0h3m1 0h1m4 0h1m3 0h1m2 0h2m4 0h2m2 0h2m2 0h1m3 0h1m2 0h1m3 0h2m1 0h2M4 90.5h7m4 0h1m1 0h1m4 0h1m3 0h1m2 0h1m1 0h2m1 0h1m1 0h2m2 0h1m3 0h2m4 0h1m1 0h1m3 0h1m1 0h3m1 0h1m1 0h1m1 0h1m1 0h1m1 0h3m1 0h1m4 0h1m2 0h2m4 0h1m1 0h1m1 0h3M4 91.5h1m5 0h1m1 0h1m1 0h3m2 0h1m1 0h1m2 0h2m1 0h2m1 0h3m3 0h1m1 0h6m3 0h3m1 0h5m1 0h1m1 0h2m3 0h8m3 0h2m1 0h5m1 0h5m3 0h2m1 0h1M4 92.5h1m1 0h3m1 0h1m1 0h1m2 0h1m1 0h4m2 0h1m2 0h2m1 0h8m1 0h1m1 0h1m4 0h2m2 0h1m2 0h1m2 0h1m2 0h1m1 0h5m14 0h1m3 0h1m4 0h7M4 93.5h1m1 0h3m1 0h1m1 0h2m1 0h1m1 0h1m1 0h1m1 0h6m1 0h1m3 0h1m1 0h3m3 0h4m5 0h1m1 0h2m4 0h1m5 0h1m1 0h1m1 0h4m1 0h2m2 0h1m1 0h5m2 0h1m2 0h2m1 0h4M4 94.5h1m1 0h3m1 0h1m1 0h1m1 0h1m1 0h2m2 0h3m1 0h1m1 0h1m1 0h2m5 0h3m1 0h1m1 0h1m2 0h3m3 0h1m1 0h2m3 0h2m2 0h1m1 0h2m7 0h3m1 0h2m4 0h2m3 0h1m2 0h2m1 0h2M4 95.5h1m5 0h1m2 0h1m1 0h1m1 0h2m1 0h1m1 0h6m2 0h1m1 0h1m1 0h2m4 0h1m1 0h1m2 0h1m2 0h2m1 0h1m1 0h1m3 0h1m2 0h2m1 0h1m2 0h6m1 0h3m2 0h2m1 0h2m3 0h1m1 0h3m1 0h1m1 0h1M4 96.5h7m1 0h1m1 0h1m2 0h4m3 0h1m1 0h1m2 0h1m1 0h1m2 0h2m7 0h1m3 0h1m4 0h11m2 0h4m3 0h2m3 0h1m1 0h1m3 0h3m1 0h1m3 0h3m1 0h1"/></svg></g><text x="840.0000" y="406.0000" text-anchor="middle" font-family="monospace" font-size="15.0000" fill="#0f172a">Scan for offline verification</text><text x="840.0000" y="684.0000" text-anchor="middle" font-family="monospace" font-size="12.5000" fill="#475569">Tier-1 envelope only</text></svg>