<svg xmlns="http://www.w3.org/2000/svg" width="1200" height="1600" viewBox="0 0 1200 1600"><rect x="0" y="0" width="1200" height="1600" fill="#f8fafc" /><g id="crystal-layers"><path d="M324.4404 539.4151 L412.1402 498.0566 L497.0712 531.1888 L544.7284 612.7089 L513.6296 700.1574 L428.4216 744.2668 L326.5140 713.4429 L305.8703 627.1310 Z" fill="hsla(282,70%,65%,0.1800)" stroke="#0f172a" stroke-width="2.0000" /><path d="M553.4168 690.3880 L440.5890 755.2658 L328.1022 719.6508 L284.5691 609.7937 L349.4596 509.6661 L467.3126 484.0331 L564.8481 568.4818 Z" fill="hsla(246,70%,65%,0.2900)" stroke="#0f172a" stroke-width="2.0000" /><path d="M282.2381 560.7541 L366.1284 480.4423 L479.0913 479.3012 L568.7177 561.7393 L558.3489 679.3079 L476.6558 761.2728 L347.0663 768.8870 L293.9526 675.9605 Z" fill="hsla(189,70%,65%,0.4000)" stroke="#0f172a" stroke-width="2.0000" /><path d="M426.1909 445.4572 L535.4494 492.9487 L604.1102 595.4310 L552.1975 707.8344 L467.1218 777.0751 L353.3541 779.7183 L273.6531 699.6046 L253.9706 585.0481 L301.3518 481.9761 Z" fill="hsla(189,70%,65%,0.5100)" stroke="#0f172a" stroke-width="2.0000" /><path d="M574.8694 492.9960 L629.4137 614.9831 L569.0790 736.8144 L452.8040 797.5216 L319.1008 789.4753 L265.4624 686.5115 L241.5126 560.6292 L307.9722 454.9100 L452.3305 427.4939 Z" fill="hsla(157,70%,65%,0.6200)" stroke="#0f172a" stroke-width="2.0000" /></g><g id="receipt-seed"><circle cx="420.0000" cy="620.0000" r="53.7600" fill="#e2e8f0" stroke="#0f172a" stroke-width="2.0000" /></g><g id="labels" font-family="monospace" fill="#0f172a"><text x="80.0000" y="116.0000" font-size="34.0000">Crystal Artifact v0</text><text x="80.0000" y="154.0000" font-size="18.0000">mutation_count: 5</text><text x="80.0000" y="186.0000" font-size="18.0000">receipt_root: 0x687dc5c00d9241469138bb1c17a06af1b8713b0f84663b55e11d476f4171a6bc</text><text x="80.0000" y="218.0000" font-size="18.0000">portfolio_root: sha256:7ddd55f59ea424fda079e3b5d5a3a1497bffe460ef1339ecbbc350888bc48124</text><text x="80.0000" y="250.0000" font-size="18.0000">crystal_hash: sha256:74350a81c792a943aa75e577b3ea721aa98af01f488780f7c7f77b0149d36f6f</text></g><g id="mutation-legend" font-family="monospace" fill="#0f172a"><text x="80.0000" y="1030.0000" font-size="16.0000">1. evidence_imported → workspace</text><text x="80.0000" y="1066.0000" font-size="16.0000">2. receipt_verified → workspace</text><text x="80.0000" y="1102.0000" font-size="16.0000">3. chronicle_entry_created → workspace</text><text x="80.0000" y="1138.0000" font-size="16.0000">4. portfolio_created → workspace</text><text x="80.0000" y="1174.0000" font-size="16.0000">5. portfolio_verified → workspace</text></g><g id="qr" transform="translate(830,1180)"><path fill="#ffffff" d="M0 0h101v101H0z"/><path stroke="#111111" d="M4 4.5h7m2 0h2m2 0h4m2 0h1m2 0h3m4 0h3m1 0h1m1 0h2m3 0h2m1 0h3m1 0h3m3 0h1m2 0h1m1 0h1m3 0h2m4 0h3m3 0h1m1 0h1m4 0h1m1 0h1m2 0h7M4 5.5h1m5 0h1m3 0h2m1 0h1m2 0h1m1 0h1m1 0h1m1 0h1m2 0h4m1 0h6m1 0h3m1 0h2m1 0h1m5 0h1m3 0h5m1 0h2m1 0h1m2 0h2m1 0h3m1 0h1m1 0h4m2 0h1m1 0h2m1 0h1m5 0h1M4 6.5h1m1 0h3m1 0h1m1 0h3m1 0h1m1 0h4m4 0h2m8 0h3m4 0h5m1 0h2m1 0h2m2 0h1m1 0h1m1 0h1m1 0h2m2 0h1m1 0h1m1 0h3m1 0h1m1 0h3m4 0h3m2 0h1m1 0h1m1 0h3m1 0h1M4 7.5h1m1 0h3m1 0h1m1 0h1m3 0h2m2 0h1m1 0h1m2 0h1m2 0h3m2 0h2m1 0h3m12 0h2m4 0h1m1 0h1m1 0h1m1 0h2m1 0h2m1 0h2m2 0h4m2 0h2m3 0h1m2 0h1m2 0h1m1 0h3m1 0h1M4 8.5h1m1 0h3m1 0h1m1 0h1m1 0h3m2 0h2m1 0h1m1 0h2m2 0h1m3 0h6m1 0h1m4 0h1m1 0h2m4 0h1m5 0h7m6 0h1m1 0h2m1 0h2m4 0h1m3 0h2m2 0h1m1 0h3m1 0h1M4 9.5h1m5 0h1m1 0h1m1 0h1m4 0h1m1 0h4m2 0h1m2 0h1m1 0h1m3 0h1m2 0h1m2 0h2m1 0h1m1 0h2m4 0h3m1 0h1m2 0h1m3 0h2m1 0h3m3 0h4m2 0h1m1 0h1m2 0h2m1 0h1m2 0h1m5 0h1M4 10.5h7m1 0h1m1 0h1m1 0h1m1 0h1m1 0h1m1 0h1m1 0h1m1 0h1m1 0h1m1 0h1m1 0h1m1 0h1m1 0h1m1 0h1m1 0h1m1 0h1m1 0h1m1 0h1m1 0h1m1 0h1m1 0h1m1 0h1m1 0h1m1 0h1m1 0h1m1 0h1m1 0h1m1 0h1m1 0h1m1 0h1m1 0h1m1 0h1m1 0h1m1 0h1m1 0h1m1 0h1m1 0h1m1 0h1m1 0h1m1 0h7M12 11.5h1m1 0h1m2 0h2m2 0h1m1 0h1m4 0h1m2 0h2m3 0h4m1 0h1m3 0h1m1 0h1m2 0h1m1 0h1m2 0h4m1 0h1m3 0h3m3 0h1m1 0h1m4 0h2m1 0h4m1 0h1m1 0h2M4 12.5h1m1 0h5m2 0h1m1 0h2m1 0h1m3 0h1m1 0h1m2 0h1m3 0h8m3 0h2m3 0h1m1 0h1m2 0h3m5 0h5m2 0h1m2 0h1m2 0h3m2 0h4m3 0h2m3 0h5M7 13.5h1m5 0h6m2 0h2m1 0h5m1 0h2m2 0h2m2 0h2m1 0h1m3 0h1m3 0h4m1 0h1m1 0h1m1 0h2m7 0h2m1 0h5m3 0h1m4 0h3m7 0h1M8 14.5h1m1 0h2m7 0h1m1 0h1m1 0h2m2 0h3m1 0h2m3 0h1m5 0h2m2 0h3m3 0h1m4 0h1m2 0h4m1 0h1m1 0h5m1 0h1m1 0h1m2 0h4m7 0h1m1 0h2m2 0h2M4 15.5h1m1 0h3m2 0h2m1 0h2m2 0h1m2 0h1m2 0h3m1 0h2m2 0h1m1 0h2m1 0h1m1 0h3m2 0h1m1 0h1m2 0h2m3 0h1m1 0h1m1 0h1m2 0h1m3 0h2m2 0h1m2 0h2m3 0h1m2 0h1m1 0h1m3 0h2m2 0h2m2 0h2M4 16.5h1m3 0h1m1 0h1m2 0h3m3 0h1m1 0h2m1 0h1m1 0h1m1 0h1m1 0h1m3 0h3m2 0h3m1 0h1m1 0h5m1 0h2m2 0h1m1 0h8m2 0h1m1 0h1m3 0h4m2 0h2m1 0h1m1 0h2m2 0h2m1 0h1m1 0h4M4 17.5h1m1 0h3m5 0h1m6 0h2m1 0h1m3 0h5m2 0h1m2 0h3m2 0h2m1 0h1m4 0h2m1 0h1m2 0h2m3 0h1m1 0h2m4 0h1m1 0h2m2 0h2m2 0h1m4 0h2m1 0h1m3 0h1m3 0h1M7 18.5h6m1 0h2m1 0h1m2 0h2m1 0h2m1 0h3m2 0h2m3 0h3m1 0h3m2 0h1m2 0h2m1 0h3m1 0h1m5 0h1m1 0h2m1 0h2m1 0h5m1 0h2m4 0h1m1 0h1m2 0h2m1 0h1m2 0h1m1 0h1M4 19.5h2m2 0h2m1 0h2m3 0h1m1 0h1m1 0h3m1 0h1m1 0h1m2 0h1m4 0h2m1 0h1m1 0h1m1 0h3m1 0h2m4 0h1m1 0h2m3 0h2m1 0h3m1 0h4m1 0h1m1 0h2m1 0h1m1 0h1m2 0h1m1 0h1m2 0h4m1 0h2m1 0h1M6 20.5h3m1 0h1m1 0h6m1 0h1m1 0h1m2 0h1m1 0h3m1 0h3m1 0h1m1 0h2m2 0h2m1 0h2m1 0h3m1 0h1m1 0h1m1 0h2m1 0h1m2 0h2m2 0h1m1 0h1m2 0h2m1 0h1m6 0h3m1 0h1m4 0h1m4 0h3M4 21.5h1m4 0h1m1 0h1m4 0h1m1 0h1m2 0h4m1 0h1m2 0h2m1 0h2m3 0h1m2 0h1m2 0h2m1 0h2m2 0h1m1 0h2m4 0h1m1 0h1m1 0h1m2 0h1m2 0h1m1 0h1m2 0h1m2 0h2m1 0h1m2 0h1m2 0h1m4 0h1m4 0h2M4 22.5h1m2 0h2m1 0h3m2 0h3m1 0h2m1 0h2m2 0h2m1 0h1m1 0h2m1 0h1m1 0h3m5 0h2m1 0h2m2 0h2m2 0h1m1 0h1m6 0h1m1 0h1m1 0h2m1 0h1m2 0h3m1 0h2m1 0h3m5 0h1m1 0h4M4 23.5h2m1 0h1m1 0h1m2 0h1m2 0h1m1 0h1m1 0h6m4 0h4m8 0h3m1 0h2m2 0h1m3 0h2m1 0h3m2 0h2m2 0h2m5 0h2m1 0h1m1 0h1m2 0h2m3 0h6m3 0h1m1 0h1M5 24.5h1m3 0h9m1 0h4m2 0h2m2 0h2m2 0h6m2 0h1m4 0h1m1 0h1m1 0h4m1 0h1m1 0h1m1 0h1m2 0h7m7 0h1m1 0h2m3 0h2m3 0h5m1 0h1M5 25.5h1m5 0h2m3 0h1m1 0h2m2 0h1m1 0h1m1 0h1m4 0h1m1 0h1m2 0h5m1 0h2m2 0h2m3 0h2m2 0h5m1 0h2m2 0h1m4 0h1m2 0h1m2 0h2m1 0h1m2 0h1m1 0h2m2 0h1m2 0h1m1 0h1m2 0h1M5 26.5h2m1 0h5m1 0h1m5 0h2m2 0h3m1 0h1m1 0h2m1 0h1m2 0h5m3 0h1m2 0h4m2 0h1m1 0h1m4 0h1m1 0h1m1 0h1m2 0h5m3 0h2m3 0h1m1 0h3m1 0h1m2 0h2m1 0h1m1 0h2M4 27.5h2m3 0h1m2 0h1m1 0h1m2 0h2m2 0h1m1 0h2m1 0h1m1 0h4m4 0h1m5 0h2m2 0h2m1 0h1m3 0h2m2 0h2m2 0h2m1 0h1m1 0h4m2 0h1m1 0h5m2 0h2m3 0h3m2 0h1m4 0h1M6 28.5h1m3 0h1m10 0h2m4 0h2m5 0h4m1 0h3m1 0h1m1 0h1m1 0h1m3 0h2m4 0h2m1 0h1m5 0h3m1 0h1m1 0h2m5 0h2m1 0h4m3 0h2m3 0h1M6 29.5h2m1 0h1m2 0h1m2 0h3m1 0h1m2 0h2m6 0h1m1 0h4m1 0h1m2 0h1m1 0h1m1 0h3m2 0h1m1 0h1m6 0h2m1 0h2m4 0h2m4 0h1m1 0h3m2 0h1m3 0h3m1 0h2m1 0h1m4 0h1M7 30.5h5m1 0h1m1 0h3m1 0h1m3 0h1m1 0h4m1 0h2m1 0h2m4 0h1m3 0h2m3 0h1m2 0h3m1 0h4m4 0h1m4 0h2m1 0h1m2 0h1m4 0h1m3 0h1m2 0h2m2 0h1m2 0h3M6 31.5h1m1 0h1m5 0h2m1 0h2m2 0h1m1 0h7m1 0h1m2 0h2m2 0h6m1 0h4m2 0h1m2 0h1m2 0h1m3 0h1m2 0h2m1 0h4m2 0h1m1 0h1m2 0h5m2 0h1m1 0h1m3 0h1m4 0h1M4 32.5h2m1 0h6m2 0h1m1 0h1m3 0h1m2 0h1m1 0h2m1 0h2m1 0h5m2 0h3m3 0h2m3 0h1m1 0h1m5 0h7m3 0h1m3 0h1m3 0h2m2 0h2m1 0h3m2 0h8M4 33.5h1m1 0h1m1 0h1m3 0h1m1 0h3m1 0h4m4 0h1m2 0h2m1 0h1m3 0h1m1 0h1m1 0h4m2 0h2m1 0h1m1 0h1m2 0h1m2 0h4m3 0h2m1 0h2m1 0h1m2 0h4m2 0h1m2 0h1m1 0h2m2 0h1m3 0h2m1 0h2M6 34.5h1m1 0h1m1 0h1m1 0h1m4 0h1m1 0h3m3 0h1m3 0h4m1 0h1m1 0h1m1 0h1m4 0h3m4 0h1m1 0h2m1 0h2m1 0h1m1 0h1m1 0h1m1 0h1m1 0h1m4 0h2m1 0h1m3 0h1m1 0h1m1 0h3m2 0h2m1 0h1m1 0h1M7 35.5h2m3 0h4m2 0h3m5 0h3m1 0h3m3 0h2m1 0h1m2 0h1m5 0h2m2 0h1m1 0h1m5 0h1m3 0h2m1 0h1m1 0h3m1 0h1m1 0h2m2 0h3m2 0h3m1 0h1m3 0h1m1 0h3M4 36.5h3m1 0h5m2 0h4m1 0h1m3 0h1m1 0h4m2 0h5m2 0h1m4 0h1m1 0h2m1 0h3m2 0h2m1 0h8m7 0h1m6 0h1m2 0h4m2 0h5m1 0h2M4 37.5h1m1 0h1m2 0h1m1 0h1m3 0h1m1 0h1m1 0h1m4 0h1m2 0h1m2 0h1m2 0h3m1 0h1m4 0h1m2 0h2m1 0h2m3 0h1m1 0h1m2 0h1m1 0h1m3 0h1m1 0h2m2 0h1m1 0h2m2 0h1m1 0h1m1 0h2m2 0h4m1 0h2m2 0h4M4 38.5h1m1 0h1m2 0h2m2 0h2m1 0h1m1 0h1m4 0h6m4 0h2m1 0h3m1 0h2m2 0h4m2 0h2m1 0h1m1 0h1m2 0h1m2 0h2m3 0h1m3 0h1m1 0h1m2 0h4m3 0h2m7 0h6M6 39.5h3m2 0h4m1 0h1m1 0h1m5 0h1m3 0h2m2 0h4m2 0h1m1 0h4m1 0h1m1 0h2m2 0h1m2 0h2m3 0h1m4 0h1m2 0h1m1 0h3m1 0h4m2 0h1m1 0h2m1 0h1m1 0h3m2 0h1m1 0h2M4 40.5h4m2 0h2m12 0h5m2 0h2m2 0h5m1 0h1m1 0h1m3 0h1m1 0h2m1 0h1m2 0h1m2 0h4m1 0h2m3 0h1m4 0h1m2 0h1m3 0h2m1 0h3m2 0h2m2 0h1M8 41.5h1m4 0h2m1 0h3m2 0h3m2 0h2m3 0h1m1 0h3m2 0h1m2 0h1m5 0h2m2 0h2m4 0h1m2 0h2m1 0h1m2 0h9m1 0h1m1 0h3m1 0h1m1 0h1m4 0h3m3 0h2M5 42.5h1m3 0h11m1 0h1m2 0h1m1 0h4m1 0h1m4 0h2m1 0h1m1 0h1m1 0h2m1 0h1m2 0h2m1 0h5m1 0h1m1 0h1m1 0h2m1 0h1m4 0h1m3 0h5m1 0h1m1 0h4m1 0h1m3 0h4M11 43.5h1m1 0h2m5 0h1m2 0h1m2 0h1m5 0h1m1 0h1m2 0h1m1 0h1m2 0h2m1 0h1m1 0h3m1 0h5m1 0h1m2 0h1m1 0h3m1 0h6m1 0h1m1 0h1m2 0h2m1 0h3m2 0h1m1 0h1m2 0h1m1 0h3M4 44.5h1m4 0h3m3 0h2m2 0h1m3 0h6m1 0h1m1 0h1m4 0h1m2 0h1m2 0h2m1 0h1m2 0h2m1 0h1m1 0h6m1 0h2m4 0h2m1 0h1m1 0h1m3 0h1m2 0h2m3 0h6m1 0h3m1 0h1M4 45.5h1m1 0h3m3 0h1m3 0h1m1 0h2m2 0h2m1 0h2m3 0h1m7 0h1m3 0h1m2 0h1m1 0h1m1 0h1m1 0h4m2 0h2m3 0h1m1 0h1m1 0h6m1 0h3m2 0h3m1 0h1m1 0h1m1 0h1m2 0h2m2 0h2M4 46.5h4m2 0h1m1 0h1m2 0h1m2 0h1m1 0h1m1 0h1m2 0h1m3 0h1m1 0h1m1 0h1m3 0h2m1 0h1m2 0h2m1 0h1m3 0h2m3 0h2m2 0h1m1 0h2m1 0h1m3 0h1m2 0h1m4 0h3m1 0h1m3 0h3m3 0h1m1 0h3m1 0h1M4 47.5h6m1 0h3m1 0h1m1 0h2m1 0h1m2 0h1m2 0h1m2 0h2m2 0h2m1 0h1m1 0h1m1 0h2m1 0h3m2 0h2m1 0h2m1 0h2m1 0h1m2 0h1m2 0h1m2 0h7m1 0h1m1 0h1m2 0h1m2 0h2m2 0h3m1 0h2m1 0h3M4 48.5h1m1 0h2m1 0h3m1 0h6m2 0h2m2 0h1m1 0h1m2 0h3m1 0h1m1 0h2m2 0h1m1 0h1m3 0h2m1 0h2m1 0h1m2 0h1m3 0h1m3 0h2m1 0h2m4 0h2m1 0h1m1 0h2m5 0h3m1 0h2m5 0h2M4 49.5h3m2 0h1m1 0h1m1 0h1m2 0h1m1 0h1m2 0h1m2 0h3m1 0h2m1 0h1m1 0h3m2 0h1m4 0h2m1 0h1m1 0h2m6 0h1m1 0h1m1 0h3m1 0h1m1 0h1m1 0h1m2 0h2m3 0h1m2 0h2m1 0h1m4 0h4m2 0h3M5 50.5h2m1 0h8m2 0h3m1 0h1m1 0h1m1 0h1m2 0h2m8 0h1m1 0h2m3 0h1m3 0h2m1 0h4m1 0h1m2 0h1m1 0h1m1 0h1m2 0h1m2 0h3m2 0h3m3 0h4m1 0h1m4 0h1m2 0h1M4 51.5h1m3 0h2m1 0h2m1 0h1m3 0h1m1 0h1m3 0h3m4 0h3m4 0h1m1 0h3m1 0h1m2 0h1m1 0h1m2 0h2m1 0h1m5 0h1m3 0h2m2 0h3m2 0h1m2 0h1m1 0h1m2 0h1m1 0h1m1 0h4m1 0h1m2 0h2M4 52.5h1m1 0h1m2 0h5m2 0h1m5 0h2m3 0h2m2 0h5m1 0h1m4 0h2m1 0h2m2 0h1m4 0h1m1 0h6m1 0h2m2 0h1m1 0h1m4 0h3m2 0h2m4 0h3m3 0h2m2 0h2M4 53.5h1m3 0h2m1 0h1m1 0h1m3 0h1m4 0h3m1 0h2m1 0h1m2 0h3m1 0h2m1 0h4m3 0h2m1 0h1m1 0h2m4 0h2m2 0h1m2 0h1m5 0h4m2 0h1m2 0h1m2 0h5m1 0h1m1 0h2m1 0h1M5 54.5h2m2 0h2m2 0h3m1 0h1m3 0h4m1 0h3m2 0h1m2 0h3m1 0h2m3 0h1m2 0h1m2 0h2m2 0h6m1 0h1m3 0h2m1 0h1m2 0h1m1 0h2m1 0h4m1 0h7m5 0h4M5 55.5h1m1 0h1m1 0h1m1 0h3m1 0h2m1 0h1m4 0h1m1 0h1m1 0h1m4 0h3m3 0h3m3 0h1m3 0h1m1 0h3m2 0h4m3 0h2m2 0h1m1 0h1m1 0h3m3 0h1m2 0h3m1 0h2m2 0h5m1 0h2M6 56.5h3m1 0h4m2 0h3m1 0h1m2 0h1m2 0h4m1 0h1m1 0h1m1 0h1m1 0h2m1 0h2m1 0h1m2 0h2m1 0h1m2 0h1m1 0h1m4 0h2m1 0h2m1 0h1m1 0h1m1 0h2m2 0h2m4 0h2m3 0h2m1 0h1m3 0h1m1 0h1m2 0h1M5 57.5h1m2 0h1m3 0h2m2 0h1m1 0h1m3 0h5m1 0h1m3 0h7m2 0h1m1 0h3m3 0h5m1 0h2m1 0h1m4 0h2m1 0h3m1 0h2m4 0h1m1 0h3m1 0h2m3 0h2m6 0h1M6 58.5h8m4 0h1m1 0h3m2 0h1m1 0h1m2 0h2m3 0h3m4 0h1m3 0h1m2 0h1m1 0h1m1 0h3m1 0h1m3 0h2m2 0h3m1 0h2m1 0h6m2 0h1m4 0h3m1 0h1m2 0h4M7 59.5h1m1 0h1m2 0h2m2 0h1m1 0h1m1 0h1m3 0h4m2 0h6m4 0h2m2 0h2m1 0h1m1 0h5m1 0h2m1 0h1m1 0h2m2 0h1m1 0h1m1 0h2m1 0h2m1 0h1m3 0h1m4 0h2m1 0h4m1 0h1m2 0h1M4 60.5h1m2 0h9m2 0h1m1 0h4m3 0h2m3 0h6m1 0h2m1 0h2m1 0h5m2 0h1m1 0h1m2 0h9m1 0h1m1 0h1m3 0h1m3 0h1m1 0h1m1 0h1m2 0h1m1 0h1m1 0h6m1 0h2M4 61.5h1m3 0h1m3 0h2m2 0h1m1 0h2m1 0h1m1 0h1m3 0h1m1 0h2m1 0h1m3 0h1m1 0h4m1 0h1m2 0h3m1 0h1m1 0h2m4 0h1m1 0h1m3 0h1m2 0h1m1 0h3m1 0h2m3 0h1m5 0h2m1 0h2m3 0h1m1 0h2M6 62.5h1m1 0h1m1 0h1m1 0h2m4 0h1m1 0h6m3 0h1m2 0h1m1 0h1m1 0h2m1 0h1m2 0h1m3 0h1m1 0h2m1 0h1m2 0h2m1 0h2m1 0h1m1 0h1m1 0h2m7 0h1m1 0h5m1 0h2m2 0h1m2 0h1m1 0h1m1 0h1m2 0h1M4 63.5h2m2 0h1m3 0h12m1 0h2m3 0h3m3 0h1m1 0h3m3 0h1m4 0h5m1 0h4m1 0h1m3 0h1m1 0h1m2 0h4m3 0h2m2 0h1m2 0h2m3 0h1m3 0h1m1 0h2M6 64.5h8m1 0h1m1 0h3m3 0h1m1 0h2m2 0h1m1 0h7m1 0h1m2 0h2m2 0h2m4 0h3m2 0h2m1 0h5m2 0h1m2 0h1m2 0h2m4 0h1m2 0h1m2 0h8m3 0h1M6 65.5h1m2 0h1m2 0h6m1 0h4m5 0h1m1 0h5m1 0h1m3 0h1m2 0h1m2 0h1m9 0h1m1 0h2m2 0h1m1 0h1m1 0h1m3 0h4m1 0h6m3 0h2m1 0h2m1 0h4M6 66.5h1m1 0h1m1 0h2m2 0h1m3 0h1m1 0h1m3 0h1m1 0h4m1 0h1m4 0h1m1 0h2m2 0h1m2 0h1m1 0h3m3 0h2m1 0h2m1 0h1m1 0h3m1 0h1m2 0h2m1 0h1m1 0h4m2 0h3m3 0h1m2 0h1m2 0h1m2 0h1M7 67.5h2m3 0h3m3 0h1m1 0h2m2 0h1m2 0h3m1 0h1m1 0h1m1 0h1m1 0h1m1 0h3m1 0h1m2 0h1m2 0h2m5 0h3m5 0h3m3 0h1m1 0h1m3 0h3m1 0h6m3 0h4m2 0h1M4 68.5h2m3 0h2m2 0h2m1 0h3m1 0h1m2 0h1m1 0h2m1 0h2m7 0h1m1 0h2m3 0h4m4 0h4m1 0h1m1 0h1m2 0h1m4 0h1m2 0h1m1 0h3m3 0h3m1 0h1m3 0h1m2 0h1m1 0h4m1 0h1M4 69.5h1m3 0h2m2 0h1m1 0h1m2 0h1m5 0h2m1 0h2m1 0h1m5 0h1m1 0h2m2 0h1m1 0h2m1 0h1m9 0h3m2 0h1m6 0h1m7 0h4m2 0h5m2 0h3M7 70.5h1m2 0h1m1 0h1m2 0h4m4 0h3m9 0h3m1 0h1m2 0h1m1 0h3m1 0h1m2 0h1m3 0h1m4 0h2m1 0h3m1 0h3m1 0h1m1 0h1m1 0h1m2 0h4m2 0h1m4 0h1m1 0h1m2 0h1M6 71.5h4m3 0h1m3 0h3m3 0h1m1 0h1m2 0h2m3 0h2m5 0h1m3 0h1m2 0h1m2 0h2m1 0h5m1 0h1m5 0h2m3 0h1m1 0h3m1 0h5m1 0h1m2 0h2m2 0h2m1 0h3M7 72.5h1m1 0h4m1 0h1m1 0h6m2 0h3m3 0h1m4 0h1m3 0h2m1 0h2m1 0h2m1 0h2m2 0h1m5 0h1m1 0h3m4 0h4m2 0h1m1 0h1m3 0h1m1 0h2m4 0h2m2 0h2m1 0h3M4 73.5h2m2 0h2m2 0h1m5 0h3m2 0h4m2 0h1m2 0h1m8 0h1m1 0h1m2 0h2m1 0h7m1 0h3m5 0h1m1 0h1m2 0h4m2 0h2m1 0h2m3 0h3m1 0h3m4 0h2M4 74.5h2m1 0h1m2 0h1m2 0h1m1 0h2m1 0h1m2 0h2m1 0h1m1 0h1m1 0h1m1 0h4m1 0h1m1 0h1m1 0h1m2 0h1m2 0h1m1 0h3m2 0h2m1 0h1m1 0h3m1 0h3m2 0h7m2 0h1m4 0h5m1 0h2m3 0h4M5 75.5h2m4 0h3m4 0h1m1 0h3m1 0h1m1 0h1m1 0h2m1 0h2m1 0h2m1 0h1m3 0h3m6 0h1m2 0h3m4 0h1m1 0h1m1 0h2m1 0h1m5 0h1m1 0h3m3 0h1m2 0h3m3 0h1m3 0h2M4 76.5h1m1 0h6m2 0h1m1 0h3m2 0h1m3 0h2m1 0h4m4 0h1m1 0h3m2 0h4m1 0h2m1 0h2m3 0h1m1 0h1m3 0h3m2 0h4m7 0h2m1 0h2m4 0h3m2 0h1m1 0h2M4 77.5h5m3 0h3m5 0h2m2 0h1m1 0h2m1 0h5m2 0h1m4 0h1m1 0h1m1 0h3m1 0h3m1 0h4m1 0h1m1 0h1m6 0h1m4 0h5m5 0h5m1 0h1m1 0h1m2 0h1m2 0h1M6 78.5h1m3 0h1m4 0h2m2 0h1m2 0h4m1 0h1m1 0h4m1 0h7m2 0h2m2 0h2m3 0h1m3 0h2m1 0h1m1 0h1m1 0h2m1 0h2m1 0h1m1 0h2m5 0h2m1 0h3m2 0h2m5 0h3M5 79.5h2m4 0h1m1 0h2m1 0h4m2 0h1m1 0h6m1 0h3m2 0h2m3 0h3m1 0h1m3 0h1m4 0h5m5 0h2m2 0h1m1 0h1m4 0h3m2 0h2m6 0h2m3 0h4M4 80.5h4m1 0h2m1 0h1m2 0h2m1 0h1m5 0h1m5 0h1m3 0h2m2 0h4m1 0h1m3 0h1m1 0h4m4 0h3m1 0h2m1 0h1m2 0h3m6 0h1m2 0h3m1 0h1m1 0h1m1 0h3m1 0h2m1 0h1M4 81.5h1m4 0h1m1 0h1m1 0h3m1 0h3m1 0h4m1 0h3m4 0h1m4 0h1m2 0h1m1 0h1m1 0h3m1 0h1m2 0h1m1 0h1m3 0h6m1 0h3m3 0h1m1 0h1m2 0h3m1 0h1m1 0h1m2 0h2m2 0h3m1 0h1m2 0h1M4 82.5h4m2 0h1m1 0h1m1 0h1m1 0h1m12 0h1m1 0h1m2 0h1m1 0h3m1 0h1m3 0h2m1 0h2m1 0h3m2 0h1m1 0h1m3 0h4m2 0h1m1 0h1m1 0h2m7 0h1m2 0h1m2 0h1m1 0h2m1 0h4M6 83.5h1m1 0h1m6 0h1m2 0h2m2 0h1m4 0h1m3 0h5m1 0h7m2 0h2m2 0h2m2 0h1m3 0h1m5 0h1m2 0h1m2 0h1m1 0h2m1 0h1m1 0h2m2 0h2m3 0h1m1 0h1m1 0h2m1 0h2M4 84.5h1m2 0h2m1 0h2m1 0h4m5 0h1m1 0h1m1 0h1m1 0h1m2 0h2m1 0h1m2 0h2m1 0h2m1 0h2m2 0h1m1 0h2m1 0h1m3 0h1m1 0h1m2 0h3m1 0h1m2 0h2m3 0h1m5 0h2m5 0h3m3 0h1m1 0h3M4 85.5h1m2 0h1m1 0h1m1 0h6m3 0h2m2 0h4m3 0h1m4 0h1m2 0h5m2 0h2m2 0h2m1 0h3m2 0h3m1 0h1m1 0h1m1 0h3m1 0h1m1 0h3m2 0h1m1 0h1m1 0h1m1 0h4m2 0h3m3 0h2M8 86.5h1m1 0h1m1 0h1m3 0h2m1 0h2m3 0h1m1 0h1m3 0h1m1 0h1m4 0h2m1 0h1m2 0h3m2 0h2m1 0h3m1 0h2m1 0h2m1 0h1m3 0h2m2 0h4m1 0h1m4 0h2m2 0h1m2 0h1m1 0h1m5 0h1M4 87.5h2m1 0h3m1 0h1m1 0h2m6 0h2m4 0h4m2 0h1m3 0h2m2 0h2m2 0h2m1 0h3m3 0h1m4 0h2m1 0h8m2 0h1m2 0h1m1 0h2m2 0h1m2 0h2m2 0h3m2 0h2m1 0h1M5 88.5h2m3 0h2m1 0h2m2 0h1m3 0h1m1 0h1m1 0h1m1 0h15m1 0h2m1 0h2m3 0h3m1 0h1m2 0h7m1 0h3m3 0h2m3 0h1m4 0h2m3 0h9M12 89.5h1m4 0h2m2 0h2m1 0h1m3 0h1m1 0h3m3 0h1m2 0h1m2 0h1m3 0h4m1 0h3m1 0h1m4 0h1m3 0h1m2 0h2m4 0h2m2 0h2m2 0h1m3 0h1m2 0h1m3 0h2m1 0h2M4 90.5h7m4 0h1m1 0h1m4 0h1m3 0h1m2 0h1m1 0h2m1 0h1m1 0h2m2 0h1m3 0h2m4 0h1m1 0h1m3 0h1m1 0h3m1 0h1m1 0h1m1 0h1m1 0h1m1 0h3m1 0h1m4 0h1m2 0h2m4 0h1m1 0h1m1 0h3M4 91.5h1m5 0h1m1 0h1m1 0h3m2 0h1m1 0h1m2 0h2m1 0h2m1 0h3m3 0h1m1 0h6m3 0h3m1 0h5m1 0h1m1 0h2m3 0h8m3 0h2m1 0h5m1 0h5m3 0h2m1 0h1M4 92.5h1m1 0h3m1 0h1m1 0h1m2 0h1m1 0h4m2 0h1m2 0h2m1 0h8m1 0h1m1 0h1m4 0h2m2 0h1m2 0h1m2 0h1m2 0h1m1 0h5m14 0h1m3 0h1m4 0h7M4 93.5h1m1 0h3m1 0h1m1 0h2m1 0h1m1 0h1m1 0h1m1 0h6m1 0h1m3 0h1m1 0h3m3 0h4m5 0h1m1 0h2m4 0h1m5 0h1m1 0h1m1 0h4m1 0h2m2 0h1m1 0h5m2 0h1m2 0h2m1 0h4M4 94.5h1m1 0h3m1 0h1m1 0h1m1 0h1m1 0h2m2 0h3m1 0h1m1 0h1m1 0h2m5 0h3m1 0h1m1 0h1m2 0h3m3 0h1m1 0h2m3 0h2m2 0h1m1 0h2m7 0h3m1 0h2m4 0h2m3 0h1m2 0h2m1 0h2M4 95.5h1m5 0h1m2 0h1m1 0h1m1 0h2m1 0h1m1 0h6m2 0h1m1 0h1m1 0h2m4 0h1m1 0h1m2 0h1m2 0h2m1 0h1m1 0h1m3 0h1m2 0h2m1 0h1m2 0h6m1 0h3m2 0h2m1 0h2m3 0h1m1 0h3m1 0h1m1 0h1M4 96.5h7m1 0h1m1 0h1m2 0h4m3 0h1m1 0h1m2 0h1m1 0h1m2 0h2m7 0h1m3 0h1m4 0h11m2 0h4m3 0h2m3 0h1m1 0h1m3 0h3m1 0h1m3 0h3m1 0h1"/></g><text x="830.0000" y="1160.0000" font-family="monospace" font-size="18.0000" fill="#0f172a">scan to verify offline</text></svg>