<svg xmlns="http://www.w3.org/2000/svg" width="900" height="520" viewBox="0 0 900 520"><rect width="900" height="520" fill="#ffffff" /><text x="60" y="50" font-family="monospace" font-size="24">Before: full artifact QR</text><text x="500" y="50" font-family="monospace" font-size="24">After: Tier-1 envelope QR</text><g transform="translate(60,80)"><path fill="#ffffff" d="M0 0h129v129H0z"/><path stroke="#111111" d="M4 4.5h7m3 0h2m1 0h1m1 0h4m1 0h1m3 0h1m3 0h1m2 0h4m2 0h3m1 0h1m3 0h2m1 0h1m1 0h2m2 0h1m1 0h1m1 0h3m1 0h1m3 0h1m1 0h1m3 0h2m3 0h2m1 0h1m1 0h1m1 0h1m3 0h1m1 0h1m1 0h1m1 0h3m2 0h2m1 0h6m1 0h3m2 0h7M4 5.5h1m5 0h1m3 0h2m1 0h1m6 0h1m1 0h1m2 0h1m2 0h1m1 0h3m1 0h1m2 0h1m2 0h1m1 0h2m4 0h1m3 0h3m3 0h3m4 0h1m1 0h1m1 0h1m2 0h2m2 0h1m1 0h2m1 0h1m1 0h1m2 0h2m3 0h1m1 0h1m1 0h2m2 0h2m2 0h1m3 0h2m1 0h1m1 0h1m1 0h1m5 0h1M4 6.5h1m1 0h3m1 0h1m1 0h9m3 0h4m2 0h1m1 0h8m1 0h1m3 0h1m1 0h2m1 0h1m1 0h4m2 0h1m4 0h1m1 0h2m3 0h2m2 0h1m1 0h1m1 0h2m2 0h1m2 0h5m4 0h1m3 0h5m3 0h1m3 0h4m1 0h2m1 0h1m1 0h3m1 0h1M4 7.5h1m1 0h3m1 0h1m1 0h2m4 0h1m2 0h1m2 0h1m3 0h1m1 0h1m3 0h3m1 0h1m2 0h1m1 0h2m5 0h1m1 0h1m2 0h3m4 0h2m1 0h1m1 0h5m1 0h1m3 0h1m6 0h1m2 0h1m1 0h1m1 0h1m1 0h1m3 0h4m1 0h2m3 0h1m4 0h5m1 0h1m1 0h3m1 0h1M4 8.5h1m1 0h3m1 0h1m1 0h1m2 0h4m1 0h3m1 0h2m1 0h1m1 0h14m1 0h4m3 0h3m1 0h1m2 0h7m1 0h1m1 0h3m1 0h2m1 0h1m1 0h1m4 0h1m1 0h2m2 0h10m3 0h1m1 0h2m1 0h6m3 0h1m2 0h1m1 0h3m1 0h1M4 9.5h1m5 0h1m1 0h3m7 0h2m2 0h2m3 0h2m3 0h5m6 0h1m4 0h2m1 0h2m2 0h2m3 0h1m3 0h1m1 0h1m5 0h2m1 0h5m1 0h1m2 0h1m3 0h4m1 0h1m1 0h3m2 0h2m3 0h1m1 0h1m1 0h3m2 0h1m5 0h1M4 10.5h7m1 0h1m1 0h1m1 0h1m1 0h1m1 0h1m1 0h1m1 0h1m1 0h1m1 0h1m1 0h1m1 0h1m1 0h1m1 0h1m1 0h1m1 0h1m1 0h1m1 0h1m1 0h1m1 0h1m1 0h1m1 0h1m1 0h1m1 0h1m1 0h1m1 0h1m1 0h1m1 0h1m1 0h1m1 0h1m1 0h1m1 0h1m1 0h1m1 0h1m1 0h1m1 0h1m1 0h1m1 0h1m1 0h1m1 0h1m1 0h1m1 0h1m1 0h1m1 0h1m1 0h1m1 0h1m1 0h1m1 0h1m1 0h1m1 0h1m1 0h1m1 0h1m1 0h1m1 0h1m1 0h7M12 11.5h2m1 0h2m1 0h1m2 0h3m3 0h2m2 0h2m3 0h1m1 0h2m1 0h1m4 0h1m2 0h1m2 0h3m2 0h4m3 0h1m1 0h1m3 0h2m1 0h2m2 0h2m2 0h2m3 0h3m3 0h1m1 0h1m1 0h7m2 0h2m1 0h1m1 0h1m1 0h2M4 12.5h1m1 0h5m3 0h3m2 0h2m1 0h2m1 0h1m6 0h5m1 0h1m1 0h4m2 0h2m2 0h1m1 0h1m1 0h1m1 0h1m3 0h6m1 0h2m6 0h2m1 0h1m2 0h1m1 0h1m1 0h1m1 0h7m1 0h1m1 0h1m1 0h2m10 0h4m1 0h1m1 0h5M4 13.5h2m1 0h3m2 0h1m1 0h1m1 0h2m1 0h2m1 0h6m1 0h1m5 0h2m3 0h3m1 0h1m1 0h1m2 0h3m4 0h5m4 0h1m2 0h2m1 0h5m6 0h5m1 0h1m1 0h3m1 0h1m1 0h1m2 0h1m2 0h1m3 0h1m1 0h1m1 0h1m1 0h2m2 0h1m2 0h3m1 0h1M5 14.5h2m3 0h1m2 0h1m3 0h1m1 0h1m3 0h1m1 0h1m1 0h1m1 0h3m3 0h1m1 0h1m3 0h4m2 0h3m2 0h2m2 0h1m1 0h4m2 0h2m2 0h2m2 0h2m2 0h1m3 0h1m4 0h1m2 0h1m5 0h3m2 0h2m3 0h1m4 0h1m1 0h1m1 0h1m1 0h2m1 0h2m2 0h1m1 0h1M4 15.5h1m2 0h1m4 0h3m1 0h2m1 0h3m3 0h1m2 0h2m1 0h5m2 0h1m1 0h3m3 0h4m3 0h1m3 0h2m1 0h1m3 0h4m1 0h3m2 0h1m2 0h2m2 0h2m1 0h3m2 0h2m1 0h3m2 0h2m1 0h4m1 0h3m2 0h3m2 0h1m1 0h5m1 0h2M5 16.5h6m6 0h5m2 0h1m1 0h2m3 0h2m2 0h4m1 0h2m1 0h1m2 0h1m1 0h2m1 0h3m2 0h1m5 0h2m2 0h1m2 0h1m1 0h1m1 0h2m3 0h1m1 0h1m5 0h2m2 0h1m1 0h1m2 0h2m1 0h1m1 0h6m1 0h1m1 0h1m1 0h1m2 0h1m1 0h1m3 0h1m1 0h1m1 0h1M5 17.5h1m2 0h2m1 0h1m1 0h1m5 0h1m2 0h2m2 0h1m1 0h5m1 0h1m1 0h3m1 0h2m1 0h2m1 0h1m2 0h1m3 0h4m1 0h2m1 0h1m2 0h1m2 0h1m3 0h1m3 0h1m4 0h1m1 0h1m1 0h1m3 0h1m2 0h2m1 0h2m1 0h3m1 0h1m1 0h1m1 0h5m2 0h2m3 0h1m2 0h2M6 18.5h1m1 0h1m1 0h1m4 0h3m1 0h1m1 0h2m2 0h2m3 0h2m1 0h2m2 0h1m2 0h1m6 0h1m1 0h1m1 0h4m1 0h1m4 0h2m5 0h1m1 0h1m1 0h1m2 0h4m1 0h1m8 0h1m3 0h5m2 0h3m1 0h2m1 0h1m3 0h1m1 0h1m2 0h1m2 0h1m2 0h3M4 19.5h1m6 0h2m2 0h1m1 0h1m1 0h1m2 0h2m2 0h2m1 0h3m3 0h2m3 0h5m1 0h8m1 0h1m1 0h2m1 0h1m3 0h4m2 0h2m1 0h2m4 0h1m1 0h3m2 0h1m1 0h1m1 0h1m1 0h4m1 0h2m4 0h1m2 0h2m1 0h2m1 0h2m1 0h5m3 0h2M9 20.5h2m1 0h1m1 0h1m1 0h2m1 0h2m9 0h1m1 0h2m1 0h1m1 0h2m2 0h1m3 0h4m1 0h1m2 0h2m3 0h1m2 0h3m4 0h2m1 0h1m4 0h1m1 0h2m1 0h1m1 0h1m3 0h1m1 0h1m2 0h2m2 0h1m2 0h2m1 0h1m5 0h2m1 0h2m1 0h1m3 0h2m1 0h2M4 21.5h1m1 0h1m5 0h3m5 0h1m1 0h3m1 0h5m8 0h1m1 0h1m2 0h2m1 0h1m5 0h1m1 0h2m2 0h1m2 0h1m3 0h1m3 0h2m1 0h1m4 0h3m2 0h2m3 0h1m2 0h2m10 0h1m1 0h1m2 0h3m1 0h3m1 0h1m3 0h3M7 22.5h1m1 0h2m1 0h7m4 0h9m1 0h1m2 0h1m1 0h1m3 0h3m1 0h2m1 0h1m1 0h2m2 0h2m2 0h1m1 0h1m1 0h3m1 0h2m3 0h1m3 0h2m1 0h2m2 0h1m1 0h1m2 0h1m2 0h1m2 0h1m1 0h1m3 0h1m1 0h3m1 0h2m1 0h1m2 0h1m2 0h1m2 0h1m2 0h1m1 0h2M7 23.5h1m1 0h1m2 0h1m1 0h1m1 0h2m3 0h2m1 0h2m1 0h2m1 0h3m1 0h1m1 0h1m1 0h2m4 0h2m3 0h1m3 0h1m1 0h1m1 0h1m2 0h1m2 0h2m1 0h1m2 0h3m1 0h2m2 0h1m4 0h1m1 0h1m1 0h5m2 0h3m2 0h2m3 0h1m2 0h2m2 0h1m2 0h1m1 0h2m3 0h2M6 24.5h3m1 0h3m1 0h1m1 0h1m1 0h1m1 0h1m1 0h4m2 0h1m5 0h3m1 0h2m1 0h5m1 0h1m1 0h2m1 0h5m1 0h2m1 0h9m1 0h3m2 0h1m1 0h3m1 0h1m2 0h1m1 0h2m2 0h1m3 0h1m1 0h1m2 0h2m1 0h1m2 0h1m2 0h1m2 0h3m2 0h2m1 0h3m1 0h1M4 25.5h1m2 0h3m2 0h4m1 0h2m2 0h4m3 0h2m2 0h2m1 0h1m1 0h1m2 0h1m1 0h2m1 0h1m3 0h3m3 0h4m1 0h1m2 0h3m4 0h1m2 0h1m1 0h1m1 0h1m1 0h1m1 0h1m1 0h5m2 0h3m1 0h1m1 0h1m4 0h2m1 0h3m1 0h1m2 0h1m1 0h1m1 0h1m1 0h1m2 0h2m1 0h1M5 26.5h2m3 0h5m3 0h1m2 0h1m1 0h2m1 0h2m4 0h3m3 0h2m2 0h1m1 0h1m1 0h1m1 0h1m1 0h3m3 0h3m2 0h1m5 0h1m2 0h4m2 0h1m1 0h1m1 0h3m4 0h1m1 0h1m1 0h1m3 0h3m1 0h9m3 0h2m1 0h2m5 0h1m2 0h1M4 27.5h1m1 0h1m5 0h4m4 0h2m1 0h2m2 0h4m3 0h1m5 0h1m2 0h1m1 0h2m2 0h2m8 0h3m1 0h2m1 0h1m1 0h3m3 0h1m10 0h2m2 0h3m1 0h2m3 0h1m2 0h1m6 0h3m1 0h2m2 0h2m2 0h2m1 0h2M6 28.5h1m1 0h3m1 0h2m1 0h2m2 0h1m9 0h3m3 0h1m2 0h2m1 0h1m1 0h1m1 0h2m1 0h1m2 0h2m1 0h1m2 0h3m1 0h4m1 0h2m3 0h3m9 0h1m1 0h2m1 0h6m3 0h1m1 0h1m2 0h1m1 0h2m5 0h2m1 0h2m2 0h1m3 0h3M6 29.5h1m2 0h1m1 0h5m2 0h1m2 0h4m2 0h1m1 0h3m1 0h1m1 0h1m3 0h1m3 0h2m3 0h1m1 0h2m6 0h1m1 0h2m1 0h3m1 0h2m2 0h1m2 0h2m1 0h3m3 0h2m3 0h7m2 0h1m3 0h1m1 0h1m2 0h3m6 0h3m1 0h2m1 0h1M5 30.5h1m1 0h1m1 0h2m3 0h3m2 0h1m1 0h2m1 0h1m2 0h2m1 0h4m1 0h2m2 0h1m5 0h1m1 0h2m1 0h3m1 0h3m1 0h1m2 0h3m1 0h3m2 0h1m1 0h1m3 0h5m1 0h1m1 0h1m2 0h3m4 0h1m1 0h2m1 0h2m1 0h1m1 0h3m1 0h2m1 0h2m1 0h1m3 0h1m3 0h2M5 31.5h1m1 0h1m1 0h1m1 0h1m1 0h1m1 0h1m1 0h1m2 0h3m2 0h1m2 0h1m1 0h3m3 0h1m2 0h1m3 0h1m1 0h1m2 0h1m1 0h3m4 0h1m1 0h3m1 0h2m3 0h3m2 0h2m3 0h1m2 0h1m1 0h1m2 0h2m2 0h1m1 0h4m2 0h1m4 0h1m1 0h3m1 0h5m1 0h6m2 0h2M5 32.5h1m1 0h7m2 0h1m3 0h4m1 0h2m5 0h5m2 0h7m3 0h2m1 0h7m1 0h5m1 0h2m3 0h2m1 0h1m3 0h1m1 0h1m1 0h2m3 0h6m3 0h1m3 0h3m3 0h5m3 0h1m1 0h5m1 0h1m1 0h1M4 33.5h5m3 0h1m2 0h2m1 0h3m1 0h2m1 0h6m1 0h1m3 0h1m3 0h1m1 0h3m2 0h2m11 0h1m3 0h1m3 0h3m1 0h1m2 0h1m1 0h1m4 0h1m1 0h2m2 0h1m3 0h1m1 0h4m1 0h1m1 0h1m1 0h1m1 0h2m2 0h2m3 0h3m3 0h1m1 0h1M5 34.5h2m1 0h1m1 0h1m1 0h5m4 0h2m1 0h7m1 0h1m1 0h1m1 0h2m1 0h2m1 0h2m1 0h2m3 0h3m1 0h5m1 0h1m1 0h1m1 0h1m1 0h2m3 0h3m2 0h2m2 0h4m1 0h1m1 0h2m1 0h1m1 0h5m2 0h8m1 0h2m1 0h3m2 0h1m1 0h1m1 0h5M5 35.5h1m2 0h1m3 0h1m1 0h3m1 0h1m1 0h1m3 0h1m2 0h1m1 0h2m1 0h1m3 0h2m1 0h1m1 0h2m3 0h1m3 0h1m2 0h1m6 0h1m3 0h2m1 0h2m1 0h2m1 0h2m1 0h1m2 0h1m3 0h1m2 0h1m1 0h1m3 0h1m1 0h1m2 0h2m1 0h2m7 0h3m1 0h1m2 0h1m3 0h1M5 36.5h1m1 0h7m5 0h1m1 0h2m1 0h1m1 0h2m4 0h6m3 0h1m2 0h2m1 0h1m1 0h2m1 0h1m1 0h1m3 0h10m3 0h3m2 0h4m1 0h1m3 0h2m1 0h6m1 0h2m2 0h2m1 0h2m1 0h2m3 0h2m1 0h8m2 0h1M4 37.5h2m1 0h1m1 0h1m2 0h1m1 0h1m3 0h2m1 0h1m1 0h1m3 0h2m1 0h1m2 0h5m1 0h3m1 0h1m3 0h1m1 0h2m4 0h1m6 0h3m3 0h1m1 0h3m2 0h1m1 0h1m4 0h2m3 0h3m1 0h1m1 0h2m2 0h3m2 0h8m3 0h1m1 0h5m2 0h1m1 0h1M5 38.5h2m3 0h1m1 0h2m1 0h3m1 0h2m2 0h2m1 0h2m2 0h5m1 0h1m1 0h2m1 0h1m1 0h2m3 0h3m1 0h1m1 0h5m1 0h2m2 0h1m1 0h2m1 0h1m1 0h2m3 0h2m2 0h6m1 0h1m1 0h1m1 0h2m1 0h1m1 0h2m1 0h3m1 0h6m1 0h1m1 0h1m3 0h2m1 0h2m3 0h1M4 39.5h1m4 0h1m1 0h1m1 0h1m2 0h1m5 0h2m3 0h1m1 0h2m1 0h4m1 0h1m2 0h1m2 0h2m3 0h1m1 0h3m6 0h3m3 0h1m1 0h2m1 0h1m2 0h3m3 0h1m1 0h2m2 0h1m5 0h1m1 0h3m2 0h4m3 0h1m3 0h1m3 0h1m1 0h1m2 0h1m2 0h1M4 40.5h2m1 0h5m3 0h2m1 0h3m1 0h15m3 0h3m2 0h1m1 0h2m3 0h5m3 0h1m3 0h4m1 0h3m2 0h1m1 0h1m1 0h1m4 0h1m1 0h7m2 0h4m2 0h1m1 0h1m4 0h1m2 0h5m4 0h1m1 0h1m1 0h1M4 41.5h6m1 0h1m3 0h1m2 0h3m1 0h4m5 0h1m1 0h2m2 0h2m1 0h3m1 0h1m2 0h4m2 0h1m4 0h1m1 0h1m1 0h1m2 0h1m1 0h2m1 0h2m1 0h1m7 0h1m2 0h2m1 0h3m5 0h1m7 0h1m5 0h1m4 0h6m1 0h4M4 42.5h1m3 0h1m1 0h1m1 0h1m1 0h1m1 0h1m7 0h3m1 0h1m2 0h2m5 0h1m2 0h1m1 0h2m1 0h5m1 0h1m1 0h2m2 0h2m1 0h2m4 0h1m2 0h1m1 0h2m1 0h3m3 0h4m1 0h3m1 0h3m1 0h4m1 0h4m3 0h3m1 0h3m6 0h1m1 0h1m1 0h2M5 43.5h3m1 0h1m2 0h1m1 0h2m2 0h2m1 0h2m2 0h4m1 0h5m3 0h3m1 0h1m1 0h1m1 0h1m5 0h2m5 0h5m1 0h1m2 0h2m1 0h1m1 0h2m1 0h2m1 0h1m1 0h1m6 0h1m4 0h1m1 0h1m2 0h1m4 0h3m9 0h2m1 0h2m1 0h2M4 44.5h1m1 0h2m2 0h1m4 0h3m3 0h2m1 0h2m1 0h1m4 0h5m1 0h1m2 0h2m3 0h1m1 0h1m2 0h2m1 0h3m1 0h1m2 0h1m2 0h1m1 0h1m3 0h1m4 0h1m2 0h2m1 0h3m1 0h2m2 0h4m1 0h2m1 0h1m2 0h4m1 0h2m1 0h3m1 0h1m2 0h1m4 0h2m1 0h1M4 45.5h2m2 0h1m2 0h3m2 0h2m1 0h1m2 0h4m2 0h3m1 0h1m1 0h1m3 0h3m2 0h1m1 0h1m1 0h2m1 0h1m2 0h3m1 0h1m1 0h1m1 0h2m1 0h1m3 0h4m1 0h2m5 0h1m1 0h1m1 0h2m3 0h3m5 0h2m5 0h1m1 0h2m1 0h1m3 0h1m1 0h6m1 0h3M6 46.5h1m3 0h1m1 0h2m1 0h1m1 0h6m1 0h2m2 0h3m1 0h1m3 0h2m1 0h4m1 0h2m2 0h2m1 0h5m1 0h2m1 0h1m3 0h3m2 0h2m1 0h1m2 0h2m1 0h1m3 0h3m2 0h8m1 0h2m2 0h1m1 0h2m2 0h3m2 0h2m6 0h2m1 0h2M4 47.5h1m1 0h1m4 0h2m1 0h1m1 0h2m1 0h1m3 0h1m1 0h1m1 0h1m1 0h1m1 0h3m1 0h2m1 0h1m1 0h3m1 0h2m3 0h1m1 0h3m2 0h1m2 0h1m5 0h1m5 0h1m1 0h3m3 0h3m1 0h1m1 0h1m2 0h2m1 0h1m1 0h1m4 0h4m3 0h1m7 0h3m2 0h2m3 0h1M8 48.5h1m1 0h2m6 0h4m6 0h1m2 0h1m6 0h2m1 0h2m1 0h6m1 0h5m1 0h1m2 0h1m2 0h2m1 0h1m3 0h2m3 0h4m3 0h7m1 0h3m1 0h1m1 0h3m3 0h1m3 0h1m1 0h3m1 0h1m7 0h2M5 49.5h2m2 0h1m1 0h2m2 0h3m8 0h2m1 0h1m5 0h8m1 0h1m1 0h1m1 0h3m2 0h1m1 0h3m2 0h3m1 0h2m1 0h2m4 0h1m1 0h1m1 0h1m1 0h2m2 0h3m1 0h1m1 0h1m1 0h1m1 0h2m1 0h4m1 0h5m3 0h1m1 0h1m2 0h1m3 0h1m3 0h3M4 50.5h2m1 0h1m2 0h1m1 0h2m1 0h1m3 0h3m1 0h4m2 0h2m7 0h1m1 0h1m2 0h1m3 0h1m1 0h5m1 0h1m1 0h2m7 0h1m3 0h1m1 0h1m2 0h1m5 0h2m1 0h1m1 0h3m1 0h8m1 0h1m3 0h1m1 0h2m1 0h1m2 0h3m2 0h1m2 0h2M4 51.5h2m1 0h2m2 0h2m1 0h2m4 0h2m8 0h2m1 0h1m1 0h1m2 0h3m1 0h1m1 0h5m6 0h1m1 0h1m1 0h3m3 0h1m1 0h1m1 0h1m1 0h1m1 0h2m1 0h1m3 0h2m3 0h1m2 0h2m8 0h1m1 0h1m6 0h1m1 0h1m2 0h5m1 0h1m2 0h4M6 52.5h3m1 0h1m1 0h1m1 0h1m1 0h1m3 0h7m3 0h1m2 0h1m1 0h2m1 0h2m3 0h2m1 0h3m2 0h4m2 0h1m2 0h2m2 0h1m1 0h1m3 0h7m1 0h1m1 0h1m1 0h1m2 0h4m1 0h1m1 0h1m1 0h1m3 0h1m2 0h2m1 0h1m2 0h1m1 0h2m1 0h1m6 0h3M5 53.5h1m5 0h3m5 0h3m1 0h1m2 0h1m1 0h1m9 0h3m1 0h1m4 0h1m7 0h3m3 0h1m2 0h2m2 0h2m1 0h1m1 0h1m2 0h2m1 0h2m2 0h2m1 0h1m1 0h1m2 0h1m7 0h2m6 0h1m3 0h1m1 0h4m1 0h2m1 0h4M5 54.5h7m4 0h3m3 0h3m4 0h1m1 0h2m3 0h2m2 0h3m2 0h1m1 0h1m1 0h1m3 0h2m2 0h3m4 0h1m1 0h1m2 0h4m4 0h1m1 0h1m1 0h2m1 0h2m1 0h1m1 0h6m1 0h1m4 0h2m3 0h1m1 0h1m2 0h3m2 0h1m3 0h1m1 0h1m1 0h1M5 55.5h1m1 0h2m2 0h2m2 0h1m3 0h1m1 0h3m1 0h3m1 0h1m1 0h1m1 0h1m6 0h4m4 0h1m2 0h2m2 0h2m2 0h3m3 0h1m2 0h2m5 0h2m4 0h1m1 0h1m1 0h1m6 0h1m7 0h2m2 0h1m2 0h1m4 0h1m1 0h5m3 0h3M4 56.5h1m1 0h1m1 0h1m1 0h1m1 0h1m4 0h1m5 0h3m2 0h1m1 0h2m1 0h1m1 0h2m1 0h1m1 0h1m6 0h1m2 0h3m1 0h1m5 0h1m1 0h5m6 0h6m3 0h5m2 0h3m1 0h2m1 0h1m1 0h3m1 0h1m1 0h1m2 0h1m1 0h5m3 0h4M5 57.5h1m3 0h1m3 0h2m1 0h2m2 0h5m1 0h2m1 0h3m1 0h2m1 0h1m1 0h2m1 0h3m3 0h1m2 0h1m2 0h4m1 0h4m1 0h2m2 0h1m1 0h2m1 0h1m5 0h6m1 0h1m2 0h1m3 0h1m1 0h1m1 0h1m2 0h3m6 0h1m1 0h2m3 0h4m1 0h5M4 58.5h1m2 0h4m1 0h2m1 0h1m2 0h4m1 0h4m1 0h2m3 0h2m1 0h1m1 0h1m1 0h1m2 0h1m1 0h3m1 0h1m1 0h1m2 0h2m1 0h2m1 0h1m4 0h1m1 0h1m1 0h4m9 0h2m1 0h3m1 0h3m1 0h2m1 0h2m1 0h1m1 0h1m3 0h4m2 0h3m3 0h1m1 0h2m3 0h1M4 59.5h1m1 0h4m1 0h2m2 0h3m5 0h1m2 0h2m1 0h1m1 0h1m5 0h1m1 0h4m3 0h2m2 0h4m1 0h1m3 0h1m1 0h1m5 0h1m8 0h1m2 0h1m1 0h1m1 0h1m4 0h2m1 0h2m2 0h1m4 0h2m9 0h1m2 0h2m1 0h2m4 0h2M6 60.5h1m1 0h5m2 0h3m2 0h1m4 0h2m1 0h2m2 0h5m1 0h2m3 0h2m4 0h1m7 0h2m1 0h7m3 0h1m3 0h1m2 0h1m6 0h1m1 0h1m1 0h5m1 0h3m1 0h1m4 0h1m1 0h2m1 0h1m1 0h1m2 0h2m1 0h5m2 0h1M4 61.5h1m3 0h1m3 0h2m2 0h2m1 0h5m1 0h1m1 0h1m1 0h1m1 0h2m3 0h1m1 0h1m1 0h1m2 0h2m1 0h1m1 0h2m2 0h1m1 0h1m1 0h3m1 0h1m3 0h1m1 0h4m1 0h1m4 0h2m2 0h1m1 0h1m1 0h1m3 0h1m3 0h2m3 0h1m2 0h1m1 0h1m1 0h1m4 0h2m2 0h4m3 0h5M4 62.5h1m2 0h2m1 0h1m1 0h3m1 0h2m1 0h2m2 0h5m3 0h2m1 0h1m1 0h3m2 0h1m1 0h5m1 0h2m2 0h1m3 0h2m1 0h1m1 0h1m1 0h1m1 0h1m2 0h3m2 0h2m1 0h1m1 0h1m2 0h1m1 0h1m1 0h3m1 0h1m1 0h1m1 0h2m2 0h2m6 0h1m1 0h1m3 0h2m1 0h2m1 0h1m1 0h2m1 0h1M4 63.5h1m1 0h3m3 0h2m1 0h1m1 0h1m2 0h2m1 0h2m5 0h1m1 0h1m3 0h1m1 0h2m2 0h1m2 0h1m1 0h1m1 0h1m1 0h2m1 0h1m1 0h1m2 0h2m3 0h1m2 0h1m8 0h1m1 0h4m1 0h1m4 0h1m3 0h2m6 0h4m1 0h1m1 0h1m1 0h1m3 0h2m1 0h1m3 0h3m1 0h1M5 64.5h1m1 0h7m1 0h4m1 0h1m2 0h1m2 0h2m1 0h1m1 0h6m1 0h1m2 0h1m2 0h2m4 0h1m1 0h1m2 0h1m1 0h2m1 0h7m3 0h2m3 0h1m3 0h1m1 0h1m1 0h1m2 0h9m2 0h2m7 0h1m1 0h1m1 0h1m1 0h1m1 0h1m1 0h5m2 0h1M4 65.5h2m2 0h2m6 0h3m4 0h1m2 0h7m3 0h1m1 0h3m4 0h1m3 0h5m1 0h4m1 0h1m1 0h4m2 0h1m3 0h2m2 0h3m1 0h2m3 0h1m1 0h2m1 0h1m4 0h3m2 0h2m2 0h1m2 0h1m10 0h1m1 0h3m1 0h1M4 66.5h1m1 0h1m1 0h1m1 0h1m1 0h3m4 0h1m2 0h7m1 0h5m1 0h2m2 0h5m2 0h3m1 0h1m5 0h3m5 0h1m1 0h1m1 0h3m1 0h1m1 0h1m5 0h4m1 0h1m3 0h1m3 0h2m2 0h1m2 0h1m3 0h4m2 0h1m1 0h1m2 0h1m1 0h1m4 0h1M4 67.5h2m2 0h2m1 0h2m1 0h1m3 0h1m9 0h1m1 0h2m5 0h1m1 0h1m1 0h6m1 0h1m2 0h4m1 0h2m1 0h3m2 0h1m2 0h1m3 0h1m1 0h7m1 0h1m6 0h2m3 0h1m1 0h1m1 0h1m1 0h7m6 0h1m1 0h2m3 0h1m3 0h2M4 68.5h2m2 0h1m1 0h2m1 0h2m1 0h2m1 0h1m1 0h1m1 0h1m1 0h1m1 0h1m1 0h2m1 0h2m2 0h3m2 0h3m5 0h1m1 0h3m1 0h1m2 0h1m2 0h1m1 0h1m1 0h2m1 0h1m1 0h2m1 0h2m4 0h1m1 0h2m2 0h2m2 0h1m1 0h2m1 0h2m1 0h4m1 0h2m4 0h3m2 0h1m2 0h1m1 0h1m1 0h2m1 0h1M4 69.5h6m3 0h3m1 0h1m1 0h1m1 0h1m1 0h3m2 0h1m1 0h2m3 0h1m2 0h1m3 0h3m3 0h2m2 0h1m1 0h3m1 0h1m1 0h1m1 0h1m1 0h1m2 0h2m3 0h2m2 0h3m1 0h1m3 0h1m1 0h3m1 0h1m2 0h1m1 0h4m2 0h1m1 0h2m1 0h1m5 0h4m1 0h1m5 0h2M5 70.5h1m2 0h5m2 0h1m2 0h1m1 0h1m1 0h1m3 0h4m1 0h1m1 0h4m1 0h2m2 0h2m2 0h1m2 0h1m5 0h1m2 0h1m2 0h1m2 0h4m1 0h3m1 0h2m5 0h1m1 0h3m1 0h3m1 0h6m2 0h2m5 0h2m1 0h1m4 0h1m2 0h1m1 0h1m1 0h1m1 0h1M4 71.5h2m1 0h1m1 0h1m1 0h1m1 0h4m1 0h1m1 0h2m2 0h2m4 0h2m1 0h2m1 0h6m6 0h1m2 0h2m1 0h2m5 0h4m2 0h1m3 0h2m2 0h4m2 0h1m5 0h2m2 0h1m4 0h1m3 0h5m2 0h1m3 0h2m1 0h2m2 0h1m3 0h1m1 0h1M4 72.5h2m1 0h1m2 0h3m1 0h1m5 0h1m1 0h1m1 0h3m1 0h2m1 0h1m1 0h1m1 0h7m1 0h1m1 0h1m3 0h2m1 0h2m5 0h3m1 0h5m1 0h2m3 0h1m5 0h2m2 0h1m1 0h1m3 0h5m4 0h2m1 0h1m4 0h1m1 0h3m1 0h1m1 0h1m1 0h3M5 73.5h1m1 0h3m1 0h1m3 0h2m1 0h8m3 0h2m3 0h1m3 0h1m1 0h1m2 0h1m3 0h2m3 0h1m2 0h2m1 0h5m1 0h1m2 0h1m2 0h4m2 0h1m1 0h2m3 0h1m1 0h3m1 0h1m5 0h2m1 0h1m1 0h2m2 0h1m1 0h1m2 0h1m2 0h1m2 0h1m1 0h2m2 0h2m1 0h1M4 74.5h1m1 0h1m3 0h1m3 0h3m3 0h2m2 0h1m4 0h1m1 0h1m1 0h2m1 0h1m1 0h4m5 0h2m4 0h1m1 0h1m1 0h1m3 0h1m2 0h1m3 0h4m3 0h1m1 0h1m3 0h4m3 0h5m1 0h1m3 0h2m1 0h1m6 0h1m4 0h1m6 0h1M9 75.5h1m1 0h1m2 0h3m1 0h4m3 0h1m2 0h5m1 0h1m2 0h10m3 0h3m1 0h1m1 0h5m2 0h1m7 0h1m1 0h1m2 0h7m2 0h1m1 0h1m2 0h2m1 0h1m2 0h1m3 0h1m1 0h6m1 0h1m1 0h4m1 0h1m1 0h2m3 0h2M4 76.5h1m1 0h2m2 0h1m1 0h4m3 0h1m2 0h1m1 0h3m1 0h4m2 0h2m3 0h2m1 0h1m1 0h2m2 0h1m1 0h1m1 0h1m2 0h1m7 0h3m1 0h3m2 0h1m1 0h7m3 0h1m1 0h1m1 0h1m1 0h1m3 0h1m1 0h1m1 0h1m5 0h1m3 0h1m1 0h1m3 0h2m4 0h1M4 77.5h2m1 0h1m3 0h1m5 0h2m3 0h1m1 0h1m3 0h1m2 0h3m2 0h2m3 0h2m2 0h5m2 0h1m1 0h7m1 0h3m1 0h2m1 0h1m1 0h2m2 0h3m2 0h2m1 0h1m11 0h3m1 0h2m1 0h3m1 0h2m3 0h2m2 0h5m2 0h1m1 0h1M6 78.5h1m2 0h2m1 0h1m5 0h1m1 0h3m1 0h3m2 0h1m1 0h1m2 0h3m1 0h3m1 0h1m2 0h1m1 0h1m5 0h1m3 0h2m2 0h1m6 0h3m3 0h2m1 0h1m3 0h1m3 0h1m1 0h4m2 0h2m4 0h1m1 0h1m1 0h1m1 0h1m3 0h1m1 0h1m1 0h1m1 0h1m3 0h4M4 79.5h1m3 0h2m1 0h2m1 0h1m2 0h1m1 0h1m1 0h1m1 0h2m1 0h2m2 0h2m3 0h1m2 0h1m2 0h3m2 0h1m2 0h6m2 0h3m1 0h1m1 0h1m1 0h2m2 0h1m1 0h1m3 0h8m1 0h2m1 0h2m8 0h1m1 0h2m1 0h1m2 0h2m1 0h2m2 0h1m1 0h1m1 0h3m2 0h1m1 0h2M5 80.5h3m1 0h3m3 0h2m1 0h1m2 0h3m1 0h1m2 0h5m1 0h1m1 0h1m2 0h2m2 0h1m1 0h1m1 0h1m1 0h1m1 0h1m3 0h1m1 0h1m2 0h1m3 0h1m1 0h1m2 0h3m2 0h3m3 0h2m5 0h6m1 0h1m2 0h5m7 0h1m1 0h3m3 0h1M8 81.5h2m4 0h2m2 0h3m1 0h5m3 0h2m2 0h3m2 0h2m1 0h3m1 0h1m1 0h1m1 0h1m1 0h11m2 0h1m4 0h1m1 0h1m2 0h3m1 0h4m1 0h4m1 0h1m5 0h3m1 0h1m3 0h3m2 0h2m2 0h2m1 0h5m1 0h1M4 82.5h1m1 0h1m1 0h3m7 0h1m4 0h1m2 0h1m2 0h2m10 0h1m3 0h4m1 0h2m9 0h1m1 0h2m3 0h1m1 0h1m2 0h1m3 0h1m5 0h1m1 0h1m2 0h4m1 0h3m1 0h2m4 0h1m1 0h1m3 0h1m1 0h1m1 0h1m1 0h1m3 0h6M7 83.5h3m3 0h1m2 0h3m1 0h2m3 0h1m2 0h1m1 0h2m4 0h2m2 0h2m1 0h1m3 0h1m3 0h4m2 0h7m1 0h3m3 0h2m2 0h2m1 0h1m1 0h1m1 0h3m1 0h1m1 0h1m2 0h2m4 0h1m1 0h8m3 0h3m1 0h1m1 0h1m2 0h1m3 0h1M4 84.5h2m1 0h1m2 0h1m1 0h6m5 0h1m6 0h1m3 0h1m1 0h2m5 0h1m2 0h1m2 0h1m1 0h2m4 0h1m1 0h1m3 0h3m1 0h1m1 0h2m2 0h2m1 0h2m1 0h1m1 0h3m3 0h2m2 0h2m1 0h1m1 0h4m5 0h1m5 0h2m2 0h1m1 0h7M6 85.5h1m1 0h1m5 0h2m2 0h1m6 0h4m1 0h3m1 0h1m1 0h4m3 0h1m2 0h1m1 0h1m1 0h1m1 0h5m1 0h1m3 0h1m6 0h5m1 0h3m1 0h2m1 0h3m2 0h1m1 0h1m3 0h1m2 0h1m1 0h2m3 0h2m2 0h3m3 0h1m1 0h1m1 0h2m3 0h1M4 86.5h1m1 0h1m1 0h1m1 0h1m2 0h1m2 0h2m4 0h2m1 0h2m1 0h3m1 0h1m1 0h1m1 0h2m1 0h3m2 0h1m4 0h1m3 0h1m3 0h2m5 0h1m3 0h1m1 0h2m1 0h2m2 0h1m2 0h1m1 0h2m1 0h1m2 0h1m1 0h1m1 0h4m2 0h1m2 0h1m2 0h1m1 0h1m4 0h1m1 0h1m2 0h2m2 0h2m1 0h2M7 87.5h1m1 0h1m2 0h1m5 0h1m1 0h1m2 0h1m2 0h2m5 0h3m1 0h3m1 0h2m2 0h2m1 0h1m1 0h1m1 0h3m1 0h3m2 0h1m3 0h2m2 0h2m4 0h5m2 0h3m1 0h1m1 0h2m5 0h2m2 0h2m1 0h2m2 0h1m2 0h2m1 0h1m1 0h4m5 0h1M4 88.5h1m3 0h8m5 0h1m2 0h3m3 0h7m8 0h1m3 0h1m4 0h1m2 0h9m8 0h2m1 0h1m1 0h3m1 0h2m2 0h6m4 0h2m1 0h2m3 0h1m1 0h1m6 0h7m1 0h3M4 89.5h2m1 0h2m3 0h2m1 0h1m3 0h4m2 0h1m2 0h1m2 0h2m3 0h1m2 0h1m3 0h6m3 0h1m2 0h3m2 0h1m3 0h1m1 0h1m1 0h1m1 0h4m1 0h2m2 0h1m3 0h1m2 0h1m1 0h1m3 0h5m5 0h2m4 0h1m1 0h3m2 0h2m3 0h1m2 0h1M4 90.5h3m1 0h1m1 0h1m1 0h1m3 0h1m1 0h3m3 0h1m2 0h6m1 0h1m1 0h1m2 0h1m4 0h3m2 0h3m1 0h1m1 0h3m1 0h2m1 0h1m1 0h1m2 0h2m3 0h2m1 0h1m3 0h5m1 0h1m2 0h1m1 0h1m1 0h1m4 0h1m3 0h1m2 0h1m2 0h1m1 0h1m1 0h1m4 0h1m1 0h1m1 0h1m3 0h1M5 91.5h1m1 0h2m3 0h2m8 0h2m2 0h1m4 0h2m3 0h4m1 0h2m2 0h1m4 0h1m1 0h1m1 0h1m2 0h2m1 0h1m3 0h3m3 0h2m4 0h1m1 0h1m2 0h2m3 0h3m3 0h4m1 0h1m1 0h2m1 0h1m3 0h1m1 0h1m1 0h1m1 0h1m1 0h3m3 0h2m1 0h1M5 92.5h1m1 0h9m1 0h4m3 0h1m5 0h10m8 0h1m1 0h2m3 0h1m1 0h1m1 0h8m4 0h1m2 0h4m1 0h2m6 0h6m4 0h3m3 0h1m6 0h1m1 0h9m1 0h1m1 0h1M6 93.5h3m2 0h2m1 0h2m6 0h2m1 0h4m1 0h4m1 0h2m2 0h1m2 0h2m2 0h1m1 0h1m1 0h4m3 0h3m3 0h4m2 0h1m1 0h2m2 0h4m3 0h4m3 0h1m1 0h8m1 0h3m3 0h3m1 0h3m3 0h2m3 0h1M4 94.5h1m1 0h2m2 0h2m3 0h1m3 0h2m1 0h1m2 0h1m1 0h7m1 0h3m2 0h1m1 0h3m2 0h3m5 0h2m4 0h5m2 0h1m2 0h1m2 0h2m1 0h1m2 0h4m4 0h1m4 0h2m4 0h1m1 0h1m2 0h3m7 0h1m2 0h3m2 0h3M6 95.5h1m5 0h2m1 0h1m1 0h1m1 0h3m2 0h1m1 0h1m1 0h1m1 0h1m2 0h2m1 0h4m1 0h3m1 0h1m1 0h2m1 0h1m1 0h4m1 0h5m1 0h2m1 0h2m1 0h2m1 0h1m3 0h1m1 0h2m2 0h1m2 0h4m1 0h1m3 0h1m5 0h1m1 0h2m1 0h2m3 0h4m1 0h2m3 0h1m2 0h1M5 96.5h2m2 0h6m2 0h1m1 0h2m2 0h1m1 0h3m1 0h2m3 0h4m8 0h1m1 0h1m1 0h2m2 0h4m2 0h4m5 0h1m3 0h1m1 0h3m1 0h3m1 0h1m1 0h1m1 0h1m3 0h3m2 0h2m2 0h1m1 0h1m2 0h1m5 0h9m2 0h1m1 0h1M6 97.5h1m2 0h1m1 0h7m1 0h2m1 0h3m1 0h4m6 0h1m2 0h4m1 0h2m6 0h1m1 0h1m2 0h4m2 0h5m1 0h2m1 0h1m2 0h3m4 0h1m1 0h3m1 0h1m1 0h1m1 0h1m3 0h1m4 0h1m5 0h3m1 0h2m3 0h1m2 0h1m2 0h1M7 98.5h1m1 0h2m2 0h1m1 0h3m1 0h8m3 0h3m2 0h1m1 0h4m1 0h2m2 0h3m3 0h1m3 0h3m1 0h4m3 0h2m2 0h1m4 0h1m3 0h4m1 0h1m1 0h2m6 0h1m1 0h1m1 0h3m2 0h4m1 0h1m4 0h1m1 0h1m1 0h2m2 0h3M6 99.5h2m1 0h1m2 0h2m1 0h2m3 0h7m1 0h3m2 0h2m2 0h1m2 0h4m1 0h2m1 0h1m5 0h2m2 0h3m1 0h1m1 0h3m2 0h6m3 0h2m2 0h3m1 0h1m1 0h3m1 0h1m1 0h2m2 0h2m2 0h2m2 0h2m1 0h5m1 0h3m1 0h2m2 0h2M4 100.5h4m2 0h1m1 0h1m2 0h2m4 0h5m2 0h4m1 0h1m2 0h1m1 0h6m2 0h2m3 0h3m3 0h1m2 0h1m1 0h1m5 0h1m1 0h4m1 0h2m10 0h1m1 0h1m1 0h1m1 0h1m2 0h2m2 0h1m2 0h2m2 0h1m3 0h4m3 0h1m2 0h2m1 0h1M5 101.5h2m1 0h2m1 0h3m2 0h2m2 0h2m1 0h3m2 0h2m1 0h2m3 0h3m1 0h1m2 0h1m1 0h1m3 0h1m2 0h1m2 0h1m1 0h4m2 0h2m1 0h1m1 0h1m1 0h2m3 0h1m2 0h1m3 0h3m5 0h1m1 0h7m6 0h4m3 0h2m1 0h1m1 0h1m1 0h1m1 0h1M4 102.5h1m1 0h1m3 0h3m2 0h2m2 0h1m1 0h1m1 0h2m2 0h2m2 0h1m1 0h1m2 0h1m3 0h2m2 0h1m1 0h1m5 0h2m4 0h2m2 0h2m3 0h4m2 0h1m2 0h2m1 0h3m1 0h1m1 0h1m1 0h1m3 0h1m1 0h3m1 0h1m2 0h2m1 0h4m2 0h1m3 0h1m4 0h2m1 0h4M5 103.5h1m1 0h1m1 0h1m1 0h2m3 0h1m9 0h2m4 0h2m1 0h1m3 0h2m1 0h2m1 0h1m1 0h1m2 0h3m1 0h1m2 0h5m1 0h1m1 0h3m1 0h3m2 0h1m1 0h1m1 0h1m2 0h2m1 0h1m1 0h1m2 0h6m1 0h1m1 0h1m3 0h1m2 0h2m1 0h1m1 0h4m1 0h1m1 0h1m1 0h3m2 0h1M4 104.5h1m3 0h1m1 0h1m3 0h1m1 0h2m1 0h1m2 0h3m7 0h2m1 0h2m1 0h4m1 0h3m4 0h3m1 0h3m3 0h3m2 0h1m1 0h1m1 0h1m1 0h1m3 0h2m1 0h2m5 0h1m1 0h1m12 0h2m1 0h3m1 0h1m1 0h1m1 0h7m1 0h1m2 0h3M5 105.5h1m1 0h1m3 0h2m2 0h1m1 0h2m1 0h1m3 0h1m2 0h2m2 0h1m1 0h1m1 0h1m1 0h1m3 0h2m2 0h2m1 0h1m1 0h2m4 0h4m4 0h1m5 0h1m1 0h1m1 0h2m5 0h1m2 0h3m1 0h1m1 0h3m1 0h1m1 0h3m2 0h1m1 0h1m1 0h1m2 0h1m1 0h4m1 0h1m2 0h1M4 106.5h2m1 0h1m1 0h3m1 0h1m2 0h7m2 0h1m4 0h2m1 0h1m2 0h5m2 0h6m2 0h3m1 0h2m1 0h1m1 0h3m2 0h1m2 0h1m3 0h2m2 0h1m2 0h3m1 0h1m1 0h1m1 0h1m1 0h1m3 0h5m1 0h2m3 0h3m4 0h1m1 0h1m2 0h1m1 0h7M5 107.5h2m1 0h1m6 0h1m1 0h5m1 0h2m2 0h1m1 0h1m1 0h4m1 0h1m1 0h1m6 0h1m2 0h2m1 0h3m3 0h3m2 0h3m1 0h2m1 0h3m2 0h1m2 0h2m2 0h7m2 0h1m1 0h3m3 0h1m2 0h3m1 0h2m2 0h4m2 0h1m4 0h2m2 0h1M5 108.5h1m1 0h1m2 0h1m2 0h1m2 0h1m5 0h1m1 0h1m1 0h2m1 0h1m3 0h2m2 0h2m1 0h4m4 0h1m2 0h6m4 0h2m4 0h1m1 0h1m2 0h1m3 0h3m1 0h1m4 0h1m1 0h1m1 0h3m1 0h1m2 0h2m2 0h4m1 0h1m1 0h1m3 0h3m4 0h1m3 0h1M6 109.5h1m2 0h1m2 0h1m2 0h3m1 0h2m1 0h1m1 0h1m1 0h1m1 0h2m1 0h1m3 0h2m1 0h3m1 0h1m1 0h6m1 0h1m3 0h1m2 0h2m1 0h1m2 0h1m2 0h1m2 0h2m1 0h2m3 0h2m1 0h5m5 0h2m1 0h1m2 0h2m8 0h2m4 0h3m4 0h1M7 110.5h4m1 0h1m3 0h3m3 0h2m3 0h1m1 0h2m1 0h1m1 0h1m2 0h2m1 0h2m3 0h8m1 0h1m1 0h1m3 0h3m2 0h1m2 0h3m1 0h1m3 0h1m3 0h1m7 0h2m3 0h1m2 0h2m1 0h2m2 0h5m1 0h1m3 0h2m1 0h3m1 0h1m2 0h2M6 111.5h1m5 0h2m2 0h1m1 0h1m2 0h1m1 0h1m1 0h4m2 0h1m3 0h3m5 0h1m3 0h3m2 0h2m1 0h1m1 0h4m1 0h1m1 0h1m1 0h2m1 0h3m1 0h2m1 0h1m2 0h1m1 0h2m1 0h4m1 0h3m1 0h2m3 0h3m4 0h2m2 0h5m1 0h3m1 0h3m2 0h1M4 112.5h1m5 0h1m2 0h1m2 0h1m2 0h2m4 0h1m3 0h2m1 0h1m2 0h4m1 0h2m1 0h5m1 0h3m2 0h3m3 0h1m7 0h1m2 0h1m1 0h1m1 0h1m2 0h1m1 0h1m4 0h1m1 0h2m2 0h1m4 0h1m2 0h2m1 0h2m3 0h1m3 0h1m1 0h2m1 0h1m1 0h1m2 0h4M4 113.5h1m2 0h1m1 0h1m1 0h1m1 0h1m4 0h1m1 0h1m1 0h1m1 0h3m3 0h1m1 0h1m5 0h2m1 0h1m1 0h1m2 0h2m2 0h1m2 0h1m3 0h2m4 0h5m1 0h2m1 0h1m9 0h3m3 0h2m4 0h1m1 0h2m3 0h4m1 0h3m2 0h2m1 0h3m2 0h1m1 0h1M4 114.5h2m1 0h1m1 0h6m5 0h2m2 0h1m1 0h2m5 0h1m2 0h2m2 0h1m3 0h2m6 0h2m2 0h2m1 0h1m3 0h3m2 0h1m1 0h3m3 0h5m2 0h1m1 0h1m2 0h1m3 0h5m2 0h2m2 0h2m2 0h1m1 0h1m2 0h3m3 0h1m2 0h2m1 0h1M4 115.5h1m1 0h4m1 0h1m4 0h2m5 0h4m2 0h2m4 0h2m1 0h3m3 0h1m1 0h1m1 0h2m1 0h3m1 0h1m2 0h5m3 0h2m2 0h2m2 0h4m1 0h1m2 0h1m3 0h2m2 0h1m1 0h3m2 0h2m1 0h1m2 0h1m1 0h2m3 0h3m2 0h1m1 0h1m1 0h3m2 0h1M5 116.5h3m2 0h3m1 0h1m5 0h1m3 0h1m2 0h3m2 0h5m1 0h2m4 0h2m1 0h2m2 0h6m1 0h1m1 0h7m1 0h1m3 0h2m1 0h4m1 0h1m1 0h1m1 0h1m2 0h7m1 0h1m1 0h4m1 0h1m2 0h2m2 0h1m2 0h1m1 0h7m1 0h2M12 117.5h5m1 0h1m2 0h2m2 0h1m1 0h2m3 0h1m3 0h3m6 0h1m1 0h1m1 0h2m2 0h1m1 0h1m1 0h4m3 0h1m4 0h2m3 0h1m3 0h3m3 0h1m3 0h1m3 0h3m4 0h1m2 0h1m4 0h2m1 0h2m1 0h1m1 0h2m3 0h2M4 118.5h7m5 0h1m3 0h6m1 0h1m1 0h2m1 0h1m1 0h1m1 0h1m3 0h2m2 0h2m1 0h4m1 0h1m1 0h1m1 0h1m1 0h1m1 0h1m1 0h1m1 0h2m3 0h5m2 0h1m2 0h2m1 0h1m2 0h1m2 0h1m1 0h1m1 0h2m1 0h3m1 0h2m3 0h1m1 0h1m2 0h1m1 0h2m2 0h2m1 0h1m1 0h1m2 0h2M4 119.5h1m5 0h1m1 0h2m1 0h4m9 0h3m1 0h1m3 0h1m2 0h2m4 0h1m1 0h1m1 0h1m1 0h3m3 0h1m1 0h2m3 0h3m3 0h1m3 0h1m2 0h1m3 0h1m1 0h1m2 0h3m3 0h3m3 0h2m1 0h1m3 0h1m1 0h2m1 0h1m2 0h1m2 0h1m3 0h2m1 0h2M4 120.5h1m1 0h3m1 0h1m1 0h3m1 0h1m10 0h2m3 0h5m1 0h2m1 0h1m1 0h2m3 0h3m1 0h1m1 0h1m3 0h1m1 0h5m10 0h2m1 0h1m1 0h3m2 0h1m2 0h5m4 0h1m1 0h1m1 0h5m3 0h1m1 0h4m1 0h5m1 0h3M4 121.5h1m1 0h3m1 0h1m1 0h8m3 0h5m1 0h5m4 0h1m1 0h9m1 0h2m1 0h2m1 0h2m2 0h2m1 0h1m1 0h2m1 0h1m1 0h2m3 0h1m4 0h2m1 0h3m2 0h3m2 0h2m1 0h3m4 0h1m1 0h1m1 0h4m5 0h1m1 0h1m1 0h2m2 0h1M4 122.5h1m1 0h3m1 0h1m1 0h3m4 0h4m1 0h2m3 0h1m5 0h1m1 0h3m6 0h2m3 0h2m3 0h4m2 0h3m1 0h2m1 0h4m3 0h2m2 0h1m1 0h3m2 0h1m1 0h2m5 0h1m2 0h2m1 0h8m1 0h4m2 0h1m1 0h1m1 0h2m1 0h1M4 123.5h1m5 0h1m2 0h2m2 0h2m1 0h1m2 0h1m2 0h2m2 0h2m1 0h3m1 0h1m3 0h1m1 0h1m7 0h2m2 0h1m3 0h1m3 0h1m6 0h2m5 0h3m1 0h1m4 0h1m1 0h2m2 0h4m1 0h3m7 0h1m1 0h2m2 0h1m3 0h4m3 0h1M4 124.5h7m1 0h1m2 0h1m3 0h2m1 0h2m1 0h1m1 0h2m4 0h1m1 0h1m2 0h2m1 0h1m3 0h3m3 0h2m1 0h6m1 0h2m1 0h4m1 0h1m4 0h1m1 0h1m1 0h6m4 0h1m1 0h2m1 0h1m1 0h1m3 0h1m2 0h1m3 0h1m1 0h2m1 0h2m1 0h2m1 0h1m1 0h6"/></g><g transform="translate(500,80)"><path fill="#ffffff" d="M0 0h101v101H0z"/><path stroke="#111111" d="M4 4.5h7m2 0h2m2 0h4m2 0h1m2 0h3m4 0h3m1 0h1m1 0h2m3 0h2m1 0h3m1 0h3m3 0h1m2 0h1m1 0h1m3 0h2m4 0h3m3 0h1m1 0h1m4 0h1m1 0h1m2 0h7M4 5.5h1m5 0h1m3 0h2m1 0h1m2 0h1m1 0h1m1 0h1m1 0h1m2 0h4m1 0h6m1 0h3m1 0h2m1 0h1m5 0h1m3 0h5m1 0h2m1 0h1m2 0h2m1 0h3m1 0h1m1 0h4m2 0h1m1 0h2m1 0h1m5 0h1M4 6.5h1m1 0h3m1 0h1m1 0h3m1 0h1m1 0h4m4 0h2m8 0h3m4 0h5m1 0h2m1 0h2m2 0h1m1 0h1m1 0h1m1 0h2m2 0h1m1 0h1m1 0h3m1 0h1m1 0h3m4 0h3m2 0h1m1 0h1m1 0h3m1 0h1M4 7.5h1m1 0h3m1 0h1m1 0h1m3 0h2m2 0h1m1 0h1m2 0h1m2 0h3m2 0h2m1 0h3m12 0h2m4 0h1m1 0h1m1 0h1m1 0h2m1 0h2m1 0h2m2 0h4m2 0h2m3 0h1m2 0h1m2 0h1m1 0h3m1 0h1M4 8.5h1m1 0h3m1 0h1m1 0h1m1 0h3m2 0h2m1 0h1m1 0h2m2 0h1m3 0h6m1 0h1m4 0h1m1 0h2m4 0h1m5 0h7m6 0h1m1 0h2m1 0h2m4 0h1m3 0h2m2 0h1m1 0h3m1 0h1M4 9.5h1m5 0h1m1 0h1m1 0h1m4 0h1m1 0h4m2 0h1m2 0h1m1 0h1m3 0h1m2 0h1m2 0h2m1 0h1m1 0h2m4 0h3m1 0h1m2 0h1m3 0h2m1 0h3m3 0h4m2 0h1m1 0h1m2 0h2m1 0h1m2 0h1m5 0h1M4 10.5h7m1 0h1m1 0h1m1 0h1m1 0h1m1 0h1m1 0h1m1 0h1m1 0h1m1 0h1m1 0h1m1 0h1m1 0h1m1 0h1m1 0h1m1 0h1m1 0h1m1 0h1m1 0h1m1 0h1m1 0h1m1 0h1m1 0h1m1 0h1m1 0h1m1 0h1m1 0h1m1 0h1m1 0h1m1 0h1m1 0h1m1 0h1m1 0h1m1 0h1m1 0h1m1 0h1m1 0h1m1 0h1m1 0h1m1 0h1m1 0h7M12 11.5h1m1 0h1m2 0h2m2 0h1m1 0h1m4 0h1m2 0h2m3 0h4m1 0h1m3 0h1m1 0h1m2 0h1m1 0h1m2 0h4m1 0h1m3 0h3m3 0h1m1 0h1m4 0h2m1 0h4m1 0h1m1 0h2M4 12.5h1m1 0h5m2 0h1m1 0h2m1 0h1m3 0h1m1 0h1m2 0h1m3 0h8m3 0h2m3 0h1m1 0h1m2 0h3m5 0h5m2 0h1m2 0h1m2 0h3m2 0h4m3 0h2m3 0h5M7 13.5h1m5 0h6m2 0h2m1 0h5m1 0h2m2 0h2m2 0h2m1 0h1m3 0h1m3 0h4m1 0h1m1 0h1m1 0h2m7 0h2m1 0h5m3 0h1m4 0h3m7 0h1M8 14.5h1m1 0h2m7 0h1m1 0h1m1 0h2m2 0h3m1 0h2m3 0h1m5 0h2m2 0h3m3 0h1m4 0h1m2 0h4m1 0h1m1 0h5m1 0h1m1 0h1m2 0h4m7 0h1m1 0h2m2 0h2M4 15.5h1m1 0h3m2 0h2m1 0h2m2 0h1m2 0h1m2 0h3m1 0h2m2 0h1m1 0h2m1 0h1m1 0h3m2 0h1m1 0h1m2 0h2m3 0h1m1 0h1m1 0h1m2 0h1m3 0h2m2 0h1m2 0h2m3 0h1m2 0h1m1 0h1m3 0h2m2 0h2m2 0h2M4 16.5h1m3 0h1m1 0h1m2 0h3m3 0h1m1 0h2m1 0h1m1 0h1m1 0h1m1 0h1m3 0h3m2 0h3m1 0h1m1 0h5m1 0h2m2 0h1m1 0h8m2 0h1m1 0h1m3 0h4m2 0h2m1 0h1m1 0h2m2 0h2m1 0h1m1 0h4M4 17.5h1m1 0h3m5 0h1m6 0h2m1 0h1m3 0h5m2 0h1m2 0h3m2 0h2m1 0h1m4 0h2m1 0h1m2 0h2m3 0h1m1 0h2m4 0h1m1 0h2m2 0h2m2 0h1m4 0h2m1 0h1m3 0h1m3 0h1M7 18.5h6m1 0h2m1 0h1m2 0h2m1 0h2m1 0h3m2 0h2m3 0h3m1 0h3m2 0h1m2 0h2m1 0h3m1 0h1m5 0h1m1 0h2m1 0h2m1 0h5m1 0h2m4 0h1m1 0h1m2 0h2m1 0h1m2 0h1m1 0h1M4 19.5h2m2 0h2m1 0h2m3 0h1m1 0h1m1 0h3m1 0h1m1 0h1m2 0h1m4 0h2m1 0h1m1 0h1m1 0h3m1 0h2m4 0h1m1 0h2m3 0h2m1 0h3m1 0h4m1 0h1m1 0h2m1 0h1m1 0h1m2 0h1m1 0h1m2 0h4m1 0h2m1 0h1M6 20.5h3m1 0h1m1 0h6m1 0h1m1 0h1m2 0h1m1 0h3m1 0h3m1 0h1m1 0h2m2 0h2m1 0h2m1 0h3m1 0h1m1 0h1m1 0h2m1 0h1m2 0h2m2 0h1m1 0h1m2 0h2m1 0h1m6 0h3m1 0h1m4 0h1m4 0h3M4 21.5h1m4 0h1m1 0h1m4 0h1m1 0h1m2 0h4m1 0h1m2 0h2m1 0h2m3 0h1m2 0h1m2 0h2m1 0h2m2 0h1m1 0h2m4 0h1m1 0h1m1 0h1m2 0h1m2 0h1m1 0h1m2 0h1m2 0h2m1 0h1m2 0h1m2 0h1m4 0h1m4 0h2M4 22.5h1m2 0h2m1 0h3m2 0h3m1 0h2m1 0h2m2 0h2m1 0h1m1 0h2m1 0h1m1 0h3m5 0h2m1 0h2m2 0h2m2 0h1m1 0h1m6 0h1m1 0h1m1 0h2m1 0h1m2 0h3m1 0h2m1 0h3m5 0h1m1 0h4M4 23.5h2m1 0h1m1 0h1m2 0h1m2 0h1m1 0h1m1 0h6m4 0h4m8 0h3m1 0h2m2 0h1m3 0h2m1 0h3m2 0h2m2 0h2m5 0h2m1 0h1m1 0h1m2 0h2m3 0h6m3 0h1m1 0h1M5 24.5h1m3 0h9m1 0h4m2 0h2m2 0h2m2 0h6m2 0h1m4 0h1m1 0h1m1 0h4m1 0h1m1 0h1m1 0h1m2 0h7m7 0h1m1 0h2m3 0h2m3 0h5m1 0h1M5 25.5h1m5 0h2m3 0h1m1 0h2m2 0h1m1 0h1m1 0h1m4 0h1m1 0h1m2 0h5m1 0h2m2 0h2m3 0h2m2 0h5m1 0h2m2 0h1m4 0h1m2 0h1m2 0h2m1 0h1m2 0h1m1 0h2m2 0h1m2 0h1m1 0h1m2 0h1M5 26.5h2m1 0h5m1 0h1m5 0h2m2 0h3m1 0h1m1 0h2m1 0h1m2 0h5m3 0h1m2 0h4m2 0h1m1 0h1m4 0h1m1 0h1m1 0h1m2 0h5m3 0h2m3 0h1m1 0h3m1 0h1m2 0h2m1 0h1m1 0h2M4 27.5h2m3 0h1m2 0h1m1 0h1m2 0h2m2 0h1m1 0h2m1 0h1m1 0h4m4 0h1m5 0h2m2 0h2m1 0h1m3 0h2m2 0h2m2 0h2m1 0h1m1 0h4m2 0h1m1 0h5m2 0h2m3 0h3m2 0h1m4 0h1M6 28.5h1m3 0h1m10 0h2m4 0h2m5 0h4m1 0h3m1 0h1m1 0h1m1 0h1m3 0h2m4 0h2m1 0h1m5 0h3m1 0h1m1 0h2m5 0h2m1 0h4m3 0h2m3 0h1M6 29.5h2m1 0h1m2 0h1m2 0h3m1 0h1m2 0h2m6 0h1m1 0h4m1 0h1m2 0h1m1 0h1m1 0h3m2 0h1m1 0h1m6 0h2m1 0h2m4 0h2m4 0h1m1 0h3m2 0h1m3 0h3m1 0h2m1 0h1m4 0h1M7 30.5h5m1 0h1m1 0h3m1 0h1m3 0h1m1 0h4m1 0h2m1 0h2m4 0h1m3 0h2m3 0h1m2 0h3m1 0h4m4 0h1m4 0h2m1 0h1m2 0h1m4 0h1m3 0h1m2 0h2m2 0h1m2 0h3M6 31.5h1m1 0h1m5 0h2m1 0h2m2 0h1m1 0h7m1 0h1m2 0h2m2 0h6m1 0h4m2 0h1m2 0h1m2 0h1m3 0h1m2 0h2m1 0h4m2 0h1m1 0h1m2 0h5m2 0h1m1 0h1m3 0h1m4 0h1M4 32.5h2m1 0h6m2 0h1m1 0h1m3 0h1m2 0h1m1 0h2m1 0h2m1 0h5m2 0h3m3 0h2m3 0h1m1 0h1m5 0h7m3 0h1m3 0h1m3 0h2m2 0h2m1 0h3m2 0h8M4 33.5h1m1 0h1m1 0h1m3 0h1m1 0h3m1 0h4m4 0h1m2 0h2m1 0h1m3 0h1m1 0h1m1 0h4m2 0h2m1 0h1m1 0h1m2 0h1m2 0h4m3 0h2m1 0h2m1 0h1m2 0h4m2 0h1m2 0h1m1 0h2m2 0h1m3 0h2m1 0h2M6 34.5h1m1 0h1m1 0h1m1 0h1m4 0h1m1 0h3m3 0h1m3 0h4m1 0h1m1 0h1m1 0h1m4 0h3m4 0h1m1 0h2m1 0h2m1 0h1m1 0h1m1 0h1m1 0h1m1 0h1m4 0h2m1 0h1m3 0h1m1 0h1m1 0h3m2 0h2m1 0h1m1 0h1M7 35.5h2m3 0h4m2 0h3m5 0h3m1 0h3m3 0h2m1 0h1m2 0h1m5 0h2m2 0h1m1 0h1m5 0h1m3 0h2m1 0h1m1 0h3m1 0h1m1 0h2m2 0h3m2 0h3m1 0h1m3 0h1m1 0h3M4 36.5h3m1 0h5m2 0h4m1 0h1m3 0h1m1 0h4m2 0h5m2 0h1m4 0h1m1 0h2m1 0h3m2 0h2m1 0h8m7 0h1m6 0h1m2 0h4m2 0h5m1 0h2M4 37.5h1m1 0h1m2 0h1m1 0h1m3 0h1m1 0h1m1 0h1m4 0h1m2 0h1m2 0h1m2 0h3m1 0h1m4 0h1m2 0h2m1 0h2m3 0h1m1 0h1m2 0h1m1 0h1m3 0h1m1 0h2m2 0h1m1 0h2m2 0h1m1 0h1m1 0h2m2 0h4m1 0h2m2 0h4M4 38.5h1m1 0h1m2 0h2m2 0h2m1 0h1m1 0h1m4 0h6m4 0h2m1 0h3m1 0h2m2 0h4m2 0h2m1 0h1m1 0h1m2 0h1m2 0h2m3 0h1m3 0h1m1 0h1m2 0h4m3 0h2m7 0h6M6 39.5h3m2 0h4m1 0h1m1 0h1m5 0h1m3 0h2m2 0h4m2 0h1m1 0h4m1 0h1m1 0h2m2 0h1m2 0h2m3 0h1m4 0h1m2 0h1m1 0h3m1 0h4m2 0h1m1 0h2m1 0h1m1 0h3m2 0h1m1 0h2M4 40.5h4m2 0h2m12 0h5m2 0h2m2 0h5m1 0h1m1 0h1m3 0h1m1 0h2m1 0h1m2 0h1m2 0h4m1 0h2m3 0h1m4 0h1m2 0h1m3 0h2m1 0h3m2 0h2m2 0h1M8 41.5h1m4 0h2m1 0h3m2 0h3m2 0h2m3 0h1m1 0h3m2 0h1m2 0h1m5 0h2m2 0h2m4 0h1m2 0h2m1 0h1m2 0h9m1 0h1m1 0h3m1 0h1m1 0h1m4 0h3m3 0h2M5 42.5h1m3 0h11m1 0h1m2 0h1m1 0h4m1 0h1m4 0h2m1 0h1m1 0h1m1 0h2m1 0h1m2 0h2m1 0h5m1 0h1m1 0h1m1 0h2m1 0h1m4 0h1m3 0h5m1 0h1m1 0h4m1 0h1m3 0h4M11 43.5h1m1 0h2m5 0h1m2 0h1m2 0h1m5 0h1m1 0h1m2 0h1m1 0h1m2 0h2m1 0h1m1 0h3m1 0h5m1 0h1m2 0h1m1 0h3m1 0h6m1 0h1m1 0h1m2 0h2m1 0h3m2 0h1m1 0h1m2 0h1m1 0h3M4 44.5h1m4 0h3m3 0h2m2 0h1m3 0h6m1 0h1m1 0h1m4 0h1m2 0h1m2 0h2m1 0h1m2 0h2m1 0h1m1 0h6m1 0h2m4 0h2m1 0h1m1 0h1m3 0h1m2 0h2m3 0h6m1 0h3m1 0h1M4 45.5h1m1 0h3m3 0h1m3 0h1m1 0h2m2 0h2m1 0h2m3 0h1m7 0h1m3 0h1m2 0h1m1 0h1m1 0h1m1 0h4m2 0h2m3 0h1m1 0h1m1 0h6m1 0h3m2 0h3m1 0h1m1 0h1m1 0h1m2 0h2m2 0h2M4 46.5h4m2 0h1m1 0h1m2 0h1m2 0h1m1 0h1m1 0h1m2 0h1m3 0h1m1 0h1m1 0h1m3 0h2m1 0h1m2 0h2m1 0h1m3 0h2m3 0h2m2 0h1m1 0h2m1 0h1m3 0h1m2 0h1m4 0h3m1 0h1m3 0h3m3 0h1m1 0h3m1 0h1M4 47.5h6m1 0h3m1 0h1m1 0h2m1 0h1m2 0h1m2 0h1m2 0h2m2 0h2m1 0h1m1 0h1m1 0h2m1 0h3m2 0h2m1 0h2m1 0h2m1 0h1m2 0h1m2 0h1m2 0h7m1 0h1m1 0h1m2 0h1m2 0h2m2 0h3m1 0h2m1 0h3M4 48.5h1m1 0h2m1 0h3m1 0h6m2 0h2m2 0h1m1 0h1m2 0h3m1 0h1m1 0h2m2 0h1m1 0h1m3 0h2m1 0h2m1 0h1m2 0h1m3 0h1m3 0h2m1 0h2m4 0h2m1 0h1m1 0h2m5 0h3m1 0h2m5 0h2M4 49.5h3m2 0h1m1 0h1m1 0h1m2 0h1m1 0h1m2 0h1m2 0h3m1 0h2m1 0h1m1 0h3m2 0h1m4 0h2m1 0h1m1 0h2m6 0h1m1 0h1m1 0h3m1 0h1m1 0h1m1 0h1m2 0h2m3 0h1m2 0h2m1 0h1m4 0h4m2 0h3M5 50.5h2m1 0h8m2 0h3m1 0h1m1 0h1m1 0h1m2 0h2m8 0h1m1 0h2m3 0h1m3 0h2m1 0h4m1 0h1m2 0h1m1 0h1m1 0h1m2 0h1m2 0h3m2 0h3m3 0h4m1 0h1m4 0h1m2 0h1M4 51.5h1m3 0h2m1 0h2m1 0h1m3 0h1m1 0h1m3 0h3m4 0h3m4 0h1m1 0h3m1 0h1m2 0h1m1 0h1m2 0h2m1 0h1m5 0h1m3 0h2m2 0h3m2 0h1m2 0h1m1 0h1m2 0h1m1 0h1m1 0h4m1 0h1m2 0h2M4 52.5h1m1 0h1m2 0h5m2 0h1m5 0h2m3 0h2m2 0h5m1 0h1m4 0h2m1 0h2m2 0h1m4 0h1m1 0h6m1 0h2m2 0h1m1 0h1m4 0h3m2 0h2m4 0h3m3 0h2m2 0h2M4 53.5h1m3 0h2m1 0h1m1 0h1m3 0h1m4 0h3m1 0h2m1 0h1m2 0h3m1 0h2m1 0h4m3 0h2m1 0h1m1 0h2m4 0h2m2 0h1m2 0h1m5 0h4m2 0h1m2 0h1m2 0h5m1 0h1m1 0h2m1 0h1M5 54.5h2m2 0h2m2 0h3m1 0h1m3 0h4m1 0h3m2 0h1m2 0h3m1 0h2m3 0h1m2 0h1m2 0h2m2 0h6m1 0h1m3 0h2m1 0h1m2 0h1m1 0h2m1 0h4m1 0h7m5 0h4M5 55.5h1m1 0h1m1 0h1m1 0h3m1 0h2m1 0h1m4 0h1m1 0h1m1 0h1m4 0h3m3 0h3m3 0h1m3 0h1m1 0h3m2 0h4m3 0h2m2 0h1m1 0h1m1 0h3m3 0h1m2 0h3m1 0h2m2 0h5m1 0h2M6 56.5h3m1 0h4m2 0h3m1 0h1m2 0h1m2 0h4m1 0h1m1 0h1m1 0h1m1 0h2m1 0h2m1 0h1m2 0h2m1 0h1m2 0h1m1 0h1m4 0h2m1 0h2m1 0h1m1 0h1m1 0h2m2 0h2m4 0h2m3 0h2m1 0h1m3 0h1m1 0h1m2 0h1M5 57.5h1m2 0h1m3 0h2m2 0h1m1 0h1m3 0h5m1 0h1m3 0h7m2 0h1m1 0h3m3 0h5m1 0h2m1 0h1m4 0h2m1 0h3m1 0h2m4 0h1m1 0h3m1 0h2m3 0h2m6 0h1M6 58.5h8m4 0h1m1 0h3m2 0h1m1 0h1m2 0h2m3 0h3m4 0h1m3 0h1m2 0h1m1 0h1m1 0h3m1 0h1m3 0h2m2 0h3m1 0h2m1 0h6m2 0h1m4 0h3m1 0h1m2 0h4M7 59.5h1m1 0h1m2 0h2m2 0h1m1 0h1m1 0h1m3 0h4m2 0h6m4 0h2m2 0h2m1 0h1m1 0h5m1 0h2m1 0h1m1 0h2m2 0h1m1 0h1m1 0h2m1 0h2m1 0h1m3 0h1m4 0h2m1 0h4m1 0h1m2 0h1M4 60.5h1m2 0h9m2 0h1m1 0h4m3 0h2m3 0h6m1 0h2m1 0h2m1 0h5m2 0h1m1 0h1m2 0h9m1 0h1m1 0h1m3 0h1m3 0h1m1 0h1m1 0h1m2 0h1m1 0h1m1 0h6m1 0h2M4 61.5h1m3 0h1m3 0h2m2 0h1m1 0h2m1 0h1m1 0h1m3 0h1m1 0h2m1 0h1m3 0h1m1 0h4m1 0h1m2 0h3m1 0h1m1 0h2m4 0h1m1 0h1m3 0h1m2 0h1m1 0h3m1 0h2m3 0h1m5 0h2m1 0h2m3 0h1m1 0h2M6 62.5h1m1 0h1m1 0h1m1 0h2m4 0h1m1 0h6m3 0h1m2 0h1m1 0h1m1 0h2m1 0h1m2 0h1m3 0h1m1 0h2m1 0h1m2 0h2m1 0h2m1 0h1m1 0h1m1 0h2m7 0h1m1 0h5m1 0h2m2 0h1m2 0h1m1 0h1m1 0h1m2 0h1M4 63.5h2m2 0h1m3 0h12m1 0h2m3 0h3m3 0h1m1 0h3m3 0h1m4 0h5m1 0h4m1 0h1m3 0h1m1 0h1m2 0h4m3 0h2m2 0h1m2 0h2m3 0h1m3 0h1m1 0h2M6 64.5h8m1 0h1m1 0h3m3 0h1m1 0h2m2 0h1m1 0h7m1 0h1m2 0h2m2 0h2m4 0h3m2 0h2m1 0h5m2 0h1m2 0h1m2 0h2m4 0h1m2 0h1m2 0h8m3 0h1M6 65.5h1m2 0h1m2 0h6m1 0h4m5 0h1m1 0h5m1 0h1m3 0h1m2 0h1m2 0h1m9 0h1m1 0h2m2 0h1m1 0h1m1 0h1m3 0h4m1 0h6m3 0h2m1 0h2m1 0h4M6 66.5h1m1 0h1m1 0h2m2 0h1m3 0h1m1 0h1m3 0h1m1 0h4m1 0h1m4 0h1m1 0h2m2 0h1m2 0h1m1 0h3m3 0h2m1 0h2m1 0h1m1 0h3m1 0h1m2 0h2m1 0h1m1 0h4m2 0h3m3 0h1m2 0h1m2 0h1m2 0h1M7 67.5h2m3 0h3m3 0h1m1 0h2m2 0h1m2 0h3m1 0h1m1 0h1m1 0h1m1 0h1m1 0h3m1 0h1m2 0h1m2 0h2m5 0h3m5 0h3m3 0h1m1 0h1m3 0h3m1 0h6m3 0h4m2 0h1M4 68.5h2m3 0h2m2 0h2m1 0h3m1 0h1m2 0h1m1 0h2m1 0h2m7 0h1m1 0h2m3 0h4m4 0h4m1 0h1m1 0h1m2 0h1m4 0h1m2 0h1m1 0h3m3 0h3m1 0h1m3 0h1m2 0h1m1 0h4m1 0h1M4 69.5h1m3 0h2m2 0h1m1 0h1m2 0h1m5 0h2m1 0h2m1 0h1m5 0h1m1 0h2m2 0h1m1 0h2m1 0h1m9 0h3m2 0h1m6 0h1m7 0h4m2 0h5m2 0h3M7 70.5h1m2 0h1m1 0h1m2 0h4m4 0h3m9 0h3m1 0h1m2 0h1m1 0h3m1 0h1m2 0h1m3 0h1m4 0h2m1 0h3m1 0h3m1 0h1m1 0h1m1 0h1m2 0h4m2 0h1m4 0h1m1 0h1m2 0h1M6 71.5h4m3 0h1m3 0h3m3 0h1m1 0h1m2 0h2m3 0h2m5 0h1m3 0h1m2 0h1m2 0h2m1 0h5m1 0h1m5 0h2m3 0h1m1 0h3m1 0h5m1 0h1m2 0h2m2 0h2m1 0h3M7 72.5h1m1 0h4m1 0h1m1 0h6m2 0h3m3 0h1m4 0h1m3 0h2m1 0h2m1 0h2m1 0h2m2 0h1m5 0h1m1 0h3m4 0h4m2 0h1m1 0h1m3 0h1m1 0h2m4 0h2m2 0h2m1 0h3M4 73.5h2m2 0h2m2 0h1m5 0h3m2 0h4m2 0h1m2 0h1m8 0h1m1 0h1m2 0h2m1 0h7m1 0h3m5 0h1m1 0h1m2 0h4m2 0h2m1 0h2m3 0h3m1 0h3m4 0h2M4 74.5h2m1 0h1m2 0h1m2 0h1m1 0h2m1 0h1m2 0h2m1 0h1m1 0h1m1 0h1m1 0h4m1 0h1m1 0h1m1 0h1m2 0h1m2 0h1m1 0h3m2 0h2m1 0h1m1 0h3m1 0h3m2 0h7m2 0h1m4 0h5m1 0h2m3 0h4M5 75.5h2m4 0h3m4 0h1m1 0h3m1 0h1m1 0h1m1 0h2m1 0h2m1 0h2m1 0h1m3 0h3m6 0h1m2 0h3m4 0h1m1 0h1m1 0h2m1 0h1m5 0h1m1 0h3m3 0h1m2 0h3m3 0h1m3 0h2M4 76.5h1m1 0h6m2 0h1m1 0h3m2 0h1m3 0h2m1 0h4m4 0h1m1 0h3m2 0h4m1 0h2m1 0h2m3 0h1m1 0h1m3 0h3m2 0h4m7 0h2m1 0h2m4 0h3m2 0h1m1 0h2M4 77.5h5m3 0h3m5 0h2m2 0h1m1 0h2m1 0h5m2 0h1m4 0h1m1 0h1m1 0h3m1 0h3m1 0h4m1 0h1m1 0h1m6 0h1m4 0h5m5 0h5m1 0h1m1 0h1m2 0h1m2 0h1M6 78.5h1m3 0h1m4 0h2m2 0h1m2 0h4m1 0h1m1 0h4m1 0h7m2 0h2m2 0h2m3 0h1m3 0h2m1 0h1m1 0h1m1 0h2m1 0h2m1 0h1m1 0h2m5 0h2m1 0h3m2 0h2m5 0h3M5 79.5h2m4 0h1m1 0h2m1 0h4m2 0h1m1 0h6m1 0h3m2 0h2m3 0h3m1 0h1m3 0h1m4 0h5m5 0h2m2 0h1m1 0h1m4 0h3m2 0h2m6 0h2m3 0h4M4 80.5h4m1 0h2m1 0h1m2 0h2m1 0h1m5 0h1m5 0h1m3 0h2m2 0h4m1 0h1m3 0h1m1 0h4m4 0h3m1 0h2m1 0h1m2 0h3m6 0h1m2 0h3m1 0h1m1 0h1m1 0h3m1 0h2m1 0h1M4 81.5h1m4 0h1m1 0h1m1 0h3m1 0h3m1 0h4m1 0h3m4 0h1m4 0h1m2 0h1m1 0h1m1 0h3m1 0h1m2 0h1m1 0h1m3 0h6m1 0h3m3 0h1m1 0h1m2 0h3m1 0h1m1 0h1m2 0h2m2 0h3m1 0h1m2 0h1M4 82.5h4m2 0h1m1 0h1m1 0h1m1 0h1m12 0h1m1 0h1m2 0h1m1 0h3m1 0h1m3 0h2m1 0h2m1 0h3m2 0h1m1 0h1m3 0h4m2 0h1m1 0h1m1 0h2m7 0h1m2 0h1m2 0h1m1 0h2m1 0h4M6 83.5h1m1 0h1m6 0h1m2 0h2m2 0h1m4 0h1m3 0h5m1 0h7m2 0h2m2 0h2m2 0h1m3 0h1m5 0h1m2 0h1m2 0h1m1 0h2m1 0h1m1 0h2m2 0h2m3 0h1m1 0h1m1 0h2m1 0h2M4 84.5h1m2 0h2m1 0h2m1 0h4m5 0h1m1 0h1m1 0h1m1 0h1m2 0h2m1 0h1m2 0h2m1 0h2m1 0h2m2 0h1m1 0h2m1 0h1m3 0h1m1 0h1m2 0h3m1 0h1m2 0h2m3 0h1m5 0h2m5 0h3m3 0h1m1 0h3M4 85.5h1m2 0h1m1 0h1m1 0h6m3 0h2m2 0h4m3 0h1m4 0h1m2 0h5m2 0h2m2 0h2m1 0h3m2 0h3m1 0h1m1 0h1m1 0h3m1 0h1m1 0h3m2 0h1m1 0h1m1 0h1m1 0h4m2 0h3m3 0h2M8 86.5h1m1 0h1m1 0h1m3 0h2m1 0h2m3 0h1m1 0h1m3 0h1m1 0h1m4 0h2m1 0h1m2 0h3m2 0h2m1 0h3m1 0h2m1 0h2m1 0h1m3 0h2m2 0h4m1 0h1m4 0h2m2 0h1m2 0h1m1 0h1m5 0h1M4 87.5h2m1 0h3m1 0h1m1 0h2m6 0h2m4 0h4m2 0h1m3 0h2m2 0h2m2 0h2m1 0h3m3 0h1m4 0h2m1 0h8m2 0h1m2 0h1m1 0h2m2 0h1m2 0h2m2 0h3m2 0h2m1 0h1M5 88.5h2m3 0h2m1 0h2m2 0h1m3 0h1m1 0h1m1 0h1m1 0h15m1 0h2m1 0h2m3 0h3m1 0h1m2 0h7m1 0h3m3 0h2m3 0h1m4 0h2m3 0h9M12 89.5h1m4 0h2m2 0h2m1 0h1m3 0h1m1 0h3m3 0h1m2 0h1m2 0h1m3 0h4m1 0h3m1 0h1m4 0h1m3 0h1m2 0h2m4 0h2m2 0h2m2 0h1m3 0h1m2 0h1m3 0h2m1 0h2M4 90.5h7m4 0h1m1 0h1m4 0h1m3 0h1m2 0h1m1 0h2m1 0h1m1 0h2m2 0h1m3 0h2m4 0h1m1 0h1m3 0h1m1 0h3m1 0h1m1 0h1m1 0h1m1 0h1m1 0h3m1 0h1m4 0h1m2 0h2m4 0h1m1 0h1m1 0h3M4 91.5h1m5 0h1m1 0h1m1 0h3m2 0h1m1 0h1m2 0h2m1 0h2m1 0h3m3 0h1m1 0h6m3 0h3m1 0h5m1 0h1m1 0h2m3 0h8m3 0h2m1 0h5m1 0h5m3 0h2m1 0h1M4 92.5h1m1 0h3m1 0h1m1 0h1m2 0h1m1 0h4m2 0h1m2 0h2m1 0h8m1 0h1m1 0h1m4 0h2m2 0h1m2 0h1m2 0h1m2 0h1m1 0h5m14 0h1m3 0h1m4 0h7M4 93.5h1m1 0h3m1 0h1m1 0h2m1 0h1m1 0h1m1 0h1m1 0h6m1 0h1m3 0h1m1 0h3m3 0h4m5 0h1m1 0h2m4 0h1m5 0h1m1 0h1m1 0h4m1 0h2m2 0h1m1 0h5m2 0h1m2 0h2m1 0h4M4 94.5h1m1 0h3m1 0h1m1 0h1m1 0h1m1 0h2m2 0h3m1 0h1m1 0h1m1 0h2m5 0h3m1 0h1m1 0h1m2 0h3m3 0h1m1 0h2m3 0h2m2 0h1m1 0h2m7 0h3m1 0h2m4 0h2m3 0h1m2 0h2m1 0h2M4 95.5h1m5 0h1m2 0h1m1 0h1m1 0h2m1 0h1m1 0h6m2 0h1m1 0h1m1 0h2m4 0h1m1 0h1m2 0h1m2 0h2m1 0h1m1 0h1m3 0h1m2 0h2m1 0h1m2 0h6m1 0h3m2 0h2m1 0h2m3 0h1m1 0h3m1 0h1m1 0h1M4 96.5h7m1 0h1m1 0h1m2 0h4m3 0h1m1 0h1m2 0h1m1 0h1m2 0h2m7 0h1m3 0h1m4 0h11m2 0h4m3 0h2m3 0h1m1 0h1m3 0h3m1 0h1m3 0h3m1 0h1"/></g><text x="60" y="460" font-family="monospace" font-size="18">payload chars: 1064</text><text x="500" y="460" font-family="monospace" font-size="18">payload chars: 604</text></svg>