<svg xmlns="http://www.w3.org/2000/svg" width="900" height="520" viewBox="0 0 900 520"><rect width="900" height="520" fill="#ffffff" /><text x="60" y="50" font-family="monospace" font-size="24">Before: full artifact QR</text><text x="500" y="50" font-family="monospace" font-size="24">After: Tier-1 envelope QR</text><g transform="translate(60,80)"><path fill="#ffffff" d="M0 0h165v165H0z"/><path stroke="#111111" d="M0 0.5h7m1 0h2m5 0h1m1 0h1m3 0h1m1 0h1m1 0h1m1 0h1m2 0h2m2 0h2m2 0h6m2 0h1m6 0h1m1 0h2m4 0h8m4 0h1m1 0h1m5 0h2m2 0h1m1 0h2m2 0h1m3 0h1m2 0h2m1 0h1m1 0h3m1 0h1m2 0h1m2 0h2m2 0h1m5 0h2m2 0h1m1 0h1m6 0h3m1 0h1m4 0h1m4 0h3m2 0h2m1 0h7M0 1.5h1m5 0h1m1 0h2m2 0h2m1 0h2m1 0h3m2 0h1m3 0h4m2 0h1m1 0h1m1 0h4m2 0h8m1 0h3m2 0h2m1 0h2m2 0h3m2 0h3m1 0h1m2 0h2m3 0h2m1 0h6m1 0h3m3 0h2m3 0h1m1 0h1m2 0h2m2 0h1m4 0h1m1 0h4m2 0h2m1 0h1m1 0h2m1 0h1m1 0h2m1 0h3m2 0h3m3 0h4m1 0h2m1 0h1m1 0h1m5 0h1M0 2.5h1m1 0h3m1 0h1m1 0h5m1 0h1m2 0h5m3 0h1m1 0h1m3 0h2m1 0h3m1 0h1m1 0h8m1 0h1m3 0h1m1 0h2m1 0h1m1 0h1m1 0h2m2 0h2m1 0h1m2 0h1m4 0h4m1 0h1m8 0h2m7 0h2m1 0h3m4 0h3m1 0h2m3 0h2m1 0h2m1 0h3m1 0h1m1 0h1m1 0h1m4 0h4m2 0h4m3 0h1m1 0h1m4 0h1m1 0h3m1 0h1M0 3.5h1m1 0h3m1 0h1m8 0h3m1 0h1m1 0h2m1 0h1m3 0h2m2 0h2m2 0h1m2 0h3m1 0h2m1 0h5m1 0h2m1 0h2m1 0h1m2 0h1m3 0h2m1 0h4m2 0h2m1 0h1m1 0h3m1 0h3m1 0h1m1 0h1m2 0h1m1 0h2m1 0h1m2 0h1m1 0h1m3 0h3m3 0h2m1 0h1m2 0h3m3 0h1m1 0h3m1 0h1m2 0h3m1 0h1m1 0h1m2 0h1m7 0h3m2 0h1m2 0h1m1 0h3m1 0h1M0 4.5h1m1 0h3m1 0h1m4 0h1m1 0h1m1 0h1m1 0h3m3 0h1m2 0h9m4 0h1m4 0h3m5 0h5m1 0h1m2 0h3m3 0h1m2 0h2m1 0h2m3 0h7m4 0h1m1 0h1m3 0h3m1 0h4m1 0h7m4 0h2m2 0h1m1 0h1m2 0h1m2 0h1m2 0h5m1 0h6m1 0h1m1 0h1m1 0h1m1 0h3m2 0h1m1 0h1m1 0h1m1 0h3m1 0h1M0 5.5h1m5 0h1m1 0h1m5 0h4m1 0h2m1 0h2m1 0h2m3 0h1m3 0h4m1 0h1m2 0h1m1 0h1m1 0h4m2 0h1m3 0h2m3 0h1m4 0h1m3 0h1m3 0h1m2 0h2m3 0h2m2 0h1m4 0h2m2 0h1m7 0h2m3 0h2m3 0h2m3 0h1m1 0h1m6 0h4m3 0h2m5 0h4m2 0h2m1 0h3m3 0h1m1 0h1m5 0h1M0 6.5h7m1 0h1m1 0h1m1 0h1m1 0h1m1 0h1m1 0h1m1 0h1m1 0h1m1 0h1m1 0h1m1 0h1m1 0h1m1 0h1m1 0h1m1 0h1m1 0h1m1 0h1m1 0h1m1 0h1m1 0h1m1 0h1m1 0h1m1 0h1m1 0h1m1 0h1m1 0h1m1 0h1m1 0h1m1 0h1m1 0h1m1 0h1m1 0h1m1 0h1m1 0h1m1 0h1m1 0h1m1 0h1m1 0h1m1 0h1m1 0h1m1 0h1m1 0h1m1 0h1m1 0h1m1 0h1m1 0h1m1 0h1m1 0h1m1 0h1m1 0h1m1 0h1m1 0h1m1 0h1m1 0h1m1 0h1m1 0h1m1 0h1m1 0h1m1 0h1m1 0h1m1 0h1m1 0h1m1 0h1m1 0h1m1 0h1m1 0h1m1 0h1m1 0h1m1 0h1m1 0h1m1 0h1m1 0h1m1 0h1m1 0h1m1 0h1m1 0h7M8 7.5h2m1 0h3m2 0h2m2 0h3m2 0h2m3 0h3m1 0h1m1 0h1m2 0h1m2 0h3m4 0h1m2 0h1m3 0h3m1 0h5m2 0h2m3 0h2m4 0h1m3 0h3m1 0h6m2 0h5m2 0h1m2 0h1m3 0h1m1 0h1m3 0h1m6 0h2m3 0h1m2 0h2m3 0h1m1 0h1m1 0h2m1 0h1m3 0h2m2 0h1m1 0h1m1 0h1M2 8.5h3m1 0h1m1 0h2m2 0h1m3 0h2m1 0h1m1 0h3m1 0h7m4 0h2m3 0h2m3 0h1m1 0h1m3 0h8m1 0h3m2 0h3m2 0h3m2 0h1m1 0h5m1 0h1m1 0h1m2 0h2m1 0h1m3 0h4m4 0h5m4 0h1m1 0h1m2 0h4m1 0h1m2 0h10m1 0h1m1 0h1m2 0h1m1 0h1m2 0h1m2 0h1m1 0h2m1 0h1m1 0h3m2 0h3M2 9.5h1m1 0h1m2 0h1m3 0h2m1 0h1m1 0h1m1 0h1m2 0h3m2 0h1m1 0h1m1 0h1m1 0h2m5 0h7m8 0h5m1 0h1m1 0h2m5 0h2m2 0h2m1 0h3m2 0h3m1 0h1m1 0h2m1 0h1m4 0h5m1 0h1m1 0h4m1 0h2m4 0h1m1 0h2m9 0h1m1 0h1m5 0h2m1 0h1m1 0h1m3 0h3m2 0h1m1 0h1m4 0h1m1 0h1m1 0h1m1 0h3M0 10.5h3m1 0h1m1 0h1m1 0h1m3 0h1m2 0h2m1 0h2m1 0h2m1 0h4m4 0h1m3 0h1m1 0h2m1 0h5m1 0h2m2 0h1m3 0h2m2 0h1m1 0h4m1 0h1m1 0h4m1 0h2m1 0h1m1 0h1m1 0h2m2 0h1m2 0h2m1 0h1m3 0h4m1 0h1m4 0h5m2 0h1m3 0h1m2 0h3m3 0h1m1 0h3m1 0h3m1 0h1m4 0h1m1 0h3m4 0h3m1 0h7m4 0h2M0 11.5h4m5 0h2m1 0h4m3 0h1m3 0h1m5 0h1m3 0h4m1 0h4m1 0h1m1 0h3m1 0h2m2 0h2m1 0h1m5 0h2m2 0h1m1 0h1m5 0h1m2 0h1m1 0h2m1 0h1m3 0h5m2 0h1m1 0h2m2 0h2m4 0h1m2 0h3m2 0h2m1 0h1m8 0h1m1 0h2m4 0h1m3 0h3m1 0h1m3 0h2m4 0h1m2 0h3m4 0h1m1 0h1M1 12.5h6m1 0h2m1 0h2m3 0h1m2 0h1m2 0h4m1 0h2m3 0h4m1 0h1m1 0h5m1 0h4m1 0h4m1 0h2m1 0h2m1 0h2m2 0h3m3 0h1m1 0h4m2 0h1m2 0h1m2 0h4m1 0h1m4 0h2m1 0h6m2 0h4m1 0h3m1 0h1m2 0h4m1 0h2m1 0h1m1 0h2m1 0h1m2 0h2m4 0h1m1 0h2m1 0h1m1 0h2m1 0h2m1 0h2m2 0h2m3 0h2M0 13.5h5m3 0h1m1 0h1m1 0h1m2 0h2m3 0h9m1 0h3m1 0h4m4 0h4m1 0h2m1 0h1m2 0h4m3 0h1m1 0h3m3 0h1m1 0h1m1 0h3m2 0h2m1 0h1m1 0h1m1 0h2m8 0h2m1 0h1m1 0h2m2 0h2m4 0h3m1 0h1m1 0h3m6 0h2m1 0h1m1 0h1m6 0h3m1 0h2m2 0h3m2 0h3m1 0h1m1 0h2m1 0h3m1 0h1M2 14.5h1m3 0h4m2 0h2m3 0h3m2 0h2m1 0h1m1 0h1m4 0h1m3 0h1m3 0h1m1 0h1m2 0h2m1 0h1m1 0h1m2 0h2m2 0h2m1 0h1m1 0h1m1 0h8m4 0h1m1 0h1m1 0h1m4 0h1m2 0h1m6 0h1m1 0h2m3 0h5m4 0h3m3 0h1m1 0h6m1 0h2m2 0h1m1 0h1m1 0h2m1 0h3m1 0h1m1 0h1m1 0h1m2 0h3m1 0h5m1 0h1m4 0h1M0 15.5h3m7 0h2m1 0h2m1 0h1m1 0h1m1 0h2m6 0h2m5 0h1m3 0h1m1 0h1m1 0h1m1 0h1m1 0h4m2 0h2m1 0h1m1 0h1m3 0h2m1 0h1m2 0h3m2 0h3m3 0h2m1 0h3m2 0h1m1 0h2m1 0h1m2 0h1m1 0h1m1 0h2m2 0h1m4 0h4m3 0h3m1 0h3m4 0h1m1 0h2m3 0h1m1 0h4m2 0h1m3 0h2m4 0h1m1 0h1m1 0h3m4 0h3M0 16.5h2m1 0h1m2 0h1m1 0h1m2 0h1m1 0h1m1 0h2m3 0h6m1 0h2m2 0h3m4 0h2m1 0h1m1 0h1m2 0h2m1 0h1m3 0h3m1 0h1m4 0h1m5 0h2m2 0h1m1 0h1m1 0h1m1 0h1m1 0h1m1 0h4m1 0h1m1 0h4m3 0h1m2 0h3m5 0h2m1 0h1m1 0h2m1 0h1m1 0h2m3 0h1m1 0h2m1 0h3m2 0h3m2 0h3m2 0h2m4 0h1m1 0h1m1 0h4m2 0h3m2 0h1M3 17.5h3m3 0h1m2 0h2m4 0h3m3 0h1m1 0h4m1 0h1m4 0h2m5 0h1m3 0h2m2 0h3m1 0h1m1 0h1m1 0h1m1 0h1m2 0h1m1 0h3m2 0h3m1 0h1m3 0h2m1 0h1m4 0h2m1 0h2m2 0h1m2 0h1m2 0h1m2 0h1m3 0h2m5 0h1m1 0h2m3 0h3m2 0h1m2 0h1m3 0h1m1 0h2m1 0h1m1 0h3m1 0h10m2 0h2m2 0h1m1 0h1m1 0h1M1 18.5h2m1 0h3m2 0h1m4 0h2m3 0h1m1 0h1m2 0h1m2 0h2m1 0h2m4 0h1m2 0h2m1 0h2m1 0h1m1 0h2m2 0h1m1 0h1m3 0h1m1 0h1m1 0h4m1 0h2m1 0h2m1 0h2m1 0h1m1 0h1m3 0h2m1 0h1m2 0h1m1 0h2m3 0h1m1 0h1m2 0h1m1 0h2m1 0h1m1 0h2m1 0h1m2 0h2m1 0h1m1 0h8m1 0h2m2 0h3m2 0h1m1 0h1m1 0h1m3 0h1m4 0h3m2 0h2m6 0h1m1 0h1M0 19.5h1m1 0h2m1 0h1m1 0h8m1 0h2m2 0h1m1 0h3m1 0h1m5 0h3m2 0h2m1 0h3m2 0h2m1 0h1m1 0h1m2 0h1m2 0h1m4 0h1m1 0h1m1 0h2m7 0h1m2 0h2m1 0h3m1 0h1m1 0h1m3 0h1m1 0h5m2 0h1m1 0h1m3 0h3m2 0h1m1 0h1m3 0h1m2 0h1m1 0h1m3 0h1m3 0h1m5 0h1m1 0h4m3 0h3m5 0h2m1 0h2m2 0h4m1 0h1M0 20.5h3m2 0h2m1 0h4m1 0h1m1 0h1m4 0h1m4 0h3m1 0h2m1 0h3m1 0h3m2 0h1m2 0h3m4 0h2m3 0h1m3 0h4m1 0h1m4 0h1m1 0h1m1 0h1m2 0h1m1 0h1m5 0h1m4 0h4m1 0h1m2 0h2m1 0h2m1 0h6m1 0h3m1 0h1m1 0h3m1 0h2m1 0h1m1 0h3m3 0h1m1 0h3m2 0h2m1 0h1m1 0h1m2 0h1m1 0h3m1 0h2m2 0h3m3 0h1M0 21.5h2m1 0h1m4 0h13m1 0h2m3 0h1m1 0h2m1 0h2m1 0h2m2 0h3m2 0h1m1 0h1m2 0h1m4 0h3m1 0h4m1 0h2m3 0h1m1 0h1m4 0h2m1 0h2m1 0h1m4 0h3m1 0h1m1 0h2m2 0h6m2 0h1m3 0h2m4 0h1m1 0h1m1 0h2m3 0h1m1 0h1m3 0h1m1 0h1m4 0h3m1 0h2m1 0h5m1 0h2m2 0h1m1 0h3m1 0h6M2 22.5h1m2 0h6m1 0h1m2 0h2m4 0h1m1 0h1m1 0h3m3 0h1m5 0h1m1 0h1m1 0h2m1 0h1m5 0h1m1 0h2m2 0h1m1 0h2m3 0h1m3 0h3m1 0h3m1 0h1m1 0h3m2 0h1m3 0h1m10 0h5m1 0h3m5 0h2m1 0h2m1 0h1m1 0h2m2 0h2m1 0h3m1 0h1m1 0h2m4 0h1m2 0h3m3 0h2m1 0h1m3 0h2m1 0h1m1 0h1m3 0h1M0 23.5h5m3 0h2m1 0h1m1 0h2m1 0h1m1 0h6m1 0h5m1 0h1m1 0h1m2 0h2m1 0h2m2 0h3m2 0h1m2 0h4m1 0h3m2 0h3m1 0h1m2 0h2m1 0h2m2 0h2m1 0h1m1 0h1m1 0h4m2 0h1m1 0h1m1 0h1m1 0h2m3 0h1m2 0h1m1 0h1m1 0h2m2 0h2m1 0h3m5 0h1m3 0h1m1 0h1m1 0h1m3 0h1m1 0h1m1 0h2m5 0h4m1 0h1m1 0h2m3 0h1m4 0h4M0 24.5h3m1 0h3m1 0h1m1 0h2m2 0h1m2 0h2m2 0h3m3 0h2m2 0h1m1 0h10m2 0h2m1 0h4m1 0h3m1 0h1m2 0h1m3 0h4m5 0h2m1 0h2m1 0h2m2 0h3m2 0h4m1 0h4m2 0h2m1 0h7m2 0h5m1 0h2m1 0h1m1 0h2m2 0h3m1 0h5m1 0h1m2 0h1m1 0h2m1 0h1m2 0h2m1 0h1m2 0h1m1 0h5m2 0h1M0 25.5h2m1 0h1m5 0h1m2 0h1m1 0h1m1 0h1m2 0h1m2 0h1m2 0h2m1 0h2m2 0h3m2 0h1m1 0h2m2 0h3m7 0h1m2 0h1m2 0h2m4 0h1m12 0h2m4 0h3m2 0h1m1 0h1m1 0h2m3 0h4m1 0h2m1 0h1m3 0h1m2 0h1m1 0h2m2 0h1m1 0h2m2 0h2m4 0h1m3 0h3m1 0h3m1 0h2m1 0h1m2 0h2m1 0h2m2 0h1m2 0h4M0 26.5h1m2 0h6m4 0h3m1 0h1m4 0h9m2 0h2m1 0h1m2 0h2m2 0h1m2 0h2m1 0h8m3 0h2m1 0h1m2 0h1m1 0h1m1 0h1m1 0h4m1 0h6m1 0h1m4 0h1m1 0h1m2 0h1m1 0h2m6 0h6m1 0h2m1 0h1m3 0h3m3 0h3m3 0h5m2 0h3m2 0h2m3 0h4m3 0h7M1 27.5h1m1 0h2m3 0h1m5 0h1m1 0h5m1 0h1m3 0h1m3 0h2m1 0h1m1 0h1m1 0h1m2 0h3m2 0h2m1 0h2m1 0h2m3 0h1m2 0h2m2 0h1m2 0h3m2 0h2m3 0h1m1 0h1m3 0h1m2 0h2m5 0h2m2 0h2m3 0h1m2 0h1m3 0h1m1 0h1m2 0h1m3 0h1m1 0h1m3 0h1m1 0h1m3 0h2m3 0h1m3 0h3m3 0h3m5 0h1m2 0h2m3 0h5M1 28.5h1m2 0h1m1 0h1m1 0h1m1 0h1m4 0h2m3 0h1m1 0h1m1 0h1m1 0h1m1 0h1m1 0h1m3 0h1m1 0h1m2 0h6m2 0h4m1 0h1m1 0h1m1 0h1m1 0h2m3 0h1m2 0h1m1 0h2m2 0h1m3 0h3m1 0h1m1 0h4m1 0h2m1 0h1m1 0h2m2 0h2m1 0h1m1 0h2m1 0h1m1 0h1m1 0h2m4 0h3m1 0h1m1 0h1m1 0h1m1 0h1m1 0h1m1 0h1m1 0h1m1 0h1m1 0h1m7 0h3m1 0h6m4 0h1m1 0h1m1 0h1m1 0h1M0 29.5h1m1 0h1m1 0h1m3 0h1m3 0h6m4 0h5m3 0h1m2 0h2m1 0h2m1 0h1m2 0h1m1 0h2m1 0h1m2 0h3m3 0h4m3 0h1m4 0h1m5 0h5m3 0h2m2 0h3m3 0h5m3 0h3m1 0h1m3 0h2m1 0h1m1 0h1m2 0h4m3 0h1m5 0h2m3 0h3m1 0h3m1 0h1m1 0h1m1 0h2m3 0h2m3 0h1m3 0h2m1 0h1M1 30.5h8m2 0h2m1 0h5m1 0h2m1 0h11m1 0h2m1 0h7m1 0h1m2 0h1m1 0h6m1 0h1m1 0h2m1 0h2m1 0h6m1 0h1m3 0h6m1 0h1m1 0h1m6 0h2m3 0h1m5 0h6m4 0h2m1 0h5m2 0h3m1 0h1m1 0h6m1 0h1m1 0h1m1 0h3m4 0h3m2 0h10M0 31.5h1m1 0h2m1 0h1m3 0h4m1 0h3m3 0h3m1 0h5m5 0h1m1 0h1m6 0h1m1 0h1m6 0h2m4 0h1m1 0h1m3 0h2m2 0h2m1 0h1m2 0h3m4 0h3m1 0h1m2 0h3m4 0h2m2 0h1m2 0h1m1 0h1m1 0h1m1 0h4m1 0h4m2 0h1m1 0h1m1 0h1m4 0h3m1 0h3m2 0h4m3 0h4m1 0h1m1 0h2m11 0h1M0 32.5h1m5 0h3m3 0h1m2 0h1m1 0h1m1 0h2m3 0h1m2 0h1m1 0h1m2 0h4m3 0h1m1 0h2m2 0h2m3 0h1m7 0h1m5 0h2m4 0h1m1 0h1m1 0h2m1 0h2m5 0h1m1 0h1m2 0h1m1 0h2m1 0h2m2 0h1m2 0h1m2 0h2m2 0h3m3 0h10m2 0h1m1 0h1m1 0h2m12 0h2m3 0h3m4 0h3m3 0h2M2 33.5h1m1 0h1m2 0h1m2 0h1m3 0h1m3 0h2m1 0h1m4 0h1m2 0h2m3 0h1m1 0h3m3 0h1m2 0h3m2 0h1m1 0h5m1 0h3m3 0h4m1 0h3m2 0h5m1 0h2m2 0h4m2 0h5m2 0h1m1 0h3m3 0h1m2 0h2m1 0h1m1 0h1m1 0h2m2 0h1m3 0h5m1 0h2m1 0h3m1 0h1m1 0h4m1 0h1m5 0h1m1 0h1m1 0h3m1 0h1m1 0h6M0 34.5h1m1 0h6m1 0h1m1 0h1m2 0h1m1 0h1m1 0h4m2 0h3m2 0h1m1 0h1m1 0h3m1 0h3m2 0h1m4 0h1m3 0h1m2 0h1m1 0h1m1 0h2m2 0h1m1 0h7m2 0h1m1 0h1m1 0h6m4 0h1m6 0h1m1 0h3m1 0h4m2 0h1m1 0h2m4 0h2m2 0h4m2 0h3m1 0h1m2 0h1m13 0h1m2 0h6m2 0h1m1 0h1m1 0h3M2 35.5h4m1 0h2m1 0h2m5 0h2m1 0h1m1 0h2m1 0h2m2 0h3m2 0h1m1 0h1m1 0h4m1 0h2m1 0h1m1 0h1m1 0h1m1 0h1m1 0h1m2 0h1m2 0h2m3 0h2m1 0h1m2 0h1m2 0h1m3 0h1m3 0h1m1 0h4m2 0h1m2 0h2m2 0h1m1 0h1m1 0h3m1 0h1m2 0h1m1 0h2m1 0h2m1 0h2m1 0h1m1 0h1m1 0h1m5 0h1m2 0h1m1 0h1m1 0h1m1 0h2m3 0h2m2 0h1m1 0h2m1 0h1m1 0h1m2 0h1m1 0h1m1 0h2M0 36.5h1m1 0h10m2 0h1m2 0h2m4 0h2m2 0h1m1 0h3m3 0h1m2 0h1m1 0h1m2 0h1m1 0h5m3 0h1m3 0h2m1 0h2m2 0h2m2 0h1m2 0h2m2 0h1m1 0h1m1 0h2m1 0h2m1 0h1m1 0h2m2 0h2m3 0h1m2 0h3m2 0h3m1 0h1m1 0h2m2 0h2m2 0h3m1 0h1m1 0h2m2 0h1m1 0h4m2 0h2m4 0h1m2 0h1m2 0h2m1 0h1m1 0h1m3 0h5m2 0h1M1 37.5h1m1 0h3m1 0h3m2 0h1m2 0h2m1 0h1m3 0h1m1 0h1m1 0h1m8 0h1m2 0h1m3 0h2m2 0h2m3 0h2m2 0h1m1 0h1m2 0h4m1 0h1m2 0h3m3 0h3m1 0h2m2 0h1m2 0h2m1 0h1m1 0h2m1 0h1m1 0h1m2 0h1m3 0h1m2 0h3m3 0h1m1 0h1m1 0h3m1 0h1m1 0h1m1 0h1m1 0h1m1 0h1m1 0h1m2 0h3m1 0h1m1 0h3m6 0h1m1 0h1m3 0h3m1 0h1m3 0h4M1 38.5h4m1 0h1m3 0h2m2 0h2m1 0h1m1 0h1m4 0h2m2 0h1m1 0h4m1 0h1m2 0h3m1 0h1m1 0h4m2 0h2m1 0h1m1 0h2m2 0h1m1 0h1m1 0h1m1 0h1m1 0h2m2 0h4m2 0h3m1 0h2m1 0h8m1 0h1m1 0h1m1 0h2m2 0h1m1 0h2m1 0h1m1 0h2m1 0h1m1 0h3m1 0h2m2 0h1m1 0h1m1 0h4m6 0h1m1 0h1m3 0h1m1 0h1m1 0h1m2 0h4m5 0h4m1 0h1M1 39.5h2m1 0h2m2 0h1m2 0h1m1 0h1m1 0h1m1 0h1m2 0h4m1 0h1m2 0h3m1 0h1m2 0h2m2 0h4m3 0h2m1 0h2m1 0h2m3 0h1m3 0h1m1 0h2m1 0h1m1 0h1m1 0h1m1 0h2m4 0h2m1 0h3m2 0h2m1 0h1m3 0h1m1 0h2m6 0h1m1 0h3m2 0h1m2 0h1m2 0h1m3 0h1m8 0h1m1 0h4m1 0h1m1 0h1m5 0h1m2 0h1m1 0h1m1 0h4m8 0h1M0 40.5h1m3 0h3m1 0h3m1 0h1m1 0h1m1 0h1m1 0h2m1 0h1m2 0h3m1 0h3m2 0h1m2 0h1m1 0h3m2 0h6m1 0h1m2 0h1m3 0h1m1 0h1m4 0h2m1 0h1m1 0h5m3 0h2m2 0h1m1 0h1m9 0h1m2 0h2m1 0h2m2 0h5m3 0h1m1 0h2m3 0h2m1 0h2m1 0h1m1 0h1m1 0h1m1 0h2m3 0h1m1 0h1m1 0h1m1 0h2m1 0h2m1 0h2m1 0h2m6 0h1m1 0h1m1 0h1M0 41.5h3m2 0h1m4 0h1m1 0h4m1 0h3m4 0h3m1 0h2m1 0h2m7 0h1m1 0h1m1 0h1m1 0h7m4 0h1m1 0h1m2 0h5m3 0h5m1 0h3m1 0h4m1 0h1m1 0h1m3 0h1m2 0h1m1 0h2m1 0h2m2 0h1m5 0h2m1 0h1m3 0h2m2 0h2m1 0h1m1 0h2m2 0h4m1 0h1m1 0h3m1 0h2m2 0h1m4 0h1m1 0h1m1 0h1m1 0h1m3 0h1m1 0h1m2 0h1M0 42.5h1m1 0h2m1 0h2m2 0h8m1 0h7m4 0h4m1 0h1m2 0h5m1 0h2m1 0h2m3 0h1m2 0h7m1 0h1m1 0h1m1 0h3m1 0h5m3 0h1m1 0h2m4 0h1m2 0h1m4 0h1m1 0h1m2 0h2m3 0h1m1 0h2m3 0h1m1 0h3m1 0h1m3 0h1m1 0h4m4 0h1m1 0h1m1 0h1m2 0h2m1 0h3m1 0h2m1 0h4m1 0h1m2 0h1m1 0h2m1 0h3M1 43.5h2m2 0h1m1 0h1m1 0h1m2 0h2m2 0h4m4 0h3m1 0h1m1 0h1m8 0h3m2 0h4m1 0h1m1 0h1m1 0h1m2 0h2m1 0h1m1 0h4m2 0h4m1 0h2m4 0h1m2 0h1m3 0h1m1 0h1m4 0h2m1 0h4m3 0h1m1 0h2m1 0h1m1 0h2m8 0h2m2 0h1m3 0h4m1 0h1m1 0h1m1 0h6m2 0h2m1 0h1m4 0h3m2 0h4M1 44.5h1m2 0h1m1 0h1m1 0h4m4 0h2m5 0h1m1 0h1m2 0h1m1 0h1m2 0h1m2 0h1m5 0h1m2 0h4m1 0h1m1 0h3m1 0h1m1 0h2m1 0h1m4 0h2m1 0h3m10 0h4m2 0h5m3 0h1m1 0h3m2 0h2m3 0h1m4 0h2m3 0h2m1 0h2m1 0h2m2 0h1m1 0h1m2 0h1m8 0h2m1 0h4m2 0h1m1 0h1m2 0h1m3 0h2m1 0h1M0 45.5h1m1 0h4m1 0h2m4 0h1m2 0h1m1 0h1m2 0h1m3 0h2m1 0h2m1 0h6m2 0h1m2 0h1m1 0h3m3 0h1m3 0h1m2 0h2m2 0h2m2 0h3m1 0h1m2 0h5m1 0h1m2 0h5m1 0h2m2 0h1m1 0h1m1 0h3m5 0h1m5 0h1m2 0h1m2 0h7m5 0h1m5 0h1m1 0h2m1 0h5m1 0h1m4 0h2m1 0h1m2 0h3m1 0h1m3 0h2M4 46.5h3m1 0h1m1 0h2m1 0h1m3 0h4m4 0h2m1 0h1m2 0h5m2 0h2m2 0h4m1 0h2m1 0h4m1 0h3m4 0h2m2 0h1m3 0h1m3 0h1m1 0h1m1 0h1m2 0h2m1 0h1m4 0h2m2 0h4m1 0h6m1 0h1m1 0h2m2 0h1m2 0h2m2 0h2m1 0h1m1 0h1m1 0h3m1 0h1m1 0h3m11 0h2m1 0h3m5 0h1m1 0h6M0 47.5h1m1 0h1m2 0h1m4 0h1m2 0h3m2 0h1m1 0h6m1 0h7m4 0h1m1 0h4m3 0h1m3 0h4m1 0h1m1 0h3m1 0h1m2 0h4m1 0h6m3 0h3m1 0h1m5 0h2m1 0h2m1 0h2m2 0h2m2 0h1m3 0h1m1 0h3m3 0h1m1 0h2m1 0h1m3 0h1m2 0h1m1 0h4m1 0h1m1 0h1m1 0h2m1 0h1m1 0h3m6 0h4m2 0h2m3 0h2M1 48.5h2m1 0h1m1 0h3m1 0h2m3 0h1m2 0h3m2 0h3m1 0h2m1 0h2m2 0h1m1 0h2m1 0h1m8 0h1m2 0h1m1 0h1m2 0h4m2 0h4m1 0h1m2 0h1m1 0h1m3 0h3m1 0h4m1 0h1m1 0h1m1 0h4m2 0h2m2 0h1m1 0h2m1 0h1m1 0h1m1 0h2m1 0h1m1 0h2m4 0h1m1 0h6m1 0h1m1 0h1m2 0h3m1 0h1m2 0h1m1 0h2m2 0h1m3 0h1m3 0h1m2 0h1m2 0h2m1 0h2M0 49.5h1m1 0h2m1 0h1m1 0h2m1 0h2m1 0h2m1 0h1m3 0h1m1 0h1m1 0h1m1 0h4m1 0h3m3 0h1m2 0h2m3 0h1m1 0h1m2 0h3m1 0h3m3 0h3m1 0h4m1 0h4m1 0h2m2 0h2m4 0h2m3 0h1m1 0h1m1 0h1m1 0h1m1 0h1m1 0h1m3 0h3m3 0h1m1 0h1m1 0h1m1 0h3m2 0h2m5 0h1m1 0h1m1 0h1m1 0h2m1 0h2m1 0h3m2 0h1m2 0h1m1 0h3m3 0h3m6 0h1M0 50.5h3m2 0h3m2 0h2m2 0h1m2 0h1m4 0h1m3 0h1m3 0h1m1 0h1m2 0h2m2 0h3m2 0h2m2 0h1m1 0h1m2 0h1m2 0h5m2 0h9m1 0h1m3 0h3m2 0h1m1 0h2m3 0h1m1 0h1m1 0h3m3 0h4m1 0h1m1 0h2m1 0h1m1 0h1m1 0h1m7 0h2m1 0h1m1 0h1m2 0h1m3 0h1m1 0h1m2 0h1m3 0h2m1 0h6m5 0h3m2 0h2M0 51.5h2m6 0h2m1 0h1m1 0h2m4 0h1m4 0h2m3 0h3m1 0h2m1 0h1m3 0h5m2 0h1m3 0h1m1 0h3m1 0h1m2 0h1m9 0h3m1 0h1m4 0h1m1 0h3m6 0h2m1 0h1m1 0h1m1 0h2m1 0h3m1 0h1m1 0h4m1 0h1m1 0h1m2 0h1m2 0h3m1 0h1m1 0h1m2 0h1m2 0h4m1 0h1m1 0h2m1 0h1m2 0h1m6 0h2m1 0h1m1 0h2m1 0h1m1 0h1M0 52.5h1m3 0h5m1 0h2m1 0h3m1 0h1m1 0h4m3 0h5m1 0h1m2 0h1m2 0h1m1 0h1m2 0h2m3 0h2m2 0h6m3 0h1m2 0h2m1 0h5m3 0h1m2 0h10m2 0h1m2 0h2m3 0h2m1 0h2m1 0h5m2 0h5m1 0h2m1 0h1m1 0h7m1 0h6m6 0h1m1 0h3m1 0h1m1 0h1m4 0h6m1 0h3M0 53.5h1m2 0h2m3 0h2m1 0h3m2 0h2m2 0h3m1 0h3m3 0h1m4 0h1m2 0h3m2 0h1m1 0h1m1 0h3m2 0h1m3 0h2m2 0h1m1 0h2m5 0h5m1 0h2m1 0h1m3 0h2m5 0h2m1 0h2m2 0h4m1 0h1m2 0h1m3 0h2m2 0h1m2 0h3m3 0h2m7 0h1m3 0h1m1 0h2m1 0h3m2 0h2m1 0h2m3 0h2m1 0h2m3 0h1m3 0h1M0 54.5h1m3 0h1m1 0h1m1 0h1m1 0h1m2 0h2m1 0h1m5 0h2m2 0h1m1 0h1m1 0h1m2 0h3m3 0h1m1 0h2m1 0h1m1 0h2m4 0h1m1 0h1m1 0h1m1 0h1m1 0h1m5 0h1m1 0h1m2 0h1m2 0h2m2 0h1m1 0h1m1 0h3m1 0h1m2 0h1m1 0h1m2 0h1m3 0h2m3 0h2m1 0h1m1 0h4m1 0h1m7 0h3m2 0h2m1 0h2m1 0h1m1 0h2m1 0h1m1 0h1m2 0h2m1 0h2m1 0h1m1 0h1m4 0h2m1 0h1m1 0h1m1 0h2M0 55.5h1m1 0h1m1 0h1m3 0h1m3 0h1m2 0h1m2 0h2m1 0h2m1 0h1m1 0h1m3 0h1m2 0h4m4 0h2m2 0h1m2 0h2m1 0h2m3 0h2m3 0h1m4 0h1m1 0h1m2 0h2m2 0h1m2 0h1m3 0h1m3 0h1m6 0h7m4 0h1m3 0h2m1 0h4m4 0h3m1 0h1m1 0h1m3 0h2m3 0h6m1 0h1m2 0h2m3 0h1m2 0h3m1 0h1m3 0h2m2 0h1M3 56.5h6m1 0h2m1 0h2m2 0h2m2 0h1m1 0h8m1 0h2m4 0h1m1 0h3m1 0h1m2 0h2m1 0h8m2 0h2m1 0h1m2 0h1m1 0h4m1 0h2m3 0h5m6 0h4m1 0h1m2 0h2m5 0h5m1 0h2m1 0h3m1 0h6m1 0h1m1 0h3m1 0h5m2 0h1m2 0h1m1 0h3m1 0h2m2 0h2m1 0h1m2 0h5m1 0h1M0 57.5h5m2 0h5m3 0h4m1 0h2m2 0h3m1 0h2m2 0h1m3 0h1m2 0h1m2 0h4m5 0h1m1 0h5m5 0h4m3 0h9m2 0h1m2 0h1m2 0h2m5 0h2m4 0h1m1 0h2m2 0h1m1 0h2m1 0h3m2 0h1m2 0h2m8 0h3m3 0h2m2 0h1m1 0h1m1 0h2m2 0h1m5 0h8m1 0h3M0 58.5h1m1 0h1m1 0h1m1 0h1m1 0h1m2 0h4m1 0h2m1 0h4m3 0h1m1 0h3m1 0h3m5 0h1m2 0h1m1 0h1m2 0h1m1 0h4m1 0h1m2 0h1m2 0h2m1 0h1m3 0h3m1 0h1m1 0h5m1 0h1m2 0h3m1 0h1m1 0h3m1 0h1m5 0h1m5 0h1m3 0h2m4 0h1m2 0h1m6 0h2m1 0h2m1 0h1m1 0h2m6 0h1m3 0h1m1 0h5m4 0h2m4 0h1M3 59.5h3m3 0h1m3 0h5m3 0h2m2 0h1m1 0h1m1 0h2m1 0h3m4 0h8m1 0h2m1 0h5m1 0h1m2 0h2m1 0h1m1 0h1m2 0h4m1 0h2m1 0h2m1 0h1m3 0h1m1 0h2m3 0h2m1 0h1m1 0h1m1 0h2m1 0h3m2 0h3m1 0h1m7 0h1m1 0h3m3 0h1m1 0h1m1 0h3m1 0h1m2 0h1m1 0h2m1 0h1m1 0h3m1 0h1m3 0h5m2 0h4m1 0h1M3 60.5h1m2 0h1m1 0h2m3 0h1m1 0h4m1 0h1m1 0h1m1 0h2m1 0h2m4 0h1m4 0h4m1 0h1m4 0h6m6 0h2m4 0h2m2 0h4m2 0h1m2 0h1m1 0h1m2 0h2m2 0h2m2 0h1m1 0h4m2 0h1m5 0h1m1 0h1m1 0h2m2 0h1m2 0h4m1 0h4m1 0h2m2 0h2m1 0h1m1 0h1m5 0h1m1 0h1m1 0h3m1 0h1m2 0h1m2 0h1m1 0h1m3 0h2M0 61.5h1m2 0h1m3 0h2m2 0h2m8 0h1m1 0h2m2 0h1m3 0h2m6 0h1m1 0h1m1 0h1m4 0h3m1 0h2m2 0h2m1 0h1m3 0h9m1 0h5m1 0h2m5 0h1m4 0h1m2 0h3m2 0h1m1 0h1m1 0h2m2 0h1m1 0h1m2 0h2m2 0h2m3 0h2m3 0h1m2 0h3m2 0h6m1 0h1m1 0h2m2 0h1m2 0h1m1 0h1m2 0h2m3 0h1m1 0h1m1 0h1M1 62.5h1m1 0h1m1 0h3m8 0h1m1 0h1m2 0h3m1 0h2m1 0h2m3 0h2m1 0h2m1 0h7m1 0h1m1 0h7m1 0h1m1 0h1m1 0h1m1 0h1m1 0h1m1 0h2m1 0h3m1 0h3m1 0h5m5 0h1m1 0h2m1 0h2m5 0h1m3 0h2m1 0h2m1 0h2m3 0h1m1 0h1m3 0h1m1 0h2m2 0h1m3 0h1m5 0h2m3 0h1m3 0h6m1 0h1m1 0h2m5 0h2M0 63.5h1m1 0h2m3 0h4m4 0h1m1 0h1m1 0h3m6 0h2m3 0h3m3 0h4m1 0h1m1 0h1m1 0h2m1 0h1m1 0h3m2 0h3m1 0h2m2 0h1m1 0h1m1 0h1m2 0h1m1 0h1m3 0h1m4 0h1m1 0h1m1 0h2m2 0h1m1 0h2m1 0h1m2 0h2m1 0h2m1 0h4m3 0h1m2 0h1m2 0h3m1 0h1m1 0h3m1 0h1m1 0h1m1 0h1m3 0h3m3 0h2m4 0h2m3 0h2m1 0h5m1 0h1M0 64.5h3m1 0h3m5 0h1m2 0h3m1 0h1m2 0h1m1 0h1m3 0h1m2 0h11m1 0h1m1 0h1m3 0h1m5 0h2m1 0h1m1 0h1m2 0h1m2 0h2m1 0h1m1 0h1m1 0h3m1 0h1m1 0h1m1 0h2m1 0h2m1 0h2m3 0h3m1 0h3m2 0h1m4 0h3m1 0h1m2 0h2m2 0h1m1 0h2m1 0h4m2 0h1m3 0h5m4 0h2m2 0h2m2 0h1m1 0h1m1 0h1m2 0h2m1 0h1m2 0h1M0 65.5h1m2 0h2m2 0h1m3 0h1m2 0h1m6 0h3m2 0h2m4 0h2m1 0h4m6 0h1m4 0h2m3 0h1m4 0h4m4 0h1m2 0h1m1 0h1m2 0h8m4 0h1m1 0h2m1 0h1m2 0h1m1 0h3m1 0h1m6 0h2m1 0h2m2 0h1m2 0h3m4 0h2m2 0h1m4 0h2m2 0h1m1 0h1m2 0h1m3 0h6m1 0h2m1 0h5m1 0h1M0 66.5h2m4 0h1m4 0h1m1 0h4m4 0h1m1 0h1m2 0h1m2 0h3m1 0h8m1 0h2m1 0h1m1 0h1m1 0h3m1 0h2m1 0h1m1 0h3m2 0h4m1 0h3m1 0h3m2 0h1m1 0h5m5 0h1m5 0h4m1 0h3m6 0h3m5 0h1m3 0h2m8 0h2m1 0h1m3 0h3m2 0h1m2 0h2m1 0h2m11 0h2M3 67.5h2m2 0h2m5 0h1m3 0h1m1 0h1m2 0h1m1 0h1m6 0h6m4 0h1m4 0h1m1 0h1m1 0h1m4 0h1m3 0h1m1 0h1m1 0h1m2 0h1m1 0h1m1 0h2m2 0h1m2 0h1m3 0h1m2 0h1m2 0h6m1 0h2m3 0h1m7 0h1m5 0h1m4 0h3m3 0h2m1 0h1m2 0h1m1 0h1m2 0h3m4 0h3m2 0h1m3 0h4m1 0h2m2 0h1m1 0h1M2 68.5h1m2 0h3m2 0h2m4 0h2m1 0h4m1 0h1m1 0h1m1 0h2m6 0h1m1 0h4m1 0h1m1 0h2m2 0h2m4 0h2m1 0h1m2 0h2m1 0h1m5 0h2m2 0h1m1 0h1m1 0h3m1 0h2m1 0h2m6 0h1m1 0h1m1 0h2m3 0h1m1 0h4m2 0h2m2 0h4m1 0h6m3 0h1m2 0h2m1 0h2m3 0h1m1 0h7m2 0h2m1 0h1m2 0h1m1 0h1m2 0h3M0 69.5h4m4 0h1m1 0h1m2 0h1m1 0h1m1 0h2m1 0h1m1 0h1m1 0h2m1 0h2m2 0h3m1 0h1m2 0h1m3 0h4m1 0h1m4 0h2m1 0h3m4 0h1m1 0h1m3 0h8m1 0h2m2 0h4m2 0h1m2 0h1m6 0h1m3 0h3m2 0h2m4 0h1m3 0h1m2 0h2m6 0h1m2 0h3m1 0h1m1 0h1m1 0h2m1 0h2m3 0h1m2 0h2m1 0h3m2 0h1m2 0h5M0 70.5h1m5 0h1m4 0h1m2 0h3m2 0h3m6 0h1m3 0h1m1 0h2m2 0h1m1 0h4m3 0h1m1 0h1m3 0h2m1 0h3m1 0h1m1 0h1m1 0h1m1 0h1m1 0h3m1 0h2m1 0h4m1 0h2m3 0h1m4 0h2m1 0h1m2 0h3m6 0h4m1 0h2m5 0h2m4 0h1m3 0h3m3 0h1m3 0h1m1 0h2m2 0h1m2 0h2m1 0h3m3 0h2m2 0h1m1 0h2M0 71.5h2m1 0h1m6 0h1m3 0h1m1 0h1m1 0h3m1 0h1m1 0h1m1 0h1m7 0h3m2 0h1m1 0h1m1 0h4m1 0h1m4 0h1m1 0h3m1 0h1m1 0h3m1 0h1m2 0h1m3 0h1m2 0h3m1 0h4m2 0h2m1 0h1m5 0h3m1 0h4m1 0h6m4 0h3m1 0h1m1 0h3m3 0h5m5 0h4m5 0h1m2 0h2m2 0h1m1 0h2m2 0h2m2 0h3M1 72.5h1m1 0h1m1 0h3m1 0h2m1 0h2m1 0h2m2 0h5m2 0h2m1 0h1m2 0h2m1 0h2m2 0h2m2 0h1m1 0h1m1 0h2m1 0h1m2 0h2m1 0h2m2 0h1m2 0h1m1 0h2m1 0h1m3 0h2m2 0h2m1 0h2m1 0h3m3 0h3m1 0h1m2 0h2m2 0h1m2 0h4m2 0h1m1 0h1m2 0h3m3 0h2m1 0h1m1 0h2m1 0h2m2 0h4m1 0h1m4 0h2m3 0h1m3 0h1m1 0h1m2 0h3m1 0h3m1 0h1M1 73.5h1m1 0h1m3 0h2m1 0h2m7 0h7m2 0h5m2 0h1m3 0h3m1 0h2m1 0h1m1 0h4m1 0h2m1 0h3m2 0h1m9 0h2m1 0h1m1 0h1m1 0h1m1 0h3m2 0h2m2 0h1m5 0h1m2 0h2m1 0h2m1 0h5m3 0h1m2 0h4m2 0h1m1 0h1m2 0h2m2 0h4m2 0h1m1 0h1m2 0h1m1 0h2m2 0h1m2 0h1m1 0h4m4 0h5M6 74.5h1m1 0h1m1 0h2m1 0h1m1 0h1m1 0h2m4 0h2m1 0h1m3 0h2m4 0h1m1 0h5m1 0h2m1 0h1m7 0h1m4 0h3m1 0h2m2 0h2m3 0h6m6 0h2m1 0h1m2 0h1m1 0h1m1 0h1m2 0h1m2 0h1m2 0h3m4 0h1m1 0h3m3 0h1m3 0h4m1 0h2m2 0h1m1 0h1m3 0h1m1 0h3m2 0h1m3 0h3m3 0h1m3 0h1m2 0h1M1 75.5h1m5 0h2m6 0h5m3 0h2m1 0h1m3 0h2m4 0h1m1 0h1m3 0h4m1 0h3m2 0h1m1 0h4m2 0h2m1 0h3m3 0h3m1 0h3m1 0h1m1 0h1m1 0h4m1 0h1m2 0h4m1 0h1m1 0h1m2 0h1m3 0h1m9 0h1m2 0h2m2 0h1m4 0h6m2 0h1m1 0h2m1 0h2m3 0h3m2 0h1m3 0h4m1 0h2m1 0h1m3 0h1M2 76.5h3m1 0h7m3 0h1m5 0h4m3 0h1m2 0h1m1 0h1m1 0h1m3 0h1m3 0h2m1 0h2m2 0h1m1 0h6m4 0h1m1 0h3m2 0h2m2 0h2m2 0h1m1 0h1m1 0h2m1 0h2m1 0h2m3 0h1m3 0h1m1 0h2m1 0h3m1 0h5m2 0h2m2 0h1m3 0h2m1 0h1m3 0h1m2 0h2m1 0h2m2 0h3m1 0h1m3 0h2m1 0h2m4 0h3m1 0h1m2 0h1M0 77.5h1m2 0h3m1 0h1m2 0h8m1 0h1m2 0h4m1 0h1m3 0h2m4 0h2m2 0h2m2 0h5m1 0h2m2 0h3m1 0h1m1 0h4m2 0h2m2 0h2m2 0h2m2 0h2m2 0h1m2 0h1m1 0h2m2 0h1m4 0h1m1 0h3m1 0h4m1 0h1m3 0h1m3 0h1m1 0h1m1 0h2m3 0h3m1 0h4m2 0h2m1 0h2m1 0h1m1 0h5m3 0h3m3 0h5m2 0h1M0 78.5h14m2 0h1m3 0h3m1 0h7m2 0h1m1 0h2m2 0h4m1 0h1m1 0h3m1 0h1m1 0h6m1 0h2m1 0h2m1 0h1m3 0h1m3 0h2m3 0h5m1 0h1m1 0h1m3 0h4m1 0h2m2 0h1m2 0h8m3 0h3m1 0h1m1 0h1m2 0h3m1 0h2m1 0h6m2 0h1m2 0h1m2 0h1m1 0h7m1 0h1m2 0h8M4 79.5h1m3 0h2m7 0h2m2 0h2m1 0h3m3 0h1m1 0h2m1 0h1m1 0h2m2 0h2m1 0h1m1 0h2m4 0h1m3 0h1m1 0h1m1 0h6m2 0h3m1 0h1m2 0h1m1 0h2m3 0h2m1 0h2m6 0h1m4 0h1m3 0h1m1 0h1m3 0h1m3 0h1m1 0h1m5 0h2m1 0h1m1 0h3m2 0h1m3 0h2m1 0h3m4 0h2m1 0h2m2 0h1m1 0h2m1 0h1m3 0h1M1 80.5h1m2 0h1m1 0h1m1 0h4m1 0h2m1 0h1m3 0h2m2 0h3m1 0h1m1 0h3m1 0h2m3 0h2m1 0h3m1 0h1m1 0h1m1 0h1m1 0h1m1 0h1m1 0h2m3 0h1m2 0h1m4 0h1m2 0h2m1 0h1m1 0h2m1 0h1m1 0h1m3 0h1m3 0h1m4 0h1m3 0h1m3 0h2m1 0h1m1 0h3m1 0h1m1 0h1m5 0h1m1 0h1m1 0h1m3 0h3m1 0h1m1 0h1m2 0h1m4 0h1m3 0h1m2 0h2m1 0h2m2 0h1m1 0h1m1 0h2m1 0h1M1 81.5h4m3 0h1m4 0h2m4 0h1m2 0h5m3 0h6m3 0h7m1 0h3m2 0h1m3 0h1m2 0h2m2 0h2m2 0h4m4 0h1m2 0h1m3 0h1m1 0h1m1 0h1m1 0h2m1 0h1m3 0h1m1 0h3m2 0h3m3 0h1m4 0h1m1 0h7m4 0h1m3 0h1m3 0h1m1 0h6m2 0h2m3 0h1m1 0h2m2 0h2m3 0h1m1 0h1m1 0h1M0 82.5h1m2 0h6m1 0h2m1 0h3m1 0h2m1 0h3m1 0h10m1 0h5m2 0h2m1 0h4m2 0h6m2 0h2m3 0h1m5 0h3m3 0h1m1 0h6m1 0h5m8 0h4m2 0h5m5 0h2m1 0h1m2 0h1m1 0h1m3 0h1m2 0h7m4 0h1m1 0h1m13 0h5m1 0h2M1 83.5h5m5 0h1m5 0h1m3 0h1m1 0h1m5 0h5m1 0h3m1 0h3m3 0h3m4 0h2m1 0h2m1 0h3m3 0h1m3 0h3m1 0h1m1 0h3m3 0h4m1 0h2m1 0h1m1 0h1m2 0h2m2 0h4m2 0h5m1 0h1m3 0h1m1 0h1m5 0h1m2 0h1m1 0h1m3 0h1m2 0h3m2 0h2m3 0h3m2 0h2m2 0h3m1 0h2M0 84.5h1m1 0h2m1 0h2m1 0h1m4 0h2m1 0h4m1 0h6m1 0h2m1 0h1m7 0h2m2 0h4m1 0h1m3 0h3m2 0h2m2 0h1m1 0h1m2 0h2m3 0h1m2 0h2m2 0h3m2 0h1m2 0h2m1 0h1m2 0h4m1 0h1m1 0h1m1 0h2m3 0h1m3 0h1m2 0h3m3 0h1m2 0h1m2 0h1m1 0h2m2 0h1m7 0h4m1 0h1m1 0h1m3 0h1m3 0h7m1 0h1M0 85.5h2m1 0h2m3 0h3m1 0h3m2 0h1m4 0h1m1 0h1m1 0h1m1 0h2m1 0h2m2 0h2m2 0h3m1 0h1m1 0h2m1 0h1m1 0h2m2 0h1m3 0h1m1 0h1m1 0h2m2 0h5m2 0h1m2 0h1m1 0h3m1 0h5m3 0h1m1 0h3m5 0h1m4 0h5m1 0h2m2 0h1m1 0h2m1 0h1m5 0h2m2 0h1m1 0h3m1 0h3m4 0h2m2 0h3m1 0h3m1 0h2m2 0h1m4 0h1M0 86.5h1m2 0h2m1 0h2m4 0h2m1 0h4m2 0h1m2 0h1m3 0h3m1 0h2m2 0h1m1 0h1m1 0h1m1 0h1m1 0h2m1 0h3m2 0h1m1 0h3m3 0h1m1 0h12m2 0h1m4 0h4m3 0h1m1 0h2m1 0h1m1 0h3m3 0h3m3 0h3m4 0h1m1 0h1m2 0h2m6 0h4m1 0h2m1 0h1m1 0h1m1 0h2m1 0h2m1 0h1m1 0h1m7 0h1m2 0h1m1 0h1m1 0h1M10 87.5h7m1 0h5m1 0h1m1 0h1m1 0h1m2 0h1m3 0h1m1 0h2m5 0h9m3 0h1m1 0h1m2 0h2m3 0h1m1 0h4m1 0h1m2 0h1m2 0h2m1 0h1m1 0h3m1 0h1m1 0h2m1 0h1m1 0h1m1 0h2m1 0h5m2 0h2m2 0h1m3 0h1m1 0h4m5 0h1m7 0h2m2 0h1m5 0h2m2 0h2m2 0h3m1 0h1m2 0h1m1 0h1m1 0h1M0 88.5h1m1 0h2m1 0h2m1 0h1m6 0h1m1 0h1m2 0h6m1 0h1m4 0h1m1 0h2m1 0h3m1 0h4m5 0h1m2 0h3m1 0h5m1 0h5m6 0h6m3 0h1m1 0h3m2 0h1m1 0h1m1 0h4m2 0h3m2 0h2m1 0h4m2 0h2m1 0h1m4 0h1m1 0h2m1 0h1m2 0h2m1 0h1m1 0h3m3 0h6m3 0h2m2 0h3m1 0h1m4 0h1M0 89.5h1m4 0h1m2 0h1m1 0h1m1 0h1m3 0h1m1 0h7m2 0h5m1 0h1m1 0h1m2 0h3m2 0h2m2 0h1m3 0h13m1 0h1m1 0h1m1 0h1m4 0h3m1 0h3m3 0h2m1 0h5m3 0h2m4 0h1m1 0h5m1 0h1m1 0h2m5 0h1m1 0h1m6 0h1m4 0h7m1 0h2m1 0h2m2 0h2m1 0h5m1 0h4m4 0h1M0 90.5h1m3 0h1m1 0h1m1 0h2m1 0h1m1 0h3m1 0h3m1 0h2m2 0h2m3 0h1m1 0h5m1 0h1m1 0h1m2 0h2m1 0h1m2 0h2m5 0h1m6 0h1m1 0h1m4 0h3m3 0h1m6 0h3m1 0h3m4 0h2m2 0h1m5 0h2m3 0h2m3 0h3m5 0h5m2 0h1m1 0h2m6 0h2m2 0h1m1 0h1m1 0h1m7 0h1m4 0h1m1 0h2M0 91.5h1m2 0h3m6 0h1m2 0h2m2 0h2m1 0h2m2 0h1m3 0h1m1 0h4m1 0h2m1 0h1m2 0h2m2 0h1m3 0h2m3 0h1m1 0h1m1 0h2m3 0h2m1 0h6m2 0h1m2 0h1m1 0h1m1 0h2m1 0h5m5 0h2m2 0h3m6 0h1m7 0h2m4 0h1m1 0h4m3 0h3m6 0h1m2 0h1m2 0h4m1 0h1m1 0h1m2 0h1m1 0h1m1 0h1m1 0h2M3 92.5h4m1 0h1m2 0h3m2 0h2m1 0h2m2 0h2m3 0h2m1 0h6m1 0h1m1 0h2m1 0h6m3 0h1m1 0h2m4 0h1m1 0h6m2 0h4m1 0h1m1 0h2m1 0h2m3 0h1m4 0h4m1 0h5m2 0h3m2 0h2m1 0h2m1 0h2m1 0h2m3 0h4m2 0h5m2 0h1m2 0h1m1 0h2m1 0h6m3 0h1m1 0h1m1 0h2m1 0h1m2 0h3M0 93.5h2m1 0h1m1 0h1m1 0h3m1 0h5m2 0h2m2 0h1m1 0h2m3 0h3m2 0h2m1 0h3m2 0h3m2 0h1m2 0h1m1 0h3m1 0h6m4 0h1m1 0h3m5 0h1m1 0h2m3 0h4m1 0h3m3 0h1m2 0h3m1 0h2m1 0h1m1 0h2m1 0h1m1 0h3m1 0h1m2 0h1m1 0h1m2 0h1m2 0h1m2 0h1m2 0h1m2 0h4m2 0h2m5 0h1m1 0h1m1 0h1m5 0h1m5 0h1M0 94.5h1m1 0h3m1 0h2m1 0h1m1 0h1m2 0h2m1 0h1m1 0h1m1 0h2m2 0h2m2 0h1m1 0h1m2 0h2m2 0h1m4 0h1m2 0h2m1 0h1m1 0h1m1 0h2m1 0h1m1 0h2m2 0h4m2 0h2m1 0h1m6 0h3m4 0h1m1 0h1m3 0h1m2 0h1m2 0h5m1 0h2m2 0h4m3 0h3m2 0h1m2 0h4m3 0h1m1 0h2m1 0h1m4 0h2m4 0h1m5 0h1m3 0h2m1 0h3m1 0h1M2 95.5h2m1 0h1m1 0h2m3 0h1m1 0h1m1 0h1m2 0h2m5 0h1m2 0h2m1 0h1m4 0h3m1 0h2m1 0h1m1 0h1m3 0h2m1 0h2m1 0h2m1 0h2m1 0h1m2 0h2m4 0h2m1 0h2m1 0h1m1 0h2m1 0h5m1 0h4m1 0h2m2 0h1m3 0h4m3 0h2m1 0h2m1 0h1m6 0h1m4 0h2m2 0h1m1 0h5m1 0h1m4 0h2m3 0h3m2 0h2m1 0h2m3 0h1M2 96.5h2m1 0h2m2 0h2m1 0h1m1 0h2m1 0h1m2 0h3m1 0h3m1 0h1m1 0h1m2 0h6m2 0h1m2 0h4m7 0h1m2 0h2m1 0h1m4 0h3m1 0h1m2 0h1m2 0h1m1 0h1m2 0h2m3 0h1m1 0h2m2 0h1m1 0h2m1 0h3m4 0h1m1 0h3m1 0h2m1 0h4m7 0h2m1 0h3m1 0h1m1 0h3m1 0h1m1 0h1m1 0h2m1 0h3m2 0h1m2 0h1m4 0h2m2 0h4M0 97.5h1m2 0h1m5 0h1m1 0h5m2 0h1m2 0h4m1 0h3m2 0h2m2 0h1m2 0h1m1 0h2m1 0h1m2 0h2m3 0h2m1 0h2m3 0h1m1 0h1m4 0h1m1 0h4m3 0h1m1 0h5m4 0h2m1 0h3m1 0h1m1 0h5m4 0h2m3 0h1m1 0h2m2 0h1m2 0h3m1 0h2m2 0h1m3 0h1m1 0h2m2 0h4m1 0h1m2 0h1m2 0h2m1 0h4m5 0h2m3 0h1M1 98.5h2m3 0h1m3 0h4m1 0h1m3 0h1m1 0h3m1 0h2m3 0h4m2 0h3m1 0h3m1 0h1m4 0h1m5 0h1m2 0h1m4 0h1m2 0h2m1 0h3m1 0h1m1 0h1m1 0h4m3 0h5m2 0h1m3 0h1m1 0h2m1 0h1m3 0h1m2 0h1m2 0h1m2 0h1m1 0h2m1 0h3m1 0h3m2 0h2m2 0h2m1 0h2m3 0h5m3 0h1m1 0h2m2 0h1m1 0h2m1 0h1m1 0h1m1 0h2M0 99.5h1m1 0h1m2 0h1m1 0h1m1 0h1m2 0h1m1 0h3m3 0h1m7 0h2m3 0h1m2 0h2m2 0h3m3 0h2m3 0h1m1 0h1m1 0h2m2 0h3m1 0h3m5 0h2m1 0h1m1 0h1m1 0h4m1 0h2m1 0h3m2 0h1m1 0h1m1 0h3m2 0h1m2 0h1m1 0h1m1 0h1m1 0h1m2 0h3m2 0h1m1 0h2m4 0h3m2 0h7m1 0h1m2 0h1m1 0h2m2 0h5m2 0h1m6 0h1m1 0h1M0 100.5h7m1 0h2m4 0h2m2 0h1m2 0h2m1 0h1m2 0h1m4 0h2m2 0h2m1 0h3m1 0h1m2 0h1m3 0h1m1 0h1m1 0h1m2 0h2m1 0h2m1 0h4m1 0h3m1 0h1m4 0h2m7 0h1m7 0h1m1 0h5m3 0h3m3 0h1m2 0h3m5 0h5m1 0h2m5 0h2m1 0h1m2 0h4m1 0h3m8 0h1m1 0h1m1 0h1m1 0h2M2 101.5h4m4 0h2m1 0h3m2 0h2m1 0h3m1 0h1m1 0h2m1 0h3m3 0h1m1 0h1m1 0h2m4 0h2m4 0h4m1 0h2m8 0h1m1 0h2m1 0h1m1 0h1m2 0h4m1 0h1m2 0h2m2 0h1m1 0h1m1 0h2m1 0h2m2 0h1m2 0h1m2 0h2m1 0h5m5 0h2m5 0h1m2 0h1m1 0h2m3 0h4m4 0h2m1 0h4m1 0h1m2 0h1m4 0h1m1 0h1m1 0h1M1 102.5h1m1 0h4m2 0h2m2 0h3m1 0h1m1 0h1m1 0h1m1 0h1m3 0h1m4 0h1m1 0h1m1 0h1m1 0h2m2 0h1m2 0h3m2 0h1m1 0h3m2 0h1m1 0h1m1 0h1m1 0h1m2 0h1m2 0h2m1 0h2m1 0h1m1 0h1m6 0h1m1 0h1m1 0h1m1 0h2m1 0h4m2 0h2m2 0h2m2 0h1m1 0h1m4 0h1m1 0h2m1 0h3m2 0h1m2 0h3m2 0h3m2 0h1m1 0h2m1 0h2m5 0h1m1 0h1m3 0h3m2 0h1m1 0h2M1 103.5h1m3 0h1m1 0h3m3 0h1m1 0h3m2 0h1m2 0h3m5 0h1m1 0h2m3 0h2m1 0h1m3 0h1m1 0h1m1 0h1m2 0h2m4 0h1m2 0h3m2 0h4m1 0h2m2 0h1m1 0h4m1 0h2m2 0h2m1 0h2m1 0h1m3 0h1m2 0h1m2 0h4m2 0h1m3 0h4m1 0h2m1 0h1m4 0h3m1 0h1m1 0h2m1 0h1m1 0h3m4 0h3m1 0h2m1 0h1m1 0h3m1 0h1m2 0h1m1 0h1m1 0h2M0 104.5h3m1 0h6m1 0h5m4 0h3m2 0h6m1 0h2m4 0h5m1 0h2m2 0h3m1 0h5m1 0h3m1 0h1m1 0h3m6 0h1m2 0h1m1 0h5m2 0h1m3 0h1m1 0h1m2 0h2m3 0h3m2 0h5m1 0h5m6 0h2m1 0h1m2 0h9m2 0h1m1 0h5m1 0h1m2 0h1m2 0h1m3 0h5M4 105.5h1m3 0h1m3 0h2m1 0h2m1 0h1m1 0h5m1 0h1m3 0h2m2 0h1m1 0h1m1 0h1m3 0h2m1 0h8m3 0h5m1 0h1m2 0h1m1 0h1m1 0h1m4 0h5m3 0h1m1 0h2m1 0h1m1 0h2m5 0h5m2 0h2m3 0h3m1 0h2m1 0h1m1 0h5m1 0h1m6 0h1m3 0h2m2 0h4m8 0h2m1 0h1m2 0h1m3 0h5M1 106.5h1m1 0h2m1 0h1m1 0h2m1 0h1m5 0h2m5 0h3m1 0h1m1 0h1m1 0h1m1 0h2m2 0h1m1 0h3m1 0h1m3 0h1m1 0h3m1 0h1m1 0h1m1 0h3m3 0h1m1 0h5m1 0h1m1 0h1m1 0h3m1 0h1m1 0h1m3 0h2m1 0h1m1 0h1m3 0h4m2 0h1m1 0h2m1 0h1m1 0h1m2 0h1m2 0h1m1 0h2m4 0h1m1 0h1m2 0h1m1 0h2m1 0h1m1 0h1m1 0h2m2 0h4m1 0h1m1 0h1m2 0h2m3 0h2m1 0h1m1 0h3M0 107.5h1m2 0h2m3 0h1m4 0h4m1 0h1m5 0h1m1 0h1m3 0h2m2 0h3m1 0h1m1 0h1m2 0h1m2 0h2m3 0h2m3 0h2m2 0h5m1 0h2m1 0h2m4 0h1m1 0h2m3 0h5m1 0h5m4 0h1m3 0h1m1 0h2m3 0h1m2 0h5m1 0h2m1 0h2m1 0h1m1 0h2m1 0h3m3 0h6m1 0h1m2 0h1m3 0h1m1 0h1m1 0h5m3 0h1M0 108.5h1m1 0h1m1 0h8m1 0h2m3 0h1m1 0h1m1 0h1m3 0h6m4 0h1m1 0h4m5 0h1m2 0h8m2 0h2m1 0h1m1 0h4m1 0h2m2 0h2m2 0h5m8 0h2m2 0h3m1 0h3m1 0h6m1 0h1m3 0h4m4 0h4m1 0h8m1 0h3m1 0h1m1 0h1m2 0h3m1 0h1m1 0h3m1 0h6m2 0h1M0 109.5h1m2 0h3m2 0h4m2 0h1m1 0h2m1 0h1m2 0h1m1 0h3m1 0h1m3 0h2m1 0h1m1 0h3m1 0h3m1 0h4m1 0h1m2 0h3m3 0h1m3 0h2m1 0h1m2 0h1m3 0h1m1 0h2m1 0h1m2 0h4m1 0h1m1 0h1m3 0h4m3 0h5m2 0h1m1 0h1m2 0h3m4 0h3m5 0h1m3 0h4m1 0h1m2 0h1m2 0h2m1 0h1m2 0h4m1 0h2m2 0h6m1 0h2M3 110.5h1m1 0h2m1 0h1m1 0h2m3 0h2m1 0h5m1 0h1m2 0h1m3 0h3m1 0h1m1 0h1m5 0h1m3 0h1m1 0h1m1 0h2m3 0h1m1 0h1m1 0h1m3 0h3m2 0h2m2 0h1m2 0h2m2 0h3m1 0h2m2 0h4m2 0h2m4 0h1m5 0h1m2 0h1m3 0h2m1 0h3m2 0h2m1 0h3m1 0h1m3 0h2m2 0h2m1 0h2m2 0h1m2 0h1m2 0h1m1 0h1m3 0h2m1 0h2m1 0h2M1 111.5h1m7 0h1m1 0h1m1 0h1m1 0h1m2 0h1m1 0h2m4 0h2m2 0h2m3 0h1m2 0h1m2 0h12m1 0h5m1 0h2m3 0h1m1 0h3m4 0h2m1 0h1m5 0h3m5 0h3m2 0h1m3 0h2m5 0h1m1 0h1m2 0h1m1 0h2m1 0h2m1 0h1m1 0h1m2 0h3m2 0h10m4 0h2m1 0h4m3 0h1m1 0h2m2 0h1M0 112.5h1m3 0h1m1 0h1m1 0h1m1 0h4m1 0h1m2 0h2m3 0h1m2 0h3m1 0h3m1 0h4m2 0h1m3 0h1m2 0h3m3 0h1m1 0h3m4 0h1m1 0h1m3 0h1m2 0h1m2 0h2m4 0h1m1 0h1m3 0h3m3 0h2m4 0h1m1 0h1m1 0h1m2 0h1m1 0h1m2 0h3m1 0h1m1 0h1m2 0h1m1 0h2m1 0h1m3 0h2m2 0h2m2 0h1m2 0h1m1 0h4m1 0h1m4 0h1m3 0h1m1 0h1m3 0h3M1 113.5h1m1 0h1m1 0h1m4 0h1m2 0h1m1 0h3m1 0h3m1 0h1m1 0h1m1 0h2m6 0h3m1 0h2m1 0h4m1 0h2m2 0h3m1 0h1m1 0h3m1 0h1m2 0h1m1 0h3m1 0h1m4 0h4m1 0h1m1 0h2m3 0h1m1 0h1m1 0h5m2 0h2m2 0h2m3 0h3m2 0h2m6 0h1m2 0h1m1 0h3m1 0h4m1 0h2m2 0h2m2 0h1m5 0h1m1 0h1m1 0h1m1 0h3m1 0h1m1 0h1m2 0h2M0 114.5h2m1 0h10m1 0h1m1 0h3m1 0h1m2 0h1m1 0h1m1 0h1m3 0h1m1 0h1m5 0h1m2 0h2m3 0h1m3 0h3m1 0h2m1 0h4m4 0h3m2 0h1m1 0h3m2 0h1m1 0h3m1 0h2m3 0h3m1 0h2m2 0h1m1 0h3m2 0h1m4 0h3m2 0h1m1 0h2m3 0h3m1 0h1m1 0h1m1 0h1m2 0h2m2 0h2m2 0h1m1 0h1m1 0h1m2 0h1m1 0h1m1 0h1m1 0h1m3 0h1m2 0h3M0 115.5h3m2 0h1m1 0h1m2 0h1m1 0h3m1 0h2m1 0h1m2 0h2m1 0h1m4 0h2m1 0h4m1 0h2m2 0h3m7 0h2m1 0h4m1 0h1m1 0h2m1 0h3m1 0h2m1 0h1m2 0h3m1 0h2m3 0h1m2 0h1m2 0h2m1 0h1m8 0h1m1 0h4m1 0h1m1 0h2m1 0h1m3 0h1m1 0h1m1 0h1m2 0h2m2 0h5m1 0h1m3 0h1m5 0h1m1 0h4m1 0h1m1 0h1m1 0h1m3 0h1m3 0h1M0 116.5h2m1 0h2m1 0h1m1 0h5m2 0h6m4 0h1m2 0h1m1 0h1m1 0h3m2 0h3m1 0h1m2 0h1m1 0h1m1 0h2m2 0h1m1 0h5m2 0h1m1 0h2m1 0h2m3 0h1m1 0h1m2 0h1m1 0h2m4 0h3m1 0h3m1 0h2m1 0h1m2 0h1m1 0h3m2 0h1m2 0h1m1 0h7m2 0h1m1 0h6m2 0h1m2 0h3m1 0h1m1 0h1m2 0h4m1 0h4m5 0h1m1 0h1m4 0h1M3 117.5h1m4 0h2m2 0h2m1 0h1m1 0h1m1 0h1m3 0h1m4 0h1m1 0h4m1 0h6m2 0h2m3 0h1m1 0h2m2 0h9m1 0h1m3 0h1m1 0h1m1 0h1m5 0h1m1 0h1m7 0h3m2 0h7m2 0h2m3 0h1m4 0h1m2 0h4m1 0h1m4 0h1m1 0h3m2 0h2m4 0h1m5 0h2m1 0h2m1 0h7m1 0h5m1 0h1M0 118.5h5m1 0h3m2 0h1m3 0h1m1 0h4m1 0h1m5 0h4m2 0h1m2 0h1m1 0h1m1 0h3m1 0h1m2 0h5m1 0h1m1 0h1m1 0h1m2 0h6m1 0h4m3 0h1m1 0h1m2 0h1m2 0h1m2 0h2m4 0h3m1 0h1m5 0h2m2 0h1m1 0h1m4 0h3m4 0h4m1 0h1m2 0h1m7 0h1m1 0h1m1 0h1m1 0h3m1 0h1m4 0h1m1 0h1m1 0h3m1 0h1m2 0h1M0 119.5h1m1 0h1m1 0h2m3 0h1m1 0h2m2 0h1m1 0h1m2 0h4m3 0h7m2 0h1m4 0h1m1 0h3m1 0h2m3 0h1m2 0h3m2 0h2m1 0h1m2 0h1m1 0h1m2 0h2m1 0h3m3 0h3m1 0h1m2 0h1m1 0h1m11 0h2m4 0h1m3 0h1m1 0h3m3 0h17m2 0h1m2 0h1m1 0h1m1 0h1m2 0h1m1 0h3m1 0h2m3 0h3m1 0h2M2 120.5h8m2 0h8m2 0h6m3 0h1m2 0h2m1 0h1m1 0h2m6 0h1m1 0h2m1 0h1m1 0h2m1 0h1m1 0h1m2 0h1m1 0h1m1 0h3m1 0h1m4 0h1m1 0h1m2 0h1m2 0h1m2 0h1m2 0h1m3 0h1m4 0h1m3 0h2m1 0h2m2 0h2m2 0h5m3 0h1m1 0h2m6 0h2m2 0h3m2 0h1m1 0h1m1 0h1m1 0h1m1 0h2m2 0h2m8 0h1m1 0h1M1 121.5h2m2 0h1m1 0h3m2 0h1m1 0h1m1 0h1m2 0h1m1 0h1m2 0h5m1 0h3m2 0h1m4 0h2m1 0h1m1 0h2m1 0h1m3 0h3m5 0h2m3 0h2m1 0h2m1 0h1m2 0h4m2 0h1m1 0h2m10 0h1m1 0h1m1 0h1m3 0h2m1 0h3m1 0h1m1 0h2m5 0h3m1 0h2m1 0h4m1 0h1m1 0h1m1 0h2m2 0h2m3 0h3m1 0h12m1 0h1m1 0h1m1 0h1M1 122.5h7m1 0h1m1 0h1m1 0h1m5 0h3m1 0h1m1 0h4m1 0h1m2 0h2m4 0h2m3 0h2m1 0h1m1 0h3m1 0h1m2 0h4m3 0h1m4 0h1m1 0h3m2 0h1m1 0h1m1 0h1m2 0h1m3 0h1m1 0h3m1 0h1m1 0h3m2 0h1m3 0h3m7 0h2m1 0h1m4 0h1m2 0h3m1 0h1m2 0h1m1 0h1m2 0h1m1 0h3m2 0h2m6 0h1m1 0h1m4 0h2m2 0h1M0 123.5h3m5 0h1m1 0h2m1 0h2m3 0h5m6 0h2m1 0h2m2 0h2m1 0h1m1 0h1m1 0h2m1 0h1m1 0h4m1 0h2m1 0h5m2 0h3m1 0h1m2 0h3m1 0h5m1 0h3m1 0h5m1 0h1m5 0h2m1 0h1m3 0h2m1 0h1m1 0h1m2 0h1m2 0h2m4 0h4m2 0h5m1 0h1m1 0h2m5 0h1m7 0h4m1 0h1m1 0h2m2 0h2m1 0h1M2 124.5h1m1 0h5m3 0h1m4 0h4m3 0h3m1 0h1m7 0h3m1 0h1m2 0h2m2 0h2m2 0h3m4 0h1m1 0h1m1 0h1m3 0h1m1 0h1m1 0h1m2 0h1m1 0h2m5 0h1m2 0h1m3 0h3m1 0h1m4 0h2m2 0h1m3 0h1m2 0h3m2 0h1m1 0h2m6 0h2m1 0h1m1 0h2m7 0h2m3 0h2m1 0h3m2 0h3m1 0h1m1 0h1m1 0h1m1 0h3M0 125.5h2m2 0h1m3 0h3m5 0h1m2 0h1m2 0h2m4 0h1m1 0h1m6 0h2m1 0h1m2 0h1m4 0h5m3 0h1m6 0h3m1 0h1m1 0h1m2 0h1m3 0h1m1 0h1m1 0h1m3 0h1m2 0h1m2 0h2m12 0h1m2 0h1m2 0h4m4 0h5m3 0h3m1 0h3m2 0h1m3 0h1m1 0h1m1 0h2m1 0h3m2 0h2m1 0h7m1 0h3M1 126.5h3m1 0h3m1 0h2m2 0h2m2 0h1m2 0h1m5 0h2m5 0h1m1 0h1m2 0h2m2 0h1m1 0h1m1 0h1m3 0h1m3 0h2m1 0h3m2 0h2m3 0h1m2 0h2m2 0h2m2 0h1m1 0h1m1 0h1m2 0h2m2 0h2m1 0h9m2 0h1m1 0h1m3 0h2m2 0h2m1 0h2m1 0h1m3 0h3m3 0h1m1 0h1m5 0h2m1 0h1m1 0h1m1 0h1m4 0h2m2 0h1m1 0h2m4 0h3M2 127.5h1m2 0h1m2 0h1m1 0h2m8 0h1m6 0h1m5 0h1m1 0h5m1 0h1m1 0h1m1 0h1m1 0h1m1 0h2m1 0h2m2 0h1m1 0h1m5 0h3m1 0h1m1 0h2m1 0h3m1 0h2m1 0h3m2 0h1m3 0h2m2 0h1m2 0h1m1 0h2m2 0h2m2 0h1m2 0h1m3 0h3m1 0h1m2 0h3m1 0h4m2 0h1m1 0h4m1 0h1m1 0h1m1 0h1m3 0h1m1 0h1m1 0h2m1 0h1m1 0h1m1 0h1m3 0h1m1 0h2M1 128.5h1m4 0h1m1 0h1m3 0h2m1 0h3m2 0h2m1 0h1m7 0h1m4 0h2m1 0h2m2 0h1m5 0h3m1 0h1m1 0h8m3 0h1m4 0h3m1 0h1m1 0h3m4 0h2m1 0h3m1 0h1m1 0h2m1 0h1m1 0h5m2 0h2m3 0h2m1 0h2m4 0h1m1 0h1m1 0h2m4 0h2m1 0h1m1 0h2m1 0h5m1 0h2m1 0h2m9 0h1m1 0h1m1 0h3M0 129.5h1m2 0h2m8 0h5m1 0h1m3 0h1m1 0h2m1 0h2m1 0h2m6 0h3m1 0h1m5 0h1m5 0h1m4 0h2m2 0h1m3 0h2m2 0h2m1 0h2m2 0h1m1 0h2m2 0h1m5 0h2m1 0h4m1 0h4m1 0h3m1 0h2m1 0h4m2 0h4m1 0h2m2 0h1m1 0h1m1 0h1m1 0h1m1 0h1m2 0h2m5 0h1m1 0h8m1 0h2m1 0h1m1 0h1m1 0h3M1 130.5h2m1 0h7m3 0h1m1 0h1m3 0h1m4 0h6m2 0h3m1 0h3m1 0h2m1 0h1m2 0h1m1 0h2m1 0h5m4 0h1m2 0h5m5 0h2m1 0h6m1 0h4m1 0h6m2 0h2m1 0h1m1 0h7m4 0h2m4 0h2m2 0h2m2 0h1m1 0h6m1 0h1m1 0h7m2 0h1m1 0h2m5 0h8M0 131.5h2m2 0h1m3 0h1m2 0h3m1 0h2m1 0h1m2 0h2m1 0h3m3 0h2m1 0h1m2 0h2m2 0h1m1 0h2m2 0h2m1 0h1m1 0h2m3 0h1m1 0h1m2 0h1m1 0h6m4 0h3m2 0h1m3 0h1m2 0h2m1 0h1m10 0h1m1 0h1m2 0h1m3 0h1m2 0h4m3 0h4m1 0h1m1 0h4m1 0h1m3 0h1m6 0h1m1 0h1m1 0h1m1 0h7m2 0h1m3 0h1m1 0h2M1 132.5h1m2 0h1m1 0h1m1 0h1m4 0h1m1 0h1m1 0h1m1 0h1m5 0h2m1 0h1m1 0h2m1 0h2m3 0h2m2 0h2m2 0h1m2 0h2m1 0h1m1 0h1m1 0h1m1 0h1m2 0h1m1 0h1m2 0h1m1 0h4m1 0h3m1 0h2m1 0h1m1 0h2m2 0h3m2 0h2m1 0h1m1 0h3m1 0h2m1 0h2m1 0h1m1 0h4m2 0h1m1 0h2m3 0h1m1 0h2m5 0h1m1 0h1m1 0h1m1 0h1m1 0h3m1 0h3m1 0h4m5 0h2m1 0h1m1 0h3M0 133.5h2m1 0h2m3 0h1m4 0h2m1 0h1m2 0h1m3 0h1m1 0h2m3 0h2m1 0h3m2 0h1m1 0h5m4 0h2m1 0h1m3 0h1m1 0h1m3 0h2m1 0h2m1 0h11m3 0h2m1 0h1m1 0h3m1 0h3m1 0h1m2 0h2m4 0h1m3 0h2m1 0h1m3 0h1m2 0h3m1 0h1m3 0h1m1 0h3m3 0h2m1 0h3m1 0h1m1 0h3m1 0h4m1 0h2m2 0h1m3 0h1m1 0h1m1 0h1M0 134.5h2m1 0h10m2 0h4m1 0h2m1 0h1m2 0h5m1 0h2m2 0h4m2 0h2m1 0h1m4 0h7m2 0h1m2 0h1m8 0h2m1 0h1m3 0h5m1 0h2m2 0h1m1 0h1m1 0h2m5 0h1m3 0h6m2 0h1m2 0h2m1 0h1m1 0h1m3 0h1m3 0h1m1 0h6m1 0h3m1 0h3m2 0h1m4 0h2m4 0h8M5 135.5h1m8 0h1m2 0h1m2 0h2m1 0h2m2 0h2m3 0h1m1 0h1m3 0h5m1 0h5m1 0h1m2 0h2m1 0h1m1 0h1m3 0h1m1 0h1m2 0h3m5 0h4m2 0h1m2 0h3m2 0h1m1 0h2m1 0h4m1 0h1m1 0h1m1 0h1m2 0h3m2 0h1m2 0h1m1 0h4m6 0h1m1 0h2m2 0h2m1 0h1m3 0h1m1 0h1m1 0h1m5 0h3m1 0h1m1 0h1m5 0h1m1 0h2M0 136.5h1m1 0h7m3 0h1m4 0h1m2 0h1m1 0h1m2 0h1m4 0h2m3 0h3m1 0h1m4 0h1m2 0h1m1 0h1m1 0h1m1 0h2m2 0h2m1 0h2m1 0h2m1 0h1m2 0h1m2 0h2m1 0h1m5 0h2m3 0h2m1 0h1m1 0h1m1 0h1m2 0h1m2 0h1m8 0h1m1 0h1m2 0h5m1 0h1m1 0h1m2 0h1m3 0h2m2 0h1m1 0h1m3 0h1m1 0h7m11 0h3M0 137.5h1m3 0h2m2 0h1m2 0h1m2 0h1m4 0h2m2 0h5m1 0h1m1 0h4m5 0h1m4 0h2m3 0h1m2 0h3m2 0h1m1 0h2m1 0h2m3 0h1m6 0h1m1 0h8m3 0h2m6 0h1m1 0h2m3 0h2m1 0h2m1 0h2m2 0h1m1 0h1m1 0h4m1 0h1m2 0h1m1 0h2m1 0h1m1 0h2m3 0h1m2 0h1m7 0h1m2 0h5m1 0h1m6 0h1M0 138.5h2m2 0h4m2 0h1m5 0h1m2 0h2m1 0h1m2 0h1m3 0h1m1 0h1m1 0h3m2 0h2m2 0h2m4 0h6m2 0h1m1 0h1m1 0h1m7 0h1m4 0h1m2 0h1m1 0h3m1 0h4m5 0h3m1 0h1m8 0h1m1 0h5m1 0h2m2 0h3m1 0h2m2 0h1m3 0h2m2 0h1m1 0h7m1 0h1m3 0h2m2 0h1m3 0h3m1 0h2m2 0h1M0 139.5h1m4 0h1m1 0h1m1 0h4m2 0h1m1 0h1m2 0h2m4 0h1m1 0h1m2 0h1m1 0h2m5 0h2m2 0h1m3 0h1m1 0h1m6 0h2m1 0h1m3 0h1m2 0h2m2 0h6m2 0h1m3 0h1m1 0h3m3 0h1m2 0h1m1 0h1m1 0h2m2 0h4m5 0h1m1 0h2m2 0h4m1 0h1m1 0h1m1 0h1m1 0h2m11 0h1m1 0h1m5 0h2m2 0h1m1 0h2m2 0h2m1 0h1m1 0h1M1 140.5h1m4 0h1m7 0h2m1 0h2m1 0h2m1 0h2m1 0h2m1 0h2m3 0h1m1 0h2m2 0h2m1 0h1m1 0h1m2 0h1m2 0h1m2 0h1m1 0h4m3 0h1m1 0h1m3 0h8m2 0h1m1 0h1m2 0h1m7 0h3m1 0h4m2 0h1m2 0h1m3 0h2m2 0h2m1 0h2m1 0h1m1 0h1m2 0h1m3 0h2m2 0h1m1 0h1m2 0h1m2 0h3m1 0h3m4 0h1m1 0h2m1 0h5m2 0h1M0 141.5h6m2 0h1m2 0h3m6 0h4m2 0h1m1 0h1m2 0h1m2 0h1m1 0h1m2 0h2m4 0h2m2 0h1m2 0h4m2 0h3m1 0h1m4 0h2m1 0h1m1 0h2m3 0h1m2 0h8m2 0h1m6 0h2m3 0h2m1 0h4m4 0h1m1 0h1m1 0h2m1 0h1m1 0h2m2 0h3m3 0h3m4 0h3m1 0h1m2 0h1m1 0h3m1 0h3m2 0h1m1 0h1m2 0h3M0 142.5h2m4 0h1m4 0h2m1 0h1m3 0h1m4 0h2m1 0h2m4 0h3m1 0h1m1 0h2m2 0h1m5 0h1m1 0h1m1 0h1m2 0h3m1 0h1m4 0h3m2 0h1m3 0h2m2 0h1m2 0h5m2 0h1m1 0h2m3 0h1m2 0h4m1 0h4m3 0h1m2 0h1m1 0h1m1 0h3m2 0h1m2 0h3m2 0h6m1 0h1m1 0h1m1 0h4m3 0h1m3 0h1m1 0h3m2 0h3m1 0h1M2 143.5h2m1 0h1m2 0h3m3 0h1m2 0h1m3 0h2m3 0h2m1 0h1m3 0h1m4 0h2m3 0h1m2 0h3m3 0h1m2 0h3m2 0h1m1 0h3m1 0h2m4 0h1m2 0h1m2 0h2m1 0h2m1 0h3m1 0h1m3 0h2m3 0h1m1 0h1m2 0h4m3 0h1m1 0h1m1 0h1m6 0h1m1 0h2m1 0h1m2 0h4m1 0h1m1 0h1m1 0h1m1 0h1m1 0h1m8 0h4m1 0h2m2 0h6M0 144.5h2m2 0h1m1 0h1m2 0h2m1 0h1m1 0h1m5 0h1m2 0h2m1 0h1m1 0h5m2 0h2m7 0h1m4 0h1m4 0h2m1 0h1m11 0h3m1 0h2m1 0h1m5 0h1m1 0h1m6 0h5m1 0h2m1 0h1m1 0h1m2 0h1m1 0h1m2 0h7m4 0h1m2 0h1m1 0h1m2 0h1m2 0h1m1 0h1m3 0h2m1 0h7m1 0h1m3 0h2m1 0h1m2 0h2M0 145.5h3m6 0h8m2 0h1m5 0h1m1 0h2m1 0h2m1 0h2m2 0h1m3 0h2m1 0h3m1 0h3m2 0h5m2 0h1m3 0h1m2 0h1m1 0h1m2 0h7m2 0h1m1 0h4m1 0h1m1 0h6m2 0h2m2 0h1m2 0h2m1 0h2m1 0h1m3 0h1m2 0h3m1 0h2m2 0h1m1 0h1m4 0h2m3 0h2m4 0h2m2 0h8m5 0h4M0 146.5h2m1 0h6m1 0h1m2 0h1m1 0h3m1 0h3m1 0h1m2 0h1m1 0h2m2 0h1m2 0h1m1 0h5m2 0h1m3 0h2m3 0h2m1 0h2m7 0h2m4 0h1m2 0h3m1 0h2m1 0h1m6 0h2m1 0h1m3 0h3m1 0h1m2 0h3m2 0h1m1 0h7m1 0h2m4 0h1m1 0h2m2 0h1m2 0h1m1 0h5m1 0h1m2 0h1m1 0h1m1 0h1m1 0h3m1 0h1m2 0h7M0 147.5h1m1 0h1m4 0h1m2 0h4m2 0h2m2 0h2m1 0h4m2 0h2m1 0h3m1 0h1m1 0h2m5 0h3m1 0h8m1 0h1m1 0h2m1 0h1m1 0h2m3 0h2m2 0h3m2 0h2m1 0h1m1 0h2m1 0h2m2 0h1m3 0h2m5 0h3m1 0h1m3 0h1m5 0h1m3 0h2m1 0h4m12 0h1m2 0h1m7 0h2m1 0h1m1 0h1m1 0h1m1 0h1m1 0h3M0 148.5h1m3 0h1m1 0h4m2 0h1m4 0h5m4 0h1m3 0h7m3 0h1m2 0h2m3 0h6m3 0h3m2 0h3m4 0h5m1 0h2m1 0h1m1 0h2m1 0h1m7 0h3m2 0h2m3 0h2m5 0h3m1 0h1m1 0h1m1 0h1m2 0h1m1 0h1m2 0h1m4 0h7m2 0h1m1 0h1m1 0h1m1 0h1m1 0h1m2 0h1m1 0h1m2 0h1m2 0h4m3 0h1M0 149.5h1m1 0h1m1 0h1m2 0h1m2 0h6m1 0h1m1 0h1m1 0h1m2 0h6m2 0h3m2 0h3m4 0h3m2 0h1m2 0h5m2 0h1m1 0h2m1 0h1m1 0h2m3 0h2m3 0h1m1 0h1m1 0h1m2 0h2m3 0h5m1 0h4m1 0h2m1 0h1m3 0h1m4 0h1m1 0h1m1 0h1m1 0h2m1 0h1m1 0h2m1 0h2m1 0h1m1 0h3m1 0h1m2 0h3m8 0h1m1 0h3m3 0h1m1 0h2m3 0h2M0 150.5h2m1 0h1m2 0h2m1 0h1m4 0h4m1 0h1m2 0h2m2 0h3m1 0h3m4 0h1m2 0h3m1 0h2m1 0h1m3 0h1m1 0h1m1 0h2m3 0h1m1 0h3m1 0h1m1 0h1m1 0h1m2 0h1m1 0h4m1 0h1m1 0h2m2 0h1m1 0h2m3 0h6m4 0h2m3 0h3m1 0h1m2 0h2m4 0h4m2 0h1m1 0h2m2 0h1m2 0h1m1 0h1m1 0h5m1 0h2m2 0h2m5 0h3m2 0h1M0 151.5h1m1 0h1m2 0h1m1 0h1m1 0h1m1 0h6m1 0h1m1 0h2m2 0h3m2 0h5m2 0h1m1 0h1m1 0h3m1 0h2m1 0h2m2 0h2m1 0h1m1 0h1m2 0h4m2 0h3m2 0h4m4 0h2m1 0h2m1 0h1m1 0h2m3 0h1m2 0h1m1 0h2m2 0h1m2 0h2m1 0h2m2 0h1m6 0h1m1 0h2m2 0h1m2 0h3m2 0h1m1 0h1m1 0h1m1 0h1m1 0h1m1 0h1m3 0h1m1 0h5m1 0h1m1 0h2m3 0h5M0 152.5h1m1 0h1m3 0h2m4 0h2m1 0h3m4 0h2m1 0h1m1 0h1m1 0h2m3 0h4m1 0h2m2 0h2m1 0h1m1 0h1m1 0h1m1 0h2m2 0h4m5 0h2m4 0h3m1 0h1m1 0h3m3 0h1m1 0h3m1 0h2m2 0h2m3 0h2m1 0h3m1 0h1m3 0h6m1 0h1m2 0h1m4 0h2m1 0h1m1 0h1m2 0h1m1 0h1m3 0h1m4 0h4m4 0h2m1 0h1m2 0h4m2 0h1M0 153.5h1m1 0h4m1 0h2m2 0h1m1 0h1m3 0h4m1 0h1m1 0h1m1 0h3m8 0h1m1 0h2m5 0h1m1 0h1m4 0h1m1 0h6m1 0h1m7 0h1m1 0h1m2 0h1m1 0h1m1 0h2m1 0h1m1 0h1m2 0h2m2 0h1m2 0h1m1 0h1m1 0h1m2 0h1m1 0h1m2 0h3m2 0h1m1 0h1m1 0h1m1 0h2m1 0h1m1 0h2m1 0h4m3 0h2m2 0h3m2 0h1m1 0h3m1 0h2m1 0h1m1 0h1m5 0h1m2 0h4M1 154.5h1m2 0h1m1 0h1m2 0h1m1 0h1m1 0h1m2 0h1m4 0h2m1 0h6m3 0h1m2 0h1m2 0h1m1 0h3m1 0h1m1 0h2m2 0h1m1 0h1m1 0h1m1 0h1m4 0h3m1 0h2m2 0h10m2 0h2m1 0h1m2 0h2m2 0h1m1 0h3m1 0h3m1 0h3m1 0h2m1 0h10m1 0h2m1 0h1m5 0h1m1 0h2m2 0h2m1 0h1m1 0h1m1 0h1m2 0h1m4 0h2m1 0h2m2 0h3m1 0h1M0 155.5h1m2 0h1m5 0h1m3 0h1m1 0h2m2 0h1m1 0h4m1 0h1m1 0h1m1 0h5m4 0h1m1 0h2m3 0h2m5 0h4m1 0h1m1 0h1m2 0h2m3 0h2m2 0h2m3 0h12m1 0h1m1 0h3m4 0h2m1 0h6m2 0h2m5 0h1m2 0h1m4 0h3m5 0h1m3 0h1m3 0h1m1 0h1m4 0h3m2 0h1m1 0h2m4 0h3M0 156.5h2m2 0h4m7 0h2m2 0h2m2 0h1m1 0h7m6 0h2m3 0h1m3 0h2m1 0h1m1 0h6m2 0h1m3 0h1m1 0h1m1 0h1m1 0h1m2 0h2m1 0h7m1 0h1m2 0h4m2 0h3m1 0h1m1 0h1m2 0h10m1 0h4m2 0h1m4 0h1m4 0h6m1 0h1m1 0h1m1 0h3m1 0h1m1 0h1m1 0h1m2 0h1m2 0h1m1 0h5m2 0h1M8 157.5h1m1 0h4m2 0h1m1 0h1m2 0h2m1 0h3m3 0h2m1 0h2m1 0h1m1 0h1m1 0h1m4 0h2m1 0h5m3 0h1m1 0h2m4 0h1m2 0h1m1 0h3m1 0h6m3 0h1m3 0h2m2 0h2m1 0h2m1 0h3m2 0h2m1 0h1m3 0h1m3 0h1m4 0h2m1 0h1m1 0h2m2 0h1m1 0h3m3 0h3m1 0h2m5 0h1m1 0h4m1 0h1m2 0h2m3 0h1m1 0h1m1 0h1M0 158.5h7m7 0h1m1 0h4m1 0h4m1 0h1m1 0h1m1 0h1m3 0h1m3 0h1m2 0h1m2 0h6m1 0h2m1 0h1m1 0h2m1 0h1m1 0h9m1 0h2m1 0h1m2 0h2m1 0h1m1 0h2m1 0h3m8 0h1m1 0h2m1 0h4m1 0h1m1 0h2m1 0h6m3 0h1m2 0h2m1 0h2m2 0h1m1 0h1m1 0h3m1 0h1m1 0h5m1 0h1m2 0h3m2 0h1m1 0h1m1 0h1m1 0h1m2 0h1M0 159.5h1m5 0h1m3 0h1m2 0h2m2 0h5m4 0h1m3 0h1m2 0h5m1 0h1m1 0h2m2 0h1m1 0h2m1 0h3m3 0h1m4 0h2m1 0h1m2 0h1m1 0h1m2 0h1m2 0h1m1 0h2m3 0h4m2 0h2m1 0h1m1 0h3m1 0h1m1 0h1m3 0h2m3 0h1m8 0h4m1 0h5m3 0h1m3 0h1m4 0h1m3 0h3m3 0h3m1 0h1m2 0h1m3 0h1m1 0h3M0 160.5h1m1 0h3m1 0h1m1 0h3m3 0h1m1 0h4m1 0h1m2 0h7m2 0h3m7 0h2m1 0h1m3 0h1m1 0h5m3 0h1m1 0h1m3 0h2m1 0h1m3 0h2m1 0h1m1 0h5m3 0h1m2 0h1m1 0h3m4 0h1m3 0h10m2 0h3m2 0h1m6 0h2m1 0h8m1 0h2m3 0h2m1 0h1m2 0h1m2 0h1m1 0h1m1 0h5M0 161.5h1m1 0h3m1 0h1m1 0h3m3 0h2m2 0h1m1 0h1m1 0h1m2 0h1m6 0h1m1 0h1m5 0h1m1 0h1m1 0h1m2 0h1m1 0h3m2 0h4m2 0h1m1 0h3m2 0h2m2 0h1m1 0h1m3 0h1m1 0h2m2 0h2m1 0h2m2 0h1m3 0h1m2 0h1m4 0h1m2 0h1m2 0h1m1 0h1m1 0h2m3 0h2m1 0h3m2 0h8m1 0h2m5 0h1m1 0h1m1 0h2m1 0h1m1 0h1m1 0h2m1 0h1m1 0h2m1 0h1M0 162.5h1m1 0h3m1 0h1m1 0h3m3 0h2m1 0h5m3 0h1m4 0h3m1 0h1m2 0h1m3 0h2m1 0h2m3 0h4m1 0h5m1 0h1m2 0h1m5 0h4m1 0h2m1 0h1m2 0h1m3 0h1m1 0h1m1 0h1m2 0h1m7 0h1m4 0h1m1 0h3m2 0h4m1 0h3m4 0h1m2 0h1m7 0h5m3 0h1m1 0h1m1 0h1m2 0h1m3 0h2m1 0h1m4 0h2M0 163.5h1m5 0h1m2 0h2m1 0h2m1 0h7m2 0h1m2 0h1m4 0h1m4 0h1m1 0h7m2 0h2m3 0h1m1 0h6m1 0h1m9 0h4m1 0h1m1 0h2m3 0h4m1 0h8m5 0h2m1 0h2m1 0h1m2 0h1m1 0h1m1 0h1m1 0h1m1 0h3m2 0h3m1 0h1m5 0h2m1 0h1m1 0h1m5 0h1m3 0h2m1 0h1m4 0h1m1 0h4M0 164.5h7m2 0h3m2 0h1m4 0h2m1 0h6m2 0h3m2 0h1m8 0h1m4 0h4m3 0h1m1 0h1m2 0h1m1 0h1m3 0h1m1 0h2m1 0h1m1 0h5m1 0h1m4 0h1m3 0h2m1 0h1m1 0h3m6 0h3m3 0h1m1 0h2m1 0h4m1 0h1m1 0h1m4 0h6m5 0h2m5 0h2m3 0h1m1 0h4m1 0h4m3 0h1"/></g><g transform="translate(500,80)"><path fill="#ffffff" d="M0 0h125v125H0z"/><path stroke="#111111" d="M0 0.5h7m1 0h1m1 0h2m2 0h1m3 0h4m1 0h2m4 0h2m5 0h3m1 0h1m1 0h3m1 0h1m1 0h1m1 0h1m3 0h1m1 0h1m2 0h1m1 0h1m1 0h3m1 0h6m1 0h1m2 0h3m1 0h4m4 0h1m3 0h1m1 0h5m3 0h2m2 0h3m1 0h1m3 0h2m1 0h7M0 1.5h1m5 0h1m1 0h1m1 0h5m2 0h1m3 0h1m1 0h1m1 0h6m4 0h2m1 0h3m4 0h1m4 0h2m4 0h2m4 0h1m1 0h3m1 0h1m7 0h1m1 0h1m6 0h9m1 0h1m3 0h1m1 0h1m1 0h1m3 0h1m1 0h3m1 0h2m3 0h1m5 0h1M0 2.5h1m1 0h3m1 0h1m1 0h1m4 0h4m2 0h1m2 0h4m1 0h1m3 0h1m1 0h3m1 0h1m1 0h1m1 0h1m1 0h6m1 0h1m2 0h3m2 0h1m2 0h1m1 0h1m1 0h2m2 0h1m1 0h2m1 0h2m3 0h1m1 0h1m1 0h3m2 0h1m1 0h1m3 0h1m1 0h2m1 0h2m1 0h1m1 0h3m1 0h1m1 0h1m1 0h1m2 0h1m2 0h1m1 0h3m1 0h1M0 3.5h1m1 0h3m1 0h1m2 0h1m2 0h3m2 0h2m2 0h5m1 0h5m1 0h5m2 0h3m1 0h3m1 0h1m2 0h1m1 0h3m1 0h1m2 0h1m2 0h2m1 0h1m1 0h2m1 0h1m1 0h4m2 0h1m3 0h1m3 0h1m2 0h4m5 0h3m1 0h1m1 0h1m3 0h2m7 0h1m1 0h3m1 0h1M0 4.5h1m1 0h3m1 0h1m3 0h1m2 0h4m1 0h3m3 0h5m2 0h6m1 0h2m2 0h2m1 0h1m1 0h3m3 0h1m4 0h7m1 0h5m1 0h1m1 0h9m1 0h1m3 0h7m2 0h2m4 0h1m2 0h1m1 0h1m1 0h3m1 0h2m2 0h1m1 0h3m1 0h1M0 5.5h1m5 0h1m1 0h4m2 0h3m4 0h1m4 0h2m1 0h2m1 0h1m3 0h2m1 0h1m4 0h2m1 0h2m2 0h2m3 0h5m3 0h7m1 0h4m2 0h3m4 0h4m3 0h2m1 0h2m4 0h1m3 0h2m2 0h1m1 0h5m2 0h1m5 0h1M0 6.5h7m1 0h1m1 0h1m1 0h1m1 0h1m1 0h1m1 0h1m1 0h1m1 0h1m1 0h1m1 0h1m1 0h1m1 0h1m1 0h1m1 0h1m1 0h1m1 0h1m1 0h1m1 0h1m1 0h1m1 0h1m1 0h1m1 0h1m1 0h1m1 0h1m1 0h1m1 0h1m1 0h1m1 0h1m1 0h1m1 0h1m1 0h1m1 0h1m1 0h1m1 0h1m1 0h1m1 0h1m1 0h1m1 0h1m1 0h1m1 0h1m1 0h1m1 0h1m1 0h1m1 0h1m1 0h1m1 0h1m1 0h1m1 0h1m1 0h1m1 0h1m1 0h1m1 0h1m1 0h1m1 0h1m1 0h1m1 0h7M8 7.5h1m5 0h1m1 0h1m1 0h3m1 0h3m1 0h2m1 0h1m2 0h1m3 0h1m1 0h1m1 0h1m1 0h1m4 0h1m1 0h4m5 0h1m1 0h1m3 0h1m3 0h1m3 0h2m4 0h1m2 0h1m2 0h2m1 0h2m3 0h1m1 0h5m3 0h3m2 0h2m3 0h1m2 0h2M2 8.5h3m1 0h1m1 0h1m3 0h2m3 0h2m2 0h1m1 0h3m1 0h13m2 0h1m1 0h1m1 0h1m1 0h1m5 0h11m2 0h3m3 0h2m1 0h2m2 0h2m4 0h1m1 0h7m1 0h1m2 0h2m1 0h1m6 0h1m1 0h1m2 0h1m2 0h3m2 0h3M1 9.5h1m1 0h1m1 0h1m1 0h2m2 0h1m1 0h1m1 0h2m2 0h1m3 0h1m2 0h1m3 0h2m1 0h1m5 0h6m2 0h2m2 0h1m1 0h2m2 0h10m2 0h3m1 0h3m2 0h2m4 0h2m2 0h2m3 0h1m1 0h1m1 0h2m2 0h1m1 0h7m3 0h3m1 0h1m1 0h1m2 0h1M0 10.5h3m2 0h3m2 0h4m1 0h2m1 0h3m1 0h4m1 0h1m1 0h3m3 0h2m1 0h3m1 0h1m4 0h3m3 0h1m1 0h3m1 0h2m2 0h1m1 0h2m2 0h2m1 0h1m1 0h1m1 0h4m1 0h3m2 0h2m1 0h2m2 0h1m1 0h3m1 0h6m5 0h2m2 0h1m1 0h1m3 0h2m1 0h2M2 11.5h2m1 0h1m1 0h3m1 0h4m1 0h1m1 0h3m2 0h1m2 0h4m2 0h1m3 0h2m1 0h4m2 0h2m1 0h1m1 0h4m1 0h4m1 0h4m1 0h3m1 0h2m4 0h1m5 0h1m1 0h4m2 0h2m1 0h1m1 0h1m1 0h1m1 0h2m1 0h1m2 0h5m3 0h2m1 0h3m4 0h1M0 12.5h2m1 0h1m1 0h3m4 0h2m1 0h1m2 0h1m1 0h1m9 0h1m3 0h1m1 0h1m2 0h3m2 0h3m3 0h2m2 0h2m1 0h2m3 0h1m1 0h2m4 0h1m6 0h2m1 0h4m5 0h5m1 0h3m2 0h1m1 0h1m2 0h1m2 0h2m1 0h1m1 0h2m3 0h1m1 0h2m2 0h1M1 13.5h3m1 0h1m3 0h1m6 0h1m2 0h5m1 0h1m1 0h1m2 0h6m1 0h3m1 0h4m2 0h6m2 0h1m1 0h1m3 0h1m2 0h1m1 0h2m5 0h1m2 0h4m1 0h1m2 0h1m3 0h1m5 0h1m1 0h1m1 0h2m5 0h5m1 0h1m1 0h2m1 0h1m2 0h1m1 0h1m1 0h1M0 14.5h2m1 0h2m1 0h1m5 0h1m1 0h2m1 0h1m1 0h1m1 0h2m3 0h1m3 0h2m1 0h1m1 0h1m1 0h3m1 0h2m1 0h1m1 0h1m1 0h4m1 0h2m5 0h5m1 0h1m2 0h6m1 0h1m1 0h2m2 0h1m1 0h4m2 0h4m1 0h2m3 0h1m1 0h2m2 0h2m2 0h1m3 0h1m4 0h2m2 0h1M7 15.5h1m1 0h1m2 0h1m1 0h1m5 0h1m1 0h2m1 0h1m1 0h2m2 0h1m4 0h1m4 0h1m1 0h1m2 0h1m1 0h1m1 0h2m1 0h3m2 0h3m1 0h1m1 0h3m1 0h1m2 0h4m2 0h6m1 0h1m2 0h3m4 0h1m1 0h3m2 0h1m1 0h3m2 0h2m1 0h3m2 0h2m1 0h4m1 0h1M0 16.5h4m2 0h2m1 0h1m2 0h2m1 0h1m1 0h1m2 0h1m10 0h2m2 0h1m5 0h3m2 0h2m1 0h3m1 0h1m2 0h5m4 0h4m2 0h2m1 0h1m2 0h1m5 0h1m1 0h1m1 0h1m1 0h2m3 0h4m1 0h2m1 0h1m4 0h4m3 0h2m2 0h1m2 0h1m1 0h1M0 17.5h2m1 0h3m5 0h2m3 0h2m1 0h2m2 0h4m2 0h1m1 0h1m1 0h2m2 0h1m1 0h1m3 0h2m1 0h1m2 0h4m2 0h1m2 0h1m1 0h7m2 0h1m2 0h3m1 0h3m1 0h2m2 0h1m2 0h1m3 0h1m2 0h1m1 0h1m1 0h2m5 0h2m6 0h5m2 0h1m1 0h1M0 18.5h3m1 0h1m1 0h1m5 0h5m2 0h2m3 0h2m2 0h2m1 0h1m1 0h2m1 0h1m1 0h1m1 0h1m2 0h4m2 0h2m2 0h3m1 0h3m2 0h5m2 0h1m2 0h1m1 0h1m3 0h2m2 0h2m1 0h3m2 0h1m1 0h1m2 0h3m2 0h4m1 0h1m4 0h1m3 0h1m4 0h1M3 19.5h2m2 0h2m2 0h1m2 0h2m6 0h4m4 0h1m2 0h1m4 0h1m3 0h2m1 0h1m3 0h3m1 0h1m3 0h2m3 0h1m2 0h1m1 0h2m1 0h5m2 0h4m2 0h3m1 0h1m1 0h2m3 0h2m2 0h2m4 0h1m2 0h2m3 0h2m2 0h1m4 0h2m1 0h1M1 20.5h1m1 0h2m1 0h1m2 0h1m1 0h3m1 0h5m1 0h1m1 0h1m1 0h5m1 0h1m1 0h1m2 0h2m2 0h4m1 0h3m1 0h6m1 0h1m4 0h4m3 0h2m2 0h2m2 0h4m3 0h1m6 0h1m1 0h1m3 0h1m3 0h4m1 0h1m1 0h1m3 0h1m1 0h3m1 0h3m3 0h1M1 21.5h4m2 0h2m3 0h1m2 0h3m1 0h2m1 0h3m5 0h1m1 0h1m3 0h2m1 0h1m1 0h2m1 0h1m1 0h3m2 0h6m1 0h1m1 0h2m1 0h2m1 0h1m4 0h1m1 0h2m3 0h1m1 0h2m2 0h1m4 0h1m3 0h1m1 0h1m1 0h3m1 0h4m1 0h1m1 0h2m1 0h2m6 0h2m2 0h1M0 22.5h2m2 0h8m1 0h1m2 0h1m3 0h1m1 0h1m2 0h2m1 0h1m4 0h2m6 0h1m1 0h1m1 0h3m3 0h2m2 0h2m1 0h4m5 0h1m2 0h1m1 0h1m2 0h1m2 0h1m1 0h1m1 0h1m1 0h3m1 0h1m1 0h1m1 0h1m3 0h2m1 0h4m2 0h1m1 0h1m3 0h1m1 0h3m1 0h3M5 23.5h1m2 0h4m2 0h1m2 0h2m2 0h3m1 0h1m1 0h4m1 0h6m2 0h1m2 0h1m2 0h1m2 0h3m2 0h3m1 0h1m5 0h4m2 0h3m3 0h2m1 0h3m3 0h1m1 0h1m1 0h3m1 0h3m2 0h1m5 0h1m3 0h2m2 0h1m3 0h2m2 0h5M0 24.5h3m1 0h3m1 0h1m1 0h1m1 0h2m2 0h2m2 0h2m5 0h4m5 0h2m3 0h2m3 0h1m2 0h10m1 0h3m1 0h10m2 0h2m1 0h1m3 0h1m5 0h2m1 0h2m2 0h1m2 0h2m2 0h1m1 0h1m5 0h1m2 0h2m2 0h3m1 0h1M0 25.5h3m5 0h1m3 0h2m1 0h3m1 0h1m4 0h1m1 0h2m2 0h3m1 0h1m2 0h2m1 0h2m1 0h1m1 0h1m2 0h3m2 0h3m3 0h5m1 0h2m4 0h1m3 0h1m5 0h1m2 0h1m8 0h2m2 0h2m3 0h1m1 0h1m1 0h1m1 0h3m2 0h1m1 0h1m2 0h1m1 0h2m1 0h1M2 26.5h3m1 0h2m1 0h1m4 0h2m1 0h1m1 0h2m1 0h1m4 0h1m2 0h3m1 0h1m1 0h3m1 0h2m1 0h1m3 0h2m2 0h1m2 0h2m4 0h2m2 0h1m1 0h1m2 0h1m2 0h1m3 0h1m1 0h3m1 0h2m1 0h2m1 0h6m2 0h1m3 0h1m1 0h2m1 0h1m1 0h3m1 0h4m1 0h2m6 0h1M1 27.5h1m2 0h2m1 0h1m4 0h4m1 0h2m1 0h1m5 0h3m2 0h1m1 0h4m3 0h1m5 0h3m3 0h4m3 0h2m2 0h6m2 0h2m1 0h4m1 0h1m1 0h2m1 0h1m2 0h1m5 0h3m2 0h2m1 0h1m1 0h3m1 0h5m1 0h2m1 0h2m1 0h2m1 0h3M0 28.5h1m1 0h3m1 0h1m5 0h1m4 0h1m1 0h1m2 0h3m2 0h1m1 0h1m2 0h1m3 0h3m3 0h1m2 0h1m1 0h1m2 0h1m3 0h2m3 0h3m1 0h1m1 0h1m1 0h1m2 0h1m1 0h1m1 0h1m2 0h3m5 0h4m1 0h1m2 0h2m1 0h2m1 0h4m8 0h4m2 0h3m3 0h1M1 29.5h1m3 0h1m1 0h5m1 0h1m1 0h3m2 0h1m4 0h1m2 0h2m2 0h6m1 0h1m1 0h1m2 0h2m1 0h3m1 0h4m3 0h2m4 0h3m1 0h3m1 0h2m2 0h2m2 0h1m2 0h2m1 0h2m1 0h1m3 0h1m3 0h3m2 0h1m1 0h4m1 0h2m5 0h1m1 0h1m1 0h1m3 0h1M1 30.5h2m3 0h1m1 0h4m1 0h1m6 0h1m5 0h1m3 0h1m1 0h1m1 0h4m4 0h1m3 0h1m3 0h2m3 0h1m2 0h1m1 0h1m1 0h1m1 0h3m1 0h5m2 0h1m1 0h1m2 0h3m2 0h6m1 0h1m2 0h6m1 0h2m1 0h1m1 0h1m1 0h1m1 0h1m1 0h4m1 0h1m4 0h1M1 31.5h1m1 0h3m1 0h1m2 0h1m3 0h1m3 0h1m3 0h3m1 0h1m2 0h1m2 0h1m1 0h3m2 0h2m2 0h2m1 0h3m1 0h8m6 0h2m3 0h2m1 0h3m3 0h3m2 0h2m4 0h1m1 0h1m1 0h3m5 0h1m2 0h1m2 0h2m1 0h1m2 0h2m1 0h1m2 0h2m1 0h1m1 0h1M1 32.5h1m1 0h6m2 0h1m1 0h2m1 0h3m1 0h1m3 0h2m2 0h1m2 0h6m1 0h1m2 0h1m2 0h4m1 0h1m2 0h4m1 0h12m4 0h1m2 0h1m2 0h2m1 0h1m2 0h9m2 0h1m1 0h2m1 0h3m1 0h1m1 0h1m4 0h1m1 0h7m2 0h1M0 33.5h2m2 0h1m3 0h4m1 0h1m3 0h3m2 0h1m1 0h1m2 0h2m1 0h1m1 0h1m3 0h1m1 0h1m2 0h1m1 0h1m1 0h1m5 0h1m3 0h4m1 0h1m3 0h1m1 0h2m3 0h1m3 0h4m1 0h1m2 0h2m1 0h1m1 0h1m3 0h1m1 0h2m1 0h1m4 0h1m3 0h1m1 0h4m1 0h1m2 0h1m3 0h1m2 0h1M1 34.5h1m2 0h1m1 0h1m1 0h1m3 0h6m1 0h1m3 0h2m1 0h1m1 0h3m1 0h1m1 0h1m1 0h1m1 0h1m2 0h3m4 0h13m1 0h1m1 0h4m2 0h1m5 0h2m4 0h7m1 0h1m1 0h2m1 0h9m12 0h1m1 0h1m1 0h1m2 0h1M0 35.5h2m1 0h2m3 0h2m1 0h2m1 0h1m1 0h3m2 0h5m1 0h1m1 0h4m3 0h1m1 0h1m2 0h2m1 0h5m1 0h1m2 0h1m3 0h1m1 0h2m3 0h1m1 0h3m2 0h1m2 0h1m1 0h3m4 0h2m2 0h2m3 0h1m1 0h2m7 0h2m2 0h4m2 0h4m3 0h1m3 0h1M3 36.5h8m1 0h1m2 0h1m3 0h1m1 0h1m3 0h1m1 0h1m2 0h8m1 0h2m2 0h2m3 0h2m3 0h1m1 0h1m1 0h1m2 0h5m2 0h1m2 0h2m4 0h2m2 0h2m6 0h6m1 0h2m1 0h3m1 0h1m2 0h1m3 0h1m1 0h4m1 0h5m2 0h1M0 37.5h3m1 0h2m1 0h1m4 0h2m2 0h5m3 0h3m1 0h1m2 0h3m1 0h1m2 0h2m8 0h2m1 0h1m3 0h1m2 0h1m1 0h2m3 0h1m1 0h1m1 0h2m1 0h4m5 0h1m3 0h1m4 0h5m1 0h2m8 0h1m1 0h3m5 0h3m4 0h1M0 38.5h1m2 0h1m1 0h3m1 0h1m1 0h2m3 0h2m2 0h2m2 0h1m1 0h1m2 0h1m2 0h2m2 0h3m2 0h1m1 0h2m1 0h1m8 0h1m11 0h1m4 0h3m1 0h1m1 0h1m1 0h1m2 0h1m1 0h1m1 0h3m5 0h2m1 0h1m1 0h5m2 0h1m1 0h1m3 0h3M0 39.5h2m1 0h1m1 0h1m2 0h6m1 0h2m1 0h1m2 0h1m2 0h1m1 0h4m1 0h1m1 0h1m2 0h1m1 0h3m1 0h4m3 0h2m3 0h10m2 0h1m1 0h2m1 0h1m1 0h1m2 0h6m2 0h3m1 0h7m2 0h1m1 0h1m1 0h1m2 0h5m1 0h2m2 0h1m1 0h2m1 0h1m1 0h4M1 40.5h3m1 0h3m4 0h2m1 0h1m1 0h2m1 0h3m1 0h1m2 0h2m1 0h2m3 0h1m1 0h1m5 0h2m1 0h1m1 0h2m2 0h1m1 0h1m1 0h1m1 0h1m2 0h1m2 0h1m1 0h3m1 0h2m1 0h1m5 0h2m6 0h2m4 0h1m1 0h2m2 0h3m3 0h1m1 0h2m2 0h6m4 0h1M2 41.5h1m1 0h2m3 0h2m3 0h1m2 0h1m3 0h1m1 0h1m1 0h1m1 0h2m1 0h1m3 0h1m1 0h1m1 0h1m1 0h1m2 0h1m1 0h1m6 0h1m2 0h1m1 0h1m1 0h1m1 0h3m2 0h1m1 0h3m2 0h4m1 0h1m1 0h2m1 0h4m3 0h1m8 0h2m3 0h1m1 0h1m2 0h1m6 0h3m3 0h2M0 42.5h4m1 0h2m3 0h11m1 0h1m6 0h2m1 0h2m4 0h3m1 0h1m2 0h1m1 0h3m1 0h1m1 0h4m3 0h2m3 0h3m1 0h1m3 0h2m1 0h3m1 0h1m1 0h1m4 0h1m1 0h1m2 0h2m2 0h3m1 0h8m1 0h1m1 0h5m1 0h1M0 43.5h1m1 0h1m6 0h1m3 0h1m2 0h1m1 0h1m2 0h3m4 0h6m1 0h3m1 0h1m1 0h3m2 0h3m1 0h3m1 0h2m1 0h2m4 0h3m5 0h6m2 0h3m1 0h4m1 0h1m1 0h3m1 0h1m6 0h1m3 0h1m2 0h1m1 0h2m7 0h1m1 0h4M2 44.5h3m1 0h2m1 0h2m1 0h2m3 0h2m1 0h1m1 0h1m1 0h1m1 0h1m1 0h2m3 0h2m1 0h2m4 0h2m1 0h1m4 0h1m1 0h3m1 0h1m1 0h3m4 0h2m2 0h3m3 0h4m2 0h3m3 0h5m3 0h3m5 0h3m2 0h1m3 0h5m3 0h1M2 45.5h1m2 0h1m1 0h2m2 0h5m3 0h1m4 0h1m1 0h1m6 0h1m2 0h1m2 0h1m2 0h5m2 0h5m1 0h2m1 0h2m2 0h2m5 0h2m2 0h2m1 0h4m1 0h1m2 0h2m3 0h3m5 0h1m1 0h1m2 0h2m1 0h1m2 0h1m1 0h2m4 0h1m1 0h1m2 0h1m1 0h1M0 46.5h1m1 0h1m1 0h7m1 0h1m3 0h2m2 0h3m1 0h5m1 0h9m4 0h1m4 0h3m2 0h1m1 0h3m6 0h1m3 0h2m3 0h1m3 0h3m2 0h2m3 0h2m2 0h1m1 0h1m1 0h2m1 0h1m1 0h3m1 0h2m1 0h1m5 0h3m1 0h1m1 0h1m1 0h1m1 0h2M0 47.5h2m6 0h6m2 0h1m2 0h6m2 0h1m5 0h1m1 0h4m2 0h1m1 0h1m4 0h3m2 0h1m1 0h1m1 0h1m2 0h3m2 0h3m1 0h1m2 0h4m3 0h1m4 0h3m1 0h3m1 0h1m1 0h1m2 0h1m1 0h1m3 0h1m2 0h1m1 0h5m1 0h1m1 0h5m1 0h1m1 0h1M1 48.5h8m2 0h1m1 0h2m1 0h1m3 0h1m3 0h3m2 0h1m1 0h1m6 0h1m1 0h1m1 0h3m1 0h4m3 0h1m3 0h1m5 0h4m1 0h5m4 0h4m1 0h3m2 0h4m4 0h2m2 0h7m6 0h3m1 0h1m2 0h2m2 0h1M0 49.5h3m2 0h1m1 0h5m1 0h1m1 0h3m1 0h3m1 0h1m1 0h1m1 0h1m3 0h1m1 0h2m2 0h1m1 0h2m1 0h1m2 0h1m1 0h1m1 0h4m1 0h1m1 0h2m3 0h7m1 0h2m1 0h1m2 0h1m2 0h4m2 0h2m3 0h2m2 0h1m2 0h1m8 0h1m1 0h2m1 0h2m4 0h1m1 0h1m5 0h1M4 50.5h1m1 0h9m1 0h2m4 0h5m1 0h1m1 0h5m8 0h5m1 0h3m3 0h1m1 0h1m2 0h2m1 0h1m1 0h1m2 0h1m1 0h5m1 0h2m1 0h2m1 0h2m3 0h1m2 0h4m1 0h4m1 0h1m1 0h6m1 0h1m2 0h1m2 0h1m4 0h2M0 51.5h1m2 0h1m5 0h1m2 0h1m2 0h2m1 0h2m2 0h3m2 0h2m2 0h3m1 0h8m1 0h3m1 0h1m4 0h1m1 0h1m1 0h3m5 0h1m1 0h2m1 0h6m3 0h1m1 0h1m2 0h3m1 0h2m2 0h3m6 0h1m3 0h1m2 0h3m3 0h1m2 0h1m6 0h1M0 52.5h3m1 0h3m1 0h1m1 0h2m1 0h1m2 0h2m1 0h1m1 0h4m3 0h2m1 0h1m1 0h3m1 0h2m1 0h1m4 0h5m2 0h1m2 0h1m1 0h4m2 0h6m2 0h1m1 0h1m1 0h1m2 0h1m3 0h4m1 0h2m1 0h2m1 0h1m1 0h3m4 0h1m1 0h2m4 0h1m1 0h1m1 0h1m2 0h1m1 0h3m1 0h1M1 53.5h1m3 0h1m2 0h3m3 0h1m3 0h3m1 0h1m1 0h2m2 0h1m1 0h1m1 0h1m4 0h3m3 0h2m2 0h1m2 0h5m3 0h1m4 0h2m3 0h1m1 0h1m2 0h1m2 0h1m1 0h5m1 0h3m2 0h3m2 0h1m2 0h1m1 0h5m1 0h1m2 0h1m1 0h2m1 0h1m1 0h1m2 0h3M1 54.5h1m3 0h3m1 0h4m2 0h1m2 0h2m10 0h1m1 0h1m2 0h1m1 0h2m1 0h2m2 0h7m1 0h1m2 0h1m2 0h1m2 0h2m2 0h2m1 0h1m1 0h1m1 0h1m2 0h1m2 0h1m1 0h1m1 0h4m1 0h2m1 0h1m2 0h1m3 0h4m1 0h1m1 0h1m1 0h2m3 0h1m1 0h3m3 0h2m2 0h1M0 55.5h1m2 0h1m1 0h1m1 0h3m1 0h1m1 0h3m1 0h3m2 0h1m4 0h5m1 0h2m1 0h1m2 0h2m2 0h2m2 0h6m6 0h5m1 0h3m1 0h1m1 0h2m3 0h3m2 0h1m2 0h1m1 0h2m1 0h1m2 0h1m1 0h1m6 0h1m1 0h1m1 0h1m2 0h1m1 0h1m3 0h1m2 0h3m1 0h4M3 56.5h4m1 0h1m1 0h2m1 0h2m1 0h2m1 0h2m1 0h1m2 0h1m2 0h1m6 0h1m1 0h1m1 0h1m3 0h5m1 0h2m6 0h6m3 0h1m1 0h3m1 0h1m5 0h3m1 0h4m2 0h1m1 0h2m1 0h1m1 0h2m5 0h3m1 0h2m3 0h5m1 0h1m2 0h3M5 57.5h1m1 0h1m2 0h6m3 0h1m2 0h1m3 0h2m2 0h2m4 0h1m2 0h1m2 0h2m1 0h1m2 0h2m2 0h3m1 0h2m2 0h1m1 0h2m3 0h1m1 0h1m1 0h1m2 0h1m2 0h1m3 0h2m1 0h1m1 0h1m5 0h2m1 0h1m1 0h1m1 0h1m1 0h1m3 0h1m1 0h3m5 0h1m2 0h3m1 0h1m1 0h1M1 58.5h4m1 0h2m1 0h1m1 0h1m1 0h2m5 0h1m1 0h2m1 0h3m1 0h4m7 0h3m2 0h1m1 0h1m1 0h1m3 0h5m1 0h2m3 0h1m1 0h1m3 0h1m3 0h4m2 0h1m1 0h4m1 0h1m1 0h3m2 0h1m1 0h1m1 0h3m1 0h1m3 0h1m2 0h1m4 0h2m3 0h2m2 0h1M0 59.5h1m3 0h1m2 0h3m2 0h1m7 0h3m1 0h2m1 0h3m1 0h2m1 0h1m1 0h4m1 0h3m2 0h2m3 0h5m1 0h3m1 0h1m1 0h2m1 0h1m1 0h3m2 0h1m1 0h1m3 0h1m1 0h1m2 0h1m1 0h1m5 0h2m1 0h2m4 0h1m5 0h2m1 0h2m1 0h2m1 0h1m1 0h2m3 0h2M0 60.5h1m3 0h5m2 0h1m1 0h2m1 0h1m2 0h1m2 0h3m2 0h2m1 0h7m1 0h1m5 0h1m1 0h2m3 0h1m8 0h6m3 0h1m5 0h2m6 0h2m2 0h7m2 0h1m1 0h1m2 0h4m3 0h3m1 0h1m1 0h7m1 0h2M0 61.5h1m3 0h1m3 0h1m1 0h1m1 0h4m1 0h4m1 0h1m2 0h3m1 0h1m1 0h2m3 0h1m3 0h1m1 0h2m1 0h4m2 0h2m2 0h1m1 0h1m1 0h2m3 0h5m2 0h1m2 0h2m5 0h1m2 0h1m1 0h1m1 0h1m3 0h1m1 0h1m1 0h2m1 0h4m6 0h3m1 0h1m2 0h1m3 0h1m2 0h2M0 62.5h2m2 0h1m1 0h1m1 0h2m4 0h2m1 0h1m6 0h1m7 0h1m1 0h1m1 0h3m2 0h1m6 0h2m2 0h1m1 0h1m1 0h2m2 0h1m1 0h1m1 0h1m5 0h2m1 0h7m3 0h3m2 0h1m1 0h1m1 0h2m2 0h1m1 0h1m1 0h1m1 0h1m2 0h3m1 0h1m1 0h2m1 0h3m1 0h1m1 0h1M3 63.5h2m3 0h1m3 0h1m1 0h1m9 0h4m1 0h1m2 0h1m3 0h1m1 0h4m1 0h1m2 0h1m1 0h1m3 0h2m1 0h3m1 0h2m3 0h1m3 0h1m1 0h1m4 0h3m2 0h1m1 0h2m1 0h4m3 0h1m1 0h3m2 0h1m1 0h1m1 0h1m1 0h1m1 0h2m1 0h2m1 0h1m1 0h2m3 0h2m1 0h1M0 64.5h2m2 0h6m1 0h4m1 0h2m1 0h1m1 0h1m3 0h1m1 0h2m1 0h1m1 0h5m3 0h1m2 0h2m2 0h1m1 0h1m10 0h5m1 0h1m1 0h1m6 0h1m2 0h1m2 0h1m2 0h10m1 0h1m1 0h3m2 0h1m1 0h3m4 0h4m1 0h5m1 0h3M1 65.5h1m2 0h1m2 0h1m3 0h1m1 0h1m2 0h1m1 0h1m7 0h2m4 0h4m3 0h1m1 0h1m3 0h3m1 0h2m1 0h3m2 0h2m1 0h1m4 0h2m1 0h1m1 0h3m1 0h1m2 0h1m2 0h2m1 0h5m1 0h3m2 0h1m1 0h2m1 0h2m2 0h1m4 0h2m3 0h2m5 0h2m1 0h2M0 66.5h2m3 0h2m1 0h3m1 0h2m1 0h1m8 0h1m1 0h1m4 0h3m1 0h1m2 0h2m1 0h1m4 0h1m1 0h3m1 0h1m3 0h2m6 0h1m4 0h2m1 0h1m1 0h3m1 0h1m1 0h1m2 0h3m3 0h1m2 0h2m1 0h2m1 0h1m1 0h4m1 0h2m1 0h1m2 0h1m3 0h1m1 0h5M0 67.5h1m1 0h1m2 0h1m1 0h1m4 0h3m1 0h4m2 0h3m2 0h3m2 0h1m1 0h1m3 0h1m2 0h1m1 0h1m2 0h1m1 0h2m7 0h1m1 0h2m1 0h3m2 0h3m5 0h1m1 0h2m1 0h4m2 0h2m2 0h2m4 0h1m2 0h1m3 0h1m1 0h1m1 0h1m1 0h2m3 0h1m2 0h1m3 0h1M0 68.5h1m2 0h1m2 0h1m1 0h1m1 0h1m5 0h1m1 0h3m3 0h3m1 0h4m3 0h2m1 0h1m2 0h1m5 0h1m1 0h1m3 0h1m2 0h6m1 0h4m1 0h3m2 0h1m3 0h1m3 0h1m2 0h6m2 0h2m8 0h1m1 0h1m4 0h1m2 0h2m4 0h2m2 0h1M0 69.5h1m1 0h1m1 0h2m4 0h3m2 0h1m1 0h1m1 0h4m1 0h1m2 0h3m2 0h1m1 0h1m1 0h1m2 0h1m2 0h1m4 0h2m2 0h2m2 0h1m1 0h1m1 0h1m1 0h1m4 0h1m2 0h1m4 0h2m1 0h1m1 0h2m3 0h2m2 0h1m1 0h2m2 0h3m2 0h1m1 0h1m1 0h1m3 0h1m2 0h2m1 0h2m1 0h1m3 0h1m1 0h1m1 0h1M0 70.5h3m1 0h1m1 0h1m3 0h6m1 0h2m2 0h1m2 0h1m2 0h2m3 0h3m1 0h3m2 0h1m2 0h3m2 0h2m4 0h3m1 0h1m1 0h2m1 0h1m2 0h4m6 0h1m3 0h1m2 0h2m1 0h1m1 0h2m2 0h1m2 0h3m1 0h3m2 0h3m1 0h1m1 0h2m2 0h1m1 0h2m4 0h1M3 71.5h3m1 0h2m1 0h1m2 0h2m2 0h1m1 0h1m3 0h3m5 0h2m1 0h1m3 0h4m1 0h1m3 0h1m1 0h1m1 0h3m1 0h1m2 0h3m1 0h1m1 0h1m1 0h2m4 0h3m7 0h1m2 0h2m3 0h1m2 0h2m2 0h1m1 0h1m3 0h1m1 0h1m1 0h1m2 0h1m3 0h1m1 0h2m2 0h2m1 0h2M1 72.5h6m2 0h2m1 0h3m3 0h1m4 0h2m3 0h1m1 0h1m1 0h1m2 0h1m1 0h3m1 0h2m3 0h2m8 0h1m2 0h3m2 0h1m1 0h1m1 0h1m1 0h3m1 0h1m1 0h1m1 0h3m1 0h3m4 0h1m2 0h2m1 0h1m1 0h2m3 0h7m2 0h1m1 0h1m1 0h1m1 0h3m2 0h1M0 73.5h1m1 0h4m1 0h1m1 0h4m1 0h1m1 0h1m2 0h1m1 0h4m1 0h2m2 0h2m2 0h2m3 0h3m3 0h2m1 0h1m2 0h1m1 0h1m2 0h1m2 0h1m1 0h2m1 0h7m3 0h4m1 0h2m2 0h1m2 0h3m2 0h1m2 0h1m1 0h1m1 0h2m2 0h1m2 0h1m4 0h1m3 0h4m2 0h2m1 0h2M1 74.5h6m1 0h1m5 0h2m4 0h1m5 0h1m2 0h2m2 0h4m2 0h3m1 0h2m1 0h2m3 0h1m3 0h2m1 0h2m1 0h1m2 0h3m1 0h1m1 0h2m1 0h1m1 0h1m1 0h3m1 0h4m2 0h1m1 0h1m1 0h1m5 0h2m1 0h1m1 0h1m1 0h1m1 0h1m1 0h1m3 0h2m4 0h1m2 0h2M0 75.5h6m2 0h4m3 0h3m2 0h6m2 0h3m3 0h3m1 0h1m1 0h1m1 0h1m1 0h1m1 0h6m2 0h1m2 0h1m2 0h1m1 0h1m2 0h1m2 0h2m2 0h3m2 0h2m1 0h1m1 0h1m2 0h3m1 0h2m3 0h3m2 0h1m2 0h1m2 0h3m1 0h3m2 0h1m1 0h6m1 0h2M1 76.5h2m1 0h3m1 0h2m1 0h2m1 0h2m1 0h1m1 0h1m3 0h2m2 0h3m2 0h1m2 0h4m2 0h2m1 0h4m1 0h1m1 0h3m1 0h2m2 0h1m2 0h1m1 0h1m1 0h2m1 0h1m1 0h2m2 0h1m1 0h1m3 0h1m1 0h3m2 0h2m2 0h2m1 0h1m1 0h2m3 0h1m1 0h2m2 0h1m2 0h3m1 0h1m1 0h1m1 0h2m1 0h1M0 77.5h4m1 0h1m1 0h1m4 0h4m1 0h1m2 0h1m1 0h5m1 0h2m1 0h2m3 0h2m2 0h1m1 0h1m1 0h1m2 0h1m2 0h1m1 0h5m3 0h3m2 0h1m3 0h1m2 0h3m1 0h2m1 0h1m1 0h2m1 0h2m2 0h1m1 0h2m2 0h1m1 0h1m1 0h1m2 0h1m3 0h1m1 0h3m4 0h1m1 0h2m5 0h2M1 78.5h3m1 0h2m2 0h1m4 0h4m2 0h1m1 0h1m1 0h3m1 0h2m2 0h2m2 0h3m1 0h1m2 0h1m2 0h1m1 0h1m2 0h1m2 0h1m3 0h1m2 0h2m1 0h1m2 0h2m3 0h1m1 0h2m1 0h1m3 0h1m1 0h1m1 0h1m1 0h1m1 0h1m1 0h3m1 0h1m1 0h9m6 0h2m1 0h1m2 0h3m1 0h1M0 79.5h1m2 0h1m1 0h1m2 0h1m1 0h2m1 0h3m1 0h1m3 0h3m5 0h1m1 0h2m2 0h1m2 0h5m5 0h1m3 0h1m4 0h1m1 0h1m1 0h1m4 0h1m2 0h1m2 0h1m3 0h1m1 0h5m3 0h2m2 0h1m3 0h3m4 0h1m3 0h1m1 0h1m1 0h3m2 0h2m3 0h2m2 0h2M0 80.5h3m1 0h1m1 0h4m4 0h2m2 0h2m1 0h1m2 0h2m1 0h1m1 0h2m2 0h3m2 0h3m1 0h4m3 0h1m2 0h1m1 0h2m1 0h1m1 0h1m1 0h3m3 0h1m3 0h1m2 0h1m1 0h3m1 0h1m1 0h3m1 0h1m2 0h1m1 0h3m1 0h1m3 0h1m1 0h2m1 0h2m2 0h2m3 0h2m2 0h4m1 0h1M0 81.5h3m1 0h2m2 0h1m5 0h3m3 0h1m2 0h3m1 0h1m2 0h1m1 0h1m9 0h1m3 0h5m4 0h2m1 0h1m2 0h2m1 0h4m2 0h1m2 0h1m1 0h1m1 0h3m1 0h1m1 0h1m1 0h1m1 0h2m1 0h1m3 0h1m1 0h2m5 0h1m1 0h1m8 0h1m4 0h1m2 0h1M0 82.5h9m2 0h2m1 0h1m1 0h4m1 0h1m2 0h2m5 0h7m4 0h1m2 0h1m1 0h1m4 0h3m2 0h1m2 0h4m2 0h1m3 0h5m2 0h1m4 0h3m4 0h1m1 0h3m1 0h3m4 0h1m3 0h3m3 0h2m1 0h4m1 0h2M0 83.5h2m1 0h3m1 0h1m1 0h1m2 0h1m1 0h2m2 0h1m1 0h4m1 0h3m4 0h2m1 0h2m4 0h4m1 0h1m5 0h3m4 0h7m2 0h5m4 0h1m1 0h5m1 0h3m2 0h2m2 0h3m1 0h2m8 0h4m2 0h2m1 0h1m2 0h2m1 0h2M1 84.5h1m4 0h2m1 0h3m1 0h3m2 0h1m1 0h1m4 0h1m3 0h2m1 0h2m2 0h1m2 0h1m4 0h1m1 0h2m1 0h1m4 0h3m1 0h1m3 0h3m2 0h1m7 0h8m1 0h1m2 0h3m2 0h2m1 0h1m1 0h1m3 0h4m5 0h2m2 0h1m3 0h3m1 0h3M2 85.5h1m1 0h2m4 0h3m1 0h1m2 0h1m6 0h1m3 0h1m4 0h1m3 0h1m3 0h2m1 0h1m3 0h1m2 0h3m1 0h3m1 0h1m1 0h1m1 0h1m2 0h1m2 0h3m2 0h1m4 0h2m4 0h1m2 0h1m1 0h2m2 0h1m1 0h1m1 0h2m1 0h1m3 0h1m1 0h2m1 0h1m3 0h1m1 0h4m4 0h1M0 86.5h1m1 0h1m2 0h3m1 0h1m1 0h1m2 0h1m2 0h2m2 0h1m1 0h1m4 0h2m1 0h2m2 0h1m2 0h1m4 0h1m1 0h1m1 0h3m2 0h4m2 0h1m2 0h8m3 0h1m3 0h2m2 0h6m1 0h1m3 0h6m5 0h2m2 0h3m3 0h1m7 0h1m1 0h1M1 87.5h5m5 0h2m1 0h4m1 0h3m1 0h7m2 0h2m4 0h1m2 0h1m5 0h1m1 0h2m2 0h3m2 0h2m1 0h1m1 0h1m1 0h1m1 0h3m2 0h2m1 0h1m2 0h2m1 0h3m2 0h3m1 0h4m3 0h3m1 0h1m3 0h1m1 0h1m1 0h3m2 0h1m1 0h1m4 0h1M2 88.5h7m1 0h2m2 0h1m1 0h1m5 0h1m1 0h1m1 0h2m1 0h1m2 0h6m2 0h1m1 0h1m3 0h3m1 0h2m1 0h1m3 0h8m1 0h2m5 0h2m2 0h2m5 0h2m1 0h6m2 0h1m2 0h1m3 0h2m4 0h2m1 0h1m3 0h8M1 89.5h1m1 0h2m3 0h2m1 0h3m2 0h1m1 0h2m3 0h1m6 0h1m1 0h1m3 0h1m1 0h3m4 0h4m2 0h2m2 0h6m3 0h1m4 0h3m3 0h3m4 0h1m2 0h4m3 0h3m1 0h2m1 0h1m1 0h1m1 0h1m1 0h1m2 0h1m1 0h2m2 0h3m3 0h2m2 0h1M2 90.5h1m1 0h1m1 0h1m1 0h1m9 0h2m1 0h1m1 0h1m3 0h3m1 0h2m1 0h1m1 0h2m2 0h1m1 0h3m1 0h1m6 0h1m2 0h1m1 0h1m1 0h1m1 0h1m1 0h2m1 0h3m5 0h3m1 0h3m2 0h1m2 0h2m1 0h1m1 0h2m1 0h2m4 0h5m1 0h3m2 0h2m2 0h1m1 0h1m1 0h1M1 91.5h1m1 0h2m3 0h1m2 0h3m1 0h1m2 0h1m1 0h2m3 0h1m2 0h1m1 0h3m3 0h1m1 0h1m3 0h1m1 0h1m1 0h1m2 0h1m1 0h1m1 0h1m1 0h2m1 0h1m1 0h1m3 0h1m5 0h1m1 0h1m1 0h2m2 0h1m6 0h2m1 0h1m3 0h1m1 0h1m1 0h3m1 0h1m4 0h1m4 0h2m2 0h3m3 0h2M0 92.5h2m1 0h6m2 0h1m1 0h9m2 0h2m2 0h2m2 0h5m3 0h2m1 0h1m3 0h1m1 0h2m1 0h1m1 0h2m2 0h11m3 0h1m1 0h1m2 0h5m1 0h2m3 0h6m3 0h1m1 0h1m2 0h4m1 0h2m2 0h1m4 0h5m1 0h2M2 93.5h1m2 0h1m1 0h1m1 0h2m1 0h3m1 0h1m2 0h1m2 0h2m4 0h1m1 0h1m1 0h6m1 0h1m1 0h5m2 0h1m2 0h2m1 0h1m2 0h1m1 0h1m5 0h1m4 0h4m1 0h1m1 0h1m3 0h2m1 0h1m1 0h4m4 0h6m1 0h1m1 0h1m5 0h3m1 0h2m1 0h3m1 0h1m1 0h3M1 94.5h1m1 0h2m1 0h5m4 0h1m1 0h2m1 0h1m4 0h1m1 0h2m1 0h3m2 0h1m1 0h2m1 0h1m1 0h2m1 0h1m3 0h1m4 0h5m2 0h6m2 0h1m1 0h1m1 0h1m1 0h1m2 0h1m2 0h2m1 0h2m1 0h1m3 0h2m3 0h1m2 0h1m2 0h4m2 0h1m2 0h2m1 0h1m2 0h1m3 0h2M1 95.5h1m3 0h1m1 0h2m2 0h3m1 0h2m1 0h1m1 0h3m1 0h6m3 0h2m2 0h1m2 0h1m2 0h1m1 0h1m1 0h1m2 0h1m4 0h2m1 0h6m1 0h2m1 0h1m3 0h1m8 0h3m1 0h3m4 0h1m1 0h5m1 0h1m1 0h1m6 0h1m6 0h1m3 0h1m3 0h1M0 96.5h1m4 0h4m1 0h1m3 0h1m2 0h2m4 0h1m3 0h8m2 0h2m3 0h1m1 0h1m1 0h3m1 0h1m3 0h1m2 0h1m1 0h1m3 0h1m1 0h1m1 0h2m1 0h1m1 0h1m1 0h1m4 0h3m2 0h1m1 0h1m3 0h3m4 0h1m1 0h1m1 0h3m1 0h5m1 0h1m3 0h1m1 0h1m1 0h2m1 0h2M1 97.5h1m1 0h1m3 0h2m2 0h2m2 0h2m1 0h2m6 0h7m2 0h2m1 0h4m2 0h1m1 0h6m1 0h5m1 0h1m1 0h2m1 0h4m1 0h2m4 0h1m2 0h8m1 0h3m3 0h6m4 0h1m3 0h2m1 0h3m1 0h1m3 0h3m2 0h2M0 98.5h2m4 0h1m4 0h1m3 0h1m2 0h4m4 0h1m4 0h2m1 0h2m1 0h1m2 0h2m2 0h2m2 0h2m1 0h1m1 0h1m3 0h1m1 0h2m1 0h1m1 0h2m1 0h1m1 0h2m2 0h2m2 0h4m2 0h3m3 0h5m5 0h1m2 0h1m1 0h1m2 0h3m1 0h3m1 0h1m5 0h3M2 99.5h2m1 0h1m3 0h2m1 0h1m2 0h1m1 0h1m2 0h1m2 0h1m2 0h1m4 0h1m2 0h2m1 0h2m1 0h3m6 0h2m4 0h2m4 0h1m1 0h1m1 0h1m6 0h2m3 0h1m1 0h2m2 0h1m2 0h2m2 0h1m1 0h1m1 0h1m1 0h6m1 0h1m2 0h2m2 0h1m3 0h1m4 0h3m1 0h2M0 100.5h1m1 0h2m1 0h6m2 0h6m1 0h1m1 0h6m2 0h3m1 0h3m2 0h1m1 0h1m1 0h4m3 0h3m1 0h1m1 0h4m2 0h2m4 0h2m1 0h1m2 0h3m2 0h3m2 0h1m3 0h6m3 0h1m4 0h2m1 0h1m2 0h1m4 0h5m2 0h1m1 0h1M0 101.5h1m1 0h1m1 0h1m3 0h1m1 0h2m1 0h1m3 0h4m2 0h1m1 0h3m6 0h1m4 0h2m2 0h2m1 0h8m1 0h1m1 0h1m1 0h3m1 0h1m2 0h1m4 0h2m1 0h2m1 0h2m2 0h4m2 0h1m2 0h2m1 0h4m2 0h3m5 0h2m1 0h3m1 0h1m3 0h4m2 0h1M1 102.5h4m1 0h4m4 0h1m1 0h2m1 0h3m2 0h2m1 0h2m1 0h3m1 0h3m3 0h11m1 0h3m1 0h2m3 0h3m2 0h1m1 0h1m1 0h2m2 0h4m1 0h1m1 0h2m1 0h1m4 0h2m1 0h1m1 0h1m7 0h1m1 0h2m1 0h2m2 0h3m9 0h1M2 103.5h1m1 0h1m2 0h1m3 0h8m1 0h1m2 0h2m1 0h1m1 0h3m2 0h3m2 0h1m1 0h1m3 0h2m5 0h1m1 0h2m2 0h3m1 0h2m1 0h2m4 0h6m1 0h1m1 0h5m3 0h2m1 0h2m3 0h1m1 0h4m2 0h1m2 0h2m2 0h1m2 0h2m3 0h4m2 0h1M0 104.5h2m2 0h5m3 0h1m6 0h1m1 0h1m1 0h4m5 0h1m3 0h1m1 0h2m3 0h1m4 0h3m2 0h4m1 0h1m7 0h5m1 0h1m2 0h1m1 0h1m4 0h4m1 0h4m1 0h2m2 0h3m3 0h2m1 0h2m1 0h1m2 0h2m2 0h3m1 0h2m1 0h2M0 105.5h1m6 0h1m1 0h2m4 0h4m1 0h2m1 0h3m2 0h3m1 0h1m1 0h2m2 0h2m1 0h1m2 0h1m4 0h3m2 0h3m1 0h1m1 0h3m2 0h3m1 0h2m1 0h1m2 0h2m2 0h1m2 0h1m1 0h1m1 0h2m2 0h2m4 0h1m3 0h2m6 0h3m2 0h2m1 0h1m1 0h4m2 0h1M0 106.5h1m1 0h1m3 0h1m2 0h1m1 0h1m2 0h3m2 0h1m1 0h2m3 0h1m2 0h2m1 0h1m3 0h5m4 0h1m4 0h1m1 0h1m2 0h6m1 0h2m2 0h1m1 0h1m1 0h3m1 0h1m3 0h1m4 0h2m2 0h4m1 0h3m2 0h1m1 0h2m2 0h3m4 0h1m1 0h1m2 0h1m1 0h1m1 0h1m3 0h1M1 107.5h2m1 0h1m3 0h1m1 0h1m2 0h2m1 0h3m1 0h2m4 0h2m1 0h1m4 0h2m1 0h2m3 0h1m3 0h2m1 0h2m1 0h8m3 0h1m2 0h1m1 0h1m1 0h5m5 0h1m2 0h2m1 0h1m1 0h1m2 0h1m1 0h1m1 0h3m1 0h2m5 0h2m3 0h1m2 0h1m3 0h1m1 0h1M0 108.5h2m1 0h2m1 0h6m1 0h2m1 0h1m5 0h1m2 0h1m1 0h2m2 0h1m2 0h1m1 0h1m3 0h2m2 0h1m1 0h2m1 0h3m1 0h6m1 0h2m2 0h1m1 0h1m2 0h2m1 0h1m2 0h1m3 0h2m2 0h1m1 0h1m2 0h1m1 0h1m2 0h1m1 0h2m5 0h1m1 0h2m2 0h1m2 0h3m1 0h2m4 0h4M0 109.5h1m1 0h4m1 0h1m2 0h3m1 0h4m2 0h1m3 0h1m2 0h3m4 0h5m1 0h1m1 0h1m1 0h1m1 0h1m5 0h1m3 0h1m2 0h1m2 0h1m1 0h2m2 0h1m2 0h3m1 0h1m1 0h1m1 0h3m2 0h1m1 0h5m2 0h1m3 0h2m2 0h1m4 0h1m2 0h3m5 0h4m3 0h1M0 110.5h1m4 0h5m1 0h1m3 0h1m1 0h3m1 0h4m1 0h3m1 0h3m2 0h1m1 0h1m1 0h1m1 0h2m1 0h2m2 0h4m1 0h1m3 0h1m2 0h2m2 0h1m1 0h3m1 0h1m1 0h1m1 0h2m1 0h1m1 0h3m1 0h2m2 0h2m3 0h1m1 0h2m1 0h1m4 0h3m2 0h2m1 0h1m1 0h2m2 0h2m1 0h1m2 0h2M0 111.5h1m1 0h1m4 0h3m1 0h4m5 0h1m4 0h2m1 0h2m2 0h3m1 0h2m1 0h1m1 0h2m4 0h2m1 0h1m2 0h1m4 0h5m1 0h5m1 0h2m1 0h2m1 0h1m3 0h3m1 0h8m4 0h3m1 0h1m1 0h1m2 0h2m7 0h1m3 0h1m1 0h1m3 0h1M0 112.5h1m1 0h3m1 0h3m3 0h1m2 0h1m3 0h2m1 0h2m1 0h1m4 0h2m1 0h1m1 0h3m5 0h4m6 0h1m2 0h1m1 0h1m2 0h3m1 0h3m2 0h1m2 0h1m5 0h2m1 0h2m6 0h2m3 0h2m2 0h1m1 0h3m3 0h2m3 0h1m1 0h3m2 0h1m1 0h2M0 113.5h1m2 0h1m1 0h1m5 0h2m1 0h6m1 0h3m1 0h2m1 0h1m3 0h1m4 0h3m1 0h2m2 0h2m1 0h1m1 0h3m3 0h1m1 0h2m2 0h3m6 0h1m2 0h3m2 0h2m1 0h1m1 0h4m2 0h1m4 0h2m3 0h1m2 0h1m1 0h1m1 0h5m6 0h3m3 0h1M1 114.5h1m2 0h3m4 0h1m5 0h1m4 0h1m2 0h1m1 0h4m2 0h2m1 0h1m1 0h1m3 0h3m2 0h1m1 0h2m1 0h1m1 0h1m2 0h1m1 0h1m1 0h1m2 0h1m3 0h3m1 0h2m1 0h4m2 0h1m1 0h1m2 0h1m1 0h2m2 0h3m6 0h2m1 0h2m2 0h1m2 0h7m1 0h1m1 0h1m1 0h1M0 115.5h1m1 0h1m1 0h2m2 0h2m1 0h2m1 0h1m2 0h1m2 0h4m2 0h1m3 0h3m1 0h1m1 0h1m1 0h1m1 0h1m3 0h1m3 0h1m1 0h2m1 0h2m1 0h1m1 0h1m1 0h3m3 0h1m3 0h3m2 0h2m1 0h1m1 0h2m2 0h1m1 0h3m1 0h2m1 0h1m1 0h2m1 0h1m1 0h1m2 0h1m2 0h1m1 0h3m4 0h1m2 0h1m1 0h1M0 116.5h1m5 0h1m2 0h2m5 0h7m1 0h1m2 0h4m1 0h6m1 0h7m3 0h3m1 0h1m1 0h1m1 0h1m2 0h6m3 0h1m2 0h1m4 0h3m5 0h1m2 0h5m2 0h1m3 0h1m1 0h1m1 0h3m1 0h2m3 0h1m1 0h1m1 0h7M8 117.5h1m1 0h1m2 0h1m1 0h2m1 0h2m1 0h1m2 0h1m1 0h1m3 0h3m3 0h1m3 0h1m7 0h1m1 0h1m1 0h3m1 0h1m1 0h1m1 0h1m3 0h1m5 0h3m5 0h7m1 0h3m3 0h1m2 0h6m2 0h2m3 0h3m5 0h1m3 0h1m1 0h3M0 118.5h7m2 0h1m2 0h1m1 0h1m1 0h1m2 0h1m2 0h2m1 0h1m1 0h1m1 0h2m1 0h1m1 0h1m1 0h3m1 0h1m1 0h1m2 0h2m4 0h1m2 0h1m1 0h1m3 0h1m1 0h1m1 0h2m1 0h1m1 0h1m2 0h1m2 0h1m1 0h1m1 0h4m2 0h1m1 0h2m1 0h1m1 0h4m1 0h1m1 0h2m3 0h2m1 0h2m3 0h5m1 0h1m1 0h1M0 119.5h1m5 0h1m2 0h1m1 0h1m1 0h1m1 0h1m2 0h2m6 0h3m2 0h2m3 0h3m1 0h2m1 0h1m2 0h1m1 0h2m1 0h1m2 0h1m1 0h2m1 0h2m3 0h3m4 0h1m1 0h1m1 0h1m3 0h1m1 0h1m2 0h2m1 0h2m3 0h2m2 0h1m1 0h1m1 0h1m1 0h1m3 0h3m2 0h1m1 0h1m1 0h2m3 0h1m3 0h1M0 120.5h1m1 0h3m1 0h1m1 0h1m1 0h1m1 0h1m1 0h1m2 0h4m2 0h1m1 0h1m2 0h3m1 0h5m1 0h6m1 0h1m2 0h1m2 0h3m3 0h2m1 0h8m4 0h1m1 0h2m2 0h1m1 0h1m7 0h5m2 0h1m3 0h1m2 0h1m2 0h1m1 0h1m3 0h1m2 0h1m1 0h8M0 121.5h1m1 0h3m1 0h1m1 0h2m7 0h3m1 0h1m2 0h1m4 0h2m2 0h2m1 0h5m1 0h1m1 0h1m1 0h2m3 0h1m3 0h1m3 0h1m1 0h1m1 0h3m1 0h1m7 0h1m3 0h1m1 0h6m2 0h3m1 0h1m2 0h2m1 0h1m2 0h2m2 0h1m1 0h4m1 0h2m5 0h2m1 0h1M0 122.5h1m1 0h3m1 0h1m1 0h2m5 0h4m1 0h2m1 0h3m1 0h1m1 0h2m2 0h2m1 0h3m2 0h4m4 0h5m2 0h1m1 0h2m1 0h2m1 0h1m3 0h2m1 0h3m4 0h1m3 0h1m4 0h6m1 0h1m4 0h1m3 0h2m2 0h2m3 0h3m2 0h2m1 0h1m1 0h2M0 123.5h1m5 0h1m2 0h1m1 0h1m4 0h2m4 0h1m1 0h2m1 0h1m3 0h2m1 0h2m2 0h2m1 0h1m2 0h2m1 0h5m1 0h9m2 0h1m1 0h1m1 0h2m1 0h4m1 0h1m2 0h2m1 0h5m4 0h1m1 0h6m1 0h1m1 0h2m2 0h3m1 0h2m3 0h3m1 0h1m3 0h1M0 124.5h7m2 0h1m3 0h2m2 0h1m2 0h1m1 0h4m3 0h2m1 0h1m1 0h1m1 0h1m1 0h1m1 0h1m6 0h1m1 0h1m1 0h1m1 0h1m3 0h3m1 0h1m1 0h2m1 0h1m5 0h2m2 0h3m1 0h3m2 0h1m4 0h2m1 0h1m2 0h2m1 0h1m3 0h3m3 0h1m2 0h3m2 0h2m1 0h2"/></g><text x="60" y="460" font-family="monospace" font-size="18">payload chars: 1064</text><text x="500" y="460" font-family="monospace" font-size="18">payload chars: 604</text></svg>