<svg xmlns="http://www.w3.org/2000/svg" width="1100" height="700" viewBox="0 0 1100 700"><rect width="1100" height="700" fill="#fff"/><text x="60" y="50" font-family="monospace" font-size="28">Before: H / margin 0 / 220</text><text x="600" y="50" font-family="monospace" font-size="28">After: M / margin 4 / 320</text><g transform="translate(60,100)"><path fill="#ffffff" d="M0 0h125v125H0z"/><path stroke="#111111" d="M0 0.5h7m1 0h1m1 0h2m2 0h1m3 0h4m1 0h2m4 0h2m5 0h3m1 0h1m1 0h3m1 0h1m1 0h1m1 0h1m3 0h1m1 0h1m2 0h1m1 0h1m1 0h3m1 0h6m1 0h1m2 0h3m1 0h4m4 0h1m3 0h1m1 0h5m3 0h2m2 0h3m1 0h1m3 0h2m1 0h7M0 1.5h1m5 0h1m1 0h1m1 0h5m2 0h1m3 0h1m1 0h1m1 0h6m4 0h2m1 0h3m4 0h1m4 0h2m4 0h2m4 0h1m1 0h3m1 0h1m7 0h1m1 0h1m6 0h9m1 0h1m3 0h1m1 0h1m1 0h1m3 0h1m1 0h3m1 0h2m3 0h1m5 0h1M0 2.5h1m1 0h3m1 0h1m1 0h1m4 0h4m2 0h1m2 0h4m1 0h1m3 0h1m1 0h3m1 0h1m1 0h1m1 0h1m1 0h6m1 0h1m2 0h3m2 0h1m2 0h1m1 0h1m1 0h2m2 0h1m1 0h2m1 0h2m3 0h1m1 0h1m1 0h3m2 0h1m1 0h1m3 0h1m1 0h2m1 0h2m1 0h1m1 0h3m1 0h1m1 0h1m1 0h1m2 0h1m2 0h1m1 0h3m1 0h1M0 3.5h1m1 0h3m1 0h1m2 0h1m2 0h3m2 0h2m2 0h5m1 0h5m1 0h5m2 0h3m1 0h3m1 0h1m2 0h1m1 0h3m1 0h1m2 0h1m2 0h2m1 0h1m1 0h2m1 0h1m1 0h4m2 0h1m3 0h1m3 0h1m2 0h4m5 0h3m1 0h1m1 0h1m3 0h2m7 0h1m1 0h3m1 0h1M0 4.5h1m1 0h3m1 0h1m3 0h1m2 0h4m1 0h3m3 0h5m2 0h6m1 0h2m2 0h2m1 0h1m1 0h3m3 0h1m4 0h7m1 0h5m1 0h1m1 0h9m1 0h1m3 0h7m2 0h2m4 0h1m2 0h1m1 0h1m1 0h3m1 0h2m2 0h1m1 0h3m1 0h1M0 5.5h1m5 0h1m1 0h4m2 0h3m4 0h1m4 0h2m1 0h2m1 0h1m3 0h2m1 0h1m4 0h2m1 0h2m2 0h2m3 0h5m3 0h7m1 0h4m2 0h3m4 0h4m3 0h2m1 0h2m4 0h1m3 0h2m2 0h1m1 0h5m2 0h1m5 0h1M0 6.5h7m1 0h1m1 0h1m1 0h1m1 0h1m1 0h1m1 0h1m1 0h1m1 0h1m1 0h1m1 0h1m1 0h1m1 0h1m1 0h1m1 0h1m1 0h1m1 0h1m1 0h1m1 0h1m1 0h1m1 0h1m1 0h1m1 0h1m1 0h1m1 0h1m1 0h1m1 0h1m1 0h1m1 0h1m1 0h1m1 0h1m1 0h1m1 0h1m1 0h1m1 0h1m1 0h1m1 0h1m1 0h1m1 0h1m1 0h1m1 0h1m1 0h1m1 0h1m1 0h1m1 0h1m1 0h1m1 0h1m1 0h1m1 0h1m1 0h1m1 0h1m1 0h1m1 0h1m1 0h1m1 0h1m1 0h1m1 0h7M8 7.5h1m5 0h1m1 0h1m1 0h3m1 0h3m1 0h2m1 0h1m2 0h1m3 0h1m1 0h1m1 0h1m1 0h1m4 0h1m1 0h4m5 0h1m1 0h1m3 0h1m3 0h1m3 0h2m4 0h1m2 0h1m2 0h2m1 0h2m3 0h1m1 0h5m3 0h3m2 0h2m3 0h1m2 0h2M2 8.5h3m1 0h1m1 0h1m3 0h2m3 0h2m2 0h1m1 0h3m1 0h13m2 0h1m1 0h1m1 0h1m1 0h1m5 0h11m2 0h3m3 0h2m1 0h2m2 0h2m4 0h1m1 0h7m1 0h1m2 0h2m1 0h1m6 0h1m1 0h1m2 0h1m2 0h3m2 0h3M1 9.5h1m1 0h1m1 0h1m1 0h2m2 0h1m1 0h1m1 0h2m2 0h1m3 0h1m2 0h1m3 0h2m1 0h1m5 0h6m2 0h2m2 0h1m1 0h2m2 0h10m2 0h3m1 0h3m2 0h2m4 0h2m2 0h2m3 0h1m1 0h1m1 0h2m2 0h1m1 0h7m3 0h3m1 0h1m1 0h1m2 0h1M0 10.5h3m2 0h3m2 0h4m1 0h2m1 0h3m1 0h4m1 0h1m1 0h3m3 0h2m1 0h3m1 0h1m4 0h3m3 0h1m1 0h3m1 0h2m2 0h1m1 0h2m2 0h2m1 0h1m1 0h1m1 0h4m1 0h3m2 0h2m1 0h2m2 0h1m1 0h3m1 0h6m5 0h2m2 0h1m1 0h1m3 0h2m1 0h2M2 11.5h2m1 0h1m1 0h3m1 0h4m1 0h1m1 0h3m2 0h1m2 0h4m2 0h1m3 0h2m1 0h4m2 0h2m1 0h1m1 0h4m1 0h4m1 0h4m1 0h3m1 0h2m4 0h1m5 0h1m1 0h4m2 0h2m1 0h1m1 0h1m1 0h1m1 0h2m1 0h1m2 0h5m3 0h2m1 0h3m4 0h1M0 12.5h2m1 0h1m1 0h3m4 0h2m1 0h1m2 0h1m1 0h1m9 0h1m3 0h1m1 0h1m2 0h3m2 0h3m3 0h2m2 0h2m1 0h2m3 0h1m1 0h2m4 0h1m6 0h2m1 0h4m5 0h5m1 0h3m2 0h1m1 0h1m2 0h1m2 0h2m1 0h1m1 0h2m3 0h1m1 0h2m2 0h1M1 13.5h3m1 0h1m3 0h1m6 0h1m2 0h5m1 0h1m1 0h1m2 0h6m1 0h3m1 0h4m2 0h6m2 0h1m1 0h1m3 0h1m2 0h1m1 0h2m5 0h1m2 0h4m1 0h1m2 0h1m3 0h1m5 0h1m1 0h1m1 0h2m5 0h5m1 0h1m1 0h2m1 0h1m2 0h1m1 0h1m1 0h1M0 14.5h2m1 0h2m1 0h1m5 0h1m1 0h2m1 0h1m1 0h1m1 0h2m3 0h1m3 0h2m1 0h1m1 0h1m1 0h3m1 0h2m1 0h1m1 0h1m1 0h4m1 0h2m5 0h5m1 0h1m2 0h6m1 0h1m1 0h2m2 0h1m1 0h4m2 0h4m1 0h2m3 0h1m1 0h2m2 0h2m2 0h1m3 0h1m4 0h2m2 0h1M7 15.5h1m1 0h1m2 0h1m1 0h1m5 0h1m1 0h2m1 0h1m1 0h2m2 0h1m4 0h1m4 0h1m1 0h1m2 0h1m1 0h1m1 0h2m1 0h3m2 0h3m1 0h1m1 0h3m1 0h1m2 0h4m2 0h6m1 0h1m2 0h3m4 0h1m1 0h3m2 0h1m1 0h3m2 0h2m1 0h3m2 0h2m1 0h4m1 0h1M0 16.5h4m2 0h2m1 0h1m2 0h2m1 0h1m1 0h1m2 0h1m10 0h2m2 0h1m5 0h3m2 0h2m1 0h3m1 0h1m2 0h5m4 0h4m2 0h2m1 0h1m2 0h1m5 0h1m1 0h1m1 0h1m1 0h2m3 0h4m1 0h2m1 0h1m4 0h4m3 0h2m2 0h1m2 0h1m1 0h1M0 17.5h2m1 0h3m5 0h2m3 0h2m1 0h2m2 0h4m2 0h1m1 0h1m1 0h2m2 0h1m1 0h1m3 0h2m1 0h1m2 0h4m2 0h1m2 0h1m1 0h7m2 0h1m2 0h3m1 0h3m1 0h2m2 0h1m2 0h1m3 0h1m2 0h1m1 0h1m1 0h2m5 0h2m6 0h5m2 0h1m1 0h1M0 18.5h3m1 0h1m1 0h1m5 0h5m2 0h2m3 0h2m2 0h2m1 0h1m1 0h2m1 0h1m1 0h1m1 0h1m2 0h4m2 0h2m2 0h3m1 0h3m2 0h5m2 0h1m2 0h1m1 0h1m3 0h2m2 0h2m1 0h3m2 0h1m1 0h1m2 0h3m2 0h4m1 0h1m4 0h1m3 0h1m4 0h1M3 19.5h2m2 0h2m2 0h1m2 0h2m6 0h4m4 0h1m2 0h1m4 0h1m3 0h2m1 0h1m3 0h3m1 0h1m3 0h2m3 0h1m2 0h1m1 0h2m1 0h5m2 0h4m2 0h3m1 0h1m1 0h2m3 0h2m2 0h2m4 0h1m2 0h2m3 0h2m2 0h1m4 0h2m1 0h1M1 20.5h1m1 0h2m1 0h1m2 0h1m1 0h3m1 0h5m1 0h1m1 0h1m1 0h5m1 0h1m1 0h1m2 0h2m2 0h4m1 0h3m1 0h6m1 0h1m4 0h4m3 0h2m2 0h2m2 0h4m3 0h1m6 0h1m1 0h1m3 0h1m3 0h4m1 0h1m1 0h1m3 0h1m1 0h3m1 0h3m3 0h1M1 21.5h4m2 0h2m3 0h1m2 0h3m1 0h2m1 0h3m5 0h1m1 0h1m3 0h2m1 0h1m1 0h2m1 0h1m1 0h3m2 0h6m1 0h1m1 0h2m1 0h2m1 0h1m4 0h1m1 0h2m3 0h1m1 0h2m2 0h1m4 0h1m3 0h1m1 0h1m1 0h3m1 0h4m1 0h1m1 0h2m1 0h2m6 0h2m2 0h1M0 22.5h2m2 0h8m1 0h1m2 0h1m3 0h1m1 0h1m2 0h2m1 0h1m4 0h2m6 0h1m1 0h1m1 0h3m3 0h2m2 0h2m1 0h4m5 0h1m2 0h1m1 0h1m2 0h1m2 0h1m1 0h1m1 0h1m1 0h3m1 0h1m1 0h1m1 0h1m3 0h2m1 0h4m2 0h1m1 0h1m3 0h1m1 0h3m1 0h3M5 23.5h1m2 0h4m2 0h1m2 0h2m2 0h3m1 0h1m1 0h4m1 0h6m2 0h1m2 0h1m2 0h1m2 0h3m2 0h3m1 0h1m5 0h4m2 0h3m3 0h2m1 0h3m3 0h1m1 0h1m1 0h3m1 0h3m2 0h1m5 0h1m3 0h2m2 0h1m3 0h2m2 0h5M0 24.5h3m1 0h3m1 0h1m1 0h1m1 0h2m2 0h2m2 0h2m5 0h4m5 0h2m3 0h2m3 0h1m2 0h10m1 0h3m1 0h10m2 0h2m1 0h1m3 0h1m5 0h2m1 0h2m2 0h1m2 0h2m2 0h1m1 0h1m5 0h1m2 0h2m2 0h3m1 0h1M0 25.5h3m5 0h1m3 0h2m1 0h3m1 0h1m4 0h1m1 0h2m2 0h3m1 0h1m2 0h2m1 0h2m1 0h1m1 0h1m2 0h3m2 0h3m3 0h5m1 0h2m4 0h1m3 0h1m5 0h1m2 0h1m8 0h2m2 0h2m3 0h1m1 0h1m1 0h1m1 0h3m2 0h1m1 0h1m2 0h1m1 0h2m1 0h1M2 26.5h3m1 0h2m1 0h1m4 0h2m1 0h1m1 0h2m1 0h1m4 0h1m2 0h3m1 0h1m1 0h3m1 0h2m1 0h1m3 0h2m2 0h1m2 0h2m4 0h2m2 0h1m1 0h1m2 0h1m2 0h1m3 0h1m1 0h3m1 0h2m1 0h2m1 0h6m2 0h1m3 0h1m1 0h2m1 0h1m1 0h3m1 0h4m1 0h2m6 0h1M1 27.5h1m2 0h2m1 0h1m4 0h4m1 0h2m1 0h1m5 0h3m2 0h1m1 0h4m3 0h1m5 0h3m3 0h4m3 0h2m2 0h6m2 0h2m1 0h4m1 0h1m1 0h2m1 0h1m2 0h1m5 0h3m2 0h2m1 0h1m1 0h3m1 0h5m1 0h2m1 0h2m1 0h2m1 0h3M0 28.5h1m1 0h3m1 0h1m5 0h1m4 0h1m1 0h1m2 0h3m2 0h1m1 0h1m2 0h1m3 0h3m3 0h1m2 0h1m1 0h1m2 0h1m3 0h2m3 0h3m1 0h1m1 0h1m1 0h1m2 0h1m1 0h1m1 0h1m2 0h3m5 0h4m1 0h1m2 0h2m1 0h2m1 0h4m8 0h4m2 0h3m3 0h1M1 29.5h1m3 0h1m1 0h5m1 0h1m1 0h3m2 0h1m4 0h1m2 0h2m2 0h6m1 0h1m1 0h1m2 0h2m1 0h3m1 0h4m3 0h2m4 0h3m1 0h3m1 0h2m2 0h2m2 0h1m2 0h2m1 0h2m1 0h1m3 0h1m3 0h3m2 0h1m1 0h4m1 0h2m5 0h1m1 0h1m1 0h1m3 0h1M1 30.5h2m3 0h1m1 0h4m1 0h1m6 0h1m5 0h1m3 0h1m1 0h1m1 0h4m4 0h1m3 0h1m3 0h2m3 0h1m2 0h1m1 0h1m1 0h1m1 0h3m1 0h5m2 0h1m1 0h1m2 0h3m2 0h6m1 0h1m2 0h6m1 0h2m1 0h1m1 0h1m1 0h1m1 0h1m1 0h4m1 0h1m4 0h1M1 31.5h1m1 0h3m1 0h1m2 0h1m3 0h1m3 0h1m3 0h3m1 0h1m2 0h1m2 0h1m1 0h3m2 0h2m2 0h2m1 0h3m1 0h8m6 0h2m3 0h2m1 0h3m3 0h3m2 0h2m4 0h1m1 0h1m1 0h3m5 0h1m2 0h1m2 0h2m1 0h1m2 0h2m1 0h1m2 0h2m1 0h1m1 0h1M1 32.5h1m1 0h6m2 0h1m1 0h2m1 0h3m1 0h1m3 0h2m2 0h1m2 0h6m1 0h1m2 0h1m2 0h4m1 0h1m2 0h4m1 0h12m4 0h1m2 0h1m2 0h2m1 0h1m2 0h9m2 0h1m1 0h2m1 0h3m1 0h1m1 0h1m4 0h1m1 0h7m2 0h1M0 33.5h2m2 0h1m3 0h4m1 0h1m3 0h3m2 0h1m1 0h1m2 0h2m1 0h1m1 0h1m3 0h1m1 0h1m2 0h1m1 0h1m1 0h1m5 0h1m3 0h4m1 0h1m3 0h1m1 0h2m3 0h1m3 0h4m1 0h1m2 0h2m1 0h1m1 0h1m3 0h1m1 0h2m1 0h1m4 0h1m3 0h1m1 0h4m1 0h1m2 0h1m3 0h1m2 0h1M1 34.5h1m2 0h1m1 0h1m1 0h1m3 0h6m1 0h1m3 0h2m1 0h1m1 0h3m1 0h1m1 0h1m1 0h1m1 0h1m2 0h3m4 0h13m1 0h1m1 0h4m2 0h1m5 0h2m4 0h7m1 0h1m1 0h2m1 0h9m12 0h1m1 0h1m1 0h1m2 0h1M0 35.5h2m1 0h2m3 0h2m1 0h2m1 0h1m1 0h3m2 0h5m1 0h1m1 0h4m3 0h1m1 0h1m2 0h2m1 0h5m1 0h1m2 0h1m3 0h1m1 0h2m3 0h1m1 0h3m2 0h1m2 0h1m1 0h3m4 0h2m2 0h2m3 0h1m1 0h2m7 0h2m2 0h4m2 0h4m3 0h1m3 0h1M3 36.5h8m1 0h1m2 0h1m3 0h1m1 0h1m3 0h1m1 0h1m2 0h8m1 0h2m2 0h2m3 0h2m3 0h1m1 0h1m1 0h1m2 0h5m2 0h1m2 0h2m4 0h2m2 0h2m6 0h6m1 0h2m1 0h3m1 0h1m2 0h1m3 0h1m1 0h4m1 0h5m2 0h1M0 37.5h3m1 0h2m1 0h1m4 0h2m2 0h5m3 0h3m1 0h1m2 0h3m1 0h1m2 0h2m8 0h2m1 0h1m3 0h1m2 0h1m1 0h2m3 0h1m1 0h1m1 0h2m1 0h4m5 0h1m3 0h1m4 0h5m1 0h2m8 0h1m1 0h3m5 0h3m4 0h1M0 38.5h1m2 0h1m1 0h3m1 0h1m1 0h2m3 0h2m2 0h2m2 0h1m1 0h1m2 0h1m2 0h2m2 0h3m2 0h1m1 0h2m1 0h1m8 0h1m11 0h1m4 0h3m1 0h1m1 0h1m1 0h1m2 0h1m1 0h1m1 0h3m5 0h2m1 0h1m1 0h5m2 0h1m1 0h1m3 0h3M0 39.5h2m1 0h1m1 0h1m2 0h6m1 0h2m1 0h1m2 0h1m2 0h1m1 0h4m1 0h1m1 0h1m2 0h1m1 0h3m1 0h4m3 0h2m3 0h10m2 0h1m1 0h2m1 0h1m1 0h1m2 0h6m2 0h3m1 0h7m2 0h1m1 0h1m1 0h1m2 0h5m1 0h2m2 0h1m1 0h2m1 0h1m1 0h4M1 40.5h3m1 0h3m4 0h2m1 0h1m1 0h2m1 0h3m1 0h1m2 0h2m1 0h2m3 0h1m1 0h1m5 0h2m1 0h1m1 0h2m2 0h1m1 0h1m1 0h1m1 0h1m2 0h1m2 0h1m1 0h3m1 0h2m1 0h1m5 0h2m6 0h2m4 0h1m1 0h2m2 0h3m3 0h1m1 0h2m2 0h6m4 0h1M2 41.5h1m1 0h2m3 0h2m3 0h1m2 0h1m3 0h1m1 0h1m1 0h1m1 0h2m1 0h1m3 0h1m1 0h1m1 0h1m1 0h1m2 0h1m1 0h1m6 0h1m2 0h1m1 0h1m1 0h1m1 0h3m2 0h1m1 0h3m2 0h4m1 0h1m1 0h2m1 0h4m3 0h1m8 0h2m3 0h1m1 0h1m2 0h1m6 0h3m3 0h2M0 42.5h4m1 0h2m3 0h11m1 0h1m6 0h2m1 0h2m4 0h3m1 0h1m2 0h1m1 0h3m1 0h1m1 0h4m3 0h2m3 0h3m1 0h1m3 0h2m1 0h3m1 0h1m1 0h1m4 0h1m1 0h1m2 0h2m2 0h3m1 0h8m1 0h1m1 0h5m1 0h1M0 43.5h1m1 0h1m6 0h1m3 0h1m2 0h1m1 0h1m2 0h3m4 0h6m1 0h3m1 0h1m1 0h3m2 0h3m1 0h3m1 0h2m1 0h2m4 0h3m5 0h6m2 0h3m1 0h4m1 0h1m1 0h3m1 0h1m6 0h1m3 0h1m2 0h1m1 0h2m7 0h1m1 0h4M2 44.5h3m1 0h2m1 0h2m1 0h2m3 0h2m1 0h1m1 0h1m1 0h1m1 0h1m1 0h2m3 0h2m1 0h2m4 0h2m1 0h1m4 0h1m1 0h3m1 0h1m1 0h3m4 0h2m2 0h3m3 0h4m2 0h3m3 0h5m3 0h3m5 0h3m2 0h1m3 0h5m3 0h1M2 45.5h1m2 0h1m1 0h2m2 0h5m3 0h1m4 0h1m1 0h1m6 0h1m2 0h1m2 0h1m2 0h5m2 0h5m1 0h2m1 0h2m2 0h2m5 0h2m2 0h2m1 0h4m1 0h1m2 0h2m3 0h3m5 0h1m1 0h1m2 0h2m1 0h1m2 0h1m1 0h2m4 0h1m1 0h1m2 0h1m1 0h1M0 46.5h1m1 0h1m1 0h7m1 0h1m3 0h2m2 0h3m1 0h5m1 0h9m4 0h1m4 0h3m2 0h1m1 0h3m6 0h1m3 0h2m3 0h1m3 0h3m2 0h2m3 0h2m2 0h1m1 0h1m1 0h2m1 0h1m1 0h3m1 0h2m1 0h1m5 0h3m1 0h1m1 0h1m1 0h1m1 0h2M0 47.5h2m6 0h6m2 0h1m2 0h6m2 0h1m5 0h1m1 0h4m2 0h1m1 0h1m4 0h3m2 0h1m1 0h1m1 0h1m2 0h3m2 0h3m1 0h1m2 0h4m3 0h1m4 0h3m1 0h3m1 0h1m1 0h1m2 0h1m1 0h1m3 0h1m2 0h1m1 0h5m1 0h1m1 0h5m1 0h1m1 0h1M1 48.5h8m2 0h1m1 0h2m1 0h1m3 0h1m3 0h3m2 0h1m1 0h1m6 0h1m1 0h1m1 0h3m1 0h4m3 0h1m3 0h1m5 0h4m1 0h5m4 0h4m1 0h3m2 0h4m4 0h2m2 0h7m6 0h3m1 0h1m2 0h2m2 0h1M0 49.5h3m2 0h1m1 0h5m1 0h1m1 0h3m1 0h3m1 0h1m1 0h1m1 0h1m3 0h1m1 0h2m2 0h1m1 0h2m1 0h1m2 0h1m1 0h1m1 0h4m1 0h1m1 0h2m3 0h7m1 0h2m1 0h1m2 0h1m2 0h4m2 0h2m3 0h2m2 0h1m2 0h1m8 0h1m1 0h2m1 0h2m4 0h1m1 0h1m5 0h1M4 50.5h1m1 0h9m1 0h2m4 0h5m1 0h1m1 0h5m8 0h5m1 0h3m3 0h1m1 0h1m2 0h2m1 0h1m1 0h1m2 0h1m1 0h5m1 0h2m1 0h2m1 0h2m3 0h1m2 0h4m1 0h4m1 0h1m1 0h6m1 0h1m2 0h1m2 0h1m4 0h2M0 51.5h1m2 0h1m5 0h1m2 0h1m2 0h2m1 0h2m2 0h3m2 0h2m2 0h3m1 0h8m1 0h3m1 0h1m4 0h1m1 0h1m1 0h3m5 0h1m1 0h2m1 0h6m3 0h1m1 0h1m2 0h3m1 0h2m2 0h3m6 0h1m3 0h1m2 0h3m3 0h1m2 0h1m6 0h1M0 52.5h3m1 0h3m1 0h1m1 0h2m1 0h1m2 0h2m1 0h1m1 0h4m3 0h2m1 0h1m1 0h3m1 0h2m1 0h1m4 0h5m2 0h1m2 0h1m1 0h4m2 0h6m2 0h1m1 0h1m1 0h1m2 0h1m3 0h4m1 0h2m1 0h2m1 0h1m1 0h3m4 0h1m1 0h2m4 0h1m1 0h1m1 0h1m2 0h1m1 0h3m1 0h1M1 53.5h1m3 0h1m2 0h3m3 0h1m3 0h3m1 0h1m1 0h2m2 0h1m1 0h1m1 0h1m4 0h3m3 0h2m2 0h1m2 0h5m3 0h1m4 0h2m3 0h1m1 0h1m2 0h1m2 0h1m1 0h5m1 0h3m2 0h3m2 0h1m2 0h1m1 0h5m1 0h1m2 0h1m1 0h2m1 0h1m1 0h1m2 0h3M1 54.5h1m3 0h3m1 0h4m2 0h1m2 0h2m10 0h1m1 0h1m2 0h1m1 0h2m1 0h2m2 0h7m1 0h1m2 0h1m2 0h1m2 0h2m2 0h2m1 0h1m1 0h1m1 0h1m2 0h1m2 0h1m1 0h1m1 0h4m1 0h2m1 0h1m2 0h1m3 0h4m1 0h1m1 0h1m1 0h2m3 0h1m1 0h3m3 0h2m2 0h1M0 55.5h1m2 0h1m1 0h1m1 0h3m1 0h1m1 0h3m1 0h3m2 0h1m4 0h5m1 0h2m1 0h1m2 0h2m2 0h2m2 0h6m6 0h5m1 0h3m1 0h1m1 0h2m3 0h3m2 0h1m2 0h1m1 0h2m1 0h1m2 0h1m1 0h1m6 0h1m1 0h1m1 0h1m2 0h1m1 0h1m3 0h1m2 0h3m1 0h4M3 56.5h4m1 0h1m1 0h2m1 0h2m1 0h2m1 0h2m1 0h1m2 0h1m2 0h1m6 0h1m1 0h1m1 0h1m3 0h5m1 0h2m6 0h6m3 0h1m1 0h3m1 0h1m5 0h3m1 0h4m2 0h1m1 0h2m1 0h1m1 0h2m5 0h3m1 0h2m3 0h5m1 0h1m2 0h3M5 57.5h1m1 0h1m2 0h6m3 0h1m2 0h1m3 0h2m2 0h2m4 0h1m2 0h1m2 0h2m1 0h1m2 0h2m2 0h3m1 0h2m2 0h1m1 0h2m3 0h1m1 0h1m1 0h1m2 0h1m2 0h1m3 0h2m1 0h1m1 0h1m5 0h2m1 0h1m1 0h1m1 0h1m1 0h1m3 0h1m1 0h3m5 0h1m2 0h3m1 0h1m1 0h1M1 58.5h4m1 0h2m1 0h1m1 0h1m1 0h2m5 0h1m1 0h2m1 0h3m1 0h4m7 0h3m2 0h1m1 0h1m1 0h1m3 0h5m1 0h2m3 0h1m1 0h1m3 0h1m3 0h4m2 0h1m1 0h4m1 0h1m1 0h3m2 0h1m1 0h1m1 0h3m1 0h1m3 0h1m2 0h1m4 0h2m3 0h2m2 0h1M0 59.5h1m3 0h1m2 0h3m2 0h1m7 0h3m1 0h2m1 0h3m1 0h2m1 0h1m1 0h4m1 0h3m2 0h2m3 0h5m1 0h3m1 0h1m1 0h2m1 0h1m1 0h3m2 0h1m1 0h1m3 0h1m1 0h1m2 0h1m1 0h1m5 0h2m1 0h2m4 0h1m5 0h2m1 0h2m1 0h2m1 0h1m1 0h2m3 0h2M0 60.5h1m3 0h5m2 0h1m1 0h2m1 0h1m2 0h1m2 0h3m2 0h2m1 0h7m1 0h1m5 0h1m1 0h2m3 0h1m8 0h6m3 0h1m5 0h2m6 0h2m2 0h7m2 0h1m1 0h1m2 0h4m3 0h3m1 0h1m1 0h7m1 0h2M0 61.5h1m3 0h1m3 0h1m1 0h1m1 0h4m1 0h4m1 0h1m2 0h3m1 0h1m1 0h2m3 0h1m3 0h1m1 0h2m1 0h4m2 0h2m2 0h1m1 0h1m1 0h2m3 0h5m2 0h1m2 0h2m5 0h1m2 0h1m1 0h1m1 0h1m3 0h1m1 0h1m1 0h2m1 0h4m6 0h3m1 0h1m2 0h1m3 0h1m2 0h2M0 62.5h2m2 0h1m1 0h1m1 0h2m4 0h2m1 0h1m6 0h1m7 0h1m1 0h1m1 0h3m2 0h1m6 0h2m2 0h1m1 0h1m1 0h2m2 0h1m1 0h1m1 0h1m5 0h2m1 0h7m3 0h3m2 0h1m1 0h1m1 0h2m2 0h1m1 0h1m1 0h1m1 0h1m2 0h3m1 0h1m1 0h2m1 0h3m1 0h1m1 0h1M3 63.5h2m3 0h1m3 0h1m1 0h1m9 0h4m1 0h1m2 0h1m3 0h1m1 0h4m1 0h1m2 0h1m1 0h1m3 0h2m1 0h3m1 0h2m3 0h1m3 0h1m1 0h1m4 0h3m2 0h1m1 0h2m1 0h4m3 0h1m1 0h3m2 0h1m1 0h1m1 0h1m1 0h1m1 0h2m1 0h2m1 0h1m1 0h2m3 0h2m1 0h1M0 64.5h2m2 0h6m1 0h4m1 0h2m1 0h1m1 0h1m3 0h1m1 0h2m1 0h1m1 0h5m3 0h1m2 0h2m2 0h1m1 0h1m10 0h5m1 0h1m1 0h1m6 0h1m2 0h1m2 0h1m2 0h10m1 0h1m1 0h3m2 0h1m1 0h3m4 0h4m1 0h5m1 0h3M1 65.5h1m2 0h1m2 0h1m3 0h1m1 0h1m2 0h1m1 0h1m7 0h2m4 0h4m3 0h1m1 0h1m3 0h3m1 0h2m1 0h3m2 0h2m1 0h1m4 0h2m1 0h1m1 0h3m1 0h1m2 0h1m2 0h2m1 0h5m1 0h3m2 0h1m1 0h2m1 0h2m2 0h1m4 0h2m3 0h2m5 0h2m1 0h2M0 66.5h2m3 0h2m1 0h3m1 0h2m1 0h1m8 0h1m1 0h1m4 0h3m1 0h1m2 0h2m1 0h1m4 0h1m1 0h3m1 0h1m3 0h2m6 0h1m4 0h2m1 0h1m1 0h3m1 0h1m1 0h1m2 0h3m3 0h1m2 0h2m1 0h2m1 0h1m1 0h4m1 0h2m1 0h1m2 0h1m3 0h1m1 0h5M0 67.5h1m1 0h1m2 0h1m1 0h1m4 0h3m1 0h4m2 0h3m2 0h3m2 0h1m1 0h1m3 0h1m2 0h1m1 0h1m2 0h1m1 0h2m7 0h1m1 0h2m1 0h3m2 0h3m5 0h1m1 0h2m1 0h4m2 0h2m2 0h2m4 0h1m2 0h1m3 0h1m1 0h1m1 0h1m1 0h2m3 0h1m2 0h1m3 0h1M0 68.5h1m2 0h1m2 0h1m1 0h1m1 0h1m5 0h1m1 0h3m3 0h3m1 0h4m3 0h2m1 0h1m2 0h1m5 0h1m1 0h1m3 0h1m2 0h6m1 0h4m1 0h3m2 0h1m3 0h1m3 0h1m2 0h6m2 0h2m8 0h1m1 0h1m4 0h1m2 0h2m4 0h2m2 0h1M0 69.5h1m1 0h1m1 0h2m4 0h3m2 0h1m1 0h1m1 0h4m1 0h1m2 0h3m2 0h1m1 0h1m1 0h1m2 0h1m2 0h1m4 0h2m2 0h2m2 0h1m1 0h1m1 0h1m1 0h1m4 0h1m2 0h1m4 0h2m1 0h1m1 0h2m3 0h2m2 0h1m1 0h2m2 0h3m2 0h1m1 0h1m1 0h1m3 0h1m2 0h2m1 0h2m1 0h1m3 0h1m1 0h1m1 0h1M0 70.5h3m1 0h1m1 0h1m3 0h6m1 0h2m2 0h1m2 0h1m2 0h2m3 0h3m1 0h3m2 0h1m2 0h3m2 0h2m4 0h3m1 0h1m1 0h2m1 0h1m2 0h4m6 0h1m3 0h1m2 0h2m1 0h1m1 0h2m2 0h1m2 0h3m1 0h3m2 0h3m1 0h1m1 0h2m2 0h1m1 0h2m4 0h1M3 71.5h3m1 0h2m1 0h1m2 0h2m2 0h1m1 0h1m3 0h3m5 0h2m1 0h1m3 0h4m1 0h1m3 0h1m1 0h1m1 0h3m1 0h1m2 0h3m1 0h1m1 0h1m1 0h2m4 0h3m7 0h1m2 0h2m3 0h1m2 0h2m2 0h1m1 0h1m3 0h1m1 0h1m1 0h1m2 0h1m3 0h1m1 0h2m2 0h2m1 0h2M1 72.5h6m2 0h2m1 0h3m3 0h1m4 0h2m3 0h1m1 0h1m1 0h1m2 0h1m1 0h3m1 0h2m3 0h2m8 0h1m2 0h3m2 0h1m1 0h1m1 0h1m1 0h3m1 0h1m1 0h1m1 0h3m1 0h3m4 0h1m2 0h2m1 0h1m1 0h2m3 0h7m2 0h1m1 0h1m1 0h1m1 0h3m2 0h1M0 73.5h1m1 0h4m1 0h1m1 0h4m1 0h1m1 0h1m2 0h1m1 0h4m1 0h2m2 0h2m2 0h2m3 0h3m3 0h2m1 0h1m2 0h1m1 0h1m2 0h1m2 0h1m1 0h2m1 0h7m3 0h4m1 0h2m2 0h1m2 0h3m2 0h1m2 0h1m1 0h1m1 0h2m2 0h1m2 0h1m4 0h1m3 0h4m2 0h2m1 0h2M1 74.5h6m1 0h1m5 0h2m4 0h1m5 0h1m2 0h2m2 0h4m2 0h3m1 0h2m1 0h2m3 0h1m3 0h2m1 0h2m1 0h1m2 0h3m1 0h1m1 0h2m1 0h1m1 0h1m1 0h3m1 0h4m2 0h1m1 0h1m1 0h1m5 0h2m1 0h1m1 0h1m1 0h1m1 0h1m1 0h1m3 0h2m4 0h1m2 0h2M0 75.5h6m2 0h4m3 0h3m2 0h6m2 0h3m3 0h3m1 0h1m1 0h1m1 0h1m1 0h1m1 0h6m2 0h1m2 0h1m2 0h1m1 0h1m2 0h1m2 0h2m2 0h3m2 0h2m1 0h1m1 0h1m2 0h3m1 0h2m3 0h3m2 0h1m2 0h1m2 0h3m1 0h3m2 0h1m1 0h6m1 0h2M1 76.5h2m1 0h3m1 0h2m1 0h2m1 0h2m1 0h1m1 0h1m3 0h2m2 0h3m2 0h1m2 0h4m2 0h2m1 0h4m1 0h1m1 0h3m1 0h2m2 0h1m2 0h1m1 0h1m1 0h2m1 0h1m1 0h2m2 0h1m1 0h1m3 0h1m1 0h3m2 0h2m2 0h2m1 0h1m1 0h2m3 0h1m1 0h2m2 0h1m2 0h3m1 0h1m1 0h1m1 0h2m1 0h1M0 77.5h4m1 0h1m1 0h1m4 0h4m1 0h1m2 0h1m1 0h5m1 0h2m1 0h2m3 0h2m2 0h1m1 0h1m1 0h1m2 0h1m2 0h1m1 0h5m3 0h3m2 0h1m3 0h1m2 0h3m1 0h2m1 0h1m1 0h2m1 0h2m2 0h1m1 0h2m2 0h1m1 0h1m1 0h1m2 0h1m3 0h1m1 0h3m4 0h1m1 0h2m5 0h2M1 78.5h3m1 0h2m2 0h1m4 0h4m2 0h1m1 0h1m1 0h3m1 0h2m2 0h2m2 0h3m1 0h1m2 0h1m2 0h1m1 0h1m2 0h1m2 0h1m3 0h1m2 0h2m1 0h1m2 0h2m3 0h1m1 0h2m1 0h1m3 0h1m1 0h1m1 0h1m1 0h1m1 0h1m1 0h3m1 0h1m1 0h9m6 0h2m1 0h1m2 0h3m1 0h1M0 79.5h1m2 0h1m1 0h1m2 0h1m1 0h2m1 0h3m1 0h1m3 0h3m5 0h1m1 0h2m2 0h1m2 0h5m5 0h1m3 0h1m4 0h1m1 0h1m1 0h1m4 0h1m2 0h1m2 0h1m3 0h1m1 0h5m3 0h2m2 0h1m3 0h3m4 0h1m3 0h1m1 0h1m1 0h3m2 0h2m3 0h2m2 0h2M0 80.5h3m1 0h1m1 0h4m4 0h2m2 0h2m1 0h1m2 0h2m1 0h1m1 0h2m2 0h3m2 0h3m1 0h4m3 0h1m2 0h1m1 0h2m1 0h1m1 0h1m1 0h3m3 0h1m3 0h1m2 0h1m1 0h3m1 0h1m1 0h3m1 0h1m2 0h1m1 0h3m1 0h1m3 0h1m1 0h2m1 0h2m2 0h2m3 0h2m2 0h4m1 0h1M0 81.5h3m1 0h2m2 0h1m5 0h3m3 0h1m2 0h3m1 0h1m2 0h1m1 0h1m9 0h1m3 0h5m4 0h2m1 0h1m2 0h2m1 0h4m2 0h1m2 0h1m1 0h1m1 0h3m1 0h1m1 0h1m1 0h1m1 0h2m1 0h1m3 0h1m1 0h2m5 0h1m1 0h1m8 0h1m4 0h1m2 0h1M0 82.5h9m2 0h2m1 0h1m1 0h4m1 0h1m2 0h2m5 0h7m4 0h1m2 0h1m1 0h1m4 0h3m2 0h1m2 0h4m2 0h1m3 0h5m2 0h1m4 0h3m4 0h1m1 0h3m1 0h3m4 0h1m3 0h3m3 0h2m1 0h4m1 0h2M0 83.5h2m1 0h3m1 0h1m1 0h1m2 0h1m1 0h2m2 0h1m1 0h4m1 0h3m4 0h2m1 0h2m4 0h4m1 0h1m5 0h3m4 0h7m2 0h5m4 0h1m1 0h5m1 0h3m2 0h2m2 0h3m1 0h2m8 0h4m2 0h2m1 0h1m2 0h2m1 0h2M1 84.5h1m4 0h2m1 0h3m1 0h3m2 0h1m1 0h1m4 0h1m3 0h2m1 0h2m2 0h1m2 0h1m4 0h1m1 0h2m1 0h1m4 0h3m1 0h1m3 0h3m2 0h1m7 0h8m1 0h1m2 0h3m2 0h2m1 0h1m1 0h1m3 0h4m5 0h2m2 0h1m3 0h3m1 0h3M2 85.5h1m1 0h2m4 0h3m1 0h1m2 0h1m6 0h1m3 0h1m4 0h1m3 0h1m3 0h2m1 0h1m3 0h1m2 0h3m1 0h3m1 0h1m1 0h1m1 0h1m2 0h1m2 0h3m2 0h1m4 0h2m4 0h1m2 0h1m1 0h2m2 0h1m1 0h1m1 0h2m1 0h1m3 0h1m1 0h2m1 0h1m3 0h1m1 0h4m4 0h1M0 86.5h1m1 0h1m2 0h3m1 0h1m1 0h1m2 0h1m2 0h2m2 0h1m1 0h1m4 0h2m1 0h2m2 0h1m2 0h1m4 0h1m1 0h1m1 0h3m2 0h4m2 0h1m2 0h8m3 0h1m3 0h2m2 0h6m1 0h1m3 0h6m5 0h2m2 0h3m3 0h1m7 0h1m1 0h1M1 87.5h5m5 0h2m1 0h4m1 0h3m1 0h7m2 0h2m4 0h1m2 0h1m5 0h1m1 0h2m2 0h3m2 0h2m1 0h1m1 0h1m1 0h1m1 0h3m2 0h2m1 0h1m2 0h2m1 0h3m2 0h3m1 0h4m3 0h3m1 0h1m3 0h1m1 0h1m1 0h3m2 0h1m1 0h1m4 0h1M2 88.5h7m1 0h2m2 0h1m1 0h1m5 0h1m1 0h1m1 0h2m1 0h1m2 0h6m2 0h1m1 0h1m3 0h3m1 0h2m1 0h1m3 0h8m1 0h2m5 0h2m2 0h2m5 0h2m1 0h6m2 0h1m2 0h1m3 0h2m4 0h2m1 0h1m3 0h8M1 89.5h1m1 0h2m3 0h2m1 0h3m2 0h1m1 0h2m3 0h1m6 0h1m1 0h1m3 0h1m1 0h3m4 0h4m2 0h2m2 0h6m3 0h1m4 0h3m3 0h3m4 0h1m2 0h4m3 0h3m1 0h2m1 0h1m1 0h1m1 0h1m1 0h1m2 0h1m1 0h2m2 0h3m3 0h2m2 0h1M2 90.5h1m1 0h1m1 0h1m1 0h1m9 0h2m1 0h1m1 0h1m3 0h3m1 0h2m1 0h1m1 0h2m2 0h1m1 0h3m1 0h1m6 0h1m2 0h1m1 0h1m1 0h1m1 0h1m1 0h2m1 0h3m5 0h3m1 0h3m2 0h1m2 0h2m1 0h1m1 0h2m1 0h2m4 0h5m1 0h3m2 0h2m2 0h1m1 0h1m1 0h1M1 91.5h1m1 0h2m3 0h1m2 0h3m1 0h1m2 0h1m1 0h2m3 0h1m2 0h1m1 0h3m3 0h1m1 0h1m3 0h1m1 0h1m1 0h1m2 0h1m1 0h1m1 0h1m1 0h2m1 0h1m1 0h1m3 0h1m5 0h1m1 0h1m1 0h2m2 0h1m6 0h2m1 0h1m3 0h1m1 0h1m1 0h3m1 0h1m4 0h1m4 0h2m2 0h3m3 0h2M0 92.5h2m1 0h6m2 0h1m1 0h9m2 0h2m2 0h2m2 0h5m3 0h2m1 0h1m3 0h1m1 0h2m1 0h1m1 0h2m2 0h11m3 0h1m1 0h1m2 0h5m1 0h2m3 0h6m3 0h1m1 0h1m2 0h4m1 0h2m2 0h1m4 0h5m1 0h2M2 93.5h1m2 0h1m1 0h1m1 0h2m1 0h3m1 0h1m2 0h1m2 0h2m4 0h1m1 0h1m1 0h6m1 0h1m1 0h5m2 0h1m2 0h2m1 0h1m2 0h1m1 0h1m5 0h1m4 0h4m1 0h1m1 0h1m3 0h2m1 0h1m1 0h4m4 0h6m1 0h1m1 0h1m5 0h3m1 0h2m1 0h3m1 0h1m1 0h3M1 94.5h1m1 0h2m1 0h5m4 0h1m1 0h2m1 0h1m4 0h1m1 0h2m1 0h3m2 0h1m1 0h2m1 0h1m1 0h2m1 0h1m3 0h1m4 0h5m2 0h6m2 0h1m1 0h1m1 0h1m1 0h1m2 0h1m2 0h2m1 0h2m1 0h1m3 0h2m3 0h1m2 0h1m2 0h4m2 0h1m2 0h2m1 0h1m2 0h1m3 0h2M1 95.5h1m3 0h1m1 0h2m2 0h3m1 0h2m1 0h1m1 0h3m1 0h6m3 0h2m2 0h1m2 0h1m2 0h1m1 0h1m1 0h1m2 0h1m4 0h2m1 0h6m1 0h2m1 0h1m3 0h1m8 0h3m1 0h3m4 0h1m1 0h5m1 0h1m1 0h1m6 0h1m6 0h1m3 0h1m3 0h1M0 96.5h1m4 0h4m1 0h1m3 0h1m2 0h2m4 0h1m3 0h8m2 0h2m3 0h1m1 0h1m1 0h3m1 0h1m3 0h1m2 0h1m1 0h1m3 0h1m1 0h1m1 0h2m1 0h1m1 0h1m1 0h1m4 0h3m2 0h1m1 0h1m3 0h3m4 0h1m1 0h1m1 0h3m1 0h5m1 0h1m3 0h1m1 0h1m1 0h2m1 0h2M1 97.5h1m1 0h1m3 0h2m2 0h2m2 0h2m1 0h2m6 0h7m2 0h2m1 0h4m2 0h1m1 0h6m1 0h5m1 0h1m1 0h2m1 0h4m1 0h2m4 0h1m2 0h8m1 0h3m3 0h6m4 0h1m3 0h2m1 0h3m1 0h1m3 0h3m2 0h2M0 98.5h2m4 0h1m4 0h1m3 0h1m2 0h4m4 0h1m4 0h2m1 0h2m1 0h1m2 0h2m2 0h2m2 0h2m1 0h1m1 0h1m3 0h1m1 0h2m1 0h1m1 0h2m1 0h1m1 0h2m2 0h2m2 0h4m2 0h3m3 0h5m5 0h1m2 0h1m1 0h1m2 0h3m1 0h3m1 0h1m5 0h3M2 99.5h2m1 0h1m3 0h2m1 0h1m2 0h1m1 0h1m2 0h1m2 0h1m2 0h1m4 0h1m2 0h2m1 0h2m1 0h3m6 0h2m4 0h2m4 0h1m1 0h1m1 0h1m6 0h2m3 0h1m1 0h2m2 0h1m2 0h2m2 0h1m1 0h1m1 0h1m1 0h6m1 0h1m2 0h2m2 0h1m3 0h1m4 0h3m1 0h2M0 100.5h1m1 0h2m1 0h6m2 0h6m1 0h1m1 0h6m2 0h3m1 0h3m2 0h1m1 0h1m1 0h4m3 0h3m1 0h1m1 0h4m2 0h2m4 0h2m1 0h1m2 0h3m2 0h3m2 0h1m3 0h6m3 0h1m4 0h2m1 0h1m2 0h1m4 0h5m2 0h1m1 0h1M0 101.5h1m1 0h1m1 0h1m3 0h1m1 0h2m1 0h1m3 0h4m2 0h1m1 0h3m6 0h1m4 0h2m2 0h2m1 0h8m1 0h1m1 0h1m1 0h3m1 0h1m2 0h1m4 0h2m1 0h2m1 0h2m2 0h4m2 0h1m2 0h2m1 0h4m2 0h3m5 0h2m1 0h3m1 0h1m3 0h4m2 0h1M1 102.5h4m1 0h4m4 0h1m1 0h2m1 0h3m2 0h2m1 0h2m1 0h3m1 0h3m3 0h11m1 0h3m1 0h2m3 0h3m2 0h1m1 0h1m1 0h2m2 0h4m1 0h1m1 0h2m1 0h1m4 0h2m1 0h1m1 0h1m7 0h1m1 0h2m1 0h2m2 0h3m9 0h1M2 103.5h1m1 0h1m2 0h1m3 0h8m1 0h1m2 0h2m1 0h1m1 0h3m2 0h3m2 0h1m1 0h1m3 0h2m5 0h1m1 0h2m2 0h3m1 0h2m1 0h2m4 0h6m1 0h1m1 0h5m3 0h2m1 0h2m3 0h1m1 0h4m2 0h1m2 0h2m2 0h1m2 0h2m3 0h4m2 0h1M0 104.5h2m2 0h5m3 0h1m6 0h1m1 0h1m1 0h4m5 0h1m3 0h1m1 0h2m3 0h1m4 0h3m2 0h4m1 0h1m7 0h5m1 0h1m2 0h1m1 0h1m4 0h4m1 0h4m1 0h2m2 0h3m3 0h2m1 0h2m1 0h1m2 0h2m2 0h3m1 0h2m1 0h2M0 105.5h1m6 0h1m1 0h2m4 0h4m1 0h2m1 0h3m2 0h3m1 0h1m1 0h2m2 0h2m1 0h1m2 0h1m4 0h3m2 0h3m1 0h1m1 0h3m2 0h3m1 0h2m1 0h1m2 0h2m2 0h1m2 0h1m1 0h1m1 0h2m2 0h2m4 0h1m3 0h2m6 0h3m2 0h2m1 0h1m1 0h4m2 0h1M0 106.5h1m1 0h1m3 0h1m2 0h1m1 0h1m2 0h3m2 0h1m1 0h2m3 0h1m2 0h2m1 0h1m3 0h5m4 0h1m4 0h1m1 0h1m2 0h6m1 0h2m2 0h1m1 0h1m1 0h3m1 0h1m3 0h1m4 0h2m2 0h4m1 0h3m2 0h1m1 0h2m2 0h3m4 0h1m1 0h1m2 0h1m1 0h1m1 0h1m3 0h1M1 107.5h2m1 0h1m3 0h1m1 0h1m2 0h2m1 0h3m1 0h2m4 0h2m1 0h1m4 0h2m1 0h2m3 0h1m3 0h2m1 0h2m1 0h8m3 0h1m2 0h1m1 0h1m1 0h5m5 0h1m2 0h2m1 0h1m1 0h1m2 0h1m1 0h1m1 0h3m1 0h2m5 0h2m3 0h1m2 0h1m3 0h1m1 0h1M0 108.5h2m1 0h2m1 0h6m1 0h2m1 0h1m5 0h1m2 0h1m1 0h2m2 0h1m2 0h1m1 0h1m3 0h2m2 0h1m1 0h2m1 0h3m1 0h6m1 0h2m2 0h1m1 0h1m2 0h2m1 0h1m2 0h1m3 0h2m2 0h1m1 0h1m2 0h1m1 0h1m2 0h1m1 0h2m5 0h1m1 0h2m2 0h1m2 0h3m1 0h2m4 0h4M0 109.5h1m1 0h4m1 0h1m2 0h3m1 0h4m2 0h1m3 0h1m2 0h3m4 0h5m1 0h1m1 0h1m1 0h1m1 0h1m5 0h1m3 0h1m2 0h1m2 0h1m1 0h2m2 0h1m2 0h3m1 0h1m1 0h1m1 0h3m2 0h1m1 0h5m2 0h1m3 0h2m2 0h1m4 0h1m2 0h3m5 0h4m3 0h1M0 110.5h1m4 0h5m1 0h1m3 0h1m1 0h3m1 0h4m1 0h3m1 0h3m2 0h1m1 0h1m1 0h1m1 0h2m1 0h2m2 0h4m1 0h1m3 0h1m2 0h2m2 0h1m1 0h3m1 0h1m1 0h1m1 0h2m1 0h1m1 0h3m1 0h2m2 0h2m3 0h1m1 0h2m1 0h1m4 0h3m2 0h2m1 0h1m1 0h2m2 0h2m1 0h1m2 0h2M0 111.5h1m1 0h1m4 0h3m1 0h4m5 0h1m4 0h2m1 0h2m2 0h3m1 0h2m1 0h1m1 0h2m4 0h2m1 0h1m2 0h1m4 0h5m1 0h5m1 0h2m1 0h2m1 0h1m3 0h3m1 0h8m4 0h3m1 0h1m1 0h1m2 0h2m7 0h1m3 0h1m1 0h1m3 0h1M0 112.5h1m1 0h3m1 0h3m3 0h1m2 0h1m3 0h2m1 0h2m1 0h1m4 0h2m1 0h1m1 0h3m5 0h4m6 0h1m2 0h1m1 0h1m2 0h3m1 0h3m2 0h1m2 0h1m5 0h2m1 0h2m6 0h2m3 0h2m2 0h1m1 0h3m3 0h2m3 0h1m1 0h3m2 0h1m1 0h2M0 113.5h1m2 0h1m1 0h1m5 0h2m1 0h6m1 0h3m1 0h2m1 0h1m3 0h1m4 0h3m1 0h2m2 0h2m1 0h1m1 0h3m3 0h1m1 0h2m2 0h3m6 0h1m2 0h3m2 0h2m1 0h1m1 0h4m2 0h1m4 0h2m3 0h1m2 0h1m1 0h1m1 0h5m6 0h3m3 0h1M1 114.5h1m2 0h3m4 0h1m5 0h1m4 0h1m2 0h1m1 0h4m2 0h2m1 0h1m1 0h1m3 0h3m2 0h1m1 0h2m1 0h1m1 0h1m2 0h1m1 0h1m1 0h1m2 0h1m3 0h3m1 0h2m1 0h4m2 0h1m1 0h1m2 0h1m1 0h2m2 0h3m6 0h2m1 0h2m2 0h1m2 0h7m1 0h1m1 0h1m1 0h1M0 115.5h1m1 0h1m1 0h2m2 0h2m1 0h2m1 0h1m2 0h1m2 0h4m2 0h1m3 0h3m1 0h1m1 0h1m1 0h1m1 0h1m3 0h1m3 0h1m1 0h2m1 0h2m1 0h1m1 0h1m1 0h3m3 0h1m3 0h3m2 0h2m1 0h1m1 0h2m2 0h1m1 0h3m1 0h2m1 0h1m1 0h2m1 0h1m1 0h1m2 0h1m2 0h1m1 0h3m4 0h1m2 0h1m1 0h1M0 116.5h1m5 0h1m2 0h2m5 0h7m1 0h1m2 0h4m1 0h6m1 0h7m3 0h3m1 0h1m1 0h1m1 0h1m2 0h6m3 0h1m2 0h1m4 0h3m5 0h1m2 0h5m2 0h1m3 0h1m1 0h1m1 0h3m1 0h2m3 0h1m1 0h1m1 0h7M8 117.5h1m1 0h1m2 0h1m1 0h2m1 0h2m1 0h1m2 0h1m1 0h1m3 0h3m3 0h1m3 0h1m7 0h1m1 0h1m1 0h3m1 0h1m1 0h1m1 0h1m3 0h1m5 0h3m5 0h7m1 0h3m3 0h1m2 0h6m2 0h2m3 0h3m5 0h1m3 0h1m1 0h3M0 118.5h7m2 0h1m2 0h1m1 0h1m1 0h1m2 0h1m2 0h2m1 0h1m1 0h1m1 0h2m1 0h1m1 0h1m1 0h3m1 0h1m1 0h1m2 0h2m4 0h1m2 0h1m1 0h1m3 0h1m1 0h1m1 0h2m1 0h1m1 0h1m2 0h1m2 0h1m1 0h1m1 0h4m2 0h1m1 0h2m1 0h1m1 0h4m1 0h1m1 0h2m3 0h2m1 0h2m3 0h5m1 0h1m1 0h1M0 119.5h1m5 0h1m2 0h1m1 0h1m1 0h1m1 0h1m2 0h2m6 0h3m2 0h2m3 0h3m1 0h2m1 0h1m2 0h1m1 0h2m1 0h1m2 0h1m1 0h2m1 0h2m3 0h3m4 0h1m1 0h1m1 0h1m3 0h1m1 0h1m2 0h2m1 0h2m3 0h2m2 0h1m1 0h1m1 0h1m1 0h1m3 0h3m2 0h1m1 0h1m1 0h2m3 0h1m3 0h1M0 120.5h1m1 0h3m1 0h1m1 0h1m1 0h1m1 0h1m1 0h1m2 0h4m2 0h1m1 0h1m2 0h3m1 0h5m1 0h6m1 0h1m2 0h1m2 0h3m3 0h2m1 0h8m4 0h1m1 0h2m2 0h1m1 0h1m7 0h5m2 0h1m3 0h1m2 0h1m2 0h1m1 0h1m3 0h1m2 0h1m1 0h8M0 121.5h1m1 0h3m1 0h1m1 0h2m7 0h3m1 0h1m2 0h1m4 0h2m2 0h2m1 0h5m1 0h1m1 0h1m1 0h2m3 0h1m3 0h1m3 0h1m1 0h1m1 0h3m1 0h1m7 0h1m3 0h1m1 0h6m2 0h3m1 0h1m2 0h2m1 0h1m2 0h2m2 0h1m1 0h4m1 0h2m5 0h2m1 0h1M0 122.5h1m1 0h3m1 0h1m1 0h2m5 0h4m1 0h2m1 0h3m1 0h1m1 0h2m2 0h2m1 0h3m2 0h4m4 0h5m2 0h1m1 0h2m1 0h2m1 0h1m3 0h2m1 0h3m4 0h1m3 0h1m4 0h6m1 0h1m4 0h1m3 0h2m2 0h2m3 0h3m2 0h2m1 0h1m1 0h2M0 123.5h1m5 0h1m2 0h1m1 0h1m4 0h2m4 0h1m1 0h2m1 0h1m3 0h2m1 0h2m2 0h2m1 0h1m2 0h2m1 0h5m1 0h9m2 0h1m1 0h1m1 0h2m1 0h4m1 0h1m2 0h2m1 0h5m4 0h1m1 0h6m1 0h1m1 0h2m2 0h3m1 0h2m3 0h3m1 0h1m3 0h1M0 124.5h7m2 0h1m3 0h2m2 0h1m2 0h1m1 0h4m3 0h2m1 0h1m1 0h1m1 0h1m1 0h1m1 0h1m6 0h1m1 0h1m1 0h1m1 0h1m3 0h3m1 0h1m1 0h2m1 0h1m5 0h2m2 0h3m1 0h3m2 0h1m4 0h2m1 0h1m2 0h2m1 0h1m3 0h3m3 0h1m2 0h3m2 0h2m1 0h2"/></g><g transform="translate(600,100)"><path fill="#ffffff" d="M0 0h101v101H0z"/><path stroke="#111111" d="M4 4.5h7m2 0h2m2 0h4m2 0h1m2 0h3m4 0h3m1 0h1m1 0h2m3 0h2m1 0h3m1 0h3m3 0h1m2 0h1m1 0h1m3 0h2m4 0h3m3 0h1m1 0h1m4 0h1m1 0h1m2 0h7M4 5.5h1m5 0h1m3 0h2m1 0h1m2 0h1m1 0h1m1 0h1m1 0h1m2 0h4m1 0h6m1 0h3m1 0h2m1 0h1m5 0h1m3 0h5m1 0h2m1 0h1m2 0h2m1 0h3m1 0h1m1 0h4m2 0h1m1 0h2m1 0h1m5 0h1M4 6.5h1m1 0h3m1 0h1m1 0h3m1 0h1m1 0h4m4 0h2m8 0h3m4 0h5m1 0h2m1 0h2m2 0h1m1 0h1m1 0h1m1 0h2m2 0h1m1 0h1m1 0h3m1 0h1m1 0h3m4 0h3m2 0h1m1 0h1m1 0h3m1 0h1M4 7.5h1m1 0h3m1 0h1m1 0h1m3 0h2m2 0h1m1 0h1m2 0h1m2 0h3m2 0h2m1 0h3m12 0h2m4 0h1m1 0h1m1 0h1m1 0h2m1 0h2m1 0h2m2 0h4m2 0h2m3 0h1m2 0h1m2 0h1m1 0h3m1 0h1M4 8.5h1m1 0h3m1 0h1m1 0h1m1 0h3m2 0h2m1 0h1m1 0h2m2 0h1m3 0h6m1 0h1m4 0h1m1 0h2m4 0h1m5 0h7m6 0h1m1 0h2m1 0h2m4 0h1m3 0h2m2 0h1m1 0h3m1 0h1M4 9.5h1m5 0h1m1 0h1m1 0h1m4 0h1m1 0h4m2 0h1m2 0h1m1 0h1m3 0h1m2 0h1m2 0h2m1 0h1m1 0h2m4 0h3m1 0h1m2 0h1m3 0h2m1 0h3m3 0h4m2 0h1m1 0h1m2 0h2m1 0h1m2 0h1m5 0h1M4 10.5h7m1 0h1m1 0h1m1 0h1m1 0h1m1 0h1m1 0h1m1 0h1m1 0h1m1 0h1m1 0h1m1 0h1m1 0h1m1 0h1m1 0h1m1 0h1m1 0h1m1 0h1m1 0h1m1 0h1m1 0h1m1 0h1m1 0h1m1 0h1m1 0h1m1 0h1m1 0h1m1 0h1m1 0h1m1 0h1m1 0h1m1 0h1m1 0h1m1 0h1m1 0h1m1 0h1m1 0h1m1 0h1m1 0h1m1 0h1m1 0h7M12 11.5h1m1 0h1m2 0h2m2 0h1m1 0h1m4 0h1m2 0h2m3 0h4m1 0h1m3 0h1m1 0h1m2 0h1m1 0h1m2 0h4m1 0h1m3 0h3m3 0h1m1 0h1m4 0h2m1 0h4m1 0h1m1 0h2M4 12.5h1m1 0h5m2 0h1m1 0h2m1 0h1m3 0h1m1 0h1m2 0h1m3 0h8m3 0h2m3 0h1m1 0h1m2 0h3m5 0h5m2 0h1m2 0h1m2 0h3m2 0h4m3 0h2m3 0h5M7 13.5h1m5 0h6m2 0h2m1 0h5m1 0h2m2 0h2m2 0h2m1 0h1m3 0h1m3 0h4m1 0h1m1 0h1m1 0h2m7 0h2m1 0h5m3 0h1m4 0h3m7 0h1M8 14.5h1m1 0h2m7 0h1m1 0h1m1 0h2m2 0h3m1 0h2m3 0h1m5 0h2m2 0h3m3 0h1m4 0h1m2 0h4m1 0h1m1 0h5m1 0h1m1 0h1m2 0h4m7 0h1m1 0h2m2 0h2M4 15.5h1m1 0h3m2 0h2m1 0h2m2 0h1m2 0h1m2 0h3m1 0h2m2 0h1m1 0h2m1 0h1m1 0h3m2 0h1m1 0h1m2 0h2m3 0h1m1 0h1m1 0h1m2 0h1m3 0h2m2 0h1m2 0h2m3 0h1m2 0h1m1 0h1m3 0h2m2 0h2m2 0h2M4 16.5h1m3 0h1m1 0h1m2 0h3m3 0h1m1 0h2m1 0h1m1 0h1m1 0h1m1 0h1m3 0h3m2 0h3m1 0h1m1 0h5m1 0h2m2 0h1m1 0h8m2 0h1m1 0h1m3 0h4m2 0h2m1 0h1m1 0h2m2 0h2m1 0h1m1 0h4M4 17.5h1m1 0h3m5 0h1m6 0h2m1 0h1m3 0h5m2 0h1m2 0h3m2 0h2m1 0h1m4 0h2m1 0h1m2 0h2m3 0h1m1 0h2m4 0h1m1 0h2m2 0h2m2 0h1m4 0h2m1 0h1m3 0h1m3 0h1M7 18.5h6m1 0h2m1 0h1m2 0h2m1 0h2m1 0h3m2 0h2m3 0h3m1 0h3m2 0h1m2 0h2m1 0h3m1 0h1m5 0h1m1 0h2m1 0h2m1 0h5m1 0h2m4 0h1m1 0h1m2 0h2m1 0h1m2 0h1m1 0h1M4 19.5h2m2 0h2m1 0h2m3 0h1m1 0h1m1 0h3m1 0h1m1 0h1m2 0h1m4 0h2m1 0h1m1 0h1m1 0h3m1 0h2m4 0h1m1 0h2m3 0h2m1 0h3m1 0h4m1 0h1m1 0h2m1 0h1m1 0h1m2 0h1m1 0h1m2 0h4m1 0h2m1 0h1M6 20.5h3m1 0h1m1 0h6m1 0h1m1 0h1m2 0h1m1 0h3m1 0h3m1 0h1m1 0h2m2 0h2m1 0h2m1 0h3m1 0h1m1 0h1m1 0h2m1 0h1m2 0h2m2 0h1m1 0h1m2 0h2m1 0h1m6 0h3m1 0h1m4 0h1m4 0h3M4 21.5h1m4 0h1m1 0h1m4 0h1m1 0h1m2 0h4m1 0h1m2 0h2m1 0h2m3 0h1m2 0h1m2 0h2m1 0h2m2 0h1m1 0h2m4 0h1m1 0h1m1 0h1m2 0h1m2 0h1m1 0h1m2 0h1m2 0h2m1 0h1m2 0h1m2 0h1m4 0h1m4 0h2M4 22.5h1m2 0h2m1 0h3m2 0h3m1 0h2m1 0h2m2 0h2m1 0h1m1 0h2m1 0h1m1 0h3m5 0h2m1 0h2m2 0h2m2 0h1m1 0h1m6 0h1m1 0h1m1 0h2m1 0h1m2 0h3m1 0h2m1 0h3m5 0h1m1 0h4M4 23.5h2m1 0h1m1 0h1m2 0h1m2 0h1m1 0h1m1 0h6m4 0h4m8 0h3m1 0h2m2 0h1m3 0h2m1 0h3m2 0h2m2 0h2m5 0h2m1 0h1m1 0h1m2 0h2m3 0h6m3 0h1m1 0h1M5 24.5h1m3 0h9m1 0h4m2 0h2m2 0h2m2 0h6m2 0h1m4 0h1m1 0h1m1 0h4m1 0h1m1 0h1m1 0h1m2 0h7m7 0h1m1 0h2m3 0h2m3 0h5m1 0h1M5 25.5h1m5 0h2m3 0h1m1 0h2m2 0h1m1 0h1m1 0h1m4 0h1m1 0h1m2 0h5m1 0h2m2 0h2m3 0h2m2 0h5m1 0h2m2 0h1m4 0h1m2 0h1m2 0h2m1 0h1m2 0h1m1 0h2m2 0h1m2 0h1m1 0h1m2 0h1M5 26.5h2m1 0h5m1 0h1m5 0h2m2 0h3m1 0h1m1 0h2m1 0h1m2 0h5m3 0h1m2 0h4m2 0h1m1 0h1m4 0h1m1 0h1m1 0h1m2 0h5m3 0h2m3 0h1m1 0h3m1 0h1m2 0h2m1 0h1m1 0h2M4 27.5h2m3 0h1m2 0h1m1 0h1m2 0h2m2 0h1m1 0h2m1 0h1m1 0h4m4 0h1m5 0h2m2 0h2m1 0h1m3 0h2m2 0h2m2 0h2m1 0h1m1 0h4m2 0h1m1 0h5m2 0h2m3 0h3m2 0h1m4 0h1M6 28.5h1m3 0h1m10 0h2m4 0h2m5 0h4m1 0h3m1 0h1m1 0h1m1 0h1m3 0h2m4 0h2m1 0h1m5 0h3m1 0h1m1 0h2m5 0h2m1 0h4m3 0h2m3 0h1M6 29.5h2m1 0h1m2 0h1m2 0h3m1 0h1m2 0h2m6 0h1m1 0h4m1 0h1m2 0h1m1 0h1m1 0h3m2 0h1m1 0h1m6 0h2m1 0h2m4 0h2m4 0h1m1 0h3m2 0h1m3 0h3m1 0h2m1 0h1m4 0h1M7 30.5h5m1 0h1m1 0h3m1 0h1m3 0h1m1 0h4m1 0h2m1 0h2m4 0h1m3 0h2m3 0h1m2 0h3m1 0h4m4 0h1m4 0h2m1 0h1m2 0h1m4 0h1m3 0h1m2 0h2m2 0h1m2 0h3M6 31.5h1m1 0h1m5 0h2m1 0h2m2 0h1m1 0h7m1 0h1m2 0h2m2 0h6m1 0h4m2 0h1m2 0h1m2 0h1m3 0h1m2 0h2m1 0h4m2 0h1m1 0h1m2 0h5m2 0h1m1 0h1m3 0h1m4 0h1M4 32.5h2m1 0h6m2 0h1m1 0h1m3 0h1m2 0h1m1 0h2m1 0h2m1 0h5m2 0h3m3 0h2m3 0h1m1 0h1m5 0h7m3 0h1m3 0h1m3 0h2m2 0h2m1 0h3m2 0h8M4 33.5h1m1 0h1m1 0h1m3 0h1m1 0h3m1 0h4m4 0h1m2 0h2m1 0h1m3 0h1m1 0h1m1 0h4m2 0h2m1 0h1m1 0h1m2 0h1m2 0h4m3 0h2m1 0h2m1 0h1m2 0h4m2 0h1m2 0h1m1 0h2m2 0h1m3 0h2m1 0h2M6 34.5h1m1 0h1m1 0h1m1 0h1m4 0h1m1 0h3m3 0h1m3 0h4m1 0h1m1 0h1m1 0h1m4 0h3m4 0h1m1 0h2m1 0h2m1 0h1m1 0h1m1 0h1m1 0h1m1 0h1m4 0h2m1 0h1m3 0h1m1 0h1m1 0h3m2 0h2m1 0h1m1 0h1M7 35.5h2m3 0h4m2 0h3m5 0h3m1 0h3m3 0h2m1 0h1m2 0h1m5 0h2m2 0h1m1 0h1m5 0h1m3 0h2m1 0h1m1 0h3m1 0h1m1 0h2m2 0h3m2 0h3m1 0h1m3 0h1m1 0h3M4 36.5h3m1 0h5m2 0h4m1 0h1m3 0h1m1 0h4m2 0h5m2 0h1m4 0h1m1 0h2m1 0h3m2 0h2m1 0h8m7 0h1m6 0h1m2 0h4m2 0h5m1 0h2M4 37.5h1m1 0h1m2 0h1m1 0h1m3 0h1m1 0h1m1 0h1m4 0h1m2 0h1m2 0h1m2 0h3m1 0h1m4 0h1m2 0h2m1 0h2m3 0h1m1 0h1m2 0h1m1 0h1m3 0h1m1 0h2m2 0h1m1 0h2m2 0h1m1 0h1m1 0h2m2 0h4m1 0h2m2 0h4M4 38.5h1m1 0h1m2 0h2m2 0h2m1 0h1m1 0h1m4 0h6m4 0h2m1 0h3m1 0h2m2 0h4m2 0h2m1 0h1m1 0h1m2 0h1m2 0h2m3 0h1m3 0h1m1 0h1m2 0h4m3 0h2m7 0h6M6 39.5h3m2 0h4m1 0h1m1 0h1m5 0h1m3 0h2m2 0h4m2 0h1m1 0h4m1 0h1m1 0h2m2 0h1m2 0h2m3 0h1m4 0h1m2 0h1m1 0h3m1 0h4m2 0h1m1 0h2m1 0h1m1 0h3m2 0h1m1 0h2M4 40.5h4m2 0h2m12 0h5m2 0h2m2 0h5m1 0h1m1 0h1m3 0h1m1 0h2m1 0h1m2 0h1m2 0h4m1 0h2m3 0h1m4 0h1m2 0h1m3 0h2m1 0h3m2 0h2m2 0h1M8 41.5h1m4 0h2m1 0h3m2 0h3m2 0h2m3 0h1m1 0h3m2 0h1m2 0h1m5 0h2m2 0h2m4 0h1m2 0h2m1 0h1m2 0h9m1 0h1m1 0h3m1 0h1m1 0h1m4 0h3m3 0h2M5 42.5h1m3 0h11m1 0h1m2 0h1m1 0h4m1 0h1m4 0h2m1 0h1m1 0h1m1 0h2m1 0h1m2 0h2m1 0h5m1 0h1m1 0h1m1 0h2m1 0h1m4 0h1m3 0h5m1 0h1m1 0h4m1 0h1m3 0h4M11 43.5h1m1 0h2m5 0h1m2 0h1m2 0h1m5 0h1m1 0h1m2 0h1m1 0h1m2 0h2m1 0h1m1 0h3m1 0h5m1 0h1m2 0h1m1 0h3m1 0h6m1 0h1m1 0h1m2 0h2m1 0h3m2 0h1m1 0h1m2 0h1m1 0h3M4 44.5h1m4 0h3m3 0h2m2 0h1m3 0h6m1 0h1m1 0h1m4 0h1m2 0h1m2 0h2m1 0h1m2 0h2m1 0h1m1 0h6m1 0h2m4 0h2m1 0h1m1 0h1m3 0h1m2 0h2m3 0h6m1 0h3m1 0h1M4 45.5h1m1 0h3m3 0h1m3 0h1m1 0h2m2 0h2m1 0h2m3 0h1m7 0h1m3 0h1m2 0h1m1 0h1m1 0h1m1 0h4m2 0h2m3 0h1m1 0h1m1 0h6m1 0h3m2 0h3m1 0h1m1 0h1m1 0h1m2 0h2m2 0h2M4 46.5h4m2 0h1m1 0h1m2 0h1m2 0h1m1 0h1m1 0h1m2 0h1m3 0h1m1 0h1m1 0h1m3 0h2m1 0h1m2 0h2m1 0h1m3 0h2m3 0h2m2 0h1m1 0h2m1 0h1m3 0h1m2 0h1m4 0h3m1 0h1m3 0h3m3 0h1m1 0h3m1 0h1M4 47.5h6m1 0h3m1 0h1m1 0h2m1 0h1m2 0h1m2 0h1m2 0h2m2 0h2m1 0h1m1 0h1m1 0h2m1 0h3m2 0h2m1 0h2m1 0h2m1 0h1m2 0h1m2 0h1m2 0h7m1 0h1m1 0h1m2 0h1m2 0h2m2 0h3m1 0h2m1 0h3M4 48.5h1m1 0h2m1 0h3m1 0h6m2 0h2m2 0h1m1 0h1m2 0h3m1 0h1m1 0h2m2 0h1m1 0h1m3 0h2m1 0h2m1 0h1m2 0h1m3 0h1m3 0h2m1 0h2m4 0h2m1 0h1m1 0h2m5 0h3m1 0h2m5 0h2M4 49.5h3m2 0h1m1 0h1m1 0h1m2 0h1m1 0h1m2 0h1m2 0h3m1 0h2m1 0h1m1 0h3m2 0h1m4 0h2m1 0h1m1 0h2m6 0h1m1 0h1m1 0h3m1 0h1m1 0h1m1 0h1m2 0h2m3 0h1m2 0h2m1 0h1m4 0h4m2 0h3M5 50.5h2m1 0h8m2 0h3m1 0h1m1 0h1m1 0h1m2 0h2m8 0h1m1 0h2m3 0h1m3 0h2m1 0h4m1 0h1m2 0h1m1 0h1m1 0h1m2 0h1m2 0h3m2 0h3m3 0h4m1 0h1m4 0h1m2 0h1M4 51.5h1m3 0h2m1 0h2m1 0h1m3 0h1m1 0h1m3 0h3m4 0h3m4 0h1m1 0h3m1 0h1m2 0h1m1 0h1m2 0h2m1 0h1m5 0h1m3 0h2m2 0h3m2 0h1m2 0h1m1 0h1m2 0h1m1 0h1m1 0h4m1 0h1m2 0h2M4 52.5h1m1 0h1m2 0h5m2 0h1m5 0h2m3 0h2m2 0h5m1 0h1m4 0h2m1 0h2m2 0h1m4 0h1m1 0h6m1 0h2m2 0h1m1 0h1m4 0h3m2 0h2m4 0h3m3 0h2m2 0h2M4 53.5h1m3 0h2m1 0h1m1 0h1m3 0h1m4 0h3m1 0h2m1 0h1m2 0h3m1 0h2m1 0h4m3 0h2m1 0h1m1 0h2m4 0h2m2 0h1m2 0h1m5 0h4m2 0h1m2 0h1m2 0h5m1 0h1m1 0h2m1 0h1M5 54.5h2m2 0h2m2 0h3m1 0h1m3 0h4m1 0h3m2 0h1m2 0h3m1 0h2m3 0h1m2 0h1m2 0h2m2 0h6m1 0h1m3 0h2m1 0h1m2 0h1m1 0h2m1 0h4m1 0h7m5 0h4M5 55.5h1m1 0h1m1 0h1m1 0h3m1 0h2m1 0h1m4 0h1m1 0h1m1 0h1m4 0h3m3 0h3m3 0h1m3 0h1m1 0h3m2 0h4m3 0h2m2 0h1m1 0h1m1 0h3m3 0h1m2 0h3m1 0h2m2 0h5m1 0h2M6 56.5h3m1 0h4m2 0h3m1 0h1m2 0h1m2 0h4m1 0h1m1 0h1m1 0h1m1 0h2m1 0h2m1 0h1m2 0h2m1 0h1m2 0h1m1 0h1m4 0h2m1 0h2m1 0h1m1 0h1m1 0h2m2 0h2m4 0h2m3 0h2m1 0h1m3 0h1m1 0h1m2 0h1M5 57.5h1m2 0h1m3 0h2m2 0h1m1 0h1m3 0h5m1 0h1m3 0h7m2 0h1m1 0h3m3 0h5m1 0h2m1 0h1m4 0h2m1 0h3m1 0h2m4 0h1m1 0h3m1 0h2m3 0h2m6 0h1M6 58.5h8m4 0h1m1 0h3m2 0h1m1 0h1m2 0h2m3 0h3m4 0h1m3 0h1m2 0h1m1 0h1m1 0h3m1 0h1m3 0h2m2 0h3m1 0h2m1 0h6m2 0h1m4 0h3m1 0h1m2 0h4M7 59.5h1m1 0h1m2 0h2m2 0h1m1 0h1m1 0h1m3 0h4m2 0h6m4 0h2m2 0h2m1 0h1m1 0h5m1 0h2m1 0h1m1 0h2m2 0h1m1 0h1m1 0h2m1 0h2m1 0h1m3 0h1m4 0h2m1 0h4m1 0h1m2 0h1M4 60.5h1m2 0h9m2 0h1m1 0h4m3 0h2m3 0h6m1 0h2m1 0h2m1 0h5m2 0h1m1 0h1m2 0h9m1 0h1m1 0h1m3 0h1m3 0h1m1 0h1m1 0h1m2 0h1m1 0h1m1 0h6m1 0h2M4 61.5h1m3 0h1m3 0h2m2 0h1m1 0h2m1 0h1m1 0h1m3 0h1m1 0h2m1 0h1m3 0h1m1 0h4m1 0h1m2 0h3m1 0h1m1 0h2m4 0h1m1 0h1m3 0h1m2 0h1m1 0h3m1 0h2m3 0h1m5 0h2m1 0h2m3 0h1m1 0h2M6 62.5h1m1 0h1m1 0h1m1 0h2m4 0h1m1 0h6m3 0h1m2 0h1m1 0h1m1 0h2m1 0h1m2 0h1m3 0h1m1 0h2m1 0h1m2 0h2m1 0h2m1 0h1m1 0h1m1 0h2m7 0h1m1 0h5m1 0h2m2 0h1m2 0h1m1 0h1m1 0h1m2 0h1M4 63.5h2m2 0h1m3 0h12m1 0h2m3 0h3m3 0h1m1 0h3m3 0h1m4 0h5m1 0h4m1 0h1m3 0h1m1 0h1m2 0h4m3 0h2m2 0h1m2 0h2m3 0h1m3 0h1m1 0h2M6 64.5h8m1 0h1m1 0h3m3 0h1m1 0h2m2 0h1m1 0h7m1 0h1m2 0h2m2 0h2m4 0h3m2 0h2m1 0h5m2 0h1m2 0h1m2 0h2m4 0h1m2 0h1m2 0h8m3 0h1M6 65.5h1m2 0h1m2 0h6m1 0h4m5 0h1m1 0h5m1 0h1m3 0h1m2 0h1m2 0h1m9 0h1m1 0h2m2 0h1m1 0h1m1 0h1m3 0h4m1 0h6m3 0h2m1 0h2m1 0h4M6 66.5h1m1 0h1m1 0h2m2 0h1m3 0h1m1 0h1m3 0h1m1 0h4m1 0h1m4 0h1m1 0h2m2 0h1m2 0h1m1 0h3m3 0h2m1 0h2m1 0h1m1 0h3m1 0h1m2 0h2m1 0h1m1 0h4m2 0h3m3 0h1m2 0h1m2 0h1m2 0h1M7 67.5h2m3 0h3m3 0h1m1 0h2m2 0h1m2 0h3m1 0h1m1 0h1m1 0h1m1 0h1m1 0h3m1 0h1m2 0h1m2 0h2m5 0h3m5 0h3m3 0h1m1 0h1m3 0h3m1 0h6m3 0h4m2 0h1M4 68.5h2m3 0h2m2 0h2m1 0h3m1 0h1m2 0h1m1 0h2m1 0h2m7 0h1m1 0h2m3 0h4m4 0h4m1 0h1m1 0h1m2 0h1m4 0h1m2 0h1m1 0h3m3 0h3m1 0h1m3 0h1m2 0h1m1 0h4m1 0h1M4 69.5h1m3 0h2m2 0h1m1 0h1m2 0h1m5 0h2m1 0h2m1 0h1m5 0h1m1 0h2m2 0h1m1 0h2m1 0h1m9 0h3m2 0h1m6 0h1m7 0h4m2 0h5m2 0h3M7 70.5h1m2 0h1m1 0h1m2 0h4m4 0h3m9 0h3m1 0h1m2 0h1m1 0h3m1 0h1m2 0h1m3 0h1m4 0h2m1 0h3m1 0h3m1 0h1m1 0h1m1 0h1m2 0h4m2 0h1m4 0h1m1 0h1m2 0h1M6 71.5h4m3 0h1m3 0h3m3 0h1m1 0h1m2 0h2m3 0h2m5 0h1m3 0h1m2 0h1m2 0h2m1 0h5m1 0h1m5 0h2m3 0h1m1 0h3m1 0h5m1 0h1m2 0h2m2 0h2m1 0h3M7 72.5h1m1 0h4m1 0h1m1 0h6m2 0h3m3 0h1m4 0h1m3 0h2m1 0h2m1 0h2m1 0h2m2 0h1m5 0h1m1 0h3m4 0h4m2 0h1m1 0h1m3 0h1m1 0h2m4 0h2m2 0h2m1 0h3M4 73.5h2m2 0h2m2 0h1m5 0h3m2 0h4m2 0h1m2 0h1m8 0h1m1 0h1m2 0h2m1 0h7m1 0h3m5 0h1m1 0h1m2 0h4m2 0h2m1 0h2m3 0h3m1 0h3m4 0h2M4 74.5h2m1 0h1m2 0h1m2 0h1m1 0h2m1 0h1m2 0h2m1 0h1m1 0h1m1 0h1m1 0h4m1 0h1m1 0h1m1 0h1m2 0h1m2 0h1m1 0h3m2 0h2m1 0h1m1 0h3m1 0h3m2 0h7m2 0h1m4 0h5m1 0h2m3 0h4M5 75.5h2m4 0h3m4 0h1m1 0h3m1 0h1m1 0h1m1 0h2m1 0h2m1 0h2m1 0h1m3 0h3m6 0h1m2 0h3m4 0h1m1 0h1m1 0h2m1 0h1m5 0h1m1 0h3m3 0h1m2 0h3m3 0h1m3 0h2M4 76.5h1m1 0h6m2 0h1m1 0h3m2 0h1m3 0h2m1 0h4m4 0h1m1 0h3m2 0h4m1 0h2m1 0h2m3 0h1m1 0h1m3 0h3m2 0h4m7 0h2m1 0h2m4 0h3m2 0h1m1 0h2M4 77.5h5m3 0h3m5 0h2m2 0h1m1 0h2m1 0h5m2 0h1m4 0h1m1 0h1m1 0h3m1 0h3m1 0h4m1 0h1m1 0h1m6 0h1m4 0h5m5 0h5m1 0h1m1 0h1m2 0h1m2 0h1M6 78.5h1m3 0h1m4 0h2m2 0h1m2 0h4m1 0h1m1 0h4m1 0h7m2 0h2m2 0h2m3 0h1m3 0h2m1 0h1m1 0h1m1 0h2m1 0h2m1 0h1m1 0h2m5 0h2m1 0h3m2 0h2m5 0h3M5 79.5h2m4 0h1m1 0h2m1 0h4m2 0h1m1 0h6m1 0h3m2 0h2m3 0h3m1 0h1m3 0h1m4 0h5m5 0h2m2 0h1m1 0h1m4 0h3m2 0h2m6 0h2m3 0h4M4 80.5h4m1 0h2m1 0h1m2 0h2m1 0h1m5 0h1m5 0h1m3 0h2m2 0h4m1 0h1m3 0h1m1 0h4m4 0h3m1 0h2m1 0h1m2 0h3m6 0h1m2 0h3m1 0h1m1 0h1m1 0h3m1 0h2m1 0h1M4 81.5h1m4 0h1m1 0h1m1 0h3m1 0h3m1 0h4m1 0h3m4 0h1m4 0h1m2 0h1m1 0h1m1 0h3m1 0h1m2 0h1m1 0h1m3 0h6m1 0h3m3 0h1m1 0h1m2 0h3m1 0h1m1 0h1m2 0h2m2 0h3m1 0h1m2 0h1M4 82.5h4m2 0h1m1 0h1m1 0h1m1 0h1m12 0h1m1 0h1m2 0h1m1 0h3m1 0h1m3 0h2m1 0h2m1 0h3m2 0h1m1 0h1m3 0h4m2 0h1m1 0h1m1 0h2m7 0h1m2 0h1m2 0h1m1 0h2m1 0h4M6 83.5h1m1 0h1m6 0h1m2 0h2m2 0h1m4 0h1m3 0h5m1 0h7m2 0h2m2 0h2m2 0h1m3 0h1m5 0h1m2 0h1m2 0h1m1 0h2m1 0h1m1 0h2m2 0h2m3 0h1m1 0h1m1 0h2m1 0h2M4 84.5h1m2 0h2m1 0h2m1 0h4m5 0h1m1 0h1m1 0h1m1 0h1m2 0h2m1 0h1m2 0h2m1 0h2m1 0h2m2 0h1m1 0h2m1 0h1m3 0h1m1 0h1m2 0h3m1 0h1m2 0h2m3 0h1m5 0h2m5 0h3m3 0h1m1 0h3M4 85.5h1m2 0h1m1 0h1m1 0h6m3 0h2m2 0h4m3 0h1m4 0h1m2 0h5m2 0h2m2 0h2m1 0h3m2 0h3m1 0h1m1 0h1m1 0h3m1 0h1m1 0h3m2 0h1m1 0h1m1 0h1m1 0h4m2 0h3m3 0h2M8 86.5h1m1 0h1m1 0h1m3 0h2m1 0h2m3 0h1m1 0h1m3 0h1m1 0h1m4 0h2m1 0h1m2 0h3m2 0h2m1 0h3m1 0h2m1 0h2m1 0h1m3 0h2m2 0h4m1 0h1m4 0h2m2 0h1m2 0h1m1 0h1m5 0h1M4 87.5h2m1 0h3m1 0h1m1 0h2m6 0h2m4 0h4m2 0h1m3 0h2m2 0h2m2 0h2m1 0h3m3 0h1m4 0h2m1 0h8m2 0h1m2 0h1m1 0h2m2 0h1m2 0h2m2 0h3m2 0h2m1 0h1M5 88.5h2m3 0h2m1 0h2m2 0h1m3 0h1m1 0h1m1 0h1m1 0h15m1 0h2m1 0h2m3 0h3m1 0h1m2 0h7m1 0h3m3 0h2m3 0h1m4 0h2m3 0h9M12 89.5h1m4 0h2m2 0h2m1 0h1m3 0h1m1 0h3m3 0h1m2 0h1m2 0h1m3 0h4m1 0h3m1 0h1m4 0h1m3 0h1m2 0h2m4 0h2m2 0h2m2 0h1m3 0h1m2 0h1m3 0h2m1 0h2M4 90.5h7m4 0h1m1 0h1m4 0h1m3 0h1m2 0h1m1 0h2m1 0h1m1 0h2m2 0h1m3 0h2m4 0h1m1 0h1m3 0h1m1 0h3m1 0h1m1 0h1m1 0h1m1 0h1m1 0h3m1 0h1m4 0h1m2 0h2m4 0h1m1 0h1m1 0h3M4 91.5h1m5 0h1m1 0h1m1 0h3m2 0h1m1 0h1m2 0h2m1 0h2m1 0h3m3 0h1m1 0h6m3 0h3m1 0h5m1 0h1m1 0h2m3 0h8m3 0h2m1 0h5m1 0h5m3 0h2m1 0h1M4 92.5h1m1 0h3m1 0h1m1 0h1m2 0h1m1 0h4m2 0h1m2 0h2m1 0h8m1 0h1m1 0h1m4 0h2m2 0h1m2 0h1m2 0h1m2 0h1m1 0h5m14 0h1m3 0h1m4 0h7M4 93.5h1m1 0h3m1 0h1m1 0h2m1 0h1m1 0h1m1 0h1m1 0h6m1 0h1m3 0h1m1 0h3m3 0h4m5 0h1m1 0h2m4 0h1m5 0h1m1 0h1m1 0h4m1 0h2m2 0h1m1 0h5m2 0h1m2 0h2m1 0h4M4 94.5h1m1 0h3m1 0h1m1 0h1m1 0h1m1 0h2m2 0h3m1 0h1m1 0h1m1 0h2m5 0h3m1 0h1m1 0h1m2 0h3m3 0h1m1 0h2m3 0h2m2 0h1m1 0h2m7 0h3m1 0h2m4 0h2m3 0h1m2 0h2m1 0h2M4 95.5h1m5 0h1m2 0h1m1 0h1m1 0h2m1 0h1m1 0h6m2 0h1m1 0h1m1 0h2m4 0h1m1 0h1m2 0h1m2 0h2m1 0h1m1 0h1m3 0h1m2 0h2m1 0h1m2 0h6m1 0h3m2 0h2m1 0h2m3 0h1m1 0h3m1 0h1m1 0h1M4 96.5h7m1 0h1m1 0h1m2 0h4m3 0h1m1 0h1m2 0h1m1 0h1m2 0h2m7 0h1m3 0h1m4 0h11m2 0h4m3 0h2m3 0h1m1 0h1m3 0h3m1 0h1m3 0h3m1 0h1"/></g></svg>